<?xml version="1.0" encoding="UTF-8"?><svg xmlns="http://www.w3.org/2000/svg" viewBox="0 0 1200 1200.76"><g style="isolation:isolate;"><g id="Layer_1"><path d="M1183.64,643.58c-164.43,196.01-344.59,376.28-540.46,540.82-23.7,19.81-62.66,19.81-86.36,0-163.5-137.34-316.03-285.64-457.61-444.9h-.01c-28.06-31.56-55.68-63.53-82.86-95.92-19.8-23.7-19.8-62.7,0-86.4C180.79,361.17,360.94,180.91,556.82,16.36c23.69-19.81,62.66-19.81,86.36,0,138.66,116.49,269.45,240.85,392.35,373.1h0c50.73,54.57,100.09,110.47,148.11,167.72,19.81,23.7,19.81,62.7,0,86.4Z" style="fill:#ffc3b3; stroke:#223656; stroke-miterlimit:10; stroke-width:3px;"/><path d="M601.42,49.59c-43.52-6.83-87.92,58-80.48,68.43,3.43,4.81,14.2-4.26,49.08-6.57,27.68-1.83,37.44,2.81,48.86-5.52,9.6-6.99,17.17-20.8,13.92-33.19-3.78-14.4-20.77-21.49-31.39-23.16Z" style="fill:#fff;"/><ellipse cx="504.4" cy="151.56" rx="22.64" ry="14.09" transform="translate(152.68 543.58) rotate(-64.83)" style="fill:#fff;"/><g style="mix-blend-mode:soft-light; opacity:.3;"><path d="M1183.64,643.58c-164.43,196.01-344.59,376.28-540.46,540.82-23.7,19.81-62.66,19.81-86.36,0-163.5-137.34-316.03-285.64-457.61-444.9,2.76,2.24,433.17,341.79,671.7,176.85,307.03-212.31,264.32-524.39,264.61-526.88,50.73,54.56,100.09,110.46,148.11,167.7,19.81,23.7,19.81,62.7,0,86.4Z"/></g></g></g></svg>