<?xml version="1.0" encoding="UTF-8"?><svg xmlns="http://www.w3.org/2000/svg" xmlns:xlink="http://www.w3.org/1999/xlink" viewBox="0 0 854.54 853.79"><defs><pattern id="Ed_-_Line_002" x="0" y="0" width="252" height="252" patternTransform="translate(-1317.61 -602.04)" patternUnits="userSpaceOnUse" viewBox="0 0 252 252"><rect width="252" height="252" style="fill:none;"/><line x1="124.21" y1="249.79" x2="254.21" y2="379.79" style="stroke:#000; stroke-miterlimit:10; stroke-width:5px;"/><line x1="-127.79" y1="249.79" x2="2.21" y2="379.79" style="stroke:#000; stroke-miterlimit:10; stroke-width:5px;"/><line x1="123.79" y1="250.21" x2="253.79" y2="380.21" style="stroke:#000; stroke-miterlimit:10; stroke-width:5px;"/><line x1="132.22" y1="241.78" x2="262.22" y2="371.78" style="stroke:#000; stroke-miterlimit:10; stroke-width:5px;"/><line x1="140.65" y1="233.35" x2="270.65" y2="363.35" style="stroke:#000; stroke-miterlimit:10; stroke-width:5px;"/><line x1="149.08" y1="224.92" x2="279.08" y2="354.92" style="stroke:#000; stroke-miterlimit:10; stroke-width:5px;"/><line x1="157.5" y1="216.5" x2="287.5" y2="346.5" style="stroke:#000; stroke-miterlimit:10; stroke-width:5px;"/><line x1="165.93" y1="208.07" x2="295.93" y2="338.07" style="stroke:#000; stroke-miterlimit:10; stroke-width:5px;"/><line x1="174.36" y1="199.64" x2="304.36" y2="329.64" style="stroke:#000; stroke-miterlimit:10; stroke-width:5px;"/><line x1="182.79" y1="191.21" x2="312.79" y2="321.21" style="stroke:#000; stroke-miterlimit:10; stroke-width:5px;"/><line x1="191.21" y1="182.79" x2="321.21" y2="312.79" style="stroke:#000; stroke-miterlimit:10; stroke-width:5px;"/><line x1="199.64" y1="174.36" x2="329.64" y2="304.36" style="stroke:#000; stroke-miterlimit:10; stroke-width:5px;"/><line x1="208.07" y1="165.93" x2="338.07" y2="295.93" style="stroke:#000; stroke-miterlimit:10; stroke-width:5px;"/><line x1="216.5" y1="157.5" x2="346.5" y2="287.5" style="stroke:#000; stroke-miterlimit:10; stroke-width:5px;"/><line x1="224.92" y1="149.08" x2="354.92" y2="279.08" style="stroke:#000; stroke-miterlimit:10; stroke-width:5px;"/><line x1="233.35" y1="140.65" x2="363.35" y2="270.65" style="stroke:#000; stroke-miterlimit:10; stroke-width:5px;"/><line x1="241.78" y1="132.22" x2="371.78" y2="262.22" style="stroke:#000; stroke-miterlimit:10; stroke-width:5px;"/><line x1="250.21" y1="123.79" x2="380.21" y2="253.79" style="stroke:#000; stroke-miterlimit:10; stroke-width:5px;"/><line x1="-128.21" y1="250.21" x2="1.79" y2="380.21" style="stroke:#000; stroke-miterlimit:10; stroke-width:5px;"/><line x1="-119.78" y1="241.78" x2="10.22" y2="371.78" style="stroke:#000; stroke-miterlimit:10; stroke-width:5px;"/><line x1="-111.35" y1="233.35" x2="18.65" y2="363.35" style="stroke:#000; stroke-miterlimit:10; stroke-width:5px;"/><line x1="-102.92" y1="224.92" x2="27.08" y2="354.92" style="stroke:#000; stroke-miterlimit:10; stroke-width:5px;"/><line x1="-94.5" y1="216.5" x2="35.5" y2="346.5" style="stroke:#000; stroke-miterlimit:10; stroke-width:5px;"/><line x1="-86.07" y1="208.07" x2="43.93" y2="338.07" style="stroke:#000; stroke-miterlimit:10; stroke-width:5px;"/><line x1="-77.64" y1="199.64" x2="52.36" y2="329.64" style="stroke:#000; stroke-miterlimit:10; stroke-width:5px;"/><line x1="-69.21" y1="191.21" x2="60.79" y2="321.21" style="stroke:#000; stroke-miterlimit:10; stroke-width:5px;"/><line x1="-60.79" y1="182.79" x2="69.21" y2="312.79" style="stroke:#000; stroke-miterlimit:10; stroke-width:5px;"/><line x1="-52.36" y1="174.36" x2="77.64" y2="304.36" style="stroke:#000; stroke-miterlimit:10; stroke-width:5px;"/><line x1="-43.93" y1="165.93" x2="86.07" y2="295.93" style="stroke:#000; stroke-miterlimit:10; stroke-width:5px;"/><line x1="-35.5" y1="157.5" x2="94.5" y2="287.5" style="stroke:#000; stroke-miterlimit:10; stroke-width:5px;"/><line x1="-27.08" y1="149.08" x2="102.92" y2="279.08" style="stroke:#000; stroke-miterlimit:10; stroke-width:5px;"/><line x1="-18.65" y1="140.65" x2="111.35" y2="270.65" style="stroke:#000; stroke-miterlimit:10; stroke-width:5px;"/><line x1="-10.22" y1="132.22" x2="119.78" y2="262.22" style="stroke:#000; stroke-miterlimit:10; stroke-width:5px;"/><line x1="-1.79" y1="123.79" x2="128.21" y2="253.79" style="stroke:#000; stroke-miterlimit:10; stroke-width:5px;"/><line x1="249.79" y1="124.21" x2="379.79" y2="254.21" style="stroke:#000; stroke-miterlimit:10; stroke-width:5px;"/><line x1="-2.21" y1="124.21" x2="127.79" y2="254.21" style="stroke:#000; stroke-miterlimit:10; stroke-width:5px;"/><line x1="6.22" y1="115.78" x2="136.22" y2="245.78" style="stroke:#000; stroke-miterlimit:10; stroke-width:5px;"/><line x1="14.65" y1="107.35" x2="144.65" y2="237.35" style="stroke:#000; stroke-miterlimit:10; stroke-width:5px;"/><line x1="23.08" y1="98.92" x2="153.08" y2="228.92" style="stroke:#000; stroke-miterlimit:10; stroke-width:5px;"/><line x1="31.5" y1="90.5" x2="161.5" y2="220.5" style="stroke:#000; stroke-miterlimit:10; stroke-width:5px;"/><line x1="39.93" y1="82.07" x2="169.93" y2="212.07" style="stroke:#000; stroke-miterlimit:10; stroke-width:5px;"/><line x1="48.36" y1="73.64" x2="178.36" y2="203.64" style="stroke:#000; stroke-miterlimit:10; stroke-width:5px;"/><line x1="56.79" y1="65.21" x2="186.79" y2="195.21" style="stroke:#000; stroke-miterlimit:10; stroke-width:5px;"/><line x1="65.21" y1="56.79" x2="195.21" y2="186.79" style="stroke:#000; stroke-miterlimit:10; stroke-width:5px;"/><line x1="73.64" y1="48.36" x2="203.64" y2="178.36" style="stroke:#000; stroke-miterlimit:10; stroke-width:5px;"/><line x1="82.07" y1="39.93" x2="212.07" y2="169.93" style="stroke:#000; stroke-miterlimit:10; stroke-width:5px;"/><line x1="90.5" y1="31.5" x2="220.5" y2="161.5" style="stroke:#000; stroke-miterlimit:10; stroke-width:5px;"/><line x1="98.92" y1="23.08" x2="228.92" y2="153.08" style="stroke:#000; stroke-miterlimit:10; stroke-width:5px;"/><line x1="107.35" y1="14.65" x2="237.35" y2="144.65" style="stroke:#000; stroke-miterlimit:10; stroke-width:5px;"/><line x1="115.78" y1="6.22" x2="245.78" y2="136.22" style="stroke:#000; stroke-miterlimit:10; stroke-width:5px;"/><line x1="124.21" y1="-2.21" x2="254.21" y2="127.79" style="stroke:#000; stroke-miterlimit:10; stroke-width:5px;"/><line x1="-127.79" y1="-2.21" x2="2.21" y2="127.79" style="stroke:#000; stroke-miterlimit:10; stroke-width:5px;"/><line x1="123.79" y1="-1.79" x2="253.79" y2="128.21" style="stroke:#000; stroke-miterlimit:10; stroke-width:5px;"/><line x1="132.22" y1="-10.22" x2="262.22" y2="119.78" style="stroke:#000; stroke-miterlimit:10; stroke-width:5px;"/><line x1="140.65" y1="-18.65" x2="270.65" y2="111.35" style="stroke:#000; stroke-miterlimit:10; stroke-width:5px;"/><line x1="149.08" y1="-27.08" x2="279.08" y2="102.92" style="stroke:#000; stroke-miterlimit:10; stroke-width:5px;"/><line x1="157.5" y1="-35.5" x2="287.5" y2="94.5" style="stroke:#000; stroke-miterlimit:10; stroke-width:5px;"/><line x1="165.93" y1="-43.93" x2="295.93" y2="86.07" style="stroke:#000; stroke-miterlimit:10; stroke-width:5px;"/><line x1="174.36" y1="-52.36" x2="304.36" y2="77.64" style="stroke:#000; stroke-miterlimit:10; stroke-width:5px;"/><line x1="182.79" y1="-60.79" x2="312.79" y2="69.21" style="stroke:#000; stroke-miterlimit:10; stroke-width:5px;"/><line x1="191.21" y1="-69.21" x2="321.21" y2="60.79" style="stroke:#000; stroke-miterlimit:10; stroke-width:5px;"/><line x1="199.64" y1="-77.64" x2="329.64" y2="52.36" style="stroke:#000; stroke-miterlimit:10; stroke-width:5px;"/><line x1="208.07" y1="-86.07" x2="338.07" y2="43.93" style="stroke:#000; stroke-miterlimit:10; stroke-width:5px;"/><line x1="216.5" y1="-94.5" x2="346.5" y2="35.5" style="stroke:#000; stroke-miterlimit:10; stroke-width:5px;"/><line x1="224.92" y1="-102.92" x2="354.92" y2="27.08" style="stroke:#000; stroke-miterlimit:10; stroke-width:5px;"/><line x1="233.35" y1="-111.35" x2="363.35" y2="18.65" style="stroke:#000; stroke-miterlimit:10; stroke-width:5px;"/><line x1="241.78" y1="-119.78" x2="371.78" y2="10.22" style="stroke:#000; stroke-miterlimit:10; stroke-width:5px;"/><line x1="250.21" y1="-128.21" x2="380.21" y2="1.79" style="stroke:#000; stroke-miterlimit:10; stroke-width:5px;"/><line x1="-128.21" y1="-1.79" x2="1.79" y2="128.21" style="stroke:#000; stroke-miterlimit:10; stroke-width:5px;"/><line x1="-119.78" y1="-10.22" x2="10.22" y2="119.78" style="stroke:#000; stroke-miterlimit:10; stroke-width:5px;"/><line x1="-111.35" y1="-18.65" x2="18.65" y2="111.35" style="stroke:#000; stroke-miterlimit:10; stroke-width:5px;"/><line x1="-102.92" y1="-27.08" x2="27.08" y2="102.92" style="stroke:#000; stroke-miterlimit:10; stroke-width:5px;"/><line x1="-94.5" y1="-35.5" x2="35.5" y2="94.5" style="stroke:#000; stroke-miterlimit:10; stroke-width:5px;"/><line x1="-86.07" y1="-43.93" x2="43.93" y2="86.07" style="stroke:#000; stroke-miterlimit:10; stroke-width:5px;"/><line x1="-77.64" y1="-52.36" x2="52.36" y2="77.64" style="stroke:#000; stroke-miterlimit:10; stroke-width:5px;"/><line x1="-69.21" y1="-60.79" x2="60.79" y2="69.21" style="stroke:#000; stroke-miterlimit:10; stroke-width:5px;"/><line x1="-60.79" y1="-69.21" x2="69.21" y2="60.79" style="stroke:#000; stroke-miterlimit:10; stroke-width:5px;"/><line x1="-52.36" y1="-77.64" x2="77.64" y2="52.36" style="stroke:#000; stroke-miterlimit:10; stroke-width:5px;"/><line x1="-43.93" y1="-86.07" x2="86.07" y2="43.93" style="stroke:#000; stroke-miterlimit:10; stroke-width:5px;"/><line x1="-35.5" y1="-94.5" x2="94.5" y2="35.5" style="stroke:#000; stroke-miterlimit:10; stroke-width:5px;"/><line x1="-27.08" y1="-102.92" x2="102.92" y2="27.08" style="stroke:#000; stroke-miterlimit:10; stroke-width:5px;"/><line x1="-18.65" y1="-111.35" x2="111.35" y2="18.65" style="stroke:#000; stroke-miterlimit:10; stroke-width:5px;"/><line x1="-10.22" y1="-119.78" x2="119.78" y2="10.22" style="stroke:#000; stroke-miterlimit:10; stroke-width:5px;"/><line x1="-1.79" y1="-128.21" x2="128.21" y2="1.79" style="stroke:#000; stroke-miterlimit:10; stroke-width:5px;"/><line x1="249.79" y1="-127.79" x2="379.79" y2="2.21" style="stroke:#000; stroke-miterlimit:10; stroke-width:5px;"/><line x1="-2.21" y1="-127.79" x2="127.79" y2="2.21" style="stroke:#000; stroke-miterlimit:10; stroke-width:5px;"/></pattern></defs><g style="isolation:isolate;"><g id="Backup_copy"><path d="M403.67,853.79c-23.29,0-38.61-7.08-48.2-22.29-8.51-13.48-11.47-31.86-14.62-51.32-1.76-10.89-3.58-22.15-6.45-33.22l-.02-.09v-.09c-.78-5.83-1.64-9.47-7.02-10.9l-.08-.02-.08-.03c-18.03-7.04-34.13-13.67-49.23-20.27-1.62-.71-2.93-1.03-4.13-1.03-1.55,0-3.07.57-4.94,1.83-17.04,11.57-37.25,25.2-57.83,38.62-8.28,5.69-17.84,8.71-27.63,8.71-13.21,0-25.88-5.39-35.68-15.17-5.98-6.54-12.66-12.83-19.13-18.91-12.39-11.65-25.2-23.69-33.94-38.21l-.04-.06-.03-.07c-13.52-28.57,4.7-53.04,22.33-76.71,8.98-12.06,17.47-23.46,21.92-35.27-2.79-8.67-6.61-17.33-10.3-25.71-3.67-8.32-7.46-16.93-10.31-25.65-1.98-5.42-4.48-7.61-9.86-8.61h-.08s-.07-.04-.07-.04c-8.91-2.63-19.45-4.19-30.61-5.84-28.21-4.17-60.19-8.9-72.25-33.68-3.28-6.74-5-14.33-5.13-22.56-.35-22.18-.34-42.42.02-61.85.97-44.22,42.75-50.64,79.62-56.29,10.99-1.69,21.38-3.28,30.35-5.77l.13-.03c4.3-.8,5.77-2.75,7.25-6.55,7.45-19.11,13.82-34.52,20.06-48.51,1.83-4.05,1.59-6.86-.89-10.37l-.07-.11c-4.49-7.74-10.32-15.74-16.5-24.21-22.25-30.52-47.48-65.1-13.65-97.89,4.87-4.59,9.79-9.81,15.01-15.33,18.15-19.24,38.73-41.04,62.97-41.04,9.24,0,18.56,3.23,27.7,9.59,10.85,7.17,21.88,14.54,32.54,21.67,8.6,5.75,17.2,11.51,25.82,17.23l.08.06.08.07c.36.32.97.47,1.81.47,4.25,0,12.35-4.05,18.85-7.3,4.68-2.34,8.74-4.37,11.47-5.09,2.24-1.26,6.27-2.6,10.91-4.14,6.78-2.26,19.39-6.46,19.35-9.61v-.16s.03-.15.03-.15c4.01-20.03,7.99-39.93,11.98-59.84,3.15-26.83,16.55-45.09,36.76-50.09l.1-.02C389.43.63,402.33,0,421.49,0c10.56,0,21.16.19,29.68.34,5.62.1,10.47.19,13.64.19,1.53,0,2.6-.02,3.27-.06h.19s.18.02.18.02c19.07,3.61,34.48,19.8,38.34,40.3,1.42,7.17,2.86,14.36,4.29,21.54,3.14,15.75,6.39,32.04,9.5,48.08.65,3.3,1.24,4.95,3.91,5.75,17.09,5.18,34.21,12.17,52.33,21.37.98.51,2.04.77,3.15.77,1.69,0,3.4-.61,4.83-1.71l.08-.06.09-.05c7.88-4.51,16.06-10.43,24.73-16.69,20.57-14.88,41.84-30.27,63.51-30.27,12.77,0,24.1,5.33,34.64,16.3,4.56,4.82,9.74,9.7,15.22,14.87,13.56,12.79,27.58,26.01,35.41,41,9.08,17.39,7.83,33.9-3.83,50.46-13.61,22.14-23.22,35.08-29.58,43.64-5.81,7.82-8.72,11.75-9.25,15.38-.52,3.57,1.25,7.43,4.77,15.14,3.68,8.05,9.24,20.21,16.05,40.53,1.25,3.99,3.03,5.52,7.34,6.32l.1.02c10.85,2.84,22.33,4.65,33.44,6.4,41.74,6.58,81.16,12.79,76.68,71.33.11,12.85.09,25.85-.08,38.64.24,9.57-.34,23.68-8.09,35.12l-.09.13c-1.45,2.21-3.1,4.31-4.93,6.26l-.12.13c-10.44,11.7-25.68,14.67-40.41,17.54-1.15.22-2.3.45-3.45.68-16.11,3.32-33.13,6.65-50.56,9.89-3.63.69-5.74,1.61-7.43,3.24-5.33,9.99-9.25,20.54-13.39,31.71-3.08,8.29-6.26,16.87-10.12,25.35-.66,1.59.17,2.94,1.58,5,.34.49.67.99.98,1.49,6.58,10.72,13.5,20.49,19.61,29.11,27.61,38.99,45.85,64.75-10,112.27-3.37,3.1-6.72,6.59-9.96,9.97-8.47,8.82-17.23,17.94-28.71,22.81-5.38,2.45-11.11,3.7-16.97,3.7h0c-16.6,0-32.01-9.68-44.89-19.14-12.19-8.09-26.69-17.76-41.29-27.78-2.04-1.46-3.89-2.13-5.82-2.13-1.58,0-3.29.45-5.25,1.36-8.08,3.9-16.62,7.23-24.87,10.45-9.04,3.53-18.39,7.17-27.1,11.56-2.5,2.78-3.04,6.78-3.61,11.01-.31,2.26-.62,4.59-1.26,6.73-1.28,6.53-2.63,13.16-3.94,19.57-1.53,7.51-3.11,15.27-4.59,22.92l-.42,2.38c-2.09,11.91-4.25,24.23-12.42,33.8l-.05.06c-.59.75-1.23,1.48-1.92,2.25l-.23.26c-.99,1.1-2.07,2.13-3.08,3.09l-.43.41h-.02c-3.48,3.12-7.59,5.87-11.94,7.95-1.13.54-2.39,1.08-3.85,1.65-6.74,2.79-13.83,3.16-19.88,3.16-2.11,0-4.25-.05-6.31-.1-1.4-.03-2.8-.07-4.2-.08-4-.04-8-.05-11.99-.05-3.4,0-6.81,0-10.21.02-2.56,0-5.12.01-7.68.02-3.87.33-7.6.5-11.09.5ZM421.9,218.3c-4.01,0-8.12.09-12.2.27-61.45,5.91-111.87,31.87-145.74,75.06-30.15,38.45-45.38,88.34-42.88,140.48,2.5,52.23,22.46,100.63,56.19,136.29,37.8,39.96,90.15,61.08,151.38,61.08,1,0,2.03,0,3.03-.02,63.09-3.43,115.41-27.94,151.24-70.87,31.85-38.17,48.6-88.43,47.16-141.53-1.44-52.95-20.79-102.1-54.48-138.4-37.85-40.79-91.01-62.35-153.71-62.35Z" style="fill:#ff92ba;"/><path d="M421.5,1.5c17.62,0,35.38.53,43.32.53,1.48,0,2.63-.02,3.36-.06,19.2,3.63,33.57,20.12,37.14,39.1,4.6,23.21,9.29,46.4,13.8,69.63.63,3.23,1.32,5.81,4.95,6.9,18,5.46,35.26,12.73,52.09,21.27,1.22.63,2.53.93,3.83.93,2.04,0,4.07-.73,5.74-2.02,26.52-15.17,57.24-46.76,87.49-46.76,11.34,0,22.61,4.44,33.56,15.84,26.92,28.43,77.2,61.04,46.65,104.41-52.46,85.29-45.57,34.39-18.2,116.03,1.44,4.62,3.82,6.45,8.48,7.32,51.4,13.45,114.6,3.58,109,76.23.11,12.89.09,25.79-.08,38.68.3,11.92-1.04,24.37-7.94,34.44h0c-1.45,2.22-3.09,4.29-4.91,6.22t0,0c-10.92,12.24-27.69,14.69-43.03,17.75-16.81,3.46-33.67,6.75-50.55,9.89-3.64.69-6.26,1.68-8.37,3.8-9.52,17.75-14.72,37.7-23.66,57.35-1.26,3.05,1.09,5.34,2.65,7.89,35.89,58.43,77.1,82.29,9.91,139.45-12.23,11.26-22.7,25.93-38.28,32.54-5.51,2.51-10.99,3.58-16.39,3.58-15.88,0-31.03-9.32-44-18.85-13.83-9.18-27.64-18.41-41.33-27.81-2.21-1.58-4.35-2.39-6.67-2.39-1.81,0-3.73.49-5.88,1.51-17.01,8.21-35.48,13.65-52.25,22.15-4.51,4.75-3.58,12.57-5.41,18.59-2.78,14.2-5.79,28.35-8.54,42.56-2.23,12.52-4.07,25.68-12.59,35.58h0c-.67.85-1.37,1.66-2.1,2.44h0c-.95,1.06-1.97,2.04-3,3.01h0c-3.58,3.3-7.72,6.04-12.01,8.1-1.23.59-2.49,1.12-3.75,1.6-6.2,2.57-12.75,3.06-19.34,3.06-3.5,0-7.02-.14-10.49-.19-4-.04-8-.05-11.99-.05-5.99,0-11.98.03-17.98.03-3.9.33-7.57.5-11.03.5-63.56,0-54.61-54.81-67.82-105.7-.76-5.79-1.68-10.45-8.11-12.15-16.5-6.45-32.93-13.15-49.17-20.24-1.77-.77-3.29-1.16-4.73-1.16-1.93,0-3.73.7-5.79,2.09-19.17,13.01-38.4,25.95-57.8,38.6-8.32,5.72-17.6,8.46-26.81,8.46-12.55,0-24.97-5.1-34.62-14.73-17.24-18.88-39.63-34.89-52.84-56.83-19.89-42.03,31.31-75.44,44.47-111.3-5.56-17.51-15.01-34.25-20.76-51.86-2.16-5.9-5.04-8.51-11.01-9.62-32.08-9.48-85.65-5.27-101.94-38.73-3.12-6.42-4.85-13.8-4.97-21.93-.32-20.59-.36-41.21.02-61.8,1.22-55.73,69.35-49.68,108.87-60.65,4.83-.9,6.7-3.2,8.38-7.48,6.35-16.28,12.92-32.49,20.03-48.45,1.93-4.27,1.91-7.68-1.03-11.85-20.98-36.2-72.34-79.62-30.4-120.27,22.11-20.84,46.64-55.95,76.94-55.95,8.47,0,17.4,2.75,26.85,9.32,19.52,12.89,38.89,25.99,58.38,38.92.67.59,1.63.85,2.8.85,7.63,0,24.41-10.9,30.89-12.48,6.23-3.65,31.27-8.81,31.19-15.18,4.01-20.05,8-39.97,12-59.9,2.58-22.07,13.35-43.35,35.64-48.87,8.57-1.5,23.83-1.9,39.2-1.9M428.66,632.96c1.01,0,2.04,0,3.05-.02,273.84-14.88,262.47-416.15-9.81-416.15-4.03,0-8.12.09-12.27.27-267.19,25.69-245.88,415.9,19.02,415.9M421.5-1.5c-19.25,0-32.24.64-39.71,1.94l-.1.02-.1.03c-11.19,2.77-20.27,9.32-26.99,19.48-5.68,8.58-9.44,19.59-10.89,31.83-3.99,19.89-7.97,39.77-11.97,59.78l-.06.31v.22c-.12.24-.97,1.54-5.78,3.68-3.67,1.63-8.38,3.2-12.54,4.59-4.6,1.53-8.6,2.87-11,4.17-2.88.8-6.93,2.82-11.58,5.15-6.36,3.18-14.28,7.14-18.18,7.14-.64,0-.85-.12-.85-.12l-.15-.13-.14-.09c-8.62-5.72-17.36-11.57-25.82-17.23-10.65-7.13-21.66-14.49-32.54-21.67-9.39-6.53-18.99-9.84-28.53-9.84-24.89,0-45.7,22.05-64.06,41.51-5.2,5.51-10.11,10.71-14.93,15.26-15.6,15.12-20.36,31.97-14.57,51.53,4.94,16.69,16.67,32.78,28.03,48.35,6.15,8.44,11.96,16.4,16.41,24.08l.07.12.08.11c2.17,3.07,2.36,5.31.75,8.88-6.25,14.01-12.63,29.45-20.09,48.6-1.5,3.84-2.76,4.99-6.13,5.62l-.13.02-.12.03c-8.88,2.47-19.22,4.05-30.17,5.73-18.77,2.88-38.18,5.86-53.5,13.72-17.98,9.23-26.95,23.63-27.39,44.02-.36,19.48-.37,39.73-.02,61.91.13,8.45,1.9,16.25,5.28,23.19,12.41,25.49,44.8,30.28,73.39,34.5,11.11,1.64,21.59,3.19,30.4,5.79l.15.04.15.03c4.85.91,6.9,2.7,8.72,7.66,2.87,8.77,6.67,17.4,10.34,25.74,3.6,8.18,7.33,16.63,10.08,25.06-4.42,11.44-12.74,22.61-21.53,34.41-8.74,11.74-17.78,23.88-22.93,36.63-5.96,14.77-5.81,28.38.45,41.62l.06.14.08.13c8.85,14.7,21.74,26.81,34.2,38.53,6.45,6.06,13.11,12.33,19,18.77l.05.05.05.05c10.09,10.07,23.13,15.61,36.74,15.61,10.08,0,19.93-3.1,28.48-8.97,20.59-13.42,40.78-27.05,57.82-38.61,1.63-1.1,2.86-1.58,4.1-1.58.99,0,2.11.29,3.53.91,15.11,6.6,31.23,13.24,49.28,20.29l.16.06.16.04c4.37,1.16,5.12,3.7,5.91,9.65l.02.18.05.18c2.86,11,4.67,22.23,6.42,33.09,3.17,19.61,6.16,38.14,14.83,51.88,9.89,15.68,25.61,22.98,49.47,22.98,3.52,0,7.27-.17,11.16-.5,2.55,0,5.1,0,7.65-.02,3.4,0,6.8-.02,10.2-.02,4.58,0,8.38.02,11.97.05,1.38.02,2.77.05,4.17.08,2.08.05,4.23.1,6.35.1,6.19,0,13.46-.39,20.45-3.28,1.51-.59,2.76-1.12,3.93-1.68,4.29-2.06,8.37-4.74,11.86-7.8h.04l.87-.81c1.04-.98,2.14-2.04,3.17-3.17l.78-.86h0c.51-.59.99-1.16,1.44-1.73l.06-.07c8.41-9.87,10.6-22.37,12.72-34.46.14-.8.28-1.6.42-2.4,1.47-7.6,3.05-15.35,4.57-22.85,1.3-6.39,2.65-13,3.93-19.51.66-2.23.98-4.6,1.29-6.89.53-3.88,1.02-7.56,3.06-10.01,8.57-4.3,17.78-7.89,26.7-11.37,8.28-3.23,16.85-6.57,25-10.5,1.72-.81,3.23-1.21,4.58-1.21,1.61,0,3.18.58,4.93,1.83l.02.02.02.02c14.57,10,29.05,19.66,41.31,27.8,13.07,9.6,28.71,19.39,45.72,19.39,6.07,0,11.99-1.29,17.6-3.84,11.74-4.99,20.6-14.21,29.17-23.13,3.21-3.35,6.53-6.8,9.9-9.9,26.55-22.6,37.91-41.21,36.84-60.35-1-17.7-12.31-33.67-26.62-53.89-6.39-9.02-13-18.35-19.55-29.03-.33-.54-.68-1.06-1.02-1.55-1.38-2.02-1.75-2.76-1.43-3.59,3.87-8.5,7.05-17.09,10.13-25.39,4.1-11.04,7.97-21.47,13.19-31.31,1.44-1.31,3.32-2.08,6.51-2.69,17.41-3.24,34.44-6.57,50.59-9.9,1.12-.22,2.27-.45,3.42-.67,14.28-2.78,30.47-5.94,41.25-18.02l.11-.12c.53-.56,1.04-1.14,1.54-1.72l.24-.27h0c1.19-1.43,2.3-2.92,3.3-4.45l.14-.21c7.92-11.76,8.53-26.09,8.29-35.9.16-12.74.19-25.72.08-38.56,2.04-26.87-5.09-45.35-21.8-56.49-14.76-9.84-34.86-13.01-56.14-16.37-11.07-1.75-22.52-3.55-33.29-6.37l-.1-.03-.11-.02c-3.73-.7-5.11-1.88-6.17-5.26v-.03s-.02-.03-.02-.03c-6.84-20.39-12.41-32.6-16.1-40.67-3.4-7.44-5.1-11.17-4.65-14.3.47-3.25,3.31-7.08,8.97-14.7,6.36-8.57,15.98-21.53,29.65-43.75,11.97-17.04,13.24-34.03,3.88-51.94-7.94-15.21-22.06-28.52-35.71-41.39-5.46-5.15-10.62-10.02-15.15-14.8-10.85-11.29-22.54-16.78-35.74-16.78-22.15,0-43.62,15.53-64.39,30.55-8.63,6.24-16.78,12.14-24.59,16.61l-.18.1-.16.13c-1.17.9-2.56,1.39-3.91,1.39-.87,0-1.69-.2-2.45-.59-18.23-9.25-35.43-16.27-52.6-21.47-1.77-.53-2.22-1.26-2.88-4.61-3.1-16.01-6.35-32.27-9.49-48-1.44-7.21-2.88-14.43-4.31-21.64-3.96-21.07-19.85-37.75-39.53-41.47l-.37-.07-.37.02c-.63.04-1.7.06-3.18.06-3.16,0-8-.09-13.61-.19-8.52-.15-19.13-.34-29.7-.34h0ZM409.85,220.06c4.04-.17,8.09-.26,12.06-.26,62.28,0,115.05,21.39,152.61,61.86,16.89,18.19,30.17,39.65,39.47,63.76,9,23.32,13.91,48.1,14.61,73.66.7,25.62-2.88,50.69-10.64,74.52-8.03,24.66-20.2,46.87-36.17,66.01-35.54,42.59-87.47,66.91-150.17,70.34-.98.01-1.98.02-2.95.02-60.81,0-112.78-20.96-150.29-60.61-33.49-35.4-53.3-83.46-55.79-135.33-2.48-51.78,12.63-101.31,42.56-139.48,33.6-42.84,83.63-68.6,144.7-74.49h0Z" style="fill:#223656;"/><g style="mix-blend-mode:soft-light; opacity:.3;"><path d="M543.98,687.4c13.1,9,26.31,17.85,39.56,26.64-2.98-1.16-5.73-.79-9.39.85-16.38,7.42-33.26,13.79-49.9,20.61-7.94,4.19-5.95,16.73-8.61,24.39-5.28,21.16-6.74,44.3-14.41,64.58-1.61,3.32-3.59,6.47-5.88,9.32-.68.84-1.4,1.67-2.1,2.44-.97,1.05-1.96,2.03-3,3-3.57,3.27-7.72,6.05-12.02,8.1-1.23.59-2.49,1.12-3.75,1.6-9.59,3.96-19.78,2.98-29.83,2.88-13.98-.13-27.97.04-41.95-.02-18.91,1.45-38.54-6.5-47.75-23.41l-.16-.08c-.9-1.58-1.72-3.24-2.44-4.95,111.86,4.08,103.72-3.38,123.82-108.88.9-4.91,3.33-6.67,7.49-8.3,16.03-6.28,32.04-12.63,47.75-19.65,4.9-2.19,8.18-2.12,12.56.89Z"/></g><g style="mix-blend-mode:soft-light; opacity:.3;"><path d="M852.75,433.99c-.02,5.17-.07,10.36-.13,15.53-.04,2.58-.08,5.17-.12,7.77-.02,1.13-.07,2.24-.15,3.33-.03.37-.06.74-.09,1.1-.07.72-.15,1.44-.25,2.15-.05.36-.1.72-.15,1.07-.11.71-.23,1.4-.37,2.1-.14.69-.29,1.38-.45,2.06-.25,1.03-.52,2.03-.83,3.02-.3.99-.64,1.96-.99,2.91-.73,1.91-1.57,3.75-2.51,5.51-.63,1.18-1.31,2.32-2.04,3.42h0c-.36.56-.74,1.1-1.13,1.64-.39.53-.79,1.06-1.2,1.58-.62.77-1.26,1.53-1.92,2.27-.22.24-.45.49-.67.72t0,0c-.37.39-.75.77-1.13,1.15-1.53,1.51-3.19,2.92-4.95,4.22-1.32.97-2.7,1.88-4.14,2.73-1.19.69-2.41,1.34-3.67,1.95-3.78,1.81-7.91,3.22-12.34,4.16-5.6,1.2-11.2,2.38-16.8,3.53-16.81,3.46-33.67,6.75-50.55,9.89-3.44.64-6.02,1.62-8.04,3.48-.12.11-.22.22-.33.32-1.4,1.42-2.51,3.32-3.43,5.9-6.01,16.94-13.05,33.51-20.23,51.44-.58,1.44-.43,3.08.4,4.4.65,1.03,1.44,2.27,2.25,3.5,12.14,18.21,24.33,36.39,36.43,54.62,14.67,22.1,12.36,45.7-6.35,64.58-6.71,6.76-13.43,13.52-20.17,20.25-6.74,6.74-13.5,13.46-20.26,20.18-3.32,3.29-6.79,6.08-10.37,8.34-.71.46-1.43.89-2.15,1.3h0c-.72.41-1.45.8-2.18,1.18-.37.19-.73.36-1.1.54-.73.35-1.47.68-2.21.99h0c-.63.26-1.26.51-1.9.74-.49.19-.97.35-1.46.52h0c-.62.21-1.25.39-1.88.58-.51.14-1.02.28-1.53.4h0c-1.14.28-2.29.51-3.45.7-.39.06-.77.12-1.16.17-.52.07-1.05.13-1.58.18-2.61.25-5.24.28-7.89.06h-.02c-.61-.05-1.21-.12-1.81-.19-.61-.08-1.23-.16-1.84-.26h0c-.92-.15-1.84-.33-2.75-.53h0c-.92-.21-1.84-.44-2.75-.7-.31-.08-.62-.18-.93-.27-.92-.29-1.84-.59-2.75-.93-.31-.12-.61-.23-.92-.35h0c-1.23-.48-2.44-1-3.66-1.57h0c-.61-.29-1.22-.59-1.83-.9-.31-.16-.62-.32-.93-.48-1.83-.98-3.66-2.07-5.47-3.27-2.31-1.53-4.62-3.05-6.93-4.58-2.31-1.53-4.61-3.06-6.92-4.59-5.54-3.67-11.07-7.36-16.59-11.06-2.75-1.84-5.5-3.68-8.24-5.54-.42-.28-.84-.56-1.26-.85,21.4,12.73,43.72,9.88,61.77-8.02,13.54-13.42,27.02-26.89,40.44-40.43,18.71-18.88,21.02-42.49,6.35-64.58-12.11-18.23-24.29-36.4-36.43-54.61-1.54-2.31-2.99-4.68-3.57-5.59,7.5-18.83,14.89-36.09,21.15-53.75,2.26-6.37,5.68-8.56,11.8-9.7,22.5-4.19,44.96-8.62,67.34-13.41,23.65-5.07,38.58-23.11,38.98-47.12.34-20.6.36-41.21-.02-61.81-.13-7.4-1.7-14.24-4.49-20.31,2.44.49,4.88.98,7.32,1.47,1.22.25,2.42.52,3.59.84l.84.41c17.98,5.14,30.72,18.42,34.4,36.16.12.59.23,1.19.34,1.79.21,1.26.38,2.55.5,3.86.13,1.37.21,2.76.23,4.17.09,5.12.16,10.24.21,15.36.07,7.71.08,15.43.05,23.14Z"/></g><g style="mix-blend-mode:soft-light; opacity:.3;"><path d="M647.62,433.86c-1.33-22.35-6.15-43.78-13.94-63.71-6.85-17.53-15.99-33.91-27.07-48.74,15.43,27.1,24.96,58,26.92,90.92,7.08,118.57-85.34,216.96-201.82,220.62-55.2,2.09-108.88-18.95-148.73-56.21-8.95-8.37-17.2-17.55-24.62-27.48,38.06,67.01,111.33,108.1,187.45,105.22,116.46-3.65,208.89-102.04,201.81-220.61Z"/><path d="M647.62,433.86c-1.33-22.35-6.15-43.78-13.94-63.71-6.85-17.53-15.99-33.91-27.07-48.74,15.43,27.1,24.96,58,26.92,90.92,7.08,118.57-85.34,216.96-201.82,220.62-55.2,2.09-108.88-18.95-148.73-56.21-8.95-8.37-17.2-17.55-24.62-27.48,38.06,67.01,111.33,108.1,187.45,105.22,116.46-3.65,208.89-102.04,201.81-220.61Z"/><path d="M647.62,433.86c-1.33-22.35-6.15-43.78-13.94-63.71-6.85-17.53-15.99-33.91-27.07-48.74,15.43,27.1,24.96,58,26.92,90.92,7.08,118.57-85.34,216.96-201.82,220.62-55.2,2.09-108.88-18.95-148.73-56.21-8.95-8.37-17.2-17.55-24.62-27.48,38.06,67.01,111.33,108.1,187.45,105.22,116.46-3.65,208.89-102.04,201.81-220.61Z"/><g style="mix-blend-mode:color-dodge;"><path d="M647.62,433.86c-1.33-22.35-6.15-43.78-13.94-63.71-6.85-17.53-15.99-33.91-27.07-48.74,15.43,27.1,24.96,58,26.92,90.92,7.08,118.57-85.34,216.96-201.82,220.62-55.2,2.09-108.88-18.95-148.73-56.21-8.95-8.37-17.2-17.55-24.62-27.48,38.06,67.01,111.33,108.1,187.45,105.22,116.46-3.65,208.89-102.04,201.81-220.61Z"/><path d="M647.62,433.86c-1.33-22.35-6.15-43.78-13.94-63.71-6.85-17.53-15.99-33.91-27.07-48.74,15.43,27.1,24.96,58,26.92,90.92,7.08,118.57-85.34,216.96-201.82,220.62-55.2,2.09-108.88-18.95-148.73-56.21-8.95-8.37-17.2-17.55-24.62-27.48,38.06,67.01,111.33,108.1,187.45,105.22,116.46-3.65,208.89-102.04,201.81-220.61Z" style="fill:url(#Ed_-_Line_002); mix-blend-mode:overlay; opacity:.3;"/></g></g><circle cx="426.83" cy="425.73" r="181.52" style="fill:#0277ca; stroke:#223656; stroke-miterlimit:10; stroke-width:3px;"/><g style="mix-blend-mode:soft-light; opacity:.3;"><path d="M608.35,425.74c0,100.24-81.28,181.52-181.52,181.52s-181.52-81.28-181.52-181.52c0-4.46.16-8.85.48-13.21,6.36,85.61,77.82,153.06,165.04,153.06s165.53-74.11,165.53-165.53c0-60.83-32.82-114-81.73-142.75,66.68,26.84,113.71,92.13,113.71,168.43Z"/></g><path d="M367.63,483.85l-8.11-26.62c-.31-1-1.23-1.69-2.28-1.69h-42.41c-1.05,0-1.97.68-2.28,1.69l-8.11,26.62c-.31,1-1.23,1.69-2.28,1.69h-23.66c-1.64,0-2.79-1.62-2.25-3.17l42.79-121.75c.34-.95,1.24-1.59,2.25-1.59h29.29c1.01,0,1.91.64,2.24,1.59l42.96,121.75c.55,1.55-.6,3.17-2.24,3.17h-23.66c-1.05,0-1.97-.68-2.28-1.69ZM349.4,433.14c1.6,0,2.75-1.56,2.27-3.09-7.85-25.25-12.28-39.59-13.3-43.01-.01-.04-.02-.07-.03-.11-.68-2.28-3.9-2.28-4.56,0-2.64,9.16-6.98,23.54-13.02,43.12-.47,1.53.67,3.09,2.27,3.09h26.38ZM499.82,398.84c0,13.56-4.24,23.93-12.71,31.11-8.47,7.18-20.52,10.77-36.15,10.77h-9.08c-1.31,0-2.38,1.07-2.38,2.38v40.05c0,1.31-1.07,2.38-2.38,2.38h-21.95c-1.31,0-2.38-1.07-2.38-2.38v-121.23c0-1.31,1.07-2.38,2.38-2.38h37.86c15.28,0,26.9,3.29,34.86,9.87,7.96,6.58,11.94,16.39,11.94,29.43ZM439.5,416.45c0,1.31,1.07,2.38,2.38,2.38h6.41c8.22,0,14.36-1.62,18.44-4.87,4.08-3.24,6.12-7.97,6.12-14.18s-1.71-10.89-5.13-13.87c-3.42-2.99-8.78-4.48-16.07-4.48h-9.77c-1.31,0-2.38,1.07-2.38,2.38v32.64ZM523.61,483.15v-121.23c0-1.31,1.07-2.38,2.38-2.38h21.95c1.31,0,2.38,1.07,2.38,2.38v121.23c0,1.31-1.07,2.38-2.38,2.38h-21.95c-1.31,0-2.38-1.07-2.38-2.38Z" style="fill:#fff; stroke:#223656; stroke-miterlimit:10; stroke-width:3px;"/><path d="M408.02,261.16c25.13-14.66,68.03,14.53,65.95,22.73-.96,3.78-9.76.79-31.78,7.76-17.47,5.53-22.36,10.72-31.39,8.35-7.59-1.99-15.56-8.66-16.54-17.06-1.13-9.77,7.62-18.21,13.75-21.79Z" style="fill:#ffe;"/><ellipse cx="497.51" cy="290.85" rx="9.3" ry="14.95" transform="translate(93.38 701.69) rotate(-75.78)" style="fill:#ffe;"/><path d="M670.18,114.45c22.2-2.78,43.71,30.81,39.76,35.99-1.82,2.38-7.14-2.39-24.81-4.11-14.02-1.37-19.04.83-24.71-3.57-4.76-3.7-8.39-10.82-6.54-17.05,2.15-7.25,10.88-10.57,16.3-11.25Z" style="fill:#ffe;"/><ellipse cx="724.48" cy="162.46" rx="7.15" ry="11.49" transform="translate(155.86 639.88) rotate(-52.66)" style="fill:#ffe;"/></g></g></svg>