<?xml version="1.0" encoding="UTF-8"?><svg xmlns="http://www.w3.org/2000/svg" viewBox="0 0 1200 1202.85"><g style="isolation:isolate;"><g id="Layer_1"><path d="M600,1201.35c-80.8,0-159.18-15.86-232.96-47.15-71.27-30.22-135.28-73.47-190.24-128.57-54.96-55.09-98.12-119.25-128.26-190.69C17.32,760.98,1.5,682.41,1.5,601.42s15.82-159.55,47.03-233.52c30.14-71.44,73.3-135.6,128.26-190.69,54.96-55.1,118.97-98.35,190.24-128.57C440.82,17.36,519.2,1.5,600,1.5s159.18,15.86,232.96,47.15c71.27,30.22,135.28,73.47,190.24,128.57,54.96,55.1,98.12,119.25,128.26,190.69,31.21,73.96,47.03,152.53,47.03,233.52s-15.82,159.55-47.03,233.52c-30.14,71.44-73.3,135.6-128.26,190.69-54.96,55.1-118.97,98.35-190.24,128.57-73.79,31.28-152.17,47.15-232.96,47.15Z" style="fill:#91dece;"/><path d="M600,3c329.71,0,597,267.92,597,598.42s-267.29,598.42-597,598.42S3,931.92,3,601.42,270.29,3,600,3M600,0c-81,0-159.58,15.9-233.55,47.27-35.55,15.07-69.84,33.73-101.92,55.45-31.77,21.51-61.65,46.22-88.8,73.44-27.15,27.21-51.8,57.16-73.26,89.01-21.67,32.15-40.28,66.52-55.32,102.16C15.86,441.47,0,520.23,0,601.42s15.86,159.95,47.15,234.1c15.04,35.64,33.65,70.01,55.32,102.16,21.46,31.85,46.11,61.79,73.26,89.01,27.15,27.22,57.03,51.92,88.8,73.44,32.08,21.72,66.37,40.38,101.92,55.45,73.97,31.36,152.55,47.27,233.55,47.27s159.58-15.9,233.55-47.27c35.55-15.07,69.84-33.73,101.92-55.45,31.77-21.51,61.65-46.22,88.8-73.44,27.15-27.21,51.8-57.16,73.26-89.01,21.67-32.15,40.28-66.52,55.32-102.16,31.29-74.15,47.15-152.91,47.15-234.1s-15.86-159.95-47.15-234.1c-15.04-35.64-33.65-70.01-55.32-102.16-21.46-31.85-46.11-61.79-73.26-89.01-27.15-27.22-57.03-51.92-88.8-73.44-32.08-21.72-66.37-40.38-101.92-55.45C759.58,15.9,681,0,600,0h0Z" style="fill:#192e58;"/><g style="mix-blend-mode:soft-light; opacity:.3;"><path d="M1197,601.47c0,330.46-267.31,598.4-596.98,598.4S3.05,931.93,3.05,601.47c0-14.7.53-29.18,1.59-43.56,20.93,282.21,255.94,504.58,542.79,504.58s544.39-244.3,544.39-545.68c0-200.53-107.94-375.82-268.79-470.61,219.28,88.5,373.97,303.73,373.97,555.27Z"/></g><path d="M538.16,58.9c82.66-48.33,223.73,47.91,216.91,74.95-3.15,12.46-32.11,2.62-104.51,25.57-57.46,18.21-73.53,35.35-103.23,27.54-24.95-6.57-51.18-28.56-54.39-56.24-3.73-32.19,25.06-60.03,45.22-71.82Z" style="fill:#ffe;"/><ellipse cx="832.48" cy="156.79" rx="30.67" ry="49.17" transform="translate(475.04 924.8) rotate(-75.71)" style="fill:#ffe;"/><path d="M486.31,901.89c-19.52,0-37.87-7.6-51.67-21.41l-227.41-227.39c-13.8-13.79-21.41-32.14-21.41-51.67s7.6-37.87,21.41-51.66c13.79-13.8,32.14-21.41,51.67-21.41s37.87,7.6,51.67,21.41l175.74,175.71,403.12-403.13c13.79-13.79,32.14-21.39,51.67-21.39,6.76,0,13.47.93,19.94,2.75.05,0,.1.02.14.03,11.85,3.36,22.78,9.8,31.6,18.62,13.79,13.79,21.39,32.14,21.39,51.67s-7.6,37.87-21.41,51.66l-454.74,454.74c-13.85,13.87-32.2,21.47-51.72,21.47Z" style="fill:#ff92ba;"/><path d="M941.1,302.45c6.73,0,13.33.93,19.64,2.73h.03c11.58,3.28,22.2,9.49,30.95,18.24,13.51,13.51,20.95,31.48,20.95,50.61s-7.44,37.08-20.97,50.59l-412.55,412.55-38.83,38.83c-.27.27-.51.51-.75.75-1.49,1.49-2.38,2.38-2.61,2.61l-.06.06c-13.51,13.53-31.48,20.97-50.59,20.97s-37.08-7.44-50.61-20.97l-227.41-227.39c-13.53-13.51-20.97-31.48-20.97-50.61s7.44-37.08,20.97-50.59c13.51-13.53,31.48-20.97,50.61-20.97s37.08,7.44,50.61,20.97l176.8,176.77,404.18-404.19c13.51-13.51,31.48-20.95,50.61-20.95M941.1,299.45c-19.93,0-38.65,7.75-52.73,21.83l-402.06,402.07-174.68-174.65c-14.09-14.09-32.81-21.84-52.73-21.84s-38.66,7.76-52.73,21.85c-14.09,14.07-21.84,32.79-21.84,52.71s7.76,38.66,21.85,52.73l227.41,227.39c14.09,14.09,32.81,21.85,52.73,21.85s38.64-7.76,52.72-21.85l.06-.06,2.6-2.6.75-.75,38.83-38.83,412.55-412.55c14.09-14.07,21.85-32.79,21.85-52.72s-7.75-38.65-21.83-52.73c-9-9-20.16-15.58-32.26-19.01-.07-.02-.14-.04-.22-.05-6.58-1.85-13.4-2.79-20.27-2.79h0Z" style="fill:#223656;"/><g style="mix-blend-mode:soft-light; opacity:.3;"><path d="M1012.67,374.03c0,19.11-7.44,37.08-20.97,50.59l-450.54,450.54c37.23-37.41,298.71-329.57,369.42-415.69,77.76-94.69,50.15-154.29,50.15-154.29h.03c11.58,3.28,22.2,9.49,30.95,18.24,13.51,13.51,20.95,31.48,20.95,50.61Z"/></g><g style="mix-blend-mode:soft-light; opacity:.3;"><path d="M579.15,837.18l-38.83,38.83-.75.75c-1.49,1.49-2.38,2.38-2.61,2.61l-.06.06c-13.51,13.53-31.48,20.97-50.59,20.97s-37.08-7.44-50.61-20.97l-227.41-227.39c-13.53-13.51-20.97-31.48-20.97-50.61s7.44-37.08,20.97-50.59c13.51-13.53,31.48-20.97,50.61-20.97,0,0-42.75,74.77,20.03,159.78,62.76,85.01,206.05,214.73,299.84,145.29.14.75.27,1.51.38,2.24Z"/></g><path d="M956.14,329.63c3.06,5.01-.23,11.58-5.3,15.38-6.04,4.53-12.24,3.32-28.52,6.37-20.51,3.83-26.04,8.6-28.54,6.81-5.44-3.98,14.71-35.1,41.47-35.79,6.51-.18,17.33,1.4,20.89,7.23ZM872.42,369.06c-3.24,5.02-2.45,10.27,1.74,11.72,4.19,1.44,10.21-1.49,13.47-6.55,3.26-5.05,2.5-10.28-1.71-11.69-4.21-1.41-10.26,1.5-13.5,6.52Z" style="fill:#ffe;"/><path d="M280.97,547.18c3.13,4.96-.05,11.58-5.06,15.46-5.97,4.62-12.19,3.51-28.41,6.81-20.45,4.15-25.91,9-28.43,7.24-5.5-3.89,14.17-35.32,40.92-36.42,6.51-.28,17.35,1.13,21,6.91ZM197.18,589.31c-3.16,5.07-2.29,10.31,1.92,11.69,4.21,1.38,10.19-1.65,13.37-6.75,3.18-5.1,2.34-10.32-1.89-11.66-4.23-1.35-10.24,1.66-13.4,6.73Z" style="fill:#ffe;"/></g></g></svg>