<?xml version="1.0" encoding="UTF-8"?>
<svg xmlns="http://www.w3.org/2000/svg" xmlns:xlink="http://www.w3.org/1999/xlink" viewBox="0 0 605.58 980.13">
  <defs>
    <clipPath id="clippath">
      <circle cx="302.79" cy="302.79" r="302.73" style="fill: none;"/>
    </clipPath>
    <pattern id="Ed_line_thin" data-name="Ed line thin" x="0" y="0" width="258" height="258" patternTransform="translate(2348.15 5071.02) rotate(11.74) scale(.68)" patternUnits="userSpaceOnUse" viewBox="0 0 258 258">
      <g>
        <rect width="258" height="258" style="fill: none;"/>
        <g>
          <line x1="130.41" y1="255.59" x2="260.41" y2="385.59" style="fill: none; stroke: #000; stroke-miterlimit: 10; stroke-width: 3px;"/>
          <line x1="134.44" y1="251.55" x2="264.45" y2="381.56" style="fill: none; stroke: #000; stroke-miterlimit: 10; stroke-width: 3px;"/>
          <line x1="138.48" y1="247.52" x2="268.48" y2="377.52" style="fill: none; stroke: #000; stroke-miterlimit: 10; stroke-width: 3px;"/>
          <line x1="142.52" y1="243.48" x2="272.52" y2="373.48" style="fill: none; stroke: #000; stroke-miterlimit: 10; stroke-width: 3px;"/>
          <line x1="146.56" y1="239.44" x2="276.56" y2="369.44" style="fill: none; stroke: #000; stroke-miterlimit: 10; stroke-width: 3px;"/>
          <line x1="150.6" y1="235.4" x2="280.6" y2="365.4" style="fill: none; stroke: #000; stroke-miterlimit: 10; stroke-width: 3px;"/>
          <line x1="154.64" y1="231.36" x2="284.64" y2="361.36" style="fill: none; stroke: #000; stroke-miterlimit: 10; stroke-width: 3px;"/>
          <line x1="158.67" y1="227.32" x2="288.68" y2="357.33" style="fill: none; stroke: #000; stroke-miterlimit: 10; stroke-width: 3px;"/>
          <line x1="162.71" y1="223.29" x2="292.71" y2="353.29" style="fill: none; stroke: #000; stroke-miterlimit: 10; stroke-width: 3px;"/>
          <line x1="166.75" y1="219.25" x2="296.75" y2="349.25" style="fill: none; stroke: #000; stroke-miterlimit: 10; stroke-width: 3px;"/>
          <line x1="170.79" y1="215.21" x2="300.79" y2="345.21" style="fill: none; stroke: #000; stroke-miterlimit: 10; stroke-width: 3px;"/>
          <line x1="174.83" y1="211.17" x2="304.83" y2="341.17" style="fill: none; stroke: #000; stroke-miterlimit: 10; stroke-width: 3px;"/>
          <line x1="178.87" y1="207.13" x2="308.87" y2="337.13" style="fill: none; stroke: #000; stroke-miterlimit: 10; stroke-width: 3px;"/>
          <line x1="182.9" y1="203.09" x2="312.91" y2="333.1" style="fill: none; stroke: #000; stroke-miterlimit: 10; stroke-width: 3px;"/>
          <line x1="186.94" y1="199.06" x2="316.94" y2="329.06" style="fill: none; stroke: #000; stroke-miterlimit: 10; stroke-width: 3px;"/>
          <line x1="190.98" y1="195.02" x2="320.98" y2="325.02" style="fill: none; stroke: #000; stroke-miterlimit: 10; stroke-width: 3px;"/>
          <line x1="195.02" y1="190.98" x2="325.02" y2="320.98" style="fill: none; stroke: #000; stroke-miterlimit: 10; stroke-width: 3px;"/>
          <line x1="199.06" y1="186.94" x2="329.06" y2="316.94" style="fill: none; stroke: #000; stroke-miterlimit: 10; stroke-width: 3px;"/>
          <line x1="203.09" y1="182.9" x2="333.1" y2="312.91" style="fill: none; stroke: #000; stroke-miterlimit: 10; stroke-width: 3px;"/>
          <line x1="207.13" y1="178.87" x2="337.13" y2="308.87" style="fill: none; stroke: #000; stroke-miterlimit: 10; stroke-width: 3px;"/>
          <line x1="211.17" y1="174.83" x2="341.17" y2="304.83" style="fill: none; stroke: #000; stroke-miterlimit: 10; stroke-width: 3px;"/>
          <line x1="215.21" y1="170.79" x2="345.21" y2="300.79" style="fill: none; stroke: #000; stroke-miterlimit: 10; stroke-width: 3px;"/>
          <line x1="219.25" y1="166.75" x2="349.25" y2="296.75" style="fill: none; stroke: #000; stroke-miterlimit: 10; stroke-width: 3px;"/>
          <line x1="223.29" y1="162.71" x2="353.29" y2="292.71" style="fill: none; stroke: #000; stroke-miterlimit: 10; stroke-width: 3px;"/>
          <line x1="227.32" y1="158.67" x2="357.33" y2="288.68" style="fill: none; stroke: #000; stroke-miterlimit: 10; stroke-width: 3px;"/>
          <line x1="231.36" y1="154.64" x2="361.36" y2="284.64" style="fill: none; stroke: #000; stroke-miterlimit: 10; stroke-width: 3px;"/>
          <line x1="235.4" y1="150.6" x2="365.4" y2="280.6" style="fill: none; stroke: #000; stroke-miterlimit: 10; stroke-width: 3px;"/>
          <line x1="239.44" y1="146.56" x2="369.44" y2="276.56" style="fill: none; stroke: #000; stroke-miterlimit: 10; stroke-width: 3px;"/>
          <line x1="243.48" y1="142.52" x2="373.48" y2="272.52" style="fill: none; stroke: #000; stroke-miterlimit: 10; stroke-width: 3px;"/>
          <line x1="247.52" y1="138.48" x2="377.52" y2="268.48" style="fill: none; stroke: #000; stroke-miterlimit: 10; stroke-width: 3px;"/>
          <line x1="251.55" y1="134.44" x2="381.56" y2="264.45" style="fill: none; stroke: #000; stroke-miterlimit: 10; stroke-width: 3px;"/>
          <line x1="255.59" y1="130.41" x2="385.59" y2="260.41" style="fill: none; stroke: #000; stroke-miterlimit: 10; stroke-width: 3px;"/>
        </g>
        <g>
          <line x1="-127.59" y1="255.59" x2="2.41" y2="385.59" style="fill: none; stroke: #000; stroke-miterlimit: 10; stroke-width: 3px;"/>
          <line x1="-123.56" y1="251.55" x2="6.45" y2="381.56" style="fill: none; stroke: #000; stroke-miterlimit: 10; stroke-width: 3px;"/>
          <line x1="-119.52" y1="247.52" x2="10.48" y2="377.52" style="fill: none; stroke: #000; stroke-miterlimit: 10; stroke-width: 3px;"/>
          <line x1="-115.48" y1="243.48" x2="14.52" y2="373.48" style="fill: none; stroke: #000; stroke-miterlimit: 10; stroke-width: 3px;"/>
          <line x1="-111.44" y1="239.44" x2="18.56" y2="369.44" style="fill: none; stroke: #000; stroke-miterlimit: 10; stroke-width: 3px;"/>
          <line x1="-107.4" y1="235.4" x2="22.6" y2="365.4" style="fill: none; stroke: #000; stroke-miterlimit: 10; stroke-width: 3px;"/>
          <line x1="-103.36" y1="231.36" x2="26.64" y2="361.36" style="fill: none; stroke: #000; stroke-miterlimit: 10; stroke-width: 3px;"/>
          <line x1="-99.33" y1="227.32" x2="30.68" y2="357.33" style="fill: none; stroke: #000; stroke-miterlimit: 10; stroke-width: 3px;"/>
          <line x1="-95.29" y1="223.29" x2="34.71" y2="353.29" style="fill: none; stroke: #000; stroke-miterlimit: 10; stroke-width: 3px;"/>
          <line x1="-91.25" y1="219.25" x2="38.75" y2="349.25" style="fill: none; stroke: #000; stroke-miterlimit: 10; stroke-width: 3px;"/>
          <line x1="-87.21" y1="215.21" x2="42.79" y2="345.21" style="fill: none; stroke: #000; stroke-miterlimit: 10; stroke-width: 3px;"/>
          <line x1="-83.17" y1="211.17" x2="46.83" y2="341.17" style="fill: none; stroke: #000; stroke-miterlimit: 10; stroke-width: 3px;"/>
          <line x1="-79.13" y1="207.13" x2="50.87" y2="337.13" style="fill: none; stroke: #000; stroke-miterlimit: 10; stroke-width: 3px;"/>
          <line x1="-75.1" y1="203.09" x2="54.91" y2="333.1" style="fill: none; stroke: #000; stroke-miterlimit: 10; stroke-width: 3px;"/>
          <line x1="-71.06" y1="199.06" x2="58.94" y2="329.06" style="fill: none; stroke: #000; stroke-miterlimit: 10; stroke-width: 3px;"/>
          <line x1="-67.02" y1="195.02" x2="62.98" y2="325.02" style="fill: none; stroke: #000; stroke-miterlimit: 10; stroke-width: 3px;"/>
          <line x1="-62.98" y1="190.98" x2="67.02" y2="320.98" style="fill: none; stroke: #000; stroke-miterlimit: 10; stroke-width: 3px;"/>
          <line x1="-58.94" y1="186.94" x2="71.06" y2="316.94" style="fill: none; stroke: #000; stroke-miterlimit: 10; stroke-width: 3px;"/>
          <line x1="-54.91" y1="182.9" x2="75.1" y2="312.91" style="fill: none; stroke: #000; stroke-miterlimit: 10; stroke-width: 3px;"/>
          <line x1="-50.87" y1="178.87" x2="79.13" y2="308.87" style="fill: none; stroke: #000; stroke-miterlimit: 10; stroke-width: 3px;"/>
          <line x1="-46.83" y1="174.83" x2="83.17" y2="304.83" style="fill: none; stroke: #000; stroke-miterlimit: 10; stroke-width: 3px;"/>
          <line x1="-42.79" y1="170.79" x2="87.21" y2="300.79" style="fill: none; stroke: #000; stroke-miterlimit: 10; stroke-width: 3px;"/>
          <line x1="-38.75" y1="166.75" x2="91.25" y2="296.75" style="fill: none; stroke: #000; stroke-miterlimit: 10; stroke-width: 3px;"/>
          <line x1="-34.71" y1="162.71" x2="95.29" y2="292.71" style="fill: none; stroke: #000; stroke-miterlimit: 10; stroke-width: 3px;"/>
          <line x1="-30.68" y1="158.67" x2="99.33" y2="288.68" style="fill: none; stroke: #000; stroke-miterlimit: 10; stroke-width: 3px;"/>
          <line x1="-26.64" y1="154.64" x2="103.36" y2="284.64" style="fill: none; stroke: #000; stroke-miterlimit: 10; stroke-width: 3px;"/>
          <line x1="-22.6" y1="150.6" x2="107.4" y2="280.6" style="fill: none; stroke: #000; stroke-miterlimit: 10; stroke-width: 3px;"/>
          <line x1="-18.56" y1="146.56" x2="111.44" y2="276.56" style="fill: none; stroke: #000; stroke-miterlimit: 10; stroke-width: 3px;"/>
          <line x1="-14.52" y1="142.52" x2="115.48" y2="272.52" style="fill: none; stroke: #000; stroke-miterlimit: 10; stroke-width: 3px;"/>
          <line x1="-10.48" y1="138.48" x2="119.52" y2="268.48" style="fill: none; stroke: #000; stroke-miterlimit: 10; stroke-width: 3px;"/>
          <line x1="-6.45" y1="134.44" x2="123.56" y2="264.45" style="fill: none; stroke: #000; stroke-miterlimit: 10; stroke-width: 3px;"/>
          <line x1="-2.41" y1="130.41" x2="127.59" y2="260.41" style="fill: none; stroke: #000; stroke-miterlimit: 10; stroke-width: 3px;"/>
        </g>
        <g>
          <line x1="1.41" y1="126.59" x2="131.41" y2="256.59" style="fill: none; stroke: #000; stroke-miterlimit: 10; stroke-width: 3px;"/>
          <line x1="5.44" y1="122.55" x2="135.45" y2="252.56" style="fill: none; stroke: #000; stroke-miterlimit: 10; stroke-width: 3px;"/>
          <line x1="9.48" y1="118.52" x2="139.48" y2="248.52" style="fill: none; stroke: #000; stroke-miterlimit: 10; stroke-width: 3px;"/>
          <line x1="13.52" y1="114.48" x2="143.52" y2="244.48" style="fill: none; stroke: #000; stroke-miterlimit: 10; stroke-width: 3px;"/>
          <line x1="17.56" y1="110.44" x2="147.56" y2="240.44" style="fill: none; stroke: #000; stroke-miterlimit: 10; stroke-width: 3px;"/>
          <line x1="21.6" y1="106.4" x2="151.6" y2="236.4" style="fill: none; stroke: #000; stroke-miterlimit: 10; stroke-width: 3px;"/>
          <line x1="25.64" y1="102.36" x2="155.64" y2="232.36" style="fill: none; stroke: #000; stroke-miterlimit: 10; stroke-width: 3px;"/>
          <line x1="29.67" y1="98.32" x2="159.68" y2="228.33" style="fill: none; stroke: #000; stroke-miterlimit: 10; stroke-width: 3px;"/>
          <line x1="33.71" y1="94.29" x2="163.71" y2="224.29" style="fill: none; stroke: #000; stroke-miterlimit: 10; stroke-width: 3px;"/>
          <line x1="37.75" y1="90.25" x2="167.75" y2="220.25" style="fill: none; stroke: #000; stroke-miterlimit: 10; stroke-width: 3px;"/>
          <line x1="41.79" y1="86.21" x2="171.79" y2="216.21" style="fill: none; stroke: #000; stroke-miterlimit: 10; stroke-width: 3px;"/>
          <line x1="45.83" y1="82.17" x2="175.83" y2="212.17" style="fill: none; stroke: #000; stroke-miterlimit: 10; stroke-width: 3px;"/>
          <line x1="49.87" y1="78.13" x2="179.87" y2="208.13" style="fill: none; stroke: #000; stroke-miterlimit: 10; stroke-width: 3px;"/>
          <line x1="53.9" y1="74.09" x2="183.91" y2="204.1" style="fill: none; stroke: #000; stroke-miterlimit: 10; stroke-width: 3px;"/>
          <line x1="57.94" y1="70.06" x2="187.94" y2="200.06" style="fill: none; stroke: #000; stroke-miterlimit: 10; stroke-width: 3px;"/>
          <line x1="61.98" y1="66.02" x2="191.98" y2="196.02" style="fill: none; stroke: #000; stroke-miterlimit: 10; stroke-width: 3px;"/>
          <line x1="66.02" y1="61.98" x2="196.02" y2="191.98" style="fill: none; stroke: #000; stroke-miterlimit: 10; stroke-width: 3px;"/>
          <line x1="70.06" y1="57.94" x2="200.06" y2="187.94" style="fill: none; stroke: #000; stroke-miterlimit: 10; stroke-width: 3px;"/>
          <line x1="74.09" y1="53.9" x2="204.1" y2="183.91" style="fill: none; stroke: #000; stroke-miterlimit: 10; stroke-width: 3px;"/>
          <line x1="78.13" y1="49.87" x2="208.13" y2="179.87" style="fill: none; stroke: #000; stroke-miterlimit: 10; stroke-width: 3px;"/>
          <line x1="82.17" y1="45.83" x2="212.17" y2="175.83" style="fill: none; stroke: #000; stroke-miterlimit: 10; stroke-width: 3px;"/>
          <line x1="86.21" y1="41.79" x2="216.21" y2="171.79" style="fill: none; stroke: #000; stroke-miterlimit: 10; stroke-width: 3px;"/>
          <line x1="90.25" y1="37.75" x2="220.25" y2="167.75" style="fill: none; stroke: #000; stroke-miterlimit: 10; stroke-width: 3px;"/>
          <line x1="94.29" y1="33.71" x2="224.29" y2="163.71" style="fill: none; stroke: #000; stroke-miterlimit: 10; stroke-width: 3px;"/>
          <line x1="98.32" y1="29.67" x2="228.33" y2="159.68" style="fill: none; stroke: #000; stroke-miterlimit: 10; stroke-width: 3px;"/>
          <line x1="102.36" y1="25.64" x2="232.36" y2="155.64" style="fill: none; stroke: #000; stroke-miterlimit: 10; stroke-width: 3px;"/>
          <line x1="106.4" y1="21.6" x2="236.4" y2="151.6" style="fill: none; stroke: #000; stroke-miterlimit: 10; stroke-width: 3px;"/>
          <line x1="110.44" y1="17.56" x2="240.44" y2="147.56" style="fill: none; stroke: #000; stroke-miterlimit: 10; stroke-width: 3px;"/>
          <line x1="114.48" y1="13.52" x2="244.48" y2="143.52" style="fill: none; stroke: #000; stroke-miterlimit: 10; stroke-width: 3px;"/>
          <line x1="118.52" y1="9.48" x2="248.52" y2="139.48" style="fill: none; stroke: #000; stroke-miterlimit: 10; stroke-width: 3px;"/>
          <line x1="122.55" y1="5.44" x2="252.56" y2="135.45" style="fill: none; stroke: #000; stroke-miterlimit: 10; stroke-width: 3px;"/>
          <line x1="126.59" y1="1.41" x2="256.59" y2="131.41" style="fill: none; stroke: #000; stroke-miterlimit: 10; stroke-width: 3px;"/>
        </g>
        <g>
          <line x1="130.41" y1="-2.41" x2="260.41" y2="127.59" style="fill: none; stroke: #000; stroke-miterlimit: 10; stroke-width: 3px;"/>
          <line x1="134.44" y1="-6.45" x2="264.45" y2="123.56" style="fill: none; stroke: #000; stroke-miterlimit: 10; stroke-width: 3px;"/>
          <line x1="138.48" y1="-10.48" x2="268.48" y2="119.52" style="fill: none; stroke: #000; stroke-miterlimit: 10; stroke-width: 3px;"/>
          <line x1="142.52" y1="-14.52" x2="272.52" y2="115.48" style="fill: none; stroke: #000; stroke-miterlimit: 10; stroke-width: 3px;"/>
          <line x1="146.56" y1="-18.56" x2="276.56" y2="111.44" style="fill: none; stroke: #000; stroke-miterlimit: 10; stroke-width: 3px;"/>
          <line x1="150.6" y1="-22.6" x2="280.6" y2="107.4" style="fill: none; stroke: #000; stroke-miterlimit: 10; stroke-width: 3px;"/>
          <line x1="154.64" y1="-26.64" x2="284.64" y2="103.36" style="fill: none; stroke: #000; stroke-miterlimit: 10; stroke-width: 3px;"/>
          <line x1="158.67" y1="-30.68" x2="288.68" y2="99.33" style="fill: none; stroke: #000; stroke-miterlimit: 10; stroke-width: 3px;"/>
          <line x1="162.71" y1="-34.71" x2="292.71" y2="95.29" style="fill: none; stroke: #000; stroke-miterlimit: 10; stroke-width: 3px;"/>
          <line x1="166.75" y1="-38.75" x2="296.75" y2="91.25" style="fill: none; stroke: #000; stroke-miterlimit: 10; stroke-width: 3px;"/>
          <line x1="170.79" y1="-42.79" x2="300.79" y2="87.21" style="fill: none; stroke: #000; stroke-miterlimit: 10; stroke-width: 3px;"/>
          <line x1="174.83" y1="-46.83" x2="304.83" y2="83.17" style="fill: none; stroke: #000; stroke-miterlimit: 10; stroke-width: 3px;"/>
          <line x1="178.87" y1="-50.87" x2="308.87" y2="79.13" style="fill: none; stroke: #000; stroke-miterlimit: 10; stroke-width: 3px;"/>
          <line x1="182.9" y1="-54.91" x2="312.91" y2="75.1" style="fill: none; stroke: #000; stroke-miterlimit: 10; stroke-width: 3px;"/>
          <line x1="186.94" y1="-58.94" x2="316.94" y2="71.06" style="fill: none; stroke: #000; stroke-miterlimit: 10; stroke-width: 3px;"/>
          <line x1="190.98" y1="-62.98" x2="320.98" y2="67.02" style="fill: none; stroke: #000; stroke-miterlimit: 10; stroke-width: 3px;"/>
          <line x1="195.02" y1="-67.02" x2="325.02" y2="62.98" style="fill: none; stroke: #000; stroke-miterlimit: 10; stroke-width: 3px;"/>
          <line x1="199.06" y1="-71.06" x2="329.06" y2="58.94" style="fill: none; stroke: #000; stroke-miterlimit: 10; stroke-width: 3px;"/>
          <line x1="203.09" y1="-75.1" x2="333.1" y2="54.91" style="fill: none; stroke: #000; stroke-miterlimit: 10; stroke-width: 3px;"/>
          <line x1="207.13" y1="-79.13" x2="337.13" y2="50.87" style="fill: none; stroke: #000; stroke-miterlimit: 10; stroke-width: 3px;"/>
          <line x1="211.17" y1="-83.17" x2="341.17" y2="46.83" style="fill: none; stroke: #000; stroke-miterlimit: 10; stroke-width: 3px;"/>
          <line x1="215.21" y1="-87.21" x2="345.21" y2="42.79" style="fill: none; stroke: #000; stroke-miterlimit: 10; stroke-width: 3px;"/>
          <line x1="219.25" y1="-91.25" x2="349.25" y2="38.75" style="fill: none; stroke: #000; stroke-miterlimit: 10; stroke-width: 3px;"/>
          <line x1="223.29" y1="-95.29" x2="353.29" y2="34.71" style="fill: none; stroke: #000; stroke-miterlimit: 10; stroke-width: 3px;"/>
          <line x1="227.32" y1="-99.33" x2="357.33" y2="30.68" style="fill: none; stroke: #000; stroke-miterlimit: 10; stroke-width: 3px;"/>
          <line x1="231.36" y1="-103.36" x2="361.36" y2="26.64" style="fill: none; stroke: #000; stroke-miterlimit: 10; stroke-width: 3px;"/>
          <line x1="235.4" y1="-107.4" x2="365.4" y2="22.6" style="fill: none; stroke: #000; stroke-miterlimit: 10; stroke-width: 3px;"/>
          <line x1="239.44" y1="-111.44" x2="369.44" y2="18.56" style="fill: none; stroke: #000; stroke-miterlimit: 10; stroke-width: 3px;"/>
          <line x1="243.48" y1="-115.48" x2="373.48" y2="14.52" style="fill: none; stroke: #000; stroke-miterlimit: 10; stroke-width: 3px;"/>
          <line x1="247.52" y1="-119.52" x2="377.52" y2="10.48" style="fill: none; stroke: #000; stroke-miterlimit: 10; stroke-width: 3px;"/>
          <line x1="251.55" y1="-123.56" x2="381.56" y2="6.45" style="fill: none; stroke: #000; stroke-miterlimit: 10; stroke-width: 3px;"/>
          <line x1="255.59" y1="-127.59" x2="385.59" y2="2.41" style="fill: none; stroke: #000; stroke-miterlimit: 10; stroke-width: 3px;"/>
        </g>
        <g>
          <line x1="-127.59" y1="-2.41" x2="2.41" y2="127.59" style="fill: none; stroke: #000; stroke-miterlimit: 10; stroke-width: 3px;"/>
          <line x1="-123.56" y1="-6.45" x2="6.45" y2="123.56" style="fill: none; stroke: #000; stroke-miterlimit: 10; stroke-width: 3px;"/>
          <line x1="-119.52" y1="-10.48" x2="10.48" y2="119.52" style="fill: none; stroke: #000; stroke-miterlimit: 10; stroke-width: 3px;"/>
          <line x1="-115.48" y1="-14.52" x2="14.52" y2="115.48" style="fill: none; stroke: #000; stroke-miterlimit: 10; stroke-width: 3px;"/>
          <line x1="-111.44" y1="-18.56" x2="18.56" y2="111.44" style="fill: none; stroke: #000; stroke-miterlimit: 10; stroke-width: 3px;"/>
          <line x1="-107.4" y1="-22.6" x2="22.6" y2="107.4" style="fill: none; stroke: #000; stroke-miterlimit: 10; stroke-width: 3px;"/>
          <line x1="-103.36" y1="-26.64" x2="26.64" y2="103.36" style="fill: none; stroke: #000; stroke-miterlimit: 10; stroke-width: 3px;"/>
          <line x1="-99.33" y1="-30.68" x2="30.68" y2="99.33" style="fill: none; stroke: #000; stroke-miterlimit: 10; stroke-width: 3px;"/>
          <line x1="-95.29" y1="-34.71" x2="34.71" y2="95.29" style="fill: none; stroke: #000; stroke-miterlimit: 10; stroke-width: 3px;"/>
          <line x1="-91.25" y1="-38.75" x2="38.75" y2="91.25" style="fill: none; stroke: #000; stroke-miterlimit: 10; stroke-width: 3px;"/>
          <line x1="-87.21" y1="-42.79" x2="42.79" y2="87.21" style="fill: none; stroke: #000; stroke-miterlimit: 10; stroke-width: 3px;"/>
          <line x1="-83.17" y1="-46.83" x2="46.83" y2="83.17" style="fill: none; stroke: #000; stroke-miterlimit: 10; stroke-width: 3px;"/>
          <line x1="-79.13" y1="-50.87" x2="50.87" y2="79.13" style="fill: none; stroke: #000; stroke-miterlimit: 10; stroke-width: 3px;"/>
          <line x1="-75.1" y1="-54.91" x2="54.91" y2="75.1" style="fill: none; stroke: #000; stroke-miterlimit: 10; stroke-width: 3px;"/>
          <line x1="-71.06" y1="-58.94" x2="58.94" y2="71.06" style="fill: none; stroke: #000; stroke-miterlimit: 10; stroke-width: 3px;"/>
          <line x1="-67.02" y1="-62.98" x2="62.98" y2="67.02" style="fill: none; stroke: #000; stroke-miterlimit: 10; stroke-width: 3px;"/>
          <line x1="-62.98" y1="-67.02" x2="67.02" y2="62.98" style="fill: none; stroke: #000; stroke-miterlimit: 10; stroke-width: 3px;"/>
          <line x1="-58.94" y1="-71.06" x2="71.06" y2="58.94" style="fill: none; stroke: #000; stroke-miterlimit: 10; stroke-width: 3px;"/>
          <line x1="-54.91" y1="-75.1" x2="75.1" y2="54.91" style="fill: none; stroke: #000; stroke-miterlimit: 10; stroke-width: 3px;"/>
          <line x1="-50.87" y1="-79.13" x2="79.13" y2="50.87" style="fill: none; stroke: #000; stroke-miterlimit: 10; stroke-width: 3px;"/>
          <line x1="-46.83" y1="-83.17" x2="83.17" y2="46.83" style="fill: none; stroke: #000; stroke-miterlimit: 10; stroke-width: 3px;"/>
          <line x1="-42.79" y1="-87.21" x2="87.21" y2="42.79" style="fill: none; stroke: #000; stroke-miterlimit: 10; stroke-width: 3px;"/>
          <line x1="-38.75" y1="-91.25" x2="91.25" y2="38.75" style="fill: none; stroke: #000; stroke-miterlimit: 10; stroke-width: 3px;"/>
          <line x1="-34.71" y1="-95.29" x2="95.29" y2="34.71" style="fill: none; stroke: #000; stroke-miterlimit: 10; stroke-width: 3px;"/>
          <line x1="-30.68" y1="-99.33" x2="99.33" y2="30.68" style="fill: none; stroke: #000; stroke-miterlimit: 10; stroke-width: 3px;"/>
          <line x1="-26.64" y1="-103.36" x2="103.36" y2="26.64" style="fill: none; stroke: #000; stroke-miterlimit: 10; stroke-width: 3px;"/>
          <line x1="-22.6" y1="-107.4" x2="107.4" y2="22.6" style="fill: none; stroke: #000; stroke-miterlimit: 10; stroke-width: 3px;"/>
          <line x1="-18.56" y1="-111.44" x2="111.44" y2="18.56" style="fill: none; stroke: #000; stroke-miterlimit: 10; stroke-width: 3px;"/>
          <line x1="-14.52" y1="-115.48" x2="115.48" y2="14.52" style="fill: none; stroke: #000; stroke-miterlimit: 10; stroke-width: 3px;"/>
          <line x1="-10.48" y1="-119.52" x2="119.52" y2="10.48" style="fill: none; stroke: #000; stroke-miterlimit: 10; stroke-width: 3px;"/>
          <line x1="-6.45" y1="-123.56" x2="123.56" y2="6.45" style="fill: none; stroke: #000; stroke-miterlimit: 10; stroke-width: 3px;"/>
          <line x1="-2.41" y1="-127.59" x2="127.59" y2="2.41" style="fill: none; stroke: #000; stroke-miterlimit: 10; stroke-width: 3px;"/>
        </g>
      </g>
    </pattern>
    <pattern id="Ed_line_thin-2" data-name="Ed line thin" patternTransform="translate(3098.86 4202.49) scale(.68)" xlink:href="#Ed_line_thin"/>
    <pattern id="Ed_line_thin-3" data-name="Ed line thin" patternTransform="translate(-7230.16 4205.16) rotate(-180) scale(.68 -.68)" xlink:href="#Ed_line_thin"/>
    <pattern id="Ed_line_thin-4" data-name="Ed line thin" patternTransform="translate(-7230.16 4205.16) rotate(-180) scale(.68 -.68)" xlink:href="#Ed_line_thin"/>
    <pattern id="Ed_line_thin-5" data-name="Ed line thin" patternTransform="translate(-7234.57 4196.72) rotate(-180) scale(.68 -.68)" xlink:href="#Ed_line_thin"/>
    <pattern id="Ed_line_thin-6" data-name="Ed line thin" patternTransform="translate(-7234.57 4193.1) rotate(-180) scale(.68 -.68)" xlink:href="#Ed_line_thin"/>
    <pattern id="Ed_line_thin-7" data-name="Ed line thin" patternTransform="translate(-7234.57 4193.1) rotate(-180) scale(.68 -.68)" xlink:href="#Ed_line_thin"/>
    <pattern id="Ed_line_thin-8" data-name="Ed line thin" patternTransform="translate(3098.86 4202.49) scale(.68)" xlink:href="#Ed_line_thin"/>
    <pattern id="Ed_line_thin-9" data-name="Ed line thin" patternTransform="translate(3098.86 4202.49) scale(.68)" xlink:href="#Ed_line_thin"/>
    <pattern id="Ed_line_thin-10" data-name="Ed line thin" patternTransform="translate(3103.28 4194.05) scale(.68)" xlink:href="#Ed_line_thin"/>
    <pattern id="Ed_line_thin-11" data-name="Ed line thin" patternTransform="translate(3103.28 4190.44) scale(.68)" xlink:href="#Ed_line_thin"/>
    <pattern id="Ed_line_thin-12" data-name="Ed line thin" patternTransform="translate(3103.28 4190.44) scale(.68)" xlink:href="#Ed_line_thin"/>
    <pattern id="Ed_line_thin-13" data-name="Ed line thin" patternTransform="translate(3098.86 4202.49) scale(.68)" xlink:href="#Ed_line_thin"/>
  </defs>
  <g style="isolation: isolate;">
    <g id="Layer_1" data-name="Layer 1">
      <g style="clip-path: url(#clippath);">
        <circle cx="302.79" cy="302.79" r="302.73" style="fill: #a5d3d7;"/>
        <g style="mix-blend-mode: soft-light; opacity: .7;">
          <path d="M599.19,364.36c-34.01,163.7-194.28,268.83-357.98,234.83-17.77-3.69-34.85-8.87-51.13-15.38,11.43,3.85,23.21,7.06,35.31,9.57,163.7,34.01,323.96-71.13,357.97-234.82,30.32-145.93-49.93-289.13-183.67-342.59,143.16,48.16,230.99,196.81,199.5,348.4Z"/>
        </g>
        <g style="mix-blend-mode: soft-light; opacity: .7;">
          <path d="M352.81,592.53c-40.69,9.09-83.93,9.88-127.42.84-12.1-2.51-23.88-5.72-35.31-9.57C56.33,530.35-23.93,387.14,6.39,241.21,32.44,115.84,132.54,24.82,251.52,4.35,139.03,29.5,45.99,118.12,21.02,238.32c-30.32,145.93,49.94,289.14,183.69,342.59,11.43,3.85,23.21,7.06,35.31,9.57,38.31,7.96,76.43,8.29,112.79,2.05Z"/>
        </g>
        <path d="M599.19,364.36c-34.01,163.7-194.28,268.83-357.98,234.83-60.36-12.54-112.76-42.25-153.16-82.98,21.5,10.26,44.57,18.11,68.93,23.17,163.69,34.01,323.96-71.13,357.97-234.83,21.47-103.34-12.52-205.31-81.68-275.01,122.99,58.62,194.86,195.47,165.91,334.81Z" style="fill: url(#Ed_line_thin); mix-blend-mode: soft-light; opacity: .4;"/>
        <path d="M408.83,416c0,100.84-5.03,210.37-5.03,311.22h-97.43s-75.29,10.47-54.59-31.79c.2-.41-36.08-7.95-12.42-26.31-6.23-16.6,3.53-35.86-4.3-58.52-27.95-80.96-3.35-199.88-3.35-199.88,0,0-.1.02-.29.08-.35.1-1.03.3-2,.58.64-.2,1.3-.4,1.99-.61,1.41-.43,2.92-.89,4.52-1.39.04-.02.09-.02.13-.04.47-.14.93-.29,1.39-.43,2.42-.76,4.77-1.49,7.04-2.2.52-.16,1.05-.33,1.56-.49,7.51-2.37,14.18-4.55,20.12-6.53,2.12-.72,4.16-1.4,6.11-2.06.12-.05.24-.09.37-.13,1.37-.47,2.7-.93,3.99-1.37,25.45-8.77,35.15-13.11,45.82-14.83,6.12-.99,13.22-1.22,21.36.06,3.66.57,7.52,1.46,11.61,2.71,1.42.44,2.87.93,4.34,1.46,1.07.39,2.15.8,3.25,1.23,5.27,2.1,10.87,4.82,16.8,8.28h0c4.81,2.8,9.83,6.08,15.09,9.93,4.47,3.26,9.11,6.93,13.91,11.03Z" style="fill: #2c2e37;"/>
        <g>
          <path d="M312.3,373.35c-15.52,0-29.51,1.85-39.34,4.8.44-12.25.85-24.38,1.16-33.84.34-10.42.53-17.59.45-18.11l78.27-3.79,1.33,31.66.14,3.19.92,22.08c-9.83-3.64-25.4-5.99-42.92-5.99Z" style="fill: #e5a173;"/>
          <path d="M357.42,431.73c-37.42,41.53-86.44,1.59-86.44,1.59,0,0,.16-4.21.4-10.97.23-6.21.53-14.57.87-23.78,9.85,3.08,24.15,5.02,40.06,5.02,17.98,0,33.9-2.48,43.68-6.28l1.44,34.42Z"/>
        </g>
        <path d="M119.74,458.42s-25.52,17.95-29,32.46c-6.72,27.99-11.13,60.48-12.53,89.44-1.76,36.55,2.69,46.46,1.61,83.03-2.17,73.15-8.85,172.99-8.3,246.16.17,22.44.51,44.88.51,67.32,0,0,51.07,5.43,73.43-6.04,4.91-2.52,21.16-44.42,20.57-58.93-1.34-33.04-.99-56.41,1.01-85.53,4.62-67.22,5.45-132.09,10.25-199.26,3.29-50.28-56.12-167.67-57.55-168.66Z" style="fill: #2c2e37;"/>
        <path d="M548.4,974.4s-50.92,5.91-72.78-8c-.93-.59-2.64-4.48-4.71-10.23-6.36-17.62-16.07-52.68-16.61-63.57-1.4-29.16-3.1-58.29-5.1-87.41-4.61-67.22-12.65-134.14-17.45-201.3-1.64-25.11,6.32-51.46,19.94-75.49.12-.23.25-.44.38-.66,12.83-22.43,30.58-42.8,50.02-58.21,1.22-.97,2.45-1.91,3.68-2.84,1.39-1.05,2.81-2.06,4.24-3.06,0,0,12.57,4.82,20.1,13.83,2,2.38,3.63,5.06,4.59,8.02.7,2.17,1.34,4.3,1.9,6.4,0,.04.02.09.03.13.39,1.44.75,2.87,1.07,4.29.07.31.14.62.22.93,5.72,25.42,2.54,46.61,3.76,71.8.35,7.12.45,13.23.41,18.71-.18,22.71-2.9,34.87-2.02,64.32,2.16,73.15,8.85,172.98,8.29,246.16-.17,22.44.03,53.74.03,76.19Z" style="fill: #2c2e37;"/>
        <path d="M530.1,476.49h0c-24.34-35.66-133.42-71.04-135.12-71.59,0,0-.02,0-.02,0,0,0,0,.02-.02.07-.26.84-49.56,53.28-53.55,66.19-11.63,37.58,24.7,508.25,24.7,508.25,2.08,0,4.03,0,5.83,0,27.79,0,89.76-2.62,98.02-19.15.39-.8.72-2.17,1-4.09h0c5.28-37.8-13.76-282.63-8.05-301.22,4.63-15.04,42.16-112.57,59.16-156.59,4.29-11.1,7.27-18.81,8.09-20.92.06-.15.1-.27.14-.36.06-.15.09-.23.09-.23-.08-.12-.16-.23-.25-.35Z" style="fill: #324159;"/>
        <polygon points="435.85 495.24 435.41 495.81 435.41 494.97 435.85 495.24" style="fill: #517a7a;"/>
        <path d="M394.92,404.85l.02.05h0s0-.02-.02-.05Z" style="fill: #282b2b; mix-blend-mode: soft-light; opacity: .39;"/>
        <path d="M383.58,398.47s.04.03.06.05c0,.02-.02.02-.02.04-.03.07-.07.15-.1.23.02-.09.03-.17.06-.25,0-.02,0-.05.02-.06Z" style="fill: #282b2b; mix-blend-mode: soft-light; opacity: .39;"/>
        <path d="M390.14,360.27s-.02.14-.05.4c-.1-.35-.09-.51.05-.4Z" style="fill: #282b2b; mix-blend-mode: soft-light; opacity: .39;"/>
        <path d="M296.16,478.66c-17.32-52.34-64.45-67.94-64.45-67.94,0,0-.1.03-.29.08-.36.11-1.03.3-2,.58-.14.04-.28.08-.44.13-.31.1-.66.19-1.02.3-.25.08-.53.16-.8.24-.09.03-.18.05-.27.09-.39.12-.77.23-1.13.34-.53.17-1.11.34-1.71.52-25.27,7.76-105.54,34.32-125.72,64.57,0,0,.01.03.03.1,1.77,4.57,61.52,158.76,67.43,177.99,5.37,17.47-11.1,234.65-8.74,292.18.28,6.8.82,11.38,1.7,13.12,8.27,16.53,70.23,19.16,98.02,19.16,4.56,0,10.09,0,16.26.01,0,0,29.88-481.06,23.12-501.47Z" style="fill: #324159;"/>
        <rect x="72.93" y="70.1" width="475.19" height="504.79" style="fill: none;"/>
        <path d="M355.98,397.31c-9.78,3.8-25.69,6.28-43.68,6.28-15.91,0-30.21-1.93-40.06-5.02.24-6.54.49-13.5.72-20.42,9.83-2.95,23.81-4.8,39.34-4.8,17.52,0,33.09,2.35,42.92,5.99l.75,17.98Z" style="fill: #e5a173;"/>
        <path d="M272.97,378.15c-.24,6.93-.49,13.89-.72,20.42-8.57-2.68-13.78-6.22-13.78-10.11s5.51-7.62,14.51-10.32Z"/>
        <path d="M366.15,388.47c0,3.3-3.77,6.36-10.17,8.85l-.75-17.98c6.85,2.54,10.92,5.7,10.92,9.13Z"/>
        <path d="M354.17,362.17c-14.72,6.75-33.54,8.69-47.71,5.56-7-1.54-13.86-4.02-20.41-7.46-3.48-1.83-9.25-7.89-11.92-5.64-.47,14.48-1.19,35.2-1.83,53.02,3.61-.59,7.54.62,10.33,3.12,1.21,1.08,2.27,2.29,3.22,3.57,1.11-4.39,2.35-8.73,3.73-13,.73-2.27,1.55-4.6,3.02-6.23,3.68-4.09,9.35-2.12,14.13-.66,8.17,2.5,17.07,2.74,24.74-1.58,9.35-5.27,15.47-16.31,22.85-25.29l-.14-5.41Z" style="mix-blend-mode: soft-light; opacity: .45;"/>
        <path d="M371.14,398.3c-.43-5.2-3.29-9.23-5.98-12.82l-5.51.2c-1.29,4.59-3.22,8.79-6.19,12.29-9.05,10.66-20.39,13.45-31.86,13.37-13.25-.1-48.61,1.7-51.73-22.41l-11.82.43c1.48,7.3-2.86,14.61-2.57,22.19.23,6.13,3.52,11.33,7.36,14.2,3.84,2.87,8.21,3.89,12.46,5.17,4.83,1.45,9.6,3.29,14.44,4.72,19.74,5.81,40.5,4.54,59.81-3.66,1.53-.65,3.06-1.35,4.46-2.43,1.91-1.48,3.5-3.62,5.06-5.77,2.12-2.92,4.2-5.89,6.24-8.92,3.12-4.61,6.36-10.21,5.84-16.54Z"/>
        <g>
          <g>
            <path d="M230.16,246.16c-7.68-5.05-21.62-6.19-26.29-.42-4.79,5.93-1.25,26.4,2.62,33.53,8.74,16.13,14.6,22.8,30.92,20.67l-7.25-53.77Z" style="fill: #e5a173;"/>
            <path d="M393.89,246.16c7.68-5.05,21.62-6.19,26.29-.42,4.79,5.93,1.25,26.4-2.62,33.53-8.74,16.13-14.6,22.8-30.92,20.67l7.25-53.77Z" style="fill: #e5a173;"/>
          </g>
          <path d="M406.68,217.58c-.16,6.84-2.2,34.01-2.07,34.02,0,0,0-.01.01-.04.02-.07-3.6,31.51-9.7,53.01-8.49,29.93-32.51,65.31-73.71,68.56-56.5,4.46-78.39-43.53-89.1-68.29-.54-1.25-7.34-25.33-9.91-44.24-.06-.43-.09-.67-.09-.67-.17-1.34-.35-2.66-.52-4-4.84-37.84-4.08-53.24.47-73.95.68-3.08,12.09-53.94,54.33-60.44,18.18-2.79,32.48-3.42,39.33-2.23,50.37,8.75,91.85,60.47,90.96,98.26Z" style="fill: #f4bc95;"/>
        </g>
        <g>
          <path d="M229.5,247.96c-.51.33-1.03.65-1.55.97.1-.27.19-.56.29-.84.42-.04.84-.08,1.26-.13Z" style="fill: #473321;"/>
          <path d="M407.84,268.22c.97-5.15,1.72-10.35,2.52-15.52.75-4.87,1.62-11.2,2.11-14.88,1.49-11.25,2.98-22.51,4.34-33.77,0-.06.01-.11.02-.17,1.39-11.6.23-23.37-3.23-34.53-6.95-22.4-19.99-48.58-43.13-58.07-26.39-10.82-59.94-7.46-83.59,7.46-40.65-8.53-64.58,12.75-71.06,21.53-4.8,6.49-8.73,13.64-11.91,21.09-7.57,17.77-8.86,37.58-4.12,56.3,0,.03.02.06.02.1,2.06,8.12,4.43,16.17,7.11,24.11.75,2.22,1.42,4.43,2.06,6.63,2.28-1.96,4.48-4.26,6.5-6.69l.04,2c-2.41,3.11,4.67,33.97,11.4,45.8-4.17-19.24,2.16-26.65,8.68-43.35.89-3.09,2.18-8.58,2.65-14.2.3-.41.59-.84.88-1.26.3-3.3.74-6.59,1.33-9.87.52-2.88,1.2-5.73,2.07-8.52,1.08-3.48,2.72-7.23,3.77-9.72,2.59-6.13,5.13-12.5,8.42-18.3,1.09-1.93,2.53-3.62,3.86-5.39.8-1.07,1.48-2.21,2.25-3.29.02-.33.06-.65.1-.97-.33.12-.66.25-.99.39,1.57-3.78,3.37-7.33,5.39-10.46,0,0,0,0,0,0,7.57-11.74,18.27-17.69,31.83-8.63,2.44,2.45,4.42,4.47,5.98,6.13.14,2.36.37,4.72.68,7.07,13.02,1.96,25.18,7.39,35.87,15.23,9.93,7.28,19.27,15.13,28.08,23.72,3.01,2.94,6.07,5.86,8.94,8.94,6.77,7.25,18.47,11.63,22.28,20.66,3.79,8.98-.64,42.13-.01,57.97,1.02-2.29,1.98-4.52,2.89-6.69,1.75-6.98,4.64-13.76,5.97-20.83Z" style="fill: #2c2e37;"/>
        </g>
        <path d="M260.01,175.1c.79-.32,1.59-.62,2.4-.88,9.36-3.11,20.14-2.64,29.81-4.23,5-.35,9.04-.15,11.75-.2-.35-2.54-.6-5.09-.75-7.65-1.55-1.66-3.54-3.68-5.98-6.13-13.56-9.06-24.26-3.11-31.83,8.63,0,0,0,0,0,0-2.02,3.13-3.82,6.68-5.39,10.46Z" style="fill: #261406;"/>
        <path d="M305.36,171.54c2.11,7.12,3.12,14.53,5.44,21.58,6.77,20.53,25.31,36.7,46.57,40.61-8.02-3.06-14.62-9.64-17.7-17.65,4.28,8.43,13.79,12.83,22.96,15.11,13.7,3.41,28.22,3.46,41.94.15-15.92-1.79-28.9-13.66-38.35-26.6-9.45-12.94-16.66-27.58-27.66-39.23-8.62-9.13-20.6-16.58-33.46-16.99-2.46-.08-6.82-.36-9,.96-3.53,2.15-1.92,2.85.36,5.69,4.09,5.1,7.01,10.02,8.89,16.36Z" style="fill: #2c2e37;"/>
        <path d="M254.92,118.44l54.55,15.99,31.39-29.41s-46.81-30.43-85.94,13.42Z" style="fill: #2c2e37;"/>
        <polyline points="371.72 633.03 371.17 635.63 373.53 635.9" style="fill: none;"/>
        <polyline points="369.53 638.24 369.53 638.24 369.8 636.21 368.13 635.47" style="fill: none;"/>
        <path d="M286.12,645.6c.57,2.44,2.2,4.59,4.62,4.73,1.05-3.42,2.06-6.87,2.97-10.35h0s-.71-1.92-.71-1.92l1.47-1.08c2.01-8.21,3.38-16.56,3.38-25,0-12.2-2.87-24.31-2.17-36.49,1.21-21.11,13.06-40.84,12.5-61.98-.19-7.23-1.83-14.32-3.47-21.36-.72-3.09-.97-10.06-3.33-12.26-.35-.33-3.36-1.1-5.56-2.01,1.69,5.58,3.51,11.15,4.51,16.9,1.26,7.26,1.21,14.63.87,21.97-.25,5.46-.67,11.09-1.49,16.66-.25,7.06-1.52,14.04-4.37,20.48-.66,1.49-1.4,2.95-2.17,4.39-.39,3.1-1.13,6.18-1.99,9.36-.18.68-.34,1.37-.51,2.05.02.09-.31,1.81-.37,2.31-.27,2.58-.38,5.18-.38,7.79,0,2.62.13,5.24.29,7.85,0,.2.02.37.03.51.02.16.04.33.07.54.15,1.21.3,2.43.48,3.64.77,5.06,1.9,10.07,2.46,15.17,1.06,9.59.14,18.79-2.82,27.86l1.1,2.42-2.24.78c-.93,2.46-1.99,4.82-3.18,7.03Z" style="fill: #683b38;"/>
        <path d="M221.43,405.59c-1.57,4.19-2.68,8.8-1.49,13.11,1.64,5.92,7.14,9.81,12.28,13.17,18.15,11.88,36.62,23.42,53.16,37.46,8.5,7.22,16.57,15.15,26.38,20.44,1.53-10.77-5.09-20.8-11.18-29.81-5.83-8.62-11.45-17.38-16.41-26.52-5.91-10.89-10.96-22.4-18.88-31.93-6.43-7.73-15.41-14.39-25.57-15.92-10.03-1.51-15.32,12.06-18.29,19.99Z" style="fill: #50393a;"/>
        <path d="M309.82,485.2c-4.03-4.1-7.75-8.34-12.2-12.01-4.67-3.85-8.46-8.6-11.88-13.57-3.14-4.55-5.82-9.41-8.87-14.02-3.45-5.21-7.15-10.24-10.94-15.21-.39-.51-.78-1.02-1.18-1.53-.12-.15-.25-.33-.43-.56-.89-1.14-1.78-2.29-2.67-3.43-2.39-3.07-4.79-6.13-7.14-9.22-.13-.17-.24-.32-.34-.44-.38-.49-.77-.97-1.15-1.45-.74-.91-1.48-1.81-2.24-2.7-2.03-2.41-4.13-4.77-6.24-7.11-4.58-5.08-9.22-10.13-13.61-15.37-4.6,4.22-7.53,11.81-9.48,17-1.57,4.19-2.68,8.8-1.49,13.11,1.64,5.92,7.14,9.81,12.28,13.17,18.15,11.88,36.62,23.42,53.16,37.46,8.5,7.22,16.57,15.15,26.38,20.44.13-.94.2-1.88.22-2.81-.78-.5-1.51-1.09-2.17-1.75Z" style="fill: url(#Ed_line_thin-2); mix-blend-mode: soft-light; opacity: .5;"/>
        <path d="M144.11,468.29c8.35-.55,16.6-2.03,24.88-3.25,18.4-2.71,36.98-4.15,55.58-4.3,9.04-.08,18.1.13,27.13.65,3.38.19,6.6.32,9.85,1.46,3.31,1.16,6,4.67,8.97,5.65-4.27-1.41-8.67-1.18-13.13-.45-1.07-.28-2.17-.43-3.27-.43-12.28-.02-24.72-.24-36.66,2.74-4.71.08-9.42.35-14.12.59-29.18,1.45-58.43,1.35-87.6-.29,9.22-2.31,18.88-1.74,28.37-2.37Z" style="fill: url(#Ed_line_thin-3); mix-blend-mode: soft-light; opacity: .5;"/>
        <path d="M183.02,440.13c-2.62.86-5.21,1.9-7.95,2.22-5.46.63-11.38-1.6-16.28.9.83-2.16,3.43-2.96,5.69-3.48,7.24-1.67,14.47-3.33,21.71-5,5.31-1.22,10.68-2.45,16.14-2.44,4.28.01,8.52.79,12.73,1.57,3.69.68,7.6,1.1,11.2,2.13-1.44,1.58-7.64.33-9.83.29-3.83-.08-7.66-.08-11.49.11-6.79.32-15.7.6-21.91,3.7Z" style="fill: url(#Ed_line_thin-4); mix-blend-mode: soft-light; opacity: .5;"/>
        <path d="M183.06,501.96c-3.06-.07-6.17-.14-9.13.64-2.31.61-4.46,1.72-6.69,2.59-16.11,6.32-34.49-.13-51.5,3.08,18.54,3.58,37.59,6.92,56.2,3.73,6.44-1.1,12.77-2.98,19.3-3.29,7.33-.35,14.6,1.29,21.92,1.86,9.74.76,19.52-.37,29.29-.39,9.91-.03,19.81,1.08,29.71.84,5.19-.13,11.53-.62,15.51-4.33-3.15-6.88-12.9-4.41-18.97-4.33-9.69.12-19.39.19-29.08.19-18.86.01-37.72-.19-56.57-.61Z" style="fill: url(#Ed_line_thin-5); mix-blend-mode: soft-light; opacity: .5;"/>
        <path d="M139.23,539.56c-3.62-.46-7.36-.98-10.86.04,10.71.27,20.08,7.38,30.64,9.17,11.01,1.86,22.07-2.2,33.19-3.22,13.69-1.25,27.34,2.15,41.04,3.32,17.83,1.53,35.75-.72,53.5-2.96.4-1.36.8-2.73,1.21-4.09-8.03-1.78-17.34-.83-25.53-.92-10.02-.11-20.03.06-30.05.31-20.01.49-40.03,1.29-60.04.75-11.06-.3-22.11-1.01-33.08-2.4Z" style="fill: url(#Ed_line_thin-6); mix-blend-mode: soft-light; opacity: .5;"/>
        <path d="M233.1,579.96c-5.83-.47-11.65-1.08-17.37-2.27-4.01-.84-8.05-1.96-12.14-1.72-2.93.18-5.76,1.05-8.59,1.83-16.99,4.67-34.7,5.93-52.27,7.17,4.42,1.94,9.36,2.27,14.18,2.48,14.94.65,29.91.43,44.82-.68,5.88-.44,11.77-1.01,17.67-.8,6.96.25,13.82,1.6,20.75,2.3,13.2,1.32,26.51.27,39.74-.79,2.79-.22,10.45-1.83,5.94-5.73-2.6-2.25-13.3-.37-16.76-.39-12-.05-24-.43-35.96-1.4Z" style="fill: url(#Ed_line_thin-7); mix-blend-mode: soft-light; opacity: .5;"/>
        <path d="M487.5,465.62c-8.35-.55-16.6-2.03-24.88-3.25-18.4-2.71-36.98-4.15-55.58-4.3-9.04-.08-18.1.13-27.13.65-3.38.19-6.6.32-9.85,1.46-3.31,1.16-6,4.67-8.97,5.65,4.27-1.41,8.67-1.18,13.13-.45,1.07-.28,2.17-.43,3.27-.43,12.28-.02,24.72-.24,36.66,2.74,4.71.08,9.42.35,14.12.59,29.18,1.45,58.43,1.35,87.6-.29-9.22-2.31-18.88-1.74-28.37-2.37Z" style="fill: url(#Ed_line_thin-8); mix-blend-mode: soft-light; opacity: .5;"/>
        <path d="M448.6,437.47c2.62.86,5.21,1.9,7.95,2.22,5.46.63,11.38-1.6,16.28.9-.83-2.16-3.43-2.96-5.69-3.48-7.24-1.67-14.47-3.33-21.71-5-5.31-1.22-10.68-2.45-16.14-2.44-4.28.01-8.52.79-12.73,1.57-3.69.68-7.6,1.1-11.2,2.13,1.44,1.58,7.64.33,9.83.29,3.83-.08,7.66-.08,11.49.11,6.79.32,15.7.6,21.91,3.7Z" style="fill: url(#Ed_line_thin-9); mix-blend-mode: soft-light; opacity: .5;"/>
        <path d="M448.56,499.29c3.06-.07,6.17-.14,9.13.64,2.31.61,4.46,1.72,6.69,2.59,16.11,6.32,34.49-.13,51.5,3.08-18.54,3.58-37.59,6.92-56.2,3.73-6.44-1.1-12.77-2.98-19.3-3.29-7.33-.35-14.6,1.29-21.92,1.86-9.74.76-19.52-.37-29.29-.39-9.91-.03-19.81,1.08-29.71.84-5.19-.13-11.53-.62-15.51-4.33,3.15-6.88,12.9-4.41,18.97-4.33,9.69.12,19.39.19,29.08.19,18.86.01,37.72-.19,56.57-.61Z" style="fill: url(#Ed_line_thin-10); mix-blend-mode: soft-light; opacity: .5;"/>
        <path d="M492.38,536.9c3.62-.46,7.36-.98,10.86.04-10.71.27-20.08,7.38-30.64,9.17-11.01,1.86-22.07-2.2-33.19-3.22-13.69-1.25-27.34,2.15-41.04,3.32-17.83,1.53-35.75-.72-53.5-2.96-.4-1.36-.8-2.73-1.21-4.09,8.03-1.78,17.34-.83,25.53-.92,10.02-.11,20.03.06,30.05.31,20.01.49,40.03,1.29,60.04.75,11.06-.3,22.11-1.01,33.08-2.4Z" style="fill: url(#Ed_line_thin-11); mix-blend-mode: soft-light; opacity: .5;"/>
        <path d="M398.52,577.3c5.83-.47,11.65-1.08,17.37-2.27,4.01-.84,8.05-1.96,12.14-1.72,2.93.18,5.76,1.05,8.59,1.83,16.99,4.67,34.7,5.93,52.27,7.17-4.42,1.94-9.36,2.27-14.18,2.48-14.94.65-29.91.43-44.82-.68-5.88-.44-11.77-1.01-17.67-.8-6.96.25-13.82,1.6-20.75,2.3-13.2,1.32-26.51.27-39.74-.79-2.79-.22-10.45-1.83-5.94-5.73,2.6-2.25,13.3-.37,16.76-.39,12-.05,24-.43,35.96-1.4Z" style="fill: url(#Ed_line_thin-12); mix-blend-mode: soft-light; opacity: .5;"/>
        <path d="M378.16,642.07c-.02,2.5-1.15,4.96-3.48,5.62-1.77-3.11-3.51-6.26-5.16-9.45h0s.27-2.03.27-2.03l-1.67-.74c-3.75-7.58-6.91-15.42-8.75-23.66-2.66-11.9-2.5-24.35-5.84-36.08-5.79-20.34-21.65-37-25.72-57.76-1.39-7.1-1.34-14.38-1.28-21.61.03-3.17-1.24-10.03.57-12.69.27-.4,3.04-1.81,4.99-3.18-.43,5.82-1,11.64-.72,17.48.36,7.36,2.01,14.54,3.95,21.63,1.44,5.27,3.07,10.67,5.09,15.94,1.78,6.84,4.55,13.37,8.73,19.04.97,1.31,2.01,2.57,3.08,3.82,1.06,2.94,2.45,5.78,3.99,8.7.32.62.63,1.26.94,1.89,0,.09.7,1.7.86,2.17.83,2.46,1.5,4.98,2.07,7.51.57,2.56,1.02,5.14,1.43,7.73.03.2.06.36.08.51.01.16.03.33.05.54.12,1.22.24,2.43.33,3.66.36,5.11.34,10.24.91,15.34,1.06,9.59,3.97,18.37,8.83,26.58l-.55,2.6,2.35.27c1.45,2.2,2.99,4.27,4.64,6.17Z" style="fill: #683b38;"/>
        <path d="M381.41,394.86c2.52-2.88,5.41-5.94,9.22-6.34,6.48-.68,10.72,6.31,15.97,10.17,5.27,3.88,12.98,5.44,15.38,11.52,2.3,5.83-99.57,86.09-101.53,79.33-2.03-7.01,44.14-75.46,60.97-94.68Z" style="fill: #50393a;"/>
        <path d="M378.3,443.81c8.92-7.43,16.43-15.99,24.3-24.48,4.42-4.77,10.21-9.33,14.2-14.83-3.21-2.06-7.13-3.54-10.21-5.81-4.78-3.52-8.72-9.63-14.28-10.18-11.92,16.52-24.68,32.48-35.07,50.03-6.51,11-12.02,22.51-17.25,34.16,13.43-8.67,26.02-18.64,38.31-28.88Z" style="fill: url(#Ed_line_thin-13); mix-blend-mode: soft-light; opacity: .5;"/>
        <path d="M270.86,159.19c2.49,2.49,3.7,5.95,4.86,9.27,2.81,8.08,5.74,16.17,9.78,23.71,4.04,7.55,9.26,14.58,16.05,19.8,1.63,1.26,3.36,2.41,5.24,3.27,2.55,1.16,5.33,1.75,8.1,2.16,3.49.52,7.01.78,10.54.77-5.29-2.27-9.6-6.74-11.68-12.11-1.66-4.29-1.91-8.98-2.34-13.56-.41-4.42-.99-8.82-1.75-13.19-.69-3.96-1.54-7.96-3.4-11.53-1.58-3.03-4.15-9.42-6.53-11.87-4.2-4.31-5.57-4.87-11.29-6.77s-15.61-1.07-20.3,2.69c-1.87,1.5-3.62,3.2-5.49,4.64,3.11.24,5.76.26,8.2,2.7Z" style="fill: #2c2e37;"/>
      </g>
    </g>
  </g>
</svg>