<?xml version="1.0" encoding="UTF-8"?>
<svg id="Layer_1" data-name="Layer 1" xmlns="http://www.w3.org/2000/svg" xmlns:xlink="http://www.w3.org/1999/xlink" viewBox="0 0 1200 364.85">
  <defs>
    <pattern id="New_Pattern" data-name="New Pattern" x="0" y="0" width="380" height="360" patternTransform="translate(-2952 -2951.03) scale(.6)" patternUnits="userSpaceOnUse" viewBox="0 0 380 360">
      <g>
        <rect width="380" height="360" style="fill: none;"/>
        <path d="M299.52,287.39l58.08,58.08h0c8.02,8.03,8.01,21.03-.01,29.05l-58.08,58.08h0c-8.02,8.02-21.02,8.02-29.04,0l-58.08-58.08c-8.02-8.02-8.02-21.02,0-29.04l58.08-58.08h0c8.02-8.02,21.02-8.03,29.05,0ZM288.32,413.14v-46.95c0-1.53-1.24-2.78-2.78-2.78h-46.91c-1.53,0-2.78,1.24-2.78,2.77v10.51c0,1.53,1.24,2.78,2.78,2.78h30.85c1.53,0,2.78,1.24,2.78,2.78v30.89c0,1.53,1.24,2.78,2.78,2.78h10.51c1.53,0,2.78-1.24,2.78-2.78ZM334.67,347.64c-.63-.63-1.65-.63-2.29,0l-30.81,30.81c-.63.63-.63,1.66,0,2.29l8.47,8.47c.63.63,1.65.63,2.29,0l30.81-30.81c.63-.63.63-1.65,0-2.29l-8.47-8.47Z" style="fill: #5553ff;"/>
        <path d="M109.52,287.39l58.08,58.08h0c8.02,8.03,8.01,21.03-.01,29.05l-58.08,58.08h0c-8.02,8.02-21.02,8.02-29.04,0l-58.08-58.08c-8.02-8.02-8.02-21.02,0-29.04l58.08-58.08h0c8.02-8.02,21.02-8.03,29.05,0ZM98.32,413.14v-46.95c0-1.53-1.24-2.78-2.78-2.78h-46.91c-1.53,0-2.78,1.24-2.78,2.77v10.51c0,1.53,1.24,2.78,2.78,2.78h30.85c1.53,0,2.78,1.24,2.78,2.78v30.89c0,1.53,1.24,2.78,2.78,2.78h10.51c1.53,0,2.78-1.24,2.78-2.78ZM144.67,347.64c-.63-.63-1.65-.63-2.29,0l-30.81,30.81c-.63.63-.63,1.66,0,2.29l8.47,8.47c.63.63,1.65.63,2.29,0l30.81-30.81c.63-.63.63-1.65,0-2.29l-8.47-8.47Z" style="fill: #5553ff;"/>
        <path d="M394.52,107.39l58.08,58.08h0c8.02,8.03,8.01,21.03-.01,29.05l-58.08,58.08h0c-8.02,8.02-21.02,8.02-29.04,0l-58.08-58.08c-8.02-8.02-8.02-21.02,0-29.04l58.08-58.08h0c8.02-8.02,21.02-8.03,29.05,0ZM383.32,233.14v-46.95c0-1.53-1.24-2.78-2.78-2.78h-46.91c-1.53,0-2.78,1.24-2.78,2.77v10.51c0,1.53,1.24,2.78,2.78,2.78h30.85c1.53,0,2.78,1.24,2.78,2.78v30.89c0,1.53,1.24,2.78,2.78,2.78h10.51c1.53,0,2.78-1.24,2.78-2.78ZM429.67,167.64c-.63-.63-1.65-.63-2.29,0l-30.81,30.81c-.63.63-.63,1.66,0,2.29l8.47,8.47c.63.63,1.65.63,2.29,0l30.81-30.81c.63-.63.63-1.65,0-2.29l-8.47-8.47Z" style="fill: #5553ff;"/>
        <path d="M204.52,107.39l58.08,58.08h0c8.02,8.03,8.01,21.03-.01,29.05l-58.08,58.08h0c-8.02,8.02-21.02,8.02-29.04,0l-58.08-58.08c-8.02-8.02-8.02-21.02,0-29.04l58.08-58.08h0c8.02-8.02,21.02-8.03,29.05,0ZM193.32,233.14v-46.95c0-1.53-1.24-2.78-2.78-2.78h-46.91c-1.53,0-2.78,1.24-2.78,2.77v10.51c0,1.53,1.24,2.78,2.78,2.78h30.85c1.53,0,2.78,1.24,2.78,2.78v30.89c0,1.53,1.24,2.78,2.78,2.78h10.51c1.53,0,2.78-1.24,2.78-2.78ZM239.67,167.64c-.63-.63-1.65-.63-2.29,0l-30.81,30.81c-.63.63-.63,1.66,0,2.29l8.47,8.47c.63.63,1.65.63,2.29,0l30.81-30.81c.63-.63.63-1.65,0-2.29l-8.47-8.47Z" style="fill: #5553ff;"/>
        <path d="M14.52,107.39l58.08,58.08h0c8.02,8.03,8.01,21.03-.01,29.05l-58.08,58.08h0c-8.02,8.02-21.02,8.02-29.04,0l-58.08-58.08c-8.02-8.02-8.02-21.02,0-29.04L-14.52,107.4h0c8.02-8.02,21.02-8.03,29.05,0ZM3.32,233.14v-46.95c0-1.53-1.24-2.78-2.78-2.78h-46.91c-1.53,0-2.78,1.24-2.78,2.77v10.51c0,1.53,1.24,2.78,2.78,2.78H-15.51c1.53,0,2.78,1.24,2.78,2.78v30.89c0,1.53,1.24,2.78,2.78,2.78H.55c1.53,0,2.78-1.24,2.78-2.78ZM49.67,167.64c-.63-.63-1.65-.63-2.29,0l-30.81,30.81c-.63.63-.63,1.66,0,2.29l8.47,8.47c.63.63,1.65.63,2.29,0l30.81-30.81c.63-.63.63-1.65,0-2.29l-8.47-8.47Z" style="fill: #5553ff;"/>
        <path d="M299.52-72.61l58.08,58.08h0c8.02,8.03,8.01,21.03-.01,29.05l-58.08,58.08h0c-8.02,8.02-21.02,8.02-29.04,0l-58.08-58.08c-8.02-8.02-8.02-21.02,0-29.04l58.08-58.08h0c8.02-8.02,21.02-8.03,29.05,0ZM288.32,53.14V6.19c0-1.53-1.24-2.78-2.78-2.78h-46.91c-1.53,0-2.78,1.24-2.78,2.77v10.51c0,1.53,1.24,2.78,2.78,2.78h30.85c1.53,0,2.78,1.24,2.78,2.78v30.89c0,1.53,1.24,2.78,2.78,2.78h10.51c1.53,0,2.78-1.24,2.78-2.78ZM334.67-12.36c-.63-.63-1.65-.63-2.29,0l-30.81,30.81c-.63.63-.63,1.66,0,2.29l8.47,8.47c.63.63,1.65.63,2.29,0l30.81-30.81c.63-.63.63-1.65,0-2.29l-8.47-8.47Z" style="fill: #5553ff;"/>
        <path d="M109.52-72.61l58.08,58.08h0c8.02,8.03,8.01,21.03-.01,29.05l-58.08,58.08h0c-8.02,8.02-21.02,8.02-29.04,0L22.39,14.52c-8.02-8.02-8.02-21.02,0-29.04l58.08-58.08h0c8.02-8.02,21.02-8.03,29.05,0ZM98.32,53.14V6.19c0-1.53-1.24-2.78-2.78-2.78h-46.91c-1.53,0-2.78,1.24-2.78,2.77v10.51c0,1.53,1.24,2.78,2.78,2.78h30.85c1.53,0,2.78,1.24,2.78,2.78v30.89c0,1.53,1.24,2.78,2.78,2.78h10.51c1.53,0,2.78-1.24,2.78-2.78ZM144.67-12.36c-.63-.63-1.65-.63-2.29,0l-30.81,30.81c-.63.63-.63,1.66,0,2.29l8.47,8.47c.63.63,1.65.63,2.29,0L153.14-1.61c.63-.63.63-1.65,0-2.29l-8.47-8.47Z" style="fill: #5553ff;"/>
      </g>
    </pattern>
  </defs>
  <rect width="1200" height="364.85" style="fill: #f0f0ff;"/>
  <g style="opacity: .04;">
    <rect width="1200" height="364.85" style="fill: url(#New_Pattern);"/>
  </g>
</svg>