<?xml version="1.0" encoding="UTF-8"?>
<svg xmlns="http://www.w3.org/2000/svg" viewBox="0 0 1655.3 1936.19">
  <g style="isolation: isolate;">
    <g id="Layer_1" data-name="Layer 1">
      <g>
        <path d="M1653.73,1776.2c1.34,24.36-18.27,44.86-42.78,44.86H44.34c-24.51,0-44.12-20.5-42.78-44.86,23.77-433.28,387.38-782.34,826.01-782.34,284.45,0,537.4,146.75,686.54,368.22,80.95,119.87,131.31,261.87,139.62,414.12h0Z" style="fill: #91dece; stroke: #223656; stroke-linecap: round; stroke-linejoin: round; stroke-width: 3px;"/>
        <path d="M1653.73,1776.2c1.34,24.36-18.27,44.86-42.78,44.86H513.56c5.54-4.96,13.99-11.81,25.23-18.33,30.03-17.41,58.39-19.95,96.02-22.88,81.01-6.32,88.3-6.31,88.31-6.31,57.92.12,343.45.76,559.27-27.33,0,0,69.67-9.07,177.94-60.91,22.21-10.64,50.25-24.86,66.84-55.26,13.22-24.21,14.7-52.88,14.26-80.36-.89-63.43-10.25-126.55-27.33-187.6,80.95,119.87,131.31,261.87,139.62,414.12h.01Z" style="fill: #77c6b3; isolation: isolate; mix-blend-mode: multiply; opacity: .4;"/>
        <path d="M1653.73,1776.2c1.34,24.36-18.27,44.86-42.78,44.86H44.34c-24.51,0-44.12-20.5-42.78-44.86,23.77-433.28,387.38-782.34,826.01-782.34,284.45,0,537.4,146.75,686.54,368.22,80.95,119.87,131.31,261.87,139.62,414.12h0Z" style="fill: none; stroke: #223656; stroke-linecap: round; stroke-linejoin: round; stroke-width: 3px;"/>
        <path d="M1067.02,1106.39c3.57,2.1,7.42,4.52,8.7,8.46.87,2.68.37,5.59-.14,8.36-14.88,81.09-29.75,162.18-44.63,243.27-42.52-18.26-85.03-36.52-127.55-54.79-24.72,35.71-50.52,70.67-77.34,104.82-12.43-24.56,10.46-71.72,7.95-99.13-7.11-77.54-35.17-136.42-31.62-214.21.24-5.3.72-11.1,4.41-14.9,3.12-3.2,7.79-4.2,12.18-5.05,49.12-9.5,98.23-18.99,147.35-28.49,29.37-5.68,76.1,37.21,100.71,51.64l-.02.02Z" style="fill: #77c6b3; isolation: isolate; mix-blend-mode: multiply; opacity: .4;"/>
        <path d="M622.02,1389.44c38.7-25.93,79.3-49.03,121.36-69.05,24.86,32.32,49.71,64.64,74.57,96.97,2.17-52.56,4.33-105.13,6.5-157.69,1.88-45.61,3.47-92.92-14.06-135.08-17.53-42.15-59.95-77.64-105.23-71.76-29.84,3.87-60.81,23.67-86.82,37.98-27.74,15.26-16.79,46.41-15.24,75.25,2.03,37.67,4.64,75.31,7.83,112.9,1.04,12.19,17.62,106.11,11.08,110.49h.01Z" style="fill: #77c6b3; isolation: isolate; mix-blend-mode: multiply; opacity: .4;"/>
        <polygon points="960.81 1776.94 835.74 1934.69 731.17 1802.64 710.82 1776.94 828.46 1344.26 742.91 1207.01 928.72 1207.01 855.05 1325.1 843.17 1344.11 960.81 1776.94" style="fill: #ff92ba; stroke: #223656; stroke-linecap: round; stroke-linejoin: round; stroke-width: 3px;"/>
        <path d="M960.81,1776.94l-125.07,157.75-104.57-132.05c21.39,13.07,44.41,22.13,69.07,22.43,11.14.15,23.17-2.08,30.45-10.4,7.28-8.47,7.72-20.64,7.87-31.79.3-77.54.59-155.07,1.04-232.46.15-39.66.3-79.32.45-118.83.15-35.5-4.4-62.97,3.47-97.14,4.16.3,7.22-12.93,11.53-9.37l-11.88,19.01,117.64,432.83v.02Z" style="fill: #f36792; isolation: isolate; mix-blend-mode: multiply; opacity: .4;"/>
        <polygon points="960.81 1776.94 835.74 1934.69 731.17 1802.64 710.82 1776.94 828.46 1344.26 742.91 1207.01 928.72 1207.01 855.05 1325.1 843.17 1344.11 960.81 1776.94" style="fill: none; stroke: #223656; stroke-linecap: round; stroke-linejoin: round; stroke-width: 3px;"/>
        <path d="M835.74,1223.76l-155.81,86.6-47.4-220.49,96.81-57.03" style="fill: #c7eeff; stroke: #223656; stroke-linecap: round; stroke-linejoin: round; stroke-width: 3px;"/>
        <path d="M835.74,1223.76l155.83,86.6,47.4-220.49-96.83-57.03" style="fill: #c7eeff; stroke: #223656; stroke-linecap: round; stroke-linejoin: round; stroke-width: 3px;"/>
        <path d="M1163.86,728.58c0,57.18,41.75,104.57,96.43,113.36,5.98.97,12.12,1.47,18.4,1.47,63.43,0,114.83-51.4,114.83-114.83s-51.4-114.83-114.83-114.83c-6.28,0-12.42.5-18.4,1.47-54.68,8.81-96.43,56.21-96.43,113.36Z" style="fill: #ffc3b3; stroke: #223656; stroke-linecap: round; stroke-linejoin: round; stroke-width: 3px;"/>
        <path d="M1278.69,687.55c-1.81,0-3.54.3-5.3.53-2.35-24.94-6.63-49.34-13.1-72.87-54.68,8.81-96.44,56.21-96.44,113.36s41.75,104.57,96.44,113.36c6.48-23.52,10.75-47.91,13.1-72.85,1.75.23,3.48.53,5.3.53,22.66,0,41.05-18.38,41.05-41.05s-18.38-41.03-41.05-41.03v.02Z" style="fill: #ffc3b3; isolation: isolate; mix-blend-mode: multiply; opacity: .4;"/>
        <path d="M412.66,615.22c-5.98-.97-12.12-1.47-18.4-1.47-63.43,0-114.83,51.4-114.83,114.83s51.4,114.83,114.83,114.83c6.28,0,12.42-.5,18.4-1.47,54.68-8.79,96.43-56.19,96.43-113.36s-41.75-104.55-96.43-113.36Z" style="fill: #ffc3b3; stroke: #223656; stroke-linecap: round; stroke-linejoin: round; stroke-width: 3px;"/>
        <path d="M389.78,611.43c-6.28,22.83-15.06,54.8-2.36,76.35-22.13,1.23-46.57,20.78-46.57,42.72s24.15,37.72,46.18,38.89c2.31,25.51,6.65,50.44,13.27,74.47,54.68-8.79,96.43-56.19,96.43-113.36s-52.27-110.27-106.95-119.07h0Z" style="fill: #ffc3b3; isolation: isolate; mix-blend-mode: multiply; opacity: .4;"/>
        <path d="M948.63,976.93v151.51c0,54.96-35.8,101.45-85.41,117.34-.59.3-1.04.45-1.63.59-11.44,3.56-23.77,5.64-36.54,5.64-68.18,0-123.43-55.4-123.43-123.58v-151.51h247.02,0Z" style="fill: #ffc3b3; stroke: #223656; stroke-linecap: round; stroke-linejoin: round; stroke-width: 3px;"/>
        <path d="M1252.39,667.53c0,193.1-128.04,356.19-303.76,409.07-17.82,5.35-36.24,9.66-54.96,12.63-22.28,3.71-45.15,5.64-68.47,5.64-42.93,0-84.52-6.39-123.58-18.27-7.87-2.23-15.6-4.9-23.17-7.72-163.69-59.71-280.59-216.86-280.59-401.35,0-111.7,38.77-279.25,108.88-355.3,78.13-84.81,193.99-71.89,318.46-71.89,23.32,0,46.19,1.78,68.47,5.5.3,0,.59.15,1.04.15,10.55,1.78,21.09,3.86,31.49,6.39,1.19.3,2.38.59,3.71.89,10.1,2.52,19.9,5.49,29.71,8.76,1.63.59,3.27,1.04,4.75,1.63,9.65,3.27,19.01,6.83,28.22,10.84,1.63.74,3.27,1.34,5.05,2.08,9.06,4.01,17.97,8.47,26.74,13.07,1.63.74,3.12,1.63,4.75,2.52,8.76,4.75,17.38,9.81,25.7,15.15,1.34.89,2.67,1.78,4.01,2.67,8.62,5.5,16.93,11.44,24.95,17.53,1.04.74,1.93,1.48,2.82,2.23,8.47,6.54,16.49,13.22,24.36,20.35.45.3.74.59,1.04.89,7.87,7.13,15.6,14.7,22.87,22.43.45.44.89.89,1.34,1.34,5.79,5.94,11.29,12.18,16.49,18.72,1.48,1.63,2.97,3.27,4.31,5.05.74.89,1.49,1.93,2.23,2.82,6.39,8.02,12.48,16.19,18.27,24.66.74,1.19,1.63,2.53,2.53,3.71,5.64,8.32,10.99,16.94,15.89,25.7.89,1.48,1.63,2.82,2.53,4.31,4.9,8.76,9.51,17.68,13.81,26.89.59,1.48,1.19,2.97,1.93,4.31,4.16,9.36,8.17,18.86,11.73,28.52.45,1.34.89,2.53,1.34,3.86,3.56,9.95,6.98,20.2,9.8,30.45.15.74.3,1.48.59,2.23,2.82,10.84,5.35,21.69,7.43,32.68,0,.3.15.45.15.74,2.08,10.99,3.56,22.13,4.75,33.57,0,.59.15,1.34.3,1.93,0,.44,0,.89.15,1.48.45,4.61.74,9.36,1.04,14.11.15,2.08.3,4.31.45,6.39.3,6.83.45,13.66.45,20.64h0Z" style="fill: #ffc3b3; stroke: #223656; stroke-linecap: round; stroke-linejoin: round; stroke-width: 3px;"/>
        <path d="M948.63,1076.6v51.84c0,54.96-35.8,101.45-85.41,117.34-2.23-27.63-6.39-59.56-20.05-84.07-17.38-31.34-55.85-61.34-141.55-74.12v-10.99c39.07,11.88,80.66,18.27,123.58,18.27,23.32,0,46.19-1.93,68.47-5.64,18.72-2.97,37.13-7.28,54.96-12.63h0Z" style="fill: #ffc3b3; isolation: isolate; mix-blend-mode: multiply; opacity: .4;"/>
        <path d="M1252.39,667.53c0,193.1-128.04,356.19-303.76,409.07-17.82,5.35-36.24,9.66-54.96,12.63-22.28,3.71-45.15,5.64-68.47,5.64-42.93,0-84.52-6.39-123.58-18.27-7.87-2.23-15.6-4.9-23.17-7.72,7.72-1.93,15.45-4.16,23.17-6.53,22.58-6.83,44.86-15,66.54-24.51,24.95-10.84,66.99-29.41,112.44-60.9,37.13-25.85,76.5-60.31,110.81-106.06,0,0,119.42-159.53,161.31-477.4,1.48,1.63,2.97,3.27,4.31,5.05.74.89,1.49,1.93,2.23,2.82,6.39,8.02,12.48,16.19,18.27,24.66.74,1.19,1.63,2.53,2.53,3.71,5.64,8.32,10.99,16.94,15.89,25.7.89,1.48,1.63,2.82,2.53,4.31,4.9,8.76,9.51,17.68,13.81,26.89.59,1.48,1.19,2.97,1.93,4.31,4.16,9.36,8.17,18.86,11.73,28.52.45,1.34.89,2.53,1.34,3.86,3.56,9.95,6.98,20.2,9.8,30.45.15.74.3,1.48.59,2.23,2.82,10.84,5.35,21.69,7.43,32.68,0,.3.15.45.15.74,2.08,10.99,3.56,22.13,4.75,33.57,0,.59.15,1.34.3,1.93,0,.44,0,.89.15,1.48.45,4.61.74,9.36,1.04,14.11.15,2.08.3,4.31.45,6.39.3,6.83.45,13.66.45,20.64h-.01Z" style="fill: #ffc3b3; isolation: isolate; mix-blend-mode: multiply; opacity: .4;"/>
        <path d="M1252.39,667.53c0,193.1-128.04,356.19-303.76,409.07-17.82,5.35-36.24,9.66-54.96,12.63-22.28,3.71-45.15,5.64-68.47,5.64-42.93,0-84.52-6.39-123.58-18.27-7.87-2.23-15.6-4.9-23.17-7.72-163.69-59.71-280.59-216.86-280.59-401.35,0-111.7,38.77-279.25,108.88-355.3,78.13-84.81,193.99-71.89,318.46-71.89,23.32,0,46.19,1.78,68.47,5.5.3,0,.59.15,1.04.15,10.55,1.78,21.09,3.86,31.49,6.39,1.19.3,2.38.59,3.71.89,10.1,2.52,19.9,5.49,29.71,8.76,1.63.59,3.27,1.04,4.75,1.63,9.65,3.27,19.01,6.83,28.22,10.84,1.63.74,3.27,1.34,5.05,2.08,9.06,4.01,17.97,8.47,26.74,13.07,1.63.74,3.12,1.63,4.75,2.52,8.76,4.75,17.38,9.81,25.7,15.15,1.34.89,2.67,1.78,4.01,2.67,8.62,5.5,16.93,11.44,24.95,17.53,1.04.74,1.93,1.48,2.82,2.23,8.47,6.54,16.49,13.22,24.36,20.35.45.3.74.59,1.04.89,7.87,7.13,15.6,14.7,22.87,22.43.45.44.89.89,1.34,1.34,5.79,5.94,11.29,12.18,16.49,18.72,1.48,1.63,2.97,3.27,4.31,5.05.74.89,1.49,1.93,2.23,2.82,6.39,8.02,12.48,16.19,18.27,24.66.74,1.19,1.63,2.53,2.53,3.71,5.64,8.32,10.99,16.94,15.89,25.7.89,1.48,1.63,2.82,2.53,4.31,4.9,8.76,9.51,17.68,13.81,26.89.59,1.48,1.19,2.97,1.93,4.31,4.16,9.36,8.17,18.86,11.73,28.52.45,1.34.89,2.53,1.34,3.86,3.56,9.95,6.98,20.2,9.8,30.45.15.74.3,1.48.59,2.23,2.82,10.84,5.35,21.69,7.43,32.68,0,.3.15.45.15.74,2.08,10.99,3.56,22.13,4.75,33.57,0,.59.15,1.34.3,1.93,0,.44,0,.89.15,1.48.45,4.61.74,9.36,1.04,14.11.15,2.08.3,4.31.45,6.39.3,6.83.45,13.66.45,20.64h0Z" style="fill: none; stroke: #223656; stroke-linecap: round; stroke-linejoin: round; stroke-width: 3px;"/>
        <path d="M1264.42,368.52l13.07,273.9c-54.22,17.53-110.66-19.61-119.13-78.43l-16.19-112.74c-87.49,29.26-185.82,12.48-260.53-50.5-16.04-13.52-35.5-21.39-56-21.39h-231.72c-45.3,0-83.92,34.76-90.76,81.84l-14.71,102.79c-7.43,51.39-51.39,86.15-98.48,82.44-6.83-.45-13.67-1.78-20.65-4.01l13.22-277.32.59-13.22c7.28-153.73,128.63-274.2,275.53-273.6l166.06.74,163.39-.74c9.36,0,18.72.45,27.92,1.48l92.24.3c23.02.15,45.3-9.51,61.64-26.59l32.08-33.57c16.64-17.53,39.51-23.02,60.16-18.27,17.82,4.31,34.16,16.49,43.52,35.5,52.58,106.2,38.62,239-41.29,331.39h.04Z" style="fill: #192e58;"/>
        <path d="M788.95,1809.21c-8.35-21.51-5.01-44.64-1.19-45.19,3.2-.46,2.23,15.57,15.46,29.31,13.26,13.78,27.58,11.53,32.89,25.09.64,1.64,3.63,9.85-.48,16.09-4.74,7.19-15.55,6.73-16.05,6.7-17.95-1.02-28.71-27.04-30.63-32h0Z" style="fill: #fff;"/>
      </g>
      <path d="M574.13,530.58c-16,18.47-8.26,43.95-13.01,44.28-6.17.43-19.06-26.35-11.76-50.43,6.18-20.37,25.65-39.3,37.77-35.42,6.8,2.18,11.92,11.76,10.58,19.46-1.77,10.13-13.63,10.62-23.58,22.11Z" style="fill: #fff2e5; opacity: .72;"/>
    </g>
  </g>
</svg>