<?xml version="1.0" encoding="UTF-8"?><svg xmlns="http://www.w3.org/2000/svg" viewBox="0 0 641.56 1137.66"><g style="isolation:isolate;"><g id="Layer_1"><g style="mix-blend-mode:soft-light; opacity:.2;"><ellipse cx="384.88" cy="1099.92" rx="256.68" ry="36.25"/></g><path d="M633.04,1053.08c-.21,0-.44-.06-.65-.15-16.79-6.09-30-18.34-41.07-29.34-2.3-2.26-4.57-4.56-6.84-6.84-2.26-2.28-4.52-4.55-6.79-6.79-13.29-13.05-33.65-30.41-57.06-30.41-.7,0-1.39.01-2.09.05l-.95.05c-1.47.07-3,.15-4.54.15-4.54,0-10.08-.61-12.71-5.35-1.92-3.52-1.12-7.56-.14-11.41.38-1.5.79-2.98,1.2-4.47l.29-1.05c8.51-31.01,20.42-61.09,35.4-89.38.21-.4.59-.68,1.03-.77.1-.02.2-.03.29-.03.34,0,.68.12.95.34,6.91,5.7,14.74,12.15,22.2,18.58,18.22,15.67,31.18,28.56,42.01,41.79,4.96,6.04,9.27,11.91,13.16,17.94,22,34.04,28.87,72.99,18.36,104.19-.17.64-.41,1.31-.62,1.9-.21.6-.78,1-1.41,1Z" style="fill:#8c50b6;"/><path d="M538.39,868.83c7.42,6.11,14.87,12.27,22.18,18.56,15.01,12.92,29.41,26.45,41.82,41.61,4.67,5.68,9.04,11.58,13.06,17.8,19.57,30.28,29.67,68.85,18.2,102.9-.18.65-.4,1.27-.61,1.88t-.07-.04c-15.81-5.72-28.51-17-40.59-29.02-4.59-4.52-9.08-9.15-13.64-13.64-16.05-15.77-35.78-30.84-58.12-30.84-.72,0-1.44.02-2.16.05-1.73.08-3.59.2-5.43.2-4.68,0-9.27-.73-11.39-4.57-1.7-3.11-.87-6.91,0-10.31.47-1.85.98-3.65,1.48-5.5,8.47-30.86,20.3-60.78,35.28-89.08M538.39,865.83c-.2,0-.39.02-.59.06-.88.18-1.64.74-2.06,1.54-15.03,28.39-26.98,58.57-35.52,89.69l-.27,1c-.41,1.48-.83,3.02-1.22,4.55-1.06,4.13-1.9,8.51.27,12.49,3.05,5.5,9.46,6.13,14.03,6.13,1.58,0,3.12-.08,4.62-.15l.95-.05c.66-.03,1.34-.04,2.02-.04,22.86,0,42.92,17.11,56.01,29.98,2.26,2.23,4.56,4.54,6.77,6.77,2.24,2.26,4.55,4.59,6.87,6.87,11.13,11.06,24.42,23.38,41.41,29.6.5.25.99.31,1.36.31,1.27,0,2.41-.8,2.83-2,.22-.64.45-1.28.65-2,5.61-16.69,6.49-34.97,2.62-54.33-3.47-17.37-10.79-35.03-21.16-51.08-3.92-6.07-8.26-11.98-13.26-18.08-10.88-13.3-23.9-26.24-42.19-41.98-7.51-6.47-15.33-12.91-22.23-18.6-.54-.45-1.22-.69-1.91-.69h0Z" style="fill:#223656;"/><g style="mix-blend-mode:soft-light; opacity:.5;"><path d="M560.57,887.4s30.73,79.88,12.47,97.66c-24.16-10.88-56.74-21.16-56.74-21.16l44.27-76.5Z"/></g><path d="M246.32,1032.47c-4.61,0-9.11-.15-13.36-.44-26.46-1.72-48.19-9.38-66.43-23.39-.04-.03-.07-.06-.11-.09-33.74-31.41-69.88-70.19-82.1-119.71-.5-2.02-1-4.23-1.54-6.75-6.49-21.14-16.98-74.1-16.73-94.75,0-.7.51-1.31,1.2-1.45.1-.02.2-.03.3-.03.58,0,1.12.34,1.37.89.68,1.52,1.89,3.64,3.13,5.62-1.07-7.67-1.24-18.23-.42-29.86.05-.74.64-1.33,1.38-1.39.04,0,.08,0,.12,0,.69,0,1.3.47,1.46,1.16.25,1.05.81,2.42,1.45,3.75-.8-9.51-.4-25.34,2.39-37.69-1.32,1.6-2.6,3.18-3.36,4.26-.29.41-.75.64-1.23.64-.17,0-.35-.03-.52-.09-.64-.24-1.04-.87-.97-1.55,1.56-16.84,4.96-27.38,9.63-38.56-.25.1-.5.19-.74.28-1.3.47-2.42.87-4.36,3.41-.29.38-.74.59-1.19.59-.21,0-.42-.04-.61-.13-.63-.29-.99-.97-.86-1.65,2.46-12.67,5.91-23.54,14.11-34.31-2.6.94-5.36,2.15-6.14,3.42-.28.46-.77.71-1.28.71-.21,0-.42-.04-.62-.13-.69-.31-1.04-1.08-.82-1.81,1.93-6.3,6.48-14.02,11.75-22.96,8.28-14.05,18.59-31.53,23.42-51.54.16-.66.74-1.13,1.42-1.15.01,0,.03,0,.04,0,.1,0,.2,0,.29.03,7.83-31.51,12.86-68.07,13.87-101.08.57-18.45-.32-34.49-1.19-50-1.52-27.29-2.84-50.87,4.13-79.25.01-.04.02-.08.04-.12,13.61-40.06,44.08-62.13,85.79-62.13,26.92,0,57.74,9.54,84.56,26.18,26.54,16.46,46.65,38.21,55.2,59.67,6.18,16.4,11.2,33.68,16.06,50.39,2.8,9.63,5.7,19.58,8.78,29.28l.06.18c.03.09.06.19.09.26.02.04.04.09.05.13,9.8,28.31,22.01,43.51,32.79,56.92,4.17,5.2,8.11,10.1,11.57,15.36.4.61.3,1.42-.22,1.92-.29.27-.66.41-1.03.41-.31,0-.63-.1-.9-.3-1.11-.83-2.17-1.63-3.17-2.39-2.13-1.62-4.02-3.05-5.64-4.13,2.47,5.36,5.05,10.17,7.84,14.63.08.11.15.22.22.33,1.88,2.71,3.81,5.48,5.77,8.25,5.66,7.32,11.36,12.65,17.4,18.28,6.83,6.39,13.9,12.99,20.89,22.77.45.62.35,1.48-.22,1.99-.28.25-.64.38-1,.38s-.72-.13-1-.38c-2.07-1.86-3.48-2.25-5.08-2.65,14.72,18.54,28.64,40.3,36.89,54.73-.07-.59-.14-1.2-.21-1.74-.23-1.88-.49-4.01-.55-5.97-.02-.67.41-1.27,1.05-1.48.15-.05.3-.07.45-.07.49,0,.97.25,1.25.67,10.85,16.47,17.03,29.02,22.19,40.02-.09-2.41-.29-5.16-.54-6.88-.1-.72.33-1.42,1.02-1.64.15-.05.31-.07.46-.07.55,0,1.07.3,1.33.81,2.46,4.74,6.23,14.92,9.88,24.76,3.46,9.33,7.03,18.97,9.38,23.7,4.17,8.27,7.55,15.13,10.52,21.69,6.11,13.38,9.91,24.71,13.13,39.08.17.74-.24,1.48-.95,1.74-.17.06-.33.09-.5.09,5.41,19.94,7.98,40.49,7.67,61.25-.01.75-.58,1.38-1.32,1.47-.06,0-.12.01-.18.01-.67,0-1.28-.46-1.45-1.12-.19-.72-.38-1.44-.57-2.15-.96,5.58-2.22,11.14-3.78,16.59-.48,3.59-1.03,7-1.66,10.42-5.18,36.25-18.49,71.84-38.49,102.86-.03.05-.06.09-.09.13-8.09,14.36-17.83,24.91-29.76,32.25-17.91,11.01-38.33,13.02-55.95,13.54h-.19c-3.2.09-6.77.13-10.88.13-3.78,0-7.6-.03-11.44-.07-3.88-.04-7.79-.07-11.71-.07-5.89,0-10.75.08-15.3.26-9.61.32-17.98,1.12-25.6,2.45-3.44.56-6.93,1.28-10.39,2.15-.1.03-.21.04-.31.04-4.56.16-9.55.49-15.26,1.01-10.81.96-22.06,2.43-32.93,3.85-7.46.97-15.17,1.98-22.78,2.83-15.12,1.74-27.24,2.55-38.14,2.55Z" style="fill:#8c50b6;"/><path d="M219.03,296.68c56.41,0,120.84,40.91,138.36,84.91,9.69,25.73,16.35,53.01,24.81,79.56.08.22.14.44.22.61,13.72,39.62,32.29,54.01,44.52,72.61-5.7-4.25-9.89-7.74-12.83-8.65,3.2,7.42,6.44,13.56,9.73,18.81.08.1.14.21.21.31,1.9,2.74,3.83,5.51,5.79,8.29,12.46,16.11,25.42,23.06,38.29,41.06-4.81-4.31-6.91-1.74-11.68-6.04,16.86,20.22,33.32,46.05,41.93,61.29.32.47.61.94.94,1.42,0,0,0,.03.04.03.3.25.54.37.72.37,1.36,0-.23-6.51-.39-11.62,11.65,17.69,17.69,30.4,23.87,43.67.27.72.47,1.03.64,1.03.88,0,.36-9.19-.13-12.61,4.74,9.12,14.37,38.63,19.25,48.44,4.01,7.96,7.46,14.91,10.5,21.64,5.43,11.9,9.55,23.23,13.03,38.79-1.6-3.12-3.22-6.26-4.82-9.38,7.64,23.2,11.37,47.68,11,72.11-.79-3.04-1.62-6.04-2.45-9.08-.99,7.96-2.61,15.89-4.82,23.59-.47,3.48-1.01,6.95-1.66,10.46-5.17,36.19-18.56,71.74-38.28,102.32-.07.04-.1.08-.1.14-8.43,14.98-18.34,25.04-29.28,31.77-16.42,10.09-35.23,12.73-55.21,13.31h-.14c-3.59.1-7.21.13-10.87.13-7.61,0-15.35-.14-23.17-.14-5.1,0-10.22.06-15.35.26-8.61.29-17.22.97-25.8,2.47-3.51.57-7.01,1.3-10.5,2.17-5.07.18-10.16.55-15.34,1.01-18.2,1.62-36.97,4.59-55.75,6.69-12.73,1.47-25.46,2.54-37.98,2.54-4.45,0-8.87-.14-13.25-.44-23.33-1.52-45.62-7.72-65.62-23.08-35.14-32.71-69.83-71.03-81.67-118.97-.55-2.21-1.05-4.46-1.55-6.77-6.55-21.29-16.93-74.31-16.68-94.36,1.48,3.31,5.82,10.16,7.38,11.48-2.46-7.94-2.77-22.5-1.81-36.23.74,3.15,4.09,9.14,4.91,9.14.12,0,.18-.12.18-.38,0-.16-.03-.38-.08-.65-1.69-8.9-1.55-34.79,3.83-49.23-1.83,2.6-6.3,7.64-8.13,10.24,1.77-19.07,5.88-29.93,11.94-43.75-4.42,5.78-5.68,2.05-10.09,7.82,2.91-14.99,7.01-26.19,17.09-37.67-3.04,1.05-10.18,2.97-11.87,5.7,4.87-15.91,27.25-41.68,35.19-74.59.29.95.49,2.01.66,3.17,9.09-34.92,14.03-73.87,15-105.67,1.57-50.76-7.99-84.59,2.9-128.93,14.99-44.12,48.01-61.11,84.37-61.11M219.03,293.68c-19.94,0-37.38,4.88-51.86,14.51-16.14,10.74-28.04,27.1-35.35,48.63-.03.08-.05.17-.07.25-7.02,28.61-5.64,53.42-4.17,79.7.86,15.47,1.76,31.47,1.19,49.86-1,32.55-5.92,68.56-13.57,99.73-.98.31-1.76,1.12-2.01,2.16-4.77,19.78-15.02,37.16-23.25,51.13-5.32,9.02-9.91,16.81-11.89,23.29-.44,1.44.26,2.99,1.63,3.61.4.18.82.27,1.24.27,1.01,0,1.99-.51,2.55-1.42.08-.13.21-.27.38-.41-6.06,9.47-8.95,19.18-11.1,30.23-.27,1.37.44,2.74,1.71,3.31.4.18.82.26,1.23.26.91,0,1.8-.42,2.38-1.18.31-.4.59-.74.85-1.03-3.86,9.86-6.67,19.9-8.06,34.86-.13,1.35.67,2.62,1.95,3.09.34.13.69.19,1.04.19.73,0,1.45-.27,2-.76-1.37,8.69-1.8,18.21-1.62,25.86-.34-.14-.71-.21-1.1-.21-.08,0-.16,0-.24,0-1.48.12-2.65,1.3-2.75,2.78-.59,8.46-.66,16.38-.25,23.07-.57-.7-1.42-1.11-2.33-1.11-.2,0-.41.02-.61.06-1.38.29-2.37,1.49-2.39,2.9-.26,20.75,10.25,73.88,16.77,95.15.54,2.52,1.04,4.72,1.54,6.73,12.32,49.9,48.63,88.89,82.53,120.45.07.06.14.13.22.18,18.49,14.2,40.49,21.95,67.26,23.7,4.27.3,8.8.45,13.45.45,10.97,0,23.14-.81,38.32-2.56,7.62-.85,15.34-1.86,22.81-2.84,10.86-1.42,22.1-2.88,32.87-3.85,5.68-.51,10.64-.84,15.18-1,.21,0,.42-.04.62-.09,3.42-.85,6.87-1.57,10.25-2.12,7.58-1.32,15.89-2.11,25.41-2.43,4.54-.18,9.38-.26,15.25-.26,3.92,0,7.88.04,11.71.07,3.77.03,7.67.07,11.46.07,4.1,0,7.66-.04,10.91-.13h.1s.06,0,.09,0c17.81-.52,38.48-2.56,56.69-13.76,12.13-7.46,22.02-18.16,30.24-32.7.03-.05.07-.09.1-.14,20.11-31.18,33.5-66.96,38.72-103.46.62-3.38,1.16-6.76,1.65-10.33,1.17-4.1,2.17-8.25,3.01-12.43.4.2.85.31,1.32.31.12,0,.24,0,.36-.02,1.49-.18,2.62-1.43,2.64-2.93.3-20.46-2.17-40.71-7.38-60.37.92-.69,1.39-1.88,1.12-3.05-3.24-14.48-7.07-25.89-13.23-39.38-2.98-6.59-6.37-13.46-10.55-21.75-2.31-4.64-5.87-14.25-9.31-23.55-3.83-10.34-7.45-20.1-9.95-24.93-.53-1.01-1.57-1.62-2.66-1.62-.31,0-.61.05-.92.14-1.06.34-1.82,1.23-2.03,2.28-4.57-9.36-10.27-20.02-18.93-33.17-.57-.86-1.52-1.35-2.51-1.35-.3,0-.61.05-.91.14-1.28.41-2.13,1.61-2.09,2.95,0,.3.02.6.04.9-7.5-12.56-18.03-28.7-29.32-43.52.24.06.48.09.72.09.72,0,1.43-.25,2-.76,1.14-1.02,1.33-2.74.44-3.98-7.08-9.9-14.2-16.56-21.09-22.99-5.97-5.58-11.62-10.86-17.23-18.11-1.98-2.8-3.89-5.54-5.7-8.16-.07-.11-.14-.22-.22-.34-1.78-2.85-3.48-5.85-5.12-9.05.25.19.5.38.75.57,1.01.76,2.07,1.57,3.19,2.4.53.4,1.16.59,1.79.59.74,0,1.48-.28,2.06-.82,1.06-1,1.25-2.61.45-3.83-3.49-5.31-7.45-10.25-11.65-15.47-10.7-13.32-22.82-28.41-32.54-56.48-.03-.08-.06-.16-.09-.24-.02-.05-.03-.1-.05-.15l-.06-.18c-3.08-9.66-5.97-19.6-8.76-29.21-4.87-16.74-9.9-34.04-16.09-50.48,0-.02-.01-.04-.02-.05-8.66-21.75-29-43.76-55.8-60.39-27.05-16.78-58.16-26.41-85.35-26.41h0Z" style="fill:#223656;"/><path d="M262.88,928.15c-.37,0-.74-.14-1.03-.41-19.03-17.83-37.03-50.01-53.51-95.65-16.91-46.82-26.31-91.59-29.59-108.77-1.17-3.69-2.29-7.56-3.33-11.5-1.36-3.14-2.87-6.39-4.48-9.83-5.83-12.49-12.43-26.64-11.98-38.12.03-.77.64-1.39,1.41-1.44.03,0,.06,0,.09,0,.73,0,1.36.53,1.48,1.26.16,1,1.98,3.28,3.66,4.86-.34-2.08-.92-4.27-1.55-6.68-1.51-5.77-3.22-12.3-2.56-20.6.05-.69.57-1.25,1.25-1.36.08-.01.16-.02.24-.02.16,0,.32.03.47.08-.32-4.24-.22-9.64,1.47-16.6-1.03,1.67-1.94,3.49-2.73,5.16-.25.53-.79.86-1.36.86-.11,0-.22-.01-.33-.04-.68-.15-1.17-.76-1.17-1.46,0-7.49,2.32-15.04,4.89-22.04-.24.16-.52.23-.8.23-.23,0-.46-.05-.68-.16-.49-.25-.8-.74-.82-1.29-.29-8.46,2.27-18.91,4.75-29.01,1.28-5.22,2.49-10.16,3.2-14.43.01-.08.03-.16.06-.23,1.32-25.28,2.15-52.35-.63-79.23-3.57-34.65-23.23-67.45-42.09-93.63-.06.15-.14.29-.26.42-.3.35-.72.53-1.14.53-.33,0-.66-.11-.93-.34-3.84-3.19-13-12.7-18.82-22.02.53,2.81,1.28,5.4,2.26,7.8.27.66.04,1.42-.55,1.82-.25.17-.54.25-.83.25-.38,0-.77-.15-1.06-.43-7.94-7.87-11.87-14.65-14.14-20.62.16,2.51.46,5.09.8,7.02.12.71-.27,1.41-.95,1.67-.17.06-.35.1-.53.1-.51,0-1.01-.26-1.28-.72-2.66-4.4-7.53-15.63-10.16-24.14-.42,1.81-.74,3.77-.7,5.88.01.66-.41,1.25-1.04,1.46-.15.05-.31.07-.46.07-.48,0-.95-.23-1.23-.65-3.24-4.69-9-15.59-13.96-28.44-.91-2.33-1.74-4.67-2.55-6.93-2.55-7.12-5.18-14.49-10.48-22.96-.71-1.06-1.42-2.15-2.11-3.24-.25-.4-.3-.89-.14-1.33l.38-1.05c.02-.1.05-.22.11-.34,12.58-36.13,34.23-63.32,64.34-80.83,26.8-15.58,60.19-23.48,99.25-23.48,35.35,0,74.35,6.38,115.91,18.96,36.93,11.18,74.65,27.02,109.09,45.82,6.51,3.55,12.1,6.73,17.1,9.73.19.11.35.27.48.46,13.26,20,22.15,38.87,33.25,63.34.06.13.1.26.12.4.62,4.18-22.59,41.66-26.33,46.22-.05.06-.1.12-.16.17l-.8.72c-.82.74-1.65,1.48-2.51,2.23l-.31.27c-1.35,1.18-2.74,2.39-4.15,3.58l-.03.03c-7.82,8.29-8.99,10.46-11.12,14.98-.35.75-.73,1.63-1.16,2.59-2.37,5.38-5.62,12.75-9.54,16.11-.28.24-.63.36-.98.36-.28,0-.56-.08-.81-.24-.56-.36-.82-1.03-.64-1.67.57-2.02.76-4,.81-5.86-4.74,7.57-12.33,17.15-16.02,20.7-.29.28-.66.42-1.04.42-.3,0-.61-.09-.87-.28-.59-.42-.79-1.2-.49-1.85.84-1.81,1.79-4.2,2.59-6.55-3.75,5.23-9.22,10.67-18.97,16.25-.23.13-.49.2-.75.2-.42,0-.83-.18-1.13-.51-.47-.54-.5-1.33-.07-1.9,1.58-2.08,2.97-4.4,4.21-6.99-1.22,1.14-2.59,2.33-4.12,3.59-6.78,5.5-14.82,10.5-19.35,12.64-6.38,4.74-12.73,9.99-18.9,15.6-27.81,25.42-48.92,57.04-61.04,91.43-33.5,95.15-34.84,212.42-32.26,303.95.8,28.46,2.03,55.44,3.21,81.54l.12,2.52c.03.61-.32,1.18-.87,1.43-.2.09-.42.14-.63.14Z" style="fill:#fad0ec;"/><path d="M211.04,179.11c74.37,0,158.8,28.86,224.27,64.59,5.86,3.2,11.55,6.4,17.04,9.7,13.17,19.86,22.17,38.97,33.14,63.13.44,3-20.69,38.57-26.01,45.05-1.09.97-2.17,1.95-3.3,2.94-1.44,1.26-2.92,2.56-4.44,3.83l-.12.1c-7.78,8.25-9.14,10.56-11.43,15.42-2.25,4.88-5.96,14.47-10.31,18.2,1.34-4.74.69-9.24.99-12.2-3.52,7.46-14.3,21.34-18.68,25.55,1.6-3.44,4.96-12.3,4.42-15.34-3.87,7.3-8.9,15.08-22.9,23.11,3.47-4.59,5.65-9.73,7.09-14.15-.26.22-.55.4-.79.58-2.17,2.71-5.14,5.46-8.37,8.11-6.95,5.64-15.02,10.56-19.17,12.51-.04,0-.08.04-.1.08-6.62,4.92-12.95,10.17-19.03,15.7-27.58,25.21-48.96,56.62-61.44,92.04-32.31,91.75-35.16,204.44-32.34,304.49.83,29.41,2.13,57.7,3.33,84.08-42.48-39.8-71.64-145.81-82.67-203.69-1.23-3.87-2.35-7.75-3.36-11.63-6.44-14.94-16.94-33.25-16.38-47.4.34,2.12,4.9,7.05,6.96,7.68-.26-8.14-5.48-16.99-4.43-30.21,1.97,4.65.74,2.6,2.84,5.91-.55-5.35-2.95-14.31,2.43-29.93-2.77,1.77-5.08,5.57-7.42,10.52,0-10.47,4.62-20.95,8.2-30.46-1.48,1.03-4.13,6.14-5.61,7.16-.44-12.65,5.87-30.68,7.92-43.14.01.01.04.03.05.04,1.39-26.46,2.16-53.08-.61-79.9-3.73-36.15-24.64-70.96-49.2-103.63,1.53,4.39,3.17,8.72,4.25,9.61-5.31-4.42-18.13-18.39-22.15-28.69.21,4.75.94,10.56,3.25,16.2-11.46-11.35-14.34-20.19-16.19-28.23-1.3,2.78-.35,12.2.31,15.95-3.13-5.18-9.99-21.38-11.47-29.49-.49,2.92-2.27,7.11-2.17,12.03-3.26-4.72-8.98-15.65-13.79-28.12-3.77-9.7-6.08-18.83-13.16-30.15-.73-1.09-1.43-2.17-2.12-3.25.14-.39.3-.83.44-1.22,0-.04,0-.08.03-.12,26.35-75.77,89.47-103.38,162.21-103.38M211.04,176.11v3-3c-39.33,0-72.98,7.97-100.01,23.68-30.42,17.68-52.28,45.12-64.99,81.57-.06.15-.12.31-.15.48l-.13.35-.22.61c-.32.88-.22,1.86.29,2.65.73,1.15,1.43,2.22,2.12,3.26,5.2,8.32,7.69,15.28,10.32,22.64.81,2.27,1.65,4.61,2.56,6.97,5.01,12.95,10.83,23.98,14.12,28.74.57.83,1.5,1.29,2.47,1.29.31,0,.62-.05.92-.15.99-.32,1.72-1.12,1.98-2.09,2.68,7.25,6.09,14.8,8.17,18.24.56.92,1.54,1.45,2.57,1.45.35,0,.71-.06,1.05-.19.93-.35,1.59-1.11,1.84-2.02,2.45,4.17,5.89,8.68,10.87,13.61.58.57,1.34.87,2.11.87.58,0,1.16-.17,1.67-.51.94-.63,1.42-1.71,1.32-2.79,5.25,6.77,11.11,12.69,14,15.1l1.45-1.75c18.94,26.17,38.86,59.08,42.44,93.77,2.76,26.72,1.94,53.67.63,78.83-.02.08-.03.15-.05.23-.69,4.21-1.9,9.12-3.17,14.31-2.5,10.2-5.09,20.75-4.79,29.42.04,1.09.67,2.08,1.65,2.57.01,0,.03.02.05.02-2.32,6.57-4.28,13.57-4.28,20.6,0,1.4.97,2.62,2.34,2.93.22.05.44.07.66.07.45,0,.9-.1,1.3-.3-.33,3.02-.36,5.68-.26,8-1.05.41-1.8,1.39-1.89,2.55-.66,8.28.96,14.79,2.46,20.54-.54-.48-1.24-.76-2-.76-.06,0-.12,0-.18,0-1.54.09-2.76,1.34-2.82,2.88-.47,11.85,6.22,26.18,12.12,38.82,1.58,3.39,3.08,6.59,4.41,9.68,1.02,3.9,2.13,7.72,3.3,11.38,3.3,17.27,12.72,62.07,29.63,108.91,16.56,45.86,34.69,78.24,53.9,96.23.57.53,1.3.81,2.05.81.42,0,.85-.09,1.25-.28,1.11-.51,1.8-1.64,1.74-2.86l-.11-2.54c-1.18-26.08-2.4-53.05-3.21-81.49-2.58-91.4-1.25-208.5,32.18-303.41,12.04-34.16,33-65.56,60.64-90.83,6.09-5.54,12.37-10.73,18.67-15.41,4.05-1.94,10.72-6.02,16.88-10.7-.39,1.02-.19,2.19.55,3.04.59.67,1.41,1.02,2.25,1.02.51,0,1.02-.13,1.49-.4,6.06-3.48,10.55-6.96,13.99-10.36,0,.94.45,1.85,1.26,2.43.52.37,1.13.56,1.74.56.75,0,1.5-.28,2.08-.84,2.89-2.78,8.15-9.22,12.61-15.55-.01,1.02.5,1.99,1.38,2.56.5.32,1.06.47,1.62.47.7,0,1.39-.24,1.95-.72,4.18-3.58,7.51-11.13,9.94-16.64.42-.95.8-1.82,1.15-2.58,2.04-4.34,3.18-6.44,10.8-14.52,1.41-1.18,2.78-2.38,4.1-3.54l.34-.3c.85-.74,1.67-1.48,2.49-2.21l.83-.74c.12-.1.22-.22.32-.34,3.04-3.71,10.13-15.16,15.43-24.22,11.69-19.99,11.4-21.98,11.22-23.17-.04-.28-.12-.55-.24-.8-11.13-24.54-20.04-43.46-33.37-63.55-.25-.37-.57-.68-.96-.91-5.02-3.02-10.63-6.21-17.15-9.76-34.52-18.84-72.34-34.73-109.37-45.94-41.7-12.62-80.84-19.03-116.34-19.03h0Z" style="fill:#223656;"/><path d="M573.02,843.32c-.8-3.04-1.63-6.04-2.46-9.08-.98,7.96-2.6,15.88-4.81,23.59-.47,3.47-1.01,6.95-1.66,10.46-5.17,36.18-18.56,71.75-38.28,102.32-.07.04-.11.07-.11.14-8.61,13.82-18.31,24.35-29.27,31.77-15.56,10.53-33.72,14.8-55.21,13.31h-.14c-2.79-.22-5.61-.51-8.54-.87-13.57-.4-27.17.07-40.85,1.12-8.57.65-17.19,1.48-25.8,2.46-8.57.98-17.19,2.06-25.83,3.18-18.56,2.42-37.16,4.96-55.75,6.69-17.11,1.59-34.19,2.53-51.23,2.1-2.89-.07-5.79-.22-8.68-.36,7.16,29.49-33.21,22.83-51.41,24.89-19.25,3.76-35.13-11.94-19.32-28.69,5.1-5.97,11.72-11.18,13.78-18.92-35.13-32.71-69.83-71.02-81.66-118.96,50.62,35.96,104.67,38.89,108.87-29.7-10.46-36.47-3.15-68.27,41.46-52.82,43.49,64.55,66.32,14.62,120.59,65.2,41.43,38.6,159.88,60.1,189.91-25,2.06-5.79,3.69-12.05,4.88-18.85,3.36-13.13,5.21-38.5,3.69-67.33-.29-5.93-.72-12.01-1.37-18.16,5.43,11.9,9.55,23.23,13.02,38.78-1.59-3.11-3.22-6.26-4.81-9.37,7.63,23.19,11.36,47.69,11,72.11Z" style="fill:#383838; mix-blend-mode:soft-light; opacity:.6;"/><path d="M109.92,274.11c-.91,0-1.84-.05-2.75-.14-6.97-.7-13.86-4.26-19.39-10.04-1.21-1.22-2.4-2.64-3.54-4.21-5.16-7.16-7.8-16.24-7.84-26.99-.06-14.97,1.67-30.5,3.35-45.51.34-3.02.67-6.02.99-9,2.51-23.31,7.1-47.09,14.05-72.7,1.41-5.21,2.76-10,4.13-14.65l.14-.82c.79-4.79,1.43-9.5,1.99-13.65,1.06-7.83,1.91-14.01,3.19-17.19l1.53-3.79.57,1.71c.47-3.49,1.39-6.46,2.77-8.98l2.32-4.21.3,2.92c.43-1.52.82-3.07,1.22-4.65.46-1.84.94-3.72,1.49-5.6-.46.36-.84.73-1.07,1.1l-4.59,7.31,1.86-8.43c1.31-5.94,4.63-10.69,8.41-15.05l.82-2.4c1.76-5.13,8.08-10.45,12-12.59.19-.11.38-.19.58-.26,3.76-2.75,8.16-4.33,13.06-4.7l.28-.02c.31-.02.61-.05.88-.05.18,0,.4,0,.63,0,2.47,0,4.86.41,7.31,1.25,17.26,5.62,30.79,30.03,39.75,46.18,1.56,2.8,3.03,5.45,4.32,7.66,4.5,7.67,8.67,15.25,12.38,22.55,5.31,10.4,10.21,21,14.56,31.52.07.18.12.29.17.41.07.17.14.34.21.5.58,1.42,1.28,2.96,2.01,4.58,3.01,6.65,6.42,14.19,5.08,21.29-1.6,8.7-7.67,17.9-12.78,24.95-5.59,7.71-12.38,14.75-19.61,20.35-.77.64-1.6,1.33-2.38,2.03-4.61,4.11-8.36,8.98-12.34,14.13-1.04,1.36-2.09,2.71-3.16,4.06-11.23,14.23-23.17,29.31-38.71,48.91-8.18,10.35-19.46,22.23-34.2,22.23Z" style="fill:#fad0ec;"/><path d="M147.3,3c2.35,0,4.6.4,6.83,1.17,19.68,6.4,34.58,38.42,43.27,53.18,4.34,7.39,8.47,14.87,12.34,22.47,5.25,10.27,10.09,20.73,14.51,31.41.1.29.25.57.35.86,3.08,7.53,8.59,16.8,7.03,25.08-1.56,8.5-7.53,17.47-12.52,24.34-5.35,7.38-12.08,14.44-19.32,20.04-.83.69-1.66,1.38-2.47,2.1-5.96,5.31-10.6,11.98-15.67,18.38-12.87,16.31-25.8,32.63-38.71,48.91-8.12,10.27-18.94,21.67-33.02,21.67-.86,0-1.73-.04-2.61-.13-7.27-.73-13.68-4.6-18.46-9.59-1.26-1.27-2.39-2.65-3.4-4.05-5.53-7.68-7.52-16.82-7.56-26.12-.08-17.87,2.43-36.54,4.34-54.35,2.65-24.6,7.56-48.7,14-72.47,1.32-4.91,2.7-9.82,4.14-14.7.05-.29.1-.6.16-.91,2.22-13.52,3.21-25.86,5.09-30.53.7,2.12,1.34,5.79,2.04,7.9-.48-6.22-.26-13.33,2.75-18.8.14,1.4.22,3.62.36,5.04,3.12-6.77,3.79-14.3,6.59-21.21-1.52,1.34-4.2,2.49-5.27,4.21,1.74-7.88,7.34-13.7,12.64-19.39.1-.17.19-.34.29-.49-1.51.39-2.86,1.32-3.74,2.6,1.52-4.44,7.31-9.59,11.3-11.76.18-.1.35-.17.52-.19,3.42-2.56,7.53-4.21,12.52-4.59.36-.03.73-.07,1.05-.07.21,0,.42,0,.63,0M147.3,0c-.22,0-.45,0-.68,0-.34,0-.67.03-.95.05l-.26.02c-5.12.39-9.72,2.02-13.67,4.86-.21.08-.41.18-.61.29-4.14,2.26-10.8,7.9-12.68,13.41l-.73,2.12c-3.83,4.45-7.19,9.32-8.55,15.49l-3.28,14.86-3.04,7.53c-1.35,3.35-2.2,9.61-3.28,17.54-.56,4.15-1.2,8.85-1.99,13.62-.04.24-.08.48-.12.7-1.37,4.64-2.72,9.42-4.12,14.61-6.96,25.68-11.57,49.54-14.09,72.93-.32,2.97-.65,5.97-.99,8.99-1.69,15.06-3.43,30.64-3.36,45.7.05,11.07,2.78,20.45,8.13,27.86,1.18,1.64,2.43,3.12,3.71,4.41,5.75,6,12.97,9.73,20.29,10.46.97.1,1.95.14,2.91.14,15.38,0,26.99-12.19,35.38-22.81,15.62-19.69,27.56-34.77,38.71-48.91,1.07-1.35,2.12-2.72,3.17-4.08,3.92-5.09,7.63-9.91,12.13-13.92.76-.69,1.53-1.33,2.35-2,7.33-5.68,14.2-12.81,19.87-20.62,5.53-7.62,11.4-16.61,13.04-25.56,1.42-7.55-2.09-15.32-5.19-22.17-.72-1.6-1.4-3.1-1.99-4.54-.07-.18-.14-.35-.22-.53-.04-.09-.08-.18-.11-.27l-.02-.06-.02-.06c-4.36-10.55-9.28-21.19-14.61-31.63-3.73-7.33-7.91-14.94-12.42-22.63-1.29-2.19-2.76-4.83-4.31-7.63-9.07-16.36-22.78-41.08-40.62-46.88-2.57-.88-5.12-1.31-7.76-1.31h0Z" style="fill:#223656;"/><path d="M224.24,111.22c-2.39,20.22-7.13,40.05-17.33,57.49-7.85,13.5-18.78,25.04-30.93,34.84-20.01,16.1-45.26,28-70.77,24.93-7.63-.9-15.99-3.87-19.14-10.85-1.52-3.33-1.59-7.09-1.52-10.75.43-19.79,5.25-39.44,13.97-57.2,16.28,8.97,38.5,5.17,50.91-8.65-2.39,3.51-4.74,7.02-7.13,10.49,20.7-10.71,34.37-33.76,33.86-57.09-2.57,7.42-6.4,14.36-11.36,20.44,3.36-17.8,3.91-36.14,1.74-54.13-2.03-16.57-8.36-31.48-11.76-47.65-.69-3.29-.9-6.26-.65-8.94,19.68,6.4,34.59,38.42,43.27,53.18,4.34,7.38,8.47,14.87,12.34,22.47,5.25,10.28,10.09,20.73,14.51,31.4Z" style="fill:#383838; mix-blend-mode:soft-light; opacity:.6;"/><path d="M197.31,185.14c-.34,0-.67-.11-.95-.34-5.63-4.59-9.18-10.49-10.27-17.06-1.03-6.18.07-12.4,1.13-18.41.16-.9.32-1.8.47-2.7,8.44-49.81-7.7-104.45-42.12-142.61-.39-.44-.5-1.06-.26-1.6.23-.54.75-.89,1.34-.91.19,0,.38,0,.56,0,20.87,0,36.69,28.54,47.15,47.43,1.55,2.8,3.02,5.45,4.32,7.66,4.37,7.43,8.54,15.02,12.39,22.54,5.42,10.6,10.43,21.5,14.9,32.39.6,1.46,1.29,2.97,2.01,4.58,3.02,6.66,6.45,14.21,5.12,21.34-1.62,8.72-7.69,17.9-12.79,24.93-5.55,7.65-12.33,14.7-19.61,20.37-.77.6-1.56,1.26-2.41,2.01-.28.25-.64.38-1,.38Z" style="fill:#8c50b6;"/><path d="M147.21,3.01c23.1,0,40.49,37.89,50.18,54.35,4.33,7.36,8.46,14.86,12.35,22.47,5.39,10.55,10.35,21.31,14.84,32.27,3.09,7.52,8.59,16.77,7.05,25.07-1.58,8.49-7.55,17.47-12.53,24.32-5.37,7.41-12.11,14.45-19.32,20.07-.85.66-1.67,1.36-2.48,2.07-5.02-4.1-8.66-9.64-9.74-16.14-1.14-6.83.45-13.78,1.6-20.61,8.65-51.04-7.89-105.51-42.49-143.87.18,0,.35,0,.53,0M147.21.01c-.2,0-.4,0-.6,0-1.17.03-2.22.74-2.68,1.81-.46,1.08-.26,2.32.53,3.19,16.76,18.58,29.49,41.41,36.81,66.02,7.38,24.81,9.09,50.86,4.94,75.34-.15.9-.31,1.79-.47,2.69-1.09,6.14-2.21,12.48-1.14,18.92,1.15,6.93,4.89,13.15,10.8,17.97.55.45,1.22.68,1.9.68.71,0,1.42-.25,1.99-.75.83-.74,1.6-1.38,2.34-1.95,7.39-5.77,14.27-12.92,19.91-20.68,5.19-7.15,11.37-16.52,13.05-25.53,1.41-7.6-2.12-15.37-5.23-22.23-.72-1.59-1.41-3.1-1.99-4.53-4.48-10.92-9.51-21.86-14.95-32.5-3.87-7.56-8.05-15.17-12.43-22.62-1.29-2.19-2.75-4.83-4.3-7.62C185.04,29.02,168.97.01,147.21.01h0Z" style="fill:#223656;"/><path d="M88.84,264.39c-.4,0-.79-.16-1.08-.45-1.25-1.29-2.44-2.71-3.54-4.22-5.17-7.14-7.8-16.22-7.84-26.99-.05-15.05,1.69-30.66,3.38-45.75.33-2.94.65-5.86.97-8.76,2.5-23.21,7.1-46.99,14.04-72.69.18-.66.78-1.11,1.45-1.11.05,0,.11,0,.16,0,.73.08,1.3.68,1.34,1.42.88,17.95,2.68,33.49,5.5,47.53,1.13,5.61,2.48,11.3,3.79,16.79,2.51,10.53,5.1,21.42,6.25,32.41,1.44,13.73.94,33.4-9.62,49.18-3.75,5.58-8.78,10.02-14.17,12.5-.2.09-.42.14-.63.14Z" style="fill:#8c50b6;"/><path d="M96.22,105.92c.79,16.04,2.37,32.01,5.53,47.75,3.29,16.37,8.28,32.44,10.02,49.06,1.74,16.61-.09,34.31-9.38,48.19-3.35,4.98-8.14,9.48-13.55,11.97-1.24-1.28-2.38-2.65-3.4-4.06-5.53-7.65-7.52-16.82-7.55-26.11-.06-17.88,2.42-36.54,4.34-54.34,2.65-24.6,7.58-48.7,13.99-72.46M96.22,102.92c-1.34,0-2.54.9-2.89,2.22-6.96,25.78-11.57,49.64-14.08,72.92-.31,2.9-.64,5.81-.96,8.75-1.69,15.14-3.44,30.79-3.39,45.93.04,11.09,2.77,20.46,8.12,27.86,1.14,1.58,2.38,3.05,3.68,4.39.58.59,1.36.91,2.15.91.42,0,.85-.09,1.26-.28,5.63-2.6,10.88-7.22,14.78-13.02,8.56-12.79,11.97-30.14,9.87-50.18-1.16-11.09-3.77-22.02-6.28-32.6-1.3-5.48-2.65-11.15-3.78-16.73-2.8-13.96-4.59-29.43-5.47-47.31-.07-1.47-1.21-2.68-2.68-2.83-.11-.01-.22-.02-.32-.02h0Z" style="fill:#223656;"/><path d="M387.89,251.29c-.41,0-.88,0-1.3-.03l-.84-.06-3.58-6.78c-3.3-6.25-6.6-12.51-9.88-18.75-1.16-2.21-2.32-4.42-3.49-6.63l-1.22-2.31c-.97-1.85-1.81-3.61-2.63-5.31-2.54-5.3-4.73-9.89-9.3-14.2-.07-.05-.16-.12-.25-.21-1.21-1.11-2.46-2.28-3.71-3.46l-1.33-1.25c-7.04-6.57-12.38-11.74-17.31-16.76-5.2-5.3-10.72-11.61-10.52-19.39.13-6.21,3.84-11.37,7.64-16.13,10.55-13.29,22.22-26.14,34.68-38.2,14.5-14.1,30.38-27.46,47.2-39.71,3.48-2.57,7.34-5.29,12.16-8.56,7.72-5.24,17.92-11.26,28.27-11.26,1.77,0,3.52.18,5.19.54.97.2,2.02.5,3.3.95,5.33,2.02,9.83,6.03,13.07,11.6.57.94,1.1,1.95,1.6,3.04l.25.25v.21c1.32,2.21,6.9,12.1,8.64,24.32l.74,5.18-2.86-3.4c1.83,6.06,2.74,12.43,2.66,18.7l-.06,4.43-2.65-3.55c-.32-.44-.64-.88-.94-1.33l.79,6.83c.85,7.38-.67,14.75-2.27,20.99-.69,2.66-1.64,6.14-2.96,9.59-.06,1.92-.15,3.85-.24,5.77l-.43,8.31c-.69,10.74-1.37,20.33-2.1,29.33,0,.3,0,.61-.05.97l-.04.28-.13.24c-3.37,6.19-5.64,13.27-7.83,20.12-3.81,11.93-7.75,24.26-17.69,32.22-6.77,5.41-15.4,7.83-22.95,9.49-11.93,2.61-24.23,3.94-36.56,3.94,0,0-1.08,0-1.09,0Z" style="fill:#fad0ec;"/><path d="M452.51,43.79c1.63,0,3.26.16,4.88.5,1.05.22,2.1.55,3.12.9,5.27,2,9.4,6.01,12.26,10.94.61,1.01,1.16,2.07,1.65,3.16,0,0,.01.01.01.03.4.65,6.79,11.09,8.64,24.1-1.23-1.47-2.65-2.78-4.2-3.91,3.2,7.62,4.82,15.9,4.72,24.16-1.86-2.49-3.38-5.23-4.51-8.13.64,7.99,0,16.08-1.88,23.86,1.73-2.79,2.94-5.92,3.55-9.16.79,6.85-.52,13.77-2.23,20.45-.84,3.27-1.78,6.52-3,9.66-.06,2.03-.16,4.07-.25,6.09-.14,2.74-.29,5.49-.43,8.21-.62,9.77-1.31,19.58-2.1,29.34,0,.29,0,.55-.04.83-9.33,17.11-9.95,39.72-25.14,51.88-6.34,5.07-14.41,7.46-22.33,9.2-11.88,2.6-24.07,3.9-36.24,3.9-.35,0-.71,0-1.06,0-.39,0-.83,0-1.22-.03-4.35-8.25-8.73-16.54-13.07-24.78-1.56-2.97-3.14-5.98-4.7-8.94-4.01-7.68-5.98-14.04-12.3-19.98-.04-.04-.1-.07-.14-.1-1.7-1.56-3.36-3.14-5.07-4.74-5.86-5.47-11.65-11-17.26-16.72-5.03-5.13-10.28-11.15-10.09-18.3.12-5.75,3.73-10.74,7.31-15.24,10.6-13.35,22.17-26.08,34.55-38.06,14.73-14.33,30.54-27.56,47.04-39.58,3.97-2.94,8.03-5.75,12.12-8.53,8.25-5.6,17.92-11,27.43-11M452.51,40.79c-10.77,0-21.21,6.15-29.11,11.52-4.83,3.28-8.71,6.02-12.22,8.6-16.86,12.28-32.79,25.69-47.34,39.84-12.5,12.1-24.22,25-34.81,38.34-3.78,4.74-7.83,10.36-7.96,17.04-.21,8.35,5.54,14.94,10.95,20.46,4.93,5.03,10.29,10.21,17.36,16.81l1.39,1.31c1.2,1.13,2.44,2.3,3.68,3.44.1.09.19.17.28.23,4.32,4.1,6.44,8.55,8.9,13.69.82,1.71,1.67,3.49,2.65,5.36l1.47,2.78c1.08,2.05,2.17,4.11,3.24,6.16,3.37,6.4,6.75,12.82,10.13,19.22l2.94,5.57.78,1.48,1.67.11c.49.03,1.01.03,1.42.03.34,0,.7,0,1.06,0,12.44,0,24.85-1.34,36.88-3.97,7.72-1.7,16.55-4.18,23.56-9.78,10.29-8.24,14.3-20.79,18.18-32.93,2.17-6.78,4.41-13.8,7.71-19.85l.26-.48.07-.55c.06-.43.07-.8.07-1.11.73-8.99,1.42-18.57,2.1-29.28l.36-6.85.07-1.39c.08-1.85.17-3.74.23-5.65,1.3-3.44,2.24-6.88,2.92-9.52,1.64-6.38,3.19-13.92,2.31-21.54l-.14-1.21,2.89,3.88.11-8.86c.05-4.27-.34-8.58-1.16-12.82l2.08,2.48-1.47-10.37c-1.69-11.9-6.94-21.64-8.61-24.5v-.39l-.5-.52c-.49-1.05-1.03-2.05-1.59-2.99-3.39-5.83-8.16-10.07-13.77-12.19l-.04-.02h-.04c-1.33-.48-2.44-.79-3.48-1.01-1.76-.38-3.61-.57-5.49-.57h0Z" style="fill:#223656;"/><path d="M473.16,183.91c-.18.29-.33.58-.47.9-9.33,17.11-9.95,39.73-25.15,51.88-6.33,5.07-14.4,7.45-22.32,9.19-12.23,2.68-24.78,3.98-37.3,3.91-.4,0-.83,0-1.23-.04-4.34-8.25-8.72-16.53-13.06-24.78-1.56-2.97-3.15-5.97-4.7-8.94-4.02-7.67-5.97-14.04-12.3-19.97-.04-.04-.11-.07-.14-.11-1.7-1.56-3.36-3.15-5.07-4.74-5.86-5.46-11.65-11-17.26-16.72-5.03-5.14-10.28-11.14-10.09-18.31.11-5.75,3.73-10.75,7.31-15.23,10.6-13.35,22.18-26.09,34.55-38.06,14.73-14.33,30.54-27.57,47.03-39.58,2.71.14,5.39.47,8.07.98,2.57.47,5.21,1.09,7.74.4,6.11-1.7,8.5-10.13,14.69-11.61l.94-.61c-12.45,9.88-21.6,23.91-26.66,39.07-6.55,19.79-12.77,42.66-9.15,63.17,1.88-5.86,10.2-13.02,12.63-18.67-2.93,10.53-4.38,21.67-2.68,32.49,1.74,10.78,6.84,21.31,15.34,28.18-.69-10.02-.04-20.15,1.88-30.03.07,7.89,6.62,14.58,14.07,17.08,7.31,2.46,15.3,1.66,22.9.22.14-.04.29-.04.43-.07Z" style="fill:#383838; mix-blend-mode:soft-light; opacity:.6;"/><path d="M356.62,197.59c-.43,0-.84-.19-1.13-.51l-.08-.07c-6.72-6.21-14.67-13.66-22.31-21.46-5.21-5.3-10.75-11.61-10.55-19.4.14-6.19,3.85-11.37,7.64-16.13,10.49-13.19,22.15-26.04,34.67-38.2,11.55-11.21,23.94-21.94,36.81-31.89.08-.07.15-.13.23-.18l.47-.35c.38-.27.73-.55,1.09-.84.18-.13.29-.23.41-.32,4.13-3.35,7.82-7.41,11.08-11l1.06-1.17c.29-.32.7-.49,1.11-.49.14,0,.28.02.42.06,2.83-3.85,6.39-7.15,10.48-9.68.24-.15.52-.23.79-.23.39,0,.78.15,1.07.45.07.07.12.14.17.21,3.94-3.25,8.53-5.74,13.38-7.2.14-.04.29-.06.43-.06.6,0,1.15.36,1.39.93.23.57.09,1.21-.33,1.63,3.14-.74,6.52-1.35,8.67-1.56.05,0,.1,0,.15,0,.67,0,1.27.45,1.45,1.11.11.41.04.83-.17,1.17.92.09,1.82.23,2.7.42.58.12,1.03.58,1.15,1.16.12.58-.11,1.18-.59,1.52-41.31,29.82-72.81,72.76-88.71,120.9-.65,1.96-1.27,3.94-1.9,5.92-2.63,8.3-5.35,16.88-9.74,24.51-.25.44-.7.72-1.21.75-.03,0-.06,0-.09,0Z" style="fill:#8c50b6;"/><path d="M443.86,40.61h0M443.86,40.61c-1.77.92-3.23,2.38-4.18,4.13,3.36-1.29,10.47-2.78,14.05-3.13-1.56.7-3.13,1.51-4.72,2.4,1.17-.16,2.33-.24,3.5-.24,1.64,0,3.26.16,4.88.51-41.44,29.92-73.22,73.09-89.25,121.65-3.38,10.22-6.18,20.87-11.52,30.15-.04-.05-.1-.1-.14-.14-7.59-7.01-15.08-14.08-22.3-21.45-5.04-5.13-10.3-11.15-10.12-18.32.13-5.74,3.74-10.74,7.31-15.24,10.6-13.33,22.19-26.06,34.54-38.06,11.64-11.29,23.95-21.94,36.73-31.82.05-.05.1-.09.16-.13.16-.12.31-.23.47-.35.38-.27.75-.57,1.13-.87.14-.1.29-.22.43-.34,4.65-3.77,8.69-8.37,12.29-12.31-.6,1.29-.66,2.94-1.29,4.13,2.97-5.7,7.51-10.59,12.98-13.98-.99,1.52-1.81,3.17-2.42,4.87,4.56-5.39,10.7-9.43,17.47-11.47M453.73,41.61h0M428.81,47.21h0M417.11,57.06h0M443.86,37.61c-.13,0-.27,0-.4.03-.18.02-.36.07-.54.12-4.64,1.41-9.04,3.71-12.9,6.71-.36-.16-.77-.25-1.19-.26-.01,0-.02,0-.03,0-.09,0-.17,0-.26.01-.5.04-.96.21-1.36.47-4,2.49-7.51,5.67-10.36,9.38-.45.04-.88.19-1.25.41-.24.14-.47.32-.67.54,0,0,0,0,0,0,0,0,0,0,0,0,0,0-.01.02-.02.02l-1.06,1.17c-3.22,3.55-6.87,7.57-10.89,10.82-.11.09-.21.17-.3.24-.03.02-.07.05-.1.08-.35.28-.69.55-1.03.79l-.34.25-.17.13c-.06.04-.16.12-.29.23-12.9,9.98-25.31,20.73-36.89,31.97-12.56,12.2-24.27,25.1-34.8,38.35-3.77,4.75-7.81,10.37-7.96,17.04-.21,8.37,5.56,14.96,10.98,20.49,7.66,7.81,15.61,15.26,22.39,21.53,0,0,0,0,0,0,.57.6,1.36.95,2.19.95.06,0,.12,0,.18,0,1.01-.06,1.92-.62,2.43-1.5,4.47-7.77,7.22-16.43,9.87-24.8.62-1.94,1.25-3.95,1.9-5.9,15.79-47.84,47.1-90.52,88.16-120.16.96-.69,1.42-1.89,1.18-3.05-.24-1.16-1.15-2.07-2.3-2.32-.44-.1-.89-.18-1.34-.25-.24-1.38-1.42-2.44-2.85-2.49-.03,0-.07,0-.1,0-.04,0-.08,0-.12,0-.07,0-.14,0-.21.02-1.74.17-4.18.58-6.67,1.1-.35-1.16-1.39-2.02-2.63-2.11-.08,0-.16,0-.24,0h0Z" style="fill:#223656;"/><path d="M437.01,304.46c-9.39,0-20.16-6.01-29.54-16.48-.39-.44-.49-1.07-.26-1.6.28-.63.58-1.24.88-1.84,4.24-8.37,10.31-15.65,16.18-22.7,2.5-2.99,5.08-6.09,7.47-9.21,23.72-31,33.03-69.4,42.04-106.54.17-.68.77-1.15,1.46-1.15.07,0,.14,0,.21.01.76.11,1.32.78,1.29,1.55-.12,2.74-.26,5.51-.43,8.24-2.21,36.04-5.63,72.4-10.19,108.07-1.48,11.58-3.35,22.69-9.99,31.27-5.33,6.89-11.76,10.38-19.12,10.38h0Z" style="fill:#8c50b6;"/><path d="M475.24,146.43h0M475.24,146.43c-.12,2.74-.26,5.48-.43,8.21-2.21,36.09-5.6,72.11-10.18,107.97-1.37,10.74-3.07,21.99-9.68,30.54-5.41,7-11.62,9.8-17.94,9.8-10.18,0-20.63-7.28-28.43-15.98.27-.61.56-1.2.85-1.78,5.95-11.75,15.5-21.21,23.5-31.66,23.57-30.8,33.06-68.96,42.31-107.1M475.24,143.43c-.19,0-.38.02-.57.05-.51.1-.97.32-1.35.64-.28.23-.52.52-.7.84-.14.25-.25.53-.31.81-8.97,36.97-18.24,75.19-41.76,105.92-2.37,3.1-4.94,6.18-7.43,9.16-5.93,7.11-12.05,14.45-16.37,22.97-.35.71-.64,1.3-.92,1.93-.47,1.08-.27,2.33.51,3.21,9.67,10.79,20.85,16.98,30.66,16.98,7.85,0,14.68-3.69,20.31-10.96,6.87-8.88,8.79-20.2,10.29-32,4.56-35.71,7.99-72.1,10.2-108.17.17-2.71.31-5.44.42-8.14,0-.08.01-.17.01-.26,0-1.63-1.29-2.95-2.9-3-.03,0-.07,0-.1,0h0ZM475.24,149.43h0,0Z" style="fill:#223656;"/><path d="M196.87,1034.03c-4.82,0-10.91-2.08-16.28-3.91-3.53-1.2-6.86-2.34-9.25-2.7-.6-.09-1.32-.13-2.14-.13-2.66,0-6.1.46-9.74.96-4.29.58-8.72,1.18-12.81,1.18h0c-3.18,0-12.87,0-14.18-8.88-2.26-15.33-.67-23.33,1.3-30.82,1.48-5.64,4.68-13.46,11.46-18.73,5.11-3.96,11.51-5.85,17.17-7.52,4.74-1.19,9.42-2.74,13.95-4.24,6.52-2.16,13.27-4.39,20.19-5.56.08-.01.17-.02.25-.02.61,0,1.17.37,1.4.95,5.52,14.07,5.55,29.89,5.58,43.84,0,2.59.65,6.16,1.34,9.94,1.64,9.06,3.5,19.33-1.89,23.73-1.55,1.26-3.68,1.9-6.34,1.9Z" style="fill:#8c50b6;"/><path d="M196.78,955.16c5.34,13.63,5.45,28.66,5.48,43.3.02,8.79,6.82,26.95,0,32.5-1.38,1.12-3.24,1.57-5.39,1.57-7.68,0-19.05-5.66-25.31-6.59-.71-.11-1.5-.15-2.36-.15-5.89,0-15.03,2.14-22.55,2.14-6.52,0-11.81-1.61-12.69-7.6-2.3-15.6-.55-23.33,1.27-30.22,1.81-6.89,5.3-13.56,10.93-17.92,4.82-3.74,10.82-5.54,16.67-7.27,11.47-2.87,22.38-7.8,33.96-9.75M196.78,952.16c-.17,0-.33.01-.5.04-7.03,1.18-13.83,3.43-20.41,5.61-4.5,1.49-9.16,3.03-13.78,4.19-.04.01-.08.02-.12.03-5.78,1.7-12.33,3.64-17.66,7.77-7.12,5.52-10.45,13.67-11.99,19.53-2.01,7.65-3.63,15.81-1.33,31.42.99,6.74,6.26,10.16,15.66,10.16,4.19,0,8.68-.61,13.01-1.19,3.59-.49,6.98-.94,9.54-.94.75,0,1.39.04,1.92.12,2.26.34,5.53,1.45,8.99,2.63,5.48,1.87,11.69,3.99,16.76,3.99,3.01,0,5.46-.75,7.29-2.24,6.08-4.95,4.13-15.69,2.42-25.16-.67-3.71-1.31-7.22-1.31-9.68-.03-14.09-.07-30.05-5.69-44.39-.46-1.16-1.58-1.91-2.79-1.91h0Z" style="fill:#223656;"/><path d="M160.19,978.6s.97,37.03,11.37,47.34c10.4,10.31,27.59,5.03,27.59,5.03l-29.02-59.84-9.93,7.47Z" style="fill:#383838; mix-blend-mode:soft-light; opacity:.4;"/><path d="M391.17,416.29c-6.26,4.74-12.37,9.26-18.2,13.57-37.05,27.35-65.78,64.76-81.08,108.21-32.31,91.75-35.17,204.45-32.34,304.49-.58-1.77-1.09-3.87-1.56-6.3-15.92-83.03-14.51-124-10.09-176.87,7.25-86.71,90.9-181.85,9.5-229,87.01,9.99,132-13.17,133.78-14.11Z" style="fill:#383838; mix-blend-mode:soft-light; opacity:.6;"/><path d="M270.55,344.11c-.47.76-.4,1.09-.47,1.48,0,.29-.04.61-.36,1.12-8.18,7.42-22.29,10.2-34.3,6.8-11-3.15-19.65-11.25-22-20.33-.18-.51-.29-1.05-.36-1.56-.07-.36-.14-.72-.18-1.09.47.11.94.22,1.41.29,8.14.98,16.43-6.3,24.67-4.74,4.78.87,8.03,4.41,11.65,7.13,6.33,4.85,11.36,10.78,19.94,10.89Z" style="fill:#da6a6d;"/><path d="M270.55,344.11c-.47.76-.4,1.09-.47,1.48-1.77,1.34-3.98,2.03-6.22,2.17-2.71.22-5.43-.29-8.07-.94-2.46-.61-4.92-1.37-7.06-2.71-4.41-2.82-7.24-8.18-12.26-9.52-3.26-.87-6.69.14-10.02.51-2.35.25-4.85.33-7.16-.18-1.81-.4-4.12-.76-5.86-1.74-.47-.25-.9-.58-1.27-.94.29-.22.61-.4.9-.61.4-.29.83-.54,1.23-.8,8.14.98,16.43-6.3,24.67-4.74,4.78.87,8.03,4.41,11.65,7.13,6.33,4.85,11.36,10.78,19.94,10.89Z" style="fill:#383838; mix-blend-mode:soft-light; opacity:.6;"/><path d="M451.72,365.91c-16.07-.97-31.25-1.89-46.07-3.63-9.66-1.13-18.14-2.46-25.91-4.07-49.65-10.24-82.8-35.2-107.5-80.94-6.22-12.36-12.68-18.35-19.79-18.35-8.85,0-18.25,8.82-29.63,22.05-.08.09-.17.18-.27.25-15.83,11.19-36.62,16.4-65.43,16.4-5.87,0-12.05-.2-19.46-.64-12.79-.74-24.04-1.63-34.4-2.71-21.31-2.21-39.3-5.26-55-9.31-.75-.19-1.23-.92-1.11-1.69.04-.22.09-.47.15-.77l.02-.09c0-.1.03-.22.08-.35.49-2.33,1.27-5.42,2.65-8.14-2.53.03-4.54.87-7.61,3.17-.27.2-.58.3-.9.3-.3,0-.6-.09-.86-.27-.53-.37-.76-1.04-.58-1.66,1.38-4.61,3.88-7.77,6.56-10.02-3.42,1.03-7.44,2.74-11.46,5.76-.27.2-.58.3-.9.3-.34,0-.67-.11-.95-.34-.53-.44-.7-1.18-.41-1.8,2.92-6.2,9.53-12.13,15.48-16.25-8.79,2.92-19.04,7.77-25.13,11.11-.23.12-.48.19-.72.19-.43,0-.86-.19-1.16-.54-.46-.55-.46-1.35,0-1.91l.48-.59c8.9-10.85,15.28-18.62,30.09-25.24-2.84.52-6,1.26-9.44,2.21-.13.04-.27.05-.4.05-.52,0-1.01-.27-1.29-.73-.35-.58-.26-1.32.2-1.81,16-16.78,50.85-38.83,65.86-46.47,2.5-1.27,4.95-2.56,7.36-3.84,2.96-2.29,6.13-4.43,9.47-6.69l2.18-1.47c26.11-17.65,48.67-30.01,70.98-38.9,5.63-2.26,11.46-4.35,17.34-6.19,8.87-2.82,17.87-5.08,26.74-6.71,8.5-1.55,16.95-2.55,25.12-2.97,3.09-.16,6.2-.24,9.24-.24,3.78,0,7.56.13,11.25.37,7.65.51,15.11,2.23,22.82,5.26,6.06,2.37,12.17,5.49,18.68,9.54,8.64,5.34,16.92,11.61,24.92,17.68,0,0,4.59,3.45,6.71,5.03,20.76,15.45,40.28,32.77,58.03,51.48,6.41,5.7,12.44,11.69,17.92,17.82,3.7,4.11,7.34,8.5,10.79,13.04,3.67,4.44,6.56,8.55,8.8,12.52,7.28,11.03,13.43,21.63,18.79,32.41.22.44.5,1.01.85,1.69,4.65,9.22,18.81,37.26,18.81,50.27,0,.72-.51,1.34-1.22,1.47-.09.02-.18.03-.28.03-.61,0-1.17-.37-1.4-.96-.57-1.47-1.53-3.05-2.57-4.51,2.08,7.55,3.58,17.9,2.27,26.72-.1.7-.69,1.24-1.4,1.28-.03,0-.06,0-.09,0-.67,0-1.27-.45-1.45-1.11-1.2-4.47-5.39-10.49-8.86-14.16.95,5.3,2.07,13.31,1.74,16.02-.09.71-.66,1.26-1.37,1.31-.04,0-.08,0-.12,0-.67,0-1.26-.44-1.44-1.09-.96-3.36-4.24-7.57-6.7-10.11.57,4.76-.02,10.02-.06,10.31-.08.66-.58,1.19-1.23,1.3-.09.01-.17.02-.26.02-.56,0-1.09-.32-1.34-.84-.75-1.52-2.38-3.96-3.98-4.96-1.34,1.23-4.24,3.81-6.89,5.5-.13.1-.25.17-.31.21-.23.14-.53.23-.81.23-.03,0-4.24-.25-4.24-.25Z" style="fill:#8c50b6;"/><path d="M275.35,123.86c3.72,0,7.44.12,11.15.37,7.91.53,15.31,2.39,22.37,5.16,6.4,2.51,12.52,5.74,18.43,9.42,8.7,5.38,16.98,11.66,25.13,17.85,2.14,1.61,4.27,3.21,6.39,4.79,20.72,15.42,40.11,32.62,57.88,51.36,6.27,5.57,12.25,11.48,17.85,17.74,3.74,4.16,7.31,8.48,10.72,12.95,3.3,3.99,6.33,8.14,8.72,12.39,6.87,10.4,13.17,21.12,18.73,32.29,3.04,6.11,19.5,37.66,19.5,51.3-1.66-4.3-6.18-9.22-7.74-10.27,3.12,6.95,6.22,21.6,4.56,32.81-1.66-6.18-8.82-15.41-12.66-17.83.77,2.79,3.04,16.43,2.61,19.9-1.6-5.61-8.98-13.31-10.5-13.38,1.84,4.85.81,13.82.81,13.82,0,0-2.51-5.1-5.61-6.08,0,0-4.05,3.9-7.5,6.08-.06.06-.14.1-.21.14-17.3-1.05-34.08-1.99-50.15-3.87-8.81-1.03-17.41-2.31-25.78-4.05-42.14-8.69-78.55-28.45-106.49-80.18-6.91-13.74-13.92-19.13-21.11-19.13-9.82,0-19.99,10.04-30.77,22.57-18.35,12.97-41.95,16.12-64.56,16.12-6.59,0-13.1-.27-19.38-.64-11.16-.65-22.72-1.49-34.33-2.7-18.65-1.94-37.44-4.79-54.78-9.27.04-.25.1-.53.18-.9,0-.04,0-.08.03-.12.55-2.6,1.6-6.94,3.77-9.91-.86-.11-1.66-.17-2.42-.17-2.84,0-5.17.86-8.65,3.47,2.42-8.11,8.35-11.29,13.35-13.68-2.83.57-11.65,1.08-20.59,7.78,4.59-9.74,19.21-19.11,24.24-20.81-9.99.87-28.11,9.4-35.97,13.72,10.96-13.35,17.59-21.72,39.74-29.16-.51-.03-1.03-.04-1.56-.04-6.2,0-13.8,1.86-18.6,3.19,15.52-16.28,50.07-38.35,65.45-46.17,2.55-1.3,5.04-2.61,7.5-3.91,3.58-2.78,7.51-5.35,11.68-8.18,22.29-15.07,45.65-28.77,70.69-38.75,5.65-2.27,11.4-4.33,17.24-6.16,8.7-2.77,17.59-5.01,26.56-6.66,8.25-1.51,16.58-2.52,24.93-2.95,3.05-.16,6.11-.24,9.17-.24M275.35,120.86c-3.07,0-6.2.08-9.32.24-8.23.42-16.75,1.43-25.31,2.99-8.94,1.64-18,3.92-26.93,6.76-5.91,1.86-11.78,3.95-17.45,6.23-22.4,8.92-45.05,21.33-71.25,39.05-.74.5-1.46.99-2.18,1.47-3.33,2.25-6.48,4.37-9.45,6.66-2.29,1.21-4.73,2.5-7.23,3.77-15.09,7.67-50.14,29.86-66.26,46.77-.93.98-1.1,2.45-.4,3.61.49.81,1.31,1.32,2.2,1.44-8.79,5.62-14.18,12.19-21.04,20.55l-.48.59c-.91,1.11-.91,2.71,0,3.82.59.71,1.44,1.08,2.31,1.08.49,0,.99-.12,1.44-.37,4.08-2.24,10.03-5.16,16.13-7.7-3.58,3.3-6.75,7.04-8.56,10.89-.59,1.25-.25,2.73.82,3.6.55.45,1.22.67,1.9.67.63,0,1.27-.2,1.8-.6,1.77-1.33,3.54-2.4,5.24-3.25-1.09,1.67-2,3.61-2.68,5.89-.37,1.24.1,2.58,1.16,3.32.52.36,1.12.54,1.72.54.63,0,1.26-.2,1.8-.6,1.78-1.33,3.1-2.06,4.25-2.46-.77,2.07-1.28,4.15-1.64,5.84-.05.16-.08.32-.1.48v.03c-.08.34-.14.61-.18.86-.24,1.53.72,2.99,2.21,3.37,15.77,4.08,33.83,7.13,55.22,9.35,10.38,1.08,21.65,1.97,34.47,2.71,7.44.44,13.65.64,19.55.64,29.14,0,50.2-5.3,66.29-16.67.2-.14.38-.31.54-.49,9.62-11.18,19.73-21.53,28.49-21.53,6.49,0,12.51,5.72,18.43,17.48.01.03.03.05.04.08,13.49,24.99,29.47,43.72,48.84,57.27,16.77,11.73,35.73,19.49,59.68,24.43,7.82,1.62,16.34,2.96,26.04,4.09,14.87,1.74,30.09,2.66,46.21,3.64l4.11.25c.06,0,.12,0,.18,0,.54,0,1.07-.15,1.54-.43.12-.07.27-.16.43-.28,2.19-1.41,4.53-3.39,6.08-4.76.93.93,1.95,2.39,2.57,3.65.51,1.03,1.56,1.67,2.69,1.67.17,0,.34-.01.51-.04,1.31-.23,2.31-1.29,2.47-2.61.06-.51.33-3.06.32-6.16,1.54,2.01,2.96,4.28,3.51,6.19.37,1.3,1.55,2.18,2.88,2.18.08,0,.16,0,.23,0,1.42-.11,2.57-1.21,2.75-2.62.26-2.07-.23-6.63-.88-11.02,2.26,3.08,4.31,6.6,5.05,9.37.35,1.32,1.55,2.22,2.9,2.22.06,0,.12,0,.17,0,1.42-.08,2.59-1.15,2.79-2.55.96-6.45.45-13.69-.69-20.12.29.09.6.14.91.14.18,0,.37-.02.55-.05,1.42-.26,2.45-1.5,2.45-2.95,0-13.37-14.27-41.65-18.96-50.95-.34-.68-.63-1.25-.85-1.69-5.38-10.81-11.55-21.45-18.86-32.52-2.27-4.02-5.19-8.18-8.93-12.69-3.47-4.55-7.11-8.95-10.84-13.09-5.5-6.15-11.55-12.17-17.99-17.89-17.79-18.76-37.37-36.12-58.18-51.61-2.11-1.58-4.24-3.18-6.38-4.78l-.29-.22c-8.04-6.09-16.35-12.39-25.07-17.78-6.58-4.09-12.77-7.25-18.92-9.66-7.85-3.08-15.46-4.83-23.26-5.36-3.72-.25-7.54-.38-11.35-.38h0Z" style="fill:#223656;"/><path d="M484.48,329.21c3.11,6.95,6.22,21.6,4.56,32.82-1.66-6.19-8.83-15.41-12.66-17.84.76,2.79,3.04,16.43,2.6,19.9-1.59-5.61-8.97-13.31-10.49-13.39,1.85,4.85.8,13.82.8,13.82,0,0-2.5-5.1-5.61-6.08,0,0-4.05,3.91-7.49,6.08-1.45,1.27-2.93,2.57-4.45,3.84l-.11.11c-7.78,8.25-9.15,10.56-11.43,15.41-2.24,4.88-5.97,14.47-10.31,18.2,1.34-4.74.69-9.23.98-12.19-3.51,7.45-14.29,21.35-18.67,25.54,1.59-3.44,4.96-12.3,4.41-15.34-3.87,7.31-8.9,15.09-22.9,23.12,3.47-4.59,5.64-9.73,7.09-14.15-.25.22-.54.4-.8.58-2.17,2.71-5.14,5.46-8.36,8.1-.14-.47-.29-.98-.43-1.45h-.04c-6.26,4.74-12.37,9.26-18.2,13.57-.18.14-.33.25-.51.4-.04,0-.07.04-.11.07-6.62,4.92-12.95,10.17-19.03,15.7-28.11-1.92-56.15-5.1-83.39-11.98-34.34-8.65-67.66-23.52-93.96-47.18,9.95,6.98,93.27,41.1,176.45,15.99-14.33-2.06-44.36-12.08-57.45-18.23,41.72,5.86,93.31-3.65,132.89-17.98-4.49-.14-17.76-4.45-22.03-5.86-6.3-2.03-12.19-5.39-17.15-9.84,23.3,6.08,50-5.03,62.09-25.87-4.78,5.75-11.72,9.66-19.1,10.78,15.92-11.51,26.01-34.43,22.65-53.79-2.28-13.1-19.75-51.53-19.75-51.53,6.44,7.16,12.41,14.8,17.8,22.87,7.49,11.18,14.36,22.72,20.37,34.77,3.04,6.11,19.5,37.66,19.5,51.3-1.66-4.31-6.19-9.23-7.74-10.28Z" style="fill:#383838; mix-blend-mode:soft-light; opacity:.6;"/><path d="M289.01,329.34c-4.08,7.03-9.18,15.48-18.8,14.72-6.87-.54-12.47-6.54-17.39-10.75-2.44-2.09-4.92-4.14-7.61-5.88-2.64-1.71-5.6-3.58-8.81-3.81-2.36-.17-4.92.58-7.15,1.28-4.42,1.37-8.58,3.51-13.06,4.7-2.95.78-6.11,1.07-8.98-.16-3.6-1.54-6.57-4.71-8.25-8.15-1.91-3.89-1.83-6.31-1.93-10.12-3.47,13.39,7.23,24.88,20.77,21.82,6.86-1.55,11.99-6.76,19.12-5.83-.38-.03-.01.01-.05.02,10.64,2.21,16.01,14.7,26.24,18.09,13.06,4.48,23.11-4.41,25.91-15.93Z" style="fill:#3d155f;"/><path d="M215.78,248.17s.89,15.57-3.13,25.65c-2.19-2.82-5.26-4.69-23.23-2.27-17.97,2.42,18.45-27.88,18.45-27.88l7.91,4.49Z" style="fill:#31005b;"/><path d="M200.65,271.79c-5.72,2.35-12.08,2.93-18.27,2.39-12.92-1.05-25.47-7.09-34.05-16.79-1.05-1.16-2.03-2.39-2.93-3.65-2.89-3.98-4.45-8.07-6.01-12.63-1.77-5.17-4.16-9.8-4.63-15.38-.51-5.57.58-11.36,3.69-15.96,5.14-7.56,14.91-10.78,24.02-10.38,2.42.11,4.7.47,6.95.98,5.5,1.23,10.64,3.4,16.21,4.96,6.04,1.7,9.33,3.76,13.75,8.61,3.94,4.31,7.78,10.06,10.67,16.32,7.27,15.48,8.61,34.05-9.41,41.53Z" style="fill:#fff;"/><path d="M200.65,271.79c-5.72,2.35-12.08,2.93-18.27,2.39-12.92-1.05-25.47-7.09-34.05-16.79,4.96,2.79,10.24,4.99,15.7,6.48,10.97,2.98,26.88,4.96,36.32-3.02,7.5-6.34,8.81-17.18,9.66-26.35.11-1.41.14-2.82.04-4.23,7.27,15.48,8.61,34.05-9.41,41.53Z" style="fill:#383838; opacity:.1;"/><path d="M168.77,258.6c-4.78-3.2-8.17-8.4-9.19-14.08-.84-4.66-.12-9.48,1.21-14.03,1.49-5.09,3.8-10.03,7.45-13.87,3.65-3.83,8.75-6.46,14.03-6.35,5.01.11,9.72,2.63,13.4,6.05,6.09,5.67,9.69,14.06,9.2,22.38-.49,8.33-5.22,16.38-12.44,20.51-7.22,4.13-16.76,4.02-23.66-.61Z" style="fill:#3d155f;"/><path d="M215.38,256.25s.05,4.9.15,3.64c.77-4.25.79-8.5.73-10.86-.18-2.35-.46-5.54-1.19-8.8-.45-3.34-1.49-7-2.87-10.93-.83-1.9-1.61-3.95-2.59-5.98-1.12-1.95-2.21-4.03-3.54-6.04-2.8-3.97-5.83-7.97-10.14-11.47-2-1.57-3.75-3.27-6.37-4.67-1.22-.73-2.46-1.46-3.69-2.2-1.24-.78-2.58-1.12-3.87-1.7l-3.94-1.57c-1.35-.42-2.76-.71-4.15-1.06-1.44-.32-2.67-.71-4.31-.97-1.35-.16-2.58-.37-4.19-.41-6.01-.25-11.88.8-17.28,3.32-1.37.54-2.6,1.41-3.88,2.13l-.12.07-.06.04-.28.21-.19.16-.38.31-.76.62-1.51,1.23c-1.01.85-2.1,2.21-3.1,3.31-1.06,1.14-1.62,2.43-2.42,3.63-2.82,4.99-3.69,10.47-3.65,15.39-.02,4.97,1.01,9.51,2.39,13.46,1.26,4.01,3.09,7.39,4.78,10.29,1.77,2.87,3.59,5.16,5.16,6.95,1.63,1.76,2.99,3.04,4.01,3.81.97.81,1.49,1.24,1.49,1.24,0,0-.42-.53-1.21-1.51-.84-.93-1.85-2.49-3.14-4.41-1.22-1.98-2.54-4.46-3.85-7.36-1.19-2.96-2.45-6.33-3.23-10.13-.85-3.76-1.31-7.94-.99-12.2.3-4.25,1.45-8.59,3.74-12.31.66-.84,1.16-1.93,1.91-2.6.79-.72,1.24-1.47,2.25-2.24l1.57-1.16.79-.58.39-.29.2-.15c-.09.06.27-.19-.19.13l.05-.02.1-.05c1.02-.52,1.96-1.21,3.06-1.6,4.21-1.92,9.21-2.71,13.91-2.45,1.08-.03,2.5.17,3.82.31,1.01.15,2.37.52,3.53.77,1.2.29,2.43.5,3.61.85l3.46,1.33c2.4.77,4.41,1.95,6.48,3.04,2.08.87,4.15,2.64,6.17,4.08,3.62,2.71,6.9,6.23,9.67,9.59,1.37,1.72,2.47,3.58,3.71,5.26,1.11,1.77,2.02,3.57,3,5.26,1.63,3.52,3.12,6.82,3.98,9.91,1.11,3.04,2.7,7.89,1.32,17.9.42,2.3,1.25-5.67,1.43-4.43.15,1.26.23,1.92.23,1.92Z" style="fill:#31005b;"/><path d="M304.79,263.44s-6.59,14.14-6.59,24.99c3.08-1.81,6.62-2.41,22.42,6.49,15.8,8.9-6.81-32.73-6.81-32.73l-9.02,1.24Z" style="fill:#31005b;"/><path d="M389.08,265.78c-2.13,5.17-5.79,8.86-9.05,13.28-2.82,3.87-5.57,7.31-9.52,10.24-11.65,8.72-27.24,11.58-41.43,8.36-4.96-1.09-9.84-2.97-14.04-5.82-.9-.58-1.81-1.23-2.64-1.95-20.95-17.58.98-44.5,18.56-54.78,5.72-3.33,9.44-4.27,15.74-4.05,5.75.18,11.32-.36,16.93.11,2.32.18,4.59.54,6.91,1.16,1.81.47,3.62,1.12,5.32,1.92,6.69,3.04,12.41,8.25,14.47,15.2,1.59,5.35.87,11.22-1.27,16.35Z" style="fill:#fff;"/><path d="M389.08,265.78c-2.13,5.17-5.79,8.86-9.05,13.28-2.82,3.87-5.57,7.31-9.52,10.24-11.65,8.72-27.24,11.58-41.43,8.36-4.96-1.09-9.84-2.97-14.04-5.82,16.14,3.51,37.41,4.92,50.58-5.57,30.57-24.35,10.89-50.07,10.24-52.03,6.69,3.04,12.41,8.25,14.47,15.2,1.59,5.35.87,11.22-1.27,16.35Z" style="fill:#383838; opacity:.1;"/><path d="M346.76,286.9c5.52-1.62,10.32-5.56,13-10.66,2.2-4.19,2.96-9.01,3.06-13.74.11-5.3-.61-10.71-2.94-15.47-2.33-4.75-6.41-8.8-11.47-10.28-4.81-1.41-10.07-.42-14.59,1.74-7.51,3.57-13.47,10.49-15.5,18.58-2.03,8.09.05,17.19,5.69,23.3,5.65,6.11,14.77,8.87,22.75,6.53Z" style="fill:#3d155f;"/><path d="M303.02,270.64s-.68,2.72-.15,1.57c.55-1.13-.11,4.11.98,2.04-.2-5.84,4.69-14.83,6.66-17.4,1.75-2.68,4.16-5.38,6.78-8.25,1.44-1.32,2.86-2.77,4.44-4.12,1.69-1.23,3.3-2.67,5.12-3.9,3.65-2.38,7.84-4.74,12.11-6.24,2.36-.77,4.87-1.83,7.12-2.04,2.3-.41,4.58-.93,7.1-.95l3.7-.23c1.23.02,2.47.19,3.7.28,1.19.12,2.59.17,3.6.33,1.3.27,2.71.5,3.73.85,4.57,1.16,9.1,3.42,12.53,6.52.94.71,1.62,1.65,2.44,2.45l.08.08.04.04c-.34-.45-.07-.1-.14-.18l.14.2.29.4.58.79,1.15,1.57c.72,1.04.93,1.88,1.47,2.81.51.87.67,2.06,1.04,3.06,1.06,4.24.86,8.72-.13,12.87-.98,4.16-2.67,8-4.61,11.33-1.89,3.38-4.1,6.22-6.13,8.69-2.13,2.38-4.13,4.35-5.89,5.86-1.81,1.44-3.24,2.62-4.32,3.26-1.05.7-1.61,1.08-1.61,1.08,0,0,.62-.25,1.8-.73,1.2-.43,2.88-1.24,4.97-2.43,2.04-1.24,4.47-2.88,7.02-5.08,2.48-2.26,5.24-4.93,7.65-8.38,2.5-3.36,4.85-7.38,6.33-12.12,1.52-4.68,2.34-10.17,1.15-15.77-.41-1.38-.55-2.78-1.22-4.19-.62-1.34-1.25-2.98-1.96-4.09l-1.07-1.63-.54-.82-.27-.41-.13-.21-.21-.28-.05-.05-.09-.1c-1.01-1.07-1.92-2.26-3.06-3.2-4.4-4.03-9.68-6.8-15.49-8.36-1.55-.45-2.79-.62-4.12-.87-1.63-.24-2.92-.24-4.4-.37-1.43-.08-2.86-.23-4.28-.24l-4.23.31c-1.41.17-2.79.09-4.2.46-1.4.33-2.8.66-4.18.98-2.91.55-5.09,1.64-7.47,2.54-5.16,2.04-9.26,4.95-13.12,7.89-1.87,1.51-3.54,3.17-5.2,4.7-1.55,1.64-2.91,3.36-4.27,4.92-2.5,3.33-4.6,6.51-6.03,9.56-1.68,2.89-5.35,10.25-7.8,20.15-.77,2.24,3.45-8.07,3.11-6.85-.28,1.23-.43,1.89-.43,1.89Z" style="fill:#31005b;"/><path d="M218.93,350.05c.95,14.61,22.08,25.49,36.96,10.55-9.69,9.73-28.28.13-36.96-10.55Z" style="fill:#383838; mix-blend-mode:soft-light; opacity:.6;"/><path d="M218.93,350.05c4.8,14.6,25.16,20.42,36.96,10.55-13,4.45-28.28.13-36.96-10.55Z" style="fill:#3d155f;"/><path d="M419.46,709.08s.46,98.97-7.02,122.23c-28.49,88.62-70.15,130.37-49.52,165.2,20.63,34.84-86.06,0-86.06,0l32.6-192.62,110-94.82Z" style="fill:#383838; mix-blend-mode:soft-light; opacity:.4;"/><path d="M418.51,719.19s-13.96,98.46-27.34,129.44c-35.61,82.48-68.62,115.26-66.03,147.18.24,2.93-10.74,4.79-10.74,4.79l-4.07-20.43,28.48-81.47,45.42-62.45,34.28-117.07Z" style="fill:#383838; mix-blend-mode:soft-light; opacity:.4;"/><path d="M415.41,677.3c3.48,10.34,4.6,21.08,4.09,31.8-.58,11.33-3,22.64-6.48,33.42-6.08,18.86-8.43,39.23-14.03,58.51-12.2,41.83-31.45,81.63-56.76,117.09-12.05,16.82-25.91,33.79-28.66,54.3-.62,4.59-1.14,9.72-1.84,14.95.68,4.47,1.22,8.98,2.68,13.24,2.94,8.56,9.3,15.47,13.51,23.48,4.21,8.01,5.81,18.8-.35,25.43-4.83,5.21-12.64,6.01-19.73,6.49-8.2.55-16.38,1.1-24.58,1.65-7.48.51-15.39.92-22.04-2.53-8.43-4.39-12.89-14.35-12.91-23.86-.03-9.51,3.69-18.63,8.14-27.03,1.92-3.61,3.99-7.16,6.2-10.6-.71-9.43.05-18.94.56-28.38,1.88-34.73-.61-68.68-3.97-103.19-3.12-31.94.69-65.48.69-97.68.87-44.79-1.92-93.97,38.61-123.99" style="fill:#8c50b6; stroke:#223656; stroke-linecap:round; stroke-linejoin:round; stroke-width:3px;"/><path d="M419.5,709.1c-.58,11.32-3,22.65-6.48,33.43-6.08,18.85-8.43,39.22-14.04,58.5-12.19,41.82-31.44,81.62-56.77,117.08-12.05,16.82-25.91,33.79-28.65,54.31-3.08,22.79-3.73,58.94-35.46,56.48-4.52-3.84-7.92-8.72-10.38-14.15,22.72-5.32,30.21-31.26,34.43-51.19,1.92-9.05,2.8-18.37,5.59-27.21,3.78-11.98,10.26-23.07,16.39-33.99,3.88-6.92,19.48-27.12,24.7-37.78-4.18-1.35-7.85-.29-11.71.35,15.58-7.4,28.33-20.6,35.17-36.43-2.99,2.59-7.04,3.92-10.98,3.62,6.8-6.51,13.66-13.16,18.8-21.05,4.12-6.34,10.43-25.11,12.31-29.57,4.62-10.99,8.54-22.34,12.71-33.51,4.83-12.94,9.62-25.9,14.38-38.88Z" style="fill:#383838; mix-blend-mode:soft-light; opacity:.2;"/><path d="M160.49,659.27c4.01,10.13,10.13,29.2,16.21,49.28,9.26,30.6,18.41,63.49,19.76,70.2,3.03,15.18,5.49,30.46,7.74,45.76,8.6,58.7,12.22,118.15,10.81,177.5,2.73,7.52,5.34,15.08,7.79,22.69.58,1.78,1.16,3.62,1.6,5.47,1.08,4.6,1.4,9.26-.58,13.42-4.05,8.25-14.94,9.77-24.13,10.21-8.9.43-17.8.87-26.69,1.26-4.7.26-9.48.47-14.04-.71-4.56-1.19-8.94-4.03-10.82-8.33-2.82-6.59.87-14.18,5.53-19.65,4.68-5.46,10.53-10.2,13.13-16.89.26-.69.48-1.34.66-2.03.82-2.94,1.03-5.99.96-9.08-1.56-4.49-3.12-8.87-4.96-12.76-7.44-15.81-14.39-31.84-20.94-48.05-8.83-21.85-13.5-43.41-18.86-66.35-11.21-47.76-19.17-98.34-6.47-146.68" style="fill:#8c50b6; stroke:#223656; stroke-linecap:round; stroke-linejoin:round; stroke-width:3px;"/><path d="M230.93,1066.41c-7.81,5.28-43.92-33.32-49.89-40.63-2.46-3-4.45-6.55-6.22-10.42.29-1.12.65-2.24,1.05-3.36,30.25,19.68,30.84-56.93,29.43-108.31-.87-32.27-1.1-79.18-7.29-116.73,2.35,12.48,4.34,25,6.19,37.55,8.86,60.49,12.59,116.35,10.82,177.5,0,0,23.34,59.41,15.92,64.4Z" style="fill:#383838; mix-blend-mode:soft-light; opacity:.3;"/><path d="M117.18,724.55c-8.25,48.14-1.8,94.28,9.42,142.04,5.35,22.94,10.77,49,15.91,70.99-8.13-20.04-13.5-43.42-18.85-66.35-11.22-47.76-19.18-98.34-6.48-146.67Z" style="fill:#383838; mix-blend-mode:soft-light; opacity:.3;"/><path d="M381.16,231.9s20.11,11.59,33.89,6.02c-9.61,8.44-21.15,7.52-20.84,14.52.31,7-3.85-2.27-3.85-2.27l-9.19-18.27Z" style="fill:#31005b;"/><path d="M164.27,194.67s-22.81-4.32-29.63-17.52c1.79,12.67,11.14,19.48,6.34,24.59-4.8,5.11,4.4.79,4.4.79l18.88-7.87Z" style="fill:#31005b;"/><circle cx="357.39" cy="247.68" r="8.3" style="fill:#fff;"/><circle cx="170.55" cy="215.79" r="8.3" style="fill:#fff;"/><path d="M280.16,310.26c32.81-3.6,65.91-4.51,98.88-3.02,32.92,1.64,65.95,5.85,97.49,15.72-63.27-19.1-131.5-18.72-196.37-12.7h0Z" style="fill:#0f1653;"/><path d="M272.55,317.44c36.49.23,72.94,3.01,109.11,7.78,36.12,5,72.05,12.37,106.39,24.83-68.82-24.38-143.32-31.04-215.5-32.61h0Z" style="fill:#0f1653;"/><path d="M276.91,325.29c34.59,4.57,68.97,11.36,102.35,21.56,19.93,6.25,39.77,13.69,57.39,25.08-17.63-11.37-37.47-18.79-57.41-25.03-33.24-10.29-68.31-16.78-102.34-21.61h0Z" style="fill:#0f1653;"/><path d="M208.32,296.02c-29.34-15.1-59.92-27.81-91.23-38.21-31.32-10.26-63.67-18.15-96.65-20.23,32.98,2.06,65.33,9.93,96.67,20.17,31.13,10.43,62.52,23.08,91.21,38.28h0Z" style="fill:#0f1653;"/><path d="M212.87,305.46c-34.14-12.85-69.18-23.31-104.65-31.79-35.51-8.26-71.7-14.24-108.22-14.9,54.82,1.11,108.73,13.46,161.07,29.09,17.28,5.38,35.38,10.97,51.8,17.61h0Z" style="fill:#0f1653;"/><path d="M206,311.23c-33.92-8.12-68.45-14.09-103.27-16.52-20.85-1.3-42.03-1.46-62.56,2.86,27.43-5.65,55.76-3.92,83.43-1.06,27.58,3.21,55.88,7.93,82.41,14.73h0Z" style="fill:#0f1653;"/><path d="M419.72,1136.16c-2.74,0-5.27-.1-7.53-.31-.78-.07-1.37-.72-1.36-1.5s.6-1.42,1.38-1.49c2.18-.17,5.35-1.95,8.2-4.04-1.95.21-4.28.31-7.04.31-3.47,0-6.91-.16-9.66-.29-1.64-.08-3.05-.14-3.88-.14-6.94,0-14.11-.39-21.32-1.16h-.14c-1.53-.06-3.11-.13-4.76-.21,2.05.94,4.24,1.67,7.56,2.26.71.13,1.23.74,1.24,1.46s-.5,1.35-1.21,1.48c-2.73.54-6.12.81-10.07.81-13.9,0-33.85-3.36-52.2-7.44.08.23.11.48.07.73-.11.73-.74,1.27-1.48,1.27h-.02c-25.4-.31-75-17.85-84.68-21.37-.29-.11-.54-.3-.71-.54-11.06-2.67-20.09-5.31-28.27-8.26-12.63-4.53-23.4-9.91-32.91-16.45-27.16-18.69-42.09-48.15-38.04-75.06.08-.53.43-.97.93-1.17.18-.07.37-.11.55-.11.33,0,.66.11.93.32,18.78,14.74,41.02,22.53,64.32,22.53,18.23,0,36.67-4.55,54.81-13.54,14.4-7.12,28.2-16.06,41.55-24.7,18.1-11.72,36.82-23.84,57.35-31.65,8.02-3.04,16.21-5.56,24.36-7.49,7.83-3.23,14.89-5.39,22.22-6.79.1-.02.19-.03.28-.03.6,0,1.16.36,1.39.94.18.45.13.95-.11,1.35,2.92-.5,5.9-.82,8.65-1.01-.06-.14-.11-.3-.12-.46-.08-.82.51-1.56,1.33-1.64,0,0,.12-.01.12-.01,3.27-.32,6.21-.48,9-.48,3.57,0,6.51.26,9.21.61,0-.02,0-.05,0-.07-.02-.77.54-1.42,1.3-1.52.65-.09,1.36-.13,2.11-.13,5.95,0,13.73,2.68,17.06,3.83l.78.27c.75.26,2.63.79,4.83,1.37,15.31,1.83,31.38,5.14,47.76,9.83,4.62,1.3,9.27,2.73,14.2,4.37,17.82,5.91,36.43,13.5,55.3,22.57.15.05.3.12.43.18,0,0,.21.09.24.1,9.4,4.52,19.05,9.48,28.68,14.73.72.39,1.43.79,2.14,1.19.43.24.87.49,1.31.74,7.06,4.04,12.31,7.73,16.56,11.64,6.53,5.97,13.65,21.42,13.84,30.05.04,2.82-.35,5.55-1.16,8.12-.2.67-.47,1.34-.73,1.97-.66,1.74-1.59,3.5-2.83,5.35-5.58,11.08-38.02,30.27-44.48,34.02-14.23,8.25-28.92,15.64-43.65,21.97-.19.08-.39.12-.59.12-.48,0-.94-.23-1.23-.64-.41-.58-.35-1.37.14-1.89,1.26-1.33,2.51-2.66,3.76-3.99-14.42,6.13-29.12,11.67-43.81,16.49-.15.05-.31.08-.47.08-.59,0-1.14-.34-1.38-.91-.31-.72-.01-1.55.67-1.91,3.46-1.84,7.46-3.98,10.71-6.86-29.92,14.6-67.82,22.21-91.48,22.21Z" style="fill:#8c50b6;"/><path d="M433.09,942.66c6.26,0,14.98,3.22,17.37,4.01.79.27,2.71.82,5.04,1.43h.01c16,1.91,31.92,5.3,47.61,9.79,4.74,1.34,9.44,2.79,14.15,4.35,18.89,6.26,37.37,13.96,55.21,22.54.22.07.4.18.58.25,9.77,4.7,19.32,9.63,28.62,14.69,1.16.62,2.27,1.27,3.44,1.92,5.74,3.29,11.47,7.01,16.28,11.43,6.14,5.61,13.17,20.69,13.35,28.98.04,2.68-.32,5.21-1.09,7.64-.18.61-.43,1.22-.69,1.84-.69,1.81-1.62,3.51-2.74,5.17-4.96,10.09-34.67,28.11-43.93,33.47-14.03,8.13-28.58,15.48-43.49,21.89,2.94-3.12,5.86-6.2,8.79-9.3-16.5,7.27-33.32,13.74-50.4,19.35,6.04-3.22,12.42-6.77,15.7-12.81-31.78,17.33-73.3,25.34-97.17,25.34-2.7,0-5.18-.1-7.39-.31,4.38-.35,11.33-5.72,14.3-9.04-1.75,1.85-7.47,2.31-13.27,2.31s-11.3-.43-13.54-.43c-7.09,0-14.18-.4-21.24-1.16h-.22c-3.87-.14-7.74-.36-11.61-.62,5.07,2.69,7.46,4.46,14.15,5.65-2.75.54-6.06.78-9.78.78-21.09,0-55.42-7.75-75.32-13.22,6.14,4.44,9.04,3.97,21.71,7.78-24.78-.3-73.91-17.55-84.19-21.28.43-.04.83-.08,1.26-.08-10.24-2.42-20.41-5.17-30.24-8.72-11.51-4.13-22.51-9.37-32.56-16.28-23.88-16.43-41.72-44.91-37.41-73.6,19.87,15.59,42.33,22.85,65.25,22.85,18.56,0,37.43-4.76,55.48-13.69,34.02-16.82,63.29-42.8,98.77-56.3,8.05-3.05,16.15-5.53,24.29-7.46,7.48-3.09,14.54-5.31,22.04-6.75-2.01,1.32-4.6,2.4-5.95,3.64,1.05-.17,2.1-.32,3.17-.47,6.49-1.65,14.61-2.21,21.48-2.21,1.06,0,2.09.01,3.08.04-2.53-.78-6.45-1.9-9.45-1.9-.32,0-.63.01-.93.04,3.42-.34,6.31-.47,8.87-.47,7.3,0,11.79,1.11,17.58,1.78-.55-1.08-4.57-2.58-6.87-2.78.6-.08,1.24-.12,1.91-.12M411.61,944.25s-.07,0-.1.01c.03,0,.07,0,.1-.01M400.2,945.11h0M433.09,939.66c-.82,0-1.59.05-2.31.14-.94.13-1.72.67-2.18,1.44-2.4-.27-5.03-.47-8.13-.47-2.84,0-5.84.16-9.16.49,0,0-.01,0-.02,0h-.1c-1.27.14-2.27,1.06-2.58,2.22-1.81.15-3.68.36-5.56.63-.39-1.13-1.43-1.95-2.68-2.02-.05,0-.1,0-.16,0-.08,0-.15,0-.23,0-.14.01-.27.03-.4.06-7.37,1.42-14.48,3.59-22.34,6.82-8.18,1.94-16.39,4.47-24.43,7.52-20.68,7.87-39.47,20.03-57.64,31.8-13.31,8.62-27.08,17.53-41.4,24.62-17.94,8.88-36.15,13.38-54.15,13.38-23.29,0-44.62-7.47-63.4-22.21-.54-.42-1.19-.64-1.85-.64-.37,0-.75.07-1.11.21-.99.39-1.7,1.29-1.86,2.34-2.13,14.15.8,29.12,8.46,43.27,6.93,12.8,17.66,24.6,30.21,33.24,9.62,6.61,20.49,12.05,33.25,16.63,8.12,2.93,17.06,5.55,27.98,8.19.28.26.62.46.99.6,9.73,3.53,59.54,21.15,85.17,21.46.01,0,.02,0,.04,0,1.17,0,2.2-.68,2.7-1.68,17.99,3.94,37.31,7.13,50.91,7.13,4.04,0,7.53-.28,10.36-.84,1.42-.28,2.44-1.53,2.42-2.97,0-.56-.16-1.08-.43-1.53,5.53.45,11.01.68,16.36.68.8,0,2.2.06,3.81.14,2.77.13,6.22.29,9.73.29.41,0,.82,0,1.22,0-.94.42-1.8.69-2.49.75-1.55.12-2.75,1.42-2.76,2.97,0,1.56,1.17,2.86,2.73,3.01,2.3.21,4.88.32,7.67.32,20.38,0,51.24-5.61,78.61-16.42-.21.66-.19,1.39.1,2.07.48,1.13,1.59,1.82,2.76,1.82.31,0,.63-.05.94-.15,12.68-4.16,25.37-8.86,37.88-14.01-.36.91-.26,1.98.33,2.82.58.82,1.5,1.28,2.46,1.28.4,0,.8-.08,1.18-.24,14.78-6.35,29.52-13.76,43.81-22.05,9.14-5.3,39.29-23.37,45.02-34.56,1.26-1.9,2.22-3.72,2.93-5.57.27-.66.56-1.36.78-2.1.84-2.68,1.26-5.57,1.22-8.54-.2-8.97-7.56-24.97-14.33-31.15-4.33-3.98-9.67-7.73-16.81-11.82-.47-.26-.9-.51-1.33-.75-.72-.41-1.44-.81-2.18-1.21-9.64-5.25-19.31-10.21-28.74-14.75-.07-.03-.14-.06-.21-.09h-.03c-.12-.07-.29-.15-.5-.23-18.9-9.08-37.54-16.68-55.4-22.6-4.95-1.64-9.62-3.08-14.28-4.39-16.41-4.7-32.52-8.02-47.88-9.86-2.56-.67-4.08-1.12-4.62-1.31-.23-.08-.49-.17-.8-.27-3.4-1.17-11.35-3.9-17.54-3.9h0Z" style="fill:#223656;"/><g style="mix-blend-mode:soft-light; opacity:.5;"><path d="M633.65,1049.7c-.18.65-.4,1.27-.61,1.88t-.07-.04c-.69,1.81-1.63,3.51-2.75,5.17-4.96,10.09-34.66,28.11-43.92,33.47-14.04,8.14-28.58,15.49-43.49,21.89,2.93-3.11,5.86-6.19,8.79-9.3-16.5,7.27-33.32,13.75-50.4,19.36,6.04-3.22,12.41-6.77,15.7-12.81-35.38,19.28-82.82,27.03-104.56,25.04,4.38-.36,11.32-5.72,14.29-9.05-3.44,3.65-22.25,1.88-26.81,1.88-7.09,0-14.18-.4-21.24-1.16h-.22c-3.87-.14-7.74-.36-11.61-.61,5.07,2.68,7.45,4.45,14.15,5.64-18.31,3.58-61.69-6.01-85.1-12.45,6.15,4.45,9.05,3.98,21.71,7.78-24.78-.29-73.92-17.55-84.19-21.27.43-.04.83-.07,1.27-.07-10.24-2.42-20.41-5.17-30.25-8.72,19.79.61,39.47,1.3,42.87,1.74,12.34,1.59,23.95,2.93,34.88,4.09,150.51,16.03,161.02-1.32,161.02-1.32-4.16-1.99-14.25-3.25-23.52-9.37,32.72,0,70.6-2.84,96.22-21.91-9.08,1.09-18.52-.83-26.45-5.39,29.99-6.58,104.33-1.95,122.16-52.17,12.94-36.45-9.13-83-9.13-83,4.67,5.68,9.05,11.58,13.06,17.8,19.57,30.28,29.67,68.85,18.2,102.9Z"/></g><path d="M456.59,44.69l-12.19,7.78c3.76-3,7.85-5.61,12.19-7.78Z" style="fill:none;"/><path d="M259.24,302.76c-1.23,5.04-10.08,9.29-14.05,8.32-4.99-1.22-9.87-8.81-8.64-13.86,1.23-5.04,5.08,1.24,11.35,2.77,6.27,1.53,12.58-2.28,11.35,2.77Z" style="fill:#3d155f;"/><path d="M233.61,149.69c-1.01-5.45,39.06-25.01,54.67-11.1.07.06.18.16.31.28,1.02.94,6.66,6.17,6.03,11.89-.47,4.35-4.41,7.67-7.8,9.09-6.03,2.53-12.11-.22-17.3-2.16-22.78-8.54-35.22-4.26-35.91-8.01Z" style="fill:#ffe;"/><ellipse cx="212.29" cy="153.84" rx="11.49" ry="4.09" transform="translate(-30.2 54.17) rotate(-13.58)" style="fill:#ffe;"/><path d="M393.72,973.29c-.91-4.91,35.18-22.52,49.23-10,.06.06.16.14.28.25.92.85,6,5.55,5.43,10.71-.43,3.91-3.97,6.91-7.02,8.19-5.43,2.28-10.91-.19-15.58-1.95-20.51-7.69-31.71-3.83-32.34-7.21Z" style="fill:#ffe;"/><ellipse cx="374.52" cy="977.03" rx="10.35" ry="3.68" transform="translate(-219 115.3) rotate(-13.58)" style="fill:#ffe;"/></g></g></svg>