<?xml version="1.0" encoding="UTF-8"?>
<svg id="Layer_1" data-name="Layer 1" xmlns="http://www.w3.org/2000/svg" viewBox="0 0 60 60">
  <path d="M50,0H10C4.48,0,0,4.48,0,10v40c0,5.52,4.47,10,10,10h40c5.52,0,10-4.47,10-10h0V10C60,4.48,55.52,0,50,0ZM10.93,49.44l-3.62-3.62c-.53-.53-.53-1.38,0-1.91l10.64-10.64c.53-.53.53-1.38,0-1.91l-10.62-10.62c-.53-.53-.53-1.38,0-1.91l3.62-3.62c.53-.53,1.38-.53,1.91,0l16.15,16.15c.53.53.53,1.38,0,1.91l-16.17,16.17c-.53.53-1.38.53-1.91,0ZM51.36,48.68c0,.43-.35.79-.79.79h-21.22c-.43,0-.79-.35-.79-.79v-5.83c0-.43.35-.79.79-.79h21.22c.43,0,.79.35.79.79v5.83Z" style="fill: #5553ff;"/>
</svg>