<?xml version="1.0" encoding="UTF-8"?>
<svg id="Layer_1" data-name="Layer 1" xmlns="http://www.w3.org/2000/svg" viewBox="0 0 10 10">
  <path d="M8.33,0H1.67C.75,0,0,.75,0,1.67v6.67c0,.92.74,1.67,1.67,1.67h6.67c.92,0,1.67-.75,1.67-1.67h0V1.67c0-.92-.75-1.67-1.67-1.67ZM1.82,8.24l-.6-.6c-.09-.09-.09-.23,0-.32l1.77-1.77c.09-.09.09-.23,0-.32l-1.77-1.77c-.09-.09-.09-.23,0-.32l.6-.6c.09-.09.23-.09.32,0l2.69,2.69c.09.09.09.23,0,.32l-2.7,2.7c-.09.09-.23.09-.32,0ZM8.56,8.11c0,.07-.06.13-.13.13h-3.54c-.07,0-.13-.06-.13-.13v-.97c0-.07.06-.13.13-.13h3.54c.07,0,.13.06.13.13v.97Z" style="fill: #5553ff;"/>
</svg>