<?xml version="1.0" encoding="UTF-8"?>
<svg id="Layer_1" data-name="Layer 1" xmlns="http://www.w3.org/2000/svg" viewBox="0 0 136.76 136.75">
  <path d="M113.96,0H22.79C10.2,0,0,10.2,0,22.79v91.17c0,12.59,10.2,22.79,22.79,22.8h91.17c12.59,0,22.8-10.2,22.8-22.79h0V22.79C136.76,10.2,126.55,0,113.96,0ZM24.92,112.69l-8.25-8.25c-1.2-1.2-1.2-3.15,0-4.36l24.25-24.25c1.2-1.2,1.2-3.15,0-4.36l-24.21-24.22c-1.2-1.2-1.2-3.15,0-4.36l8.25-8.25c1.2-1.2,3.15-1.2,4.36,0l36.82,36.82c1.2,1.2,1.2,3.15,0,4.36l-36.85,36.85c-1.2,1.2-3.15,1.2-4.36,0ZM117.07,110.95c0,.99-.8,1.79-1.79,1.79h-48.36c-.99,0-1.79-.8-1.79-1.79v-13.29c0-.99.8-1.79,1.79-1.79h48.36c.99,0,1.79.8,1.79,1.79v13.29Z" style="fill: #5553ff;"/>
</svg>