<?xml version="1.0" encoding="UTF-8"?>
<svg id="Layer_1" data-name="Layer 1" xmlns="http://www.w3.org/2000/svg" width="4.35in" height=".84in" viewBox="0 0 313.38 60.28">
  <defs>
    <style>
      .cls-1 {
        fill: #333;
      }

      .cls-2 {
        fill: #5553ff;
      }
    </style>
  </defs>
  <g id="Layer_2" data-name="Layer 2">
    <g id="Layer_1-2" data-name="Layer 1-2">
      <path class="cls-1" d="m96.92,40.51l3.23,3.92c-1.15,1.47-2.67,2.61-4.4,3.31-1.79.75-3.81,1.12-6.06,1.12-2.87,0-5.4-.59-7.58-1.78-2.13-1.13-3.88-2.86-5.06-4.96-1.19-2.13-1.79-4.54-1.79-7.22s.58-5.04,1.74-7.16c1.1-2.07,2.76-3.79,4.79-4.97,2.04-1.19,4.34-1.78,6.92-1.78,2.33-.03,4.63.54,6.67,1.66,2,1.1,3.65,2.74,4.77,4.74,1.17,2.05,1.76,4.46,1.76,7.21l-19.99,4.07c.56,1.49,1.61,2.75,2.98,3.57,1.37.81,3.01,1.22,4.94,1.22,2.84,0,5.2-.98,7.09-2.95Zm-13.67-12.13c-1.39,1.53-2.08,3.58-2.08,6.16v.05l14.77-2.95c-.38-1.59-1.28-3.01-2.57-4.03-1.29-1.02-2.84-1.53-4.67-1.53-2.25,0-4.07.77-5.45,2.3h0Z"/>
      <path class="cls-1" d="m126.93,45.05v3.83h5.42V11.02h-5.28v13.59c-.99-1.21-2.25-2.16-3.69-2.77-1.51-.63-3.13-.94-4.77-.92-2.52,0-4.79.58-6.8,1.74-2.01,1.16-3.66,2.86-4.74,4.92-1.15,2.12-1.72,4.56-1.71,7.32,0,2.76.58,5.22,1.71,7.36,1.08,2.06,2.72,3.78,4.74,4.94,2.01,1.15,4.28,1.73,6.8,1.73,1.7.02,3.38-.31,4.94-.97,1.49-.65,2.74-1.62,3.38-2.92Zm-7.58-1.59c-1.4.02-2.77-.34-3.98-1.05-1.19-.72-2.16-1.76-2.8-3-.68-1.3-1.03-2.8-1.03-4.51s.34-3.21,1.03-4.51c.64-1.24,1.61-2.28,2.8-3,2.47-1.4,5.49-1.4,7.96,0,1.2.72,2.17,1.76,2.8,3,.68,1.3,1.03,2.8,1.03,4.51s-.34,3.21-1.03,4.51c-.63,1.24-1.61,2.28-2.8,3-1.21.71-2.59,1.07-3.98,1.05Z"/>
      <path class="cls-1" d="m162.44,20.97v27.89h-5.42v-3.76c-.98,1.23-2.35,2.18-3.82,2.84-1.5.67-3.12,1.01-4.77,1-3.5,0-5.3-1.02-7.31-3.05-2.01-2.03-3.02-5.05-3.02-9.04v-15.88h5.34v15.01c0,2.46.37,4.29,1.43,5.51s2.58,1.82,4.55,1.82c2.19,0,3.94-.71,5.23-2.12,1.29-1.42,2.37-2.6,2.37-6.12v-14.09h5.42Z"/>
      <path class="cls-1" d="m174.28,47.09c-2.09-1.17-3.8-2.9-4.94-5-1.22-2.22-1.85-4.72-1.82-7.25,0-2.71.63-5.11,1.82-7.23,1.15-2.08,2.85-3.8,4.92-4.97,2.1-1.2,4.49-1.79,7.18-1.79,2.53,0,4.74.55,6.65,1.64,1.89,1.08,3.4,2.74,4.3,4.73l-4.61,2.87c-.65-1.18-1.6-2.16-2.76-2.85-1.1-.63-2.35-.96-3.63-.95-2.24,0-4.1.78-5.57,2.33-1.47,1.56-2.21,3.63-2.21,6.23,0,2.6.73,4.67,2.18,6.23,1.46,1.56,3.32,2.33,5.59,2.33,1.27.01,2.52-.32,3.63-.95,1.16-.69,2.11-1.67,2.76-2.85l4.61,2.87c-.94,1.99-2.45,3.64-4.35,4.74-1.9,1.11-4.1,1.67-6.6,1.67-2.65,0-5.03-.6-7.14-1.8Z"/>
      <path class="cls-1" d="m240.11,42.54c-.91.75-2.06,1.13-3.44,1.13-1.15,0-2.04-.35-2.68-1.05-.64-.7-1.21-2.01-1.23-3.05-.02-.96,0-13.16,0-13.16h6.76s.02-5.4.02-5.4h-6.77v-5.45h-5.42v5.45h-4.06v5.4h4.06v13.38c0,3,.79,5.29,2.36,6.86,1.57,1.57,3.33,2.29,6.22,2.29,1.11,0,2.21-.15,3.27-.46.96-.27,1.86-.74,2.63-1.38l-1.72-4.55Z"/>
      <path class="cls-1" d="m247.43,20.98h5.3v27.9h-5.3v-27.9Z"/>
      <path class="cls-1" d="m285.87,20.98l-11.25,27.9h-6.26l-10.95-27.9h6l8.16,20.89,8.4-20.89h5.9Z"/>
      <path class="cls-1" d="m308.36,40.54l3.25,3.94c-1.16,1.48-2.68,2.62-4.42,3.33-1.8.75-3.83,1.13-6.09,1.13-2.88,0-5.42-.6-7.62-1.79-2.14-1.14-3.9-2.88-5.08-4.99-1.2-2.13-2.09-4.55-2.09-7.25s.88-5.06,2.04-7.2c1.11-2.08,2.78-3.81,4.82-4.99,2.05-1.19,4.36-1.79,6.95-1.79,2.34-.03,4.65.54,6.71,1.66,2.01,1.11,3.67,2.76,4.79,4.76,1.18,2.07,1.77,4.48,1.77,7.25l-20.1,4.11c.56,1.5,1.62,2.77,3,3.59,1.38.82,3.03,1.23,4.96,1.23,2.84,0,5.22-1,7.12-2.98Zm-13.74-12.19c-1.39,1.54-2.09,3.6-2.09,6.2v.05l14.84-2.97c-.38-1.6-1.29-3.03-2.58-4.05-1.3-1.03-2.86-1.54-4.69-1.54-2.26,0-4.08.77-5.48,2.31Z"/>
      <rect class="cls-1" x="247.41" y="10.16" width="5.4" height="5.36"/>
      <path class="cls-1" d="m216.81,23c-2.04-1.38-4.11-2.18-7.7-2.18-5.65,0-9.38,1.51-11.14,4.48l5.26,2.47c.75-1.49,2.58-2.2,5.63-2.2,1.92,0,3.31.25,4.14.74.79.46,1.27,1.04,1.44,1.71.17.7-.02,1.81,0,3.3h-1.44c-11.27,0-16.98,3.24-16.98,9.62,0,2.36.95,4.31,2.82,5.8,1.84,1.47,4.21,2.21,7.03,2.21,3.48,0,6.46-.87,8.85-2.59v2.48l5.26.07v-17.72c0-4.02-1.07-6.78-3.17-8.2Zm-2.09,17.79c-.84,1.05-1.92,1.89-3.15,2.43-1.36.63-2.83.96-4.33.96-1.6,0-2.86-.32-3.77-.94-.86-.59-1.28-1.43-1.28-2.55,0-3.2,3.31-4.83,9.85-4.83h2.68v4.93Z"/>
    </g>
  </g>
  <path class="cls-2" d="m50.23,0H10.05C4.5,0,0,4.5,0,10.05v40.18c0,5.55,4.5,10.05,10.04,10.05h40.18c5.55,0,10.05-4.49,10.05-10.04h0V10.05C60.28,4.5,55.78,0,50.23,0ZM10.98,49.67l-3.63-3.63c-.53-.53-.53-1.39,0-1.92l10.69-10.69c.53-.53.53-1.39,0-1.92l-10.67-10.67c-.53-.53-.53-1.39,0-1.92l3.63-3.63c.53-.53,1.39-.53,1.92,0l16.23,16.23c.53.53.53,1.39,0,1.92l-16.24,16.24c-.53.53-1.39.53-1.92,0Zm40.61-.77c0,.44-.35.79-.79.79h-21.31c-.44,0-.79-.35-.79-.79v-5.86c0-.44.35-.79.79-.79h21.31c.44,0,.79.35.79.79v5.86Z"/>
</svg>