<svg id="Layer_1" data-name="Layer 1" xmlns="http://www.w3.org/2000/svg" xmlns:xlink="http://www.w3.org/1999/xlink" width="584.68" height="575.5" viewBox="0 0 584.68 575.5">
  <defs>
    <style>
      .cls-1 {
        fill: #fff;
      }

      .cls-2 {
        fill: url(#linear-gradient);
      }

      .cls-3 {
        fill: #3d568d;
      }
    </style>
    <linearGradient id="linear-gradient" x1="818.9" y1="604.25" x2="818.9" y2="35.33" gradientTransform="matrix(1, 0, 0, -1, -218.89, 881.87)" gradientUnits="userSpaceOnUse">
      <stop offset="0" stop-color="#4d69a1"/>
      <stop offset="1" stop-color="#3c5a98"/>
    </linearGradient>
  </defs>
  <g>
    <path class="cls-1" d="M337.33,274.71H862.66A26.37,26.37,0,0,1,889,301.08V817.25a26.37,26.37,0,0,1-26.37,26.37H337.33A26.37,26.37,0,0,1,311,817.24V301.08A26.39,26.39,0,0,1,337.33,274.71Z" transform="translate(-307.66 -271.41)"/>
    <g>
      <path class="cls-2" d="M889,817.28V301.08a26.38,26.38,0,0,0-26.38-26.38H337.33A26.38,26.38,0,0,0,311,301V817.28a26.37,26.37,0,0,0,26.37,26.33H629.07V615.21h-75.3V536.52h75.3V451.06c0-51.22,46.44-85.62,83.9-85.62h84.3V437H758.39c-19.17,0-44.71,15.56-44.71,34.69v64.8h76v78.69h-76V843.62h149A26.37,26.37,0,0,0,889,817.28Z" transform="translate(-307.66 -271.41)"/>
      <path class="cls-3" d="M862.66,846.91H710.38v-235h76v-72.1h-76v-68.1c0-20.45,26.39-38,48-38H794v-65H713c-33.67,0-80.6,31.32-80.6,82.33V539.8H557.06v72.1h75.31v235h-295a29.72,29.72,0,0,1-29.71-29.62V301a29.73,29.73,0,0,1,29.66-29.54H862.66a29.71,29.71,0,0,1,29.68,29.67v516.2A29.72,29.72,0,0,1,862.66,846.91ZM717,840.28H862.66a23.11,23.11,0,0,0,23.11-23V301.08A23.1,23.1,0,0,0,862.69,278H337.33a23.11,23.11,0,0,0-23.06,23V817.33a23.1,23.1,0,0,0,23.08,23H625.77V618.51h-75.3V533.22h75.3V451.06c0-50.89,46-88.92,87.2-88.92h87.6v78.19H758.39c-18.27,0-41.41,14.78-41.41,31.39v61.5h75.93v85.29H717Z" transform="translate(-307.66 -271.41)"/>
    </g>
  </g>
</svg>
