<?xml version="1.0" encoding="UTF-8"?><svg xmlns="http://www.w3.org/2000/svg" viewBox="0 0 1200 1182.2"><g style="isolation:isolate;"><g id="Layer_1"><path d="M1098.21,350.19c-11.92-28.21-25.99-55.21-42.11-80.91-.01-.01-.01-.03-.01-.04h-.01c-22.71-36.24-49.52-69.85-80.16-100.51-52.41-52.41-113.45-93.57-181.41-122.33C724.07,16.61,649.32,1.5,572.29,1.5s-151.78,15.11-222.21,44.9c-67.97,28.76-129,69.93-181.41,122.33-52.39,52.42-93.54,113.46-122.3,181.46C16.6,420.63,1.5,495.4,1.5,572.45s15.1,151.82,44.87,222.25c16.73,39.56,37.67,76.79,62.57,111.31,17.88,24.82,37.82,48.24,59.73,70.15,52.41,52.42,113.45,93.58,181.41,122.33,70.42,29.79,145.17,44.9,222.21,44.9s151.78-15.1,222.21-44.9c9.08-3.84,18.04-7.91,26.87-12.2,57.25-27.75,109.14-64.72,154.54-110.14l-93.32-93.34c-41.23,41.23-89.2,73.25-141.44,95.02-52.79,22.01-109.95,33.54-168.86,33.54-117.22,0-227.42-45.65-310.3-128.56-82.88-82.9-128.52-193.13-128.52-310.37s45.64-227.48,128.52-310.38c82.89-82.9,193.08-128.56,310.3-128.56s227.4,45.66,310.3,128.56c60.42,60.43,101.04,135.38,118.62,216.98,6.55,30.35,9.9,61.61,9.9,93.4h131.97c0-77.05-15.1-151.82-44.87-222.26Z" style="fill:#ff92ba; stroke:#223656; stroke-miterlimit:10; stroke-width:3px;"/><g style="mix-blend-mode:soft-light; opacity:.3;"><path d="M821.36,1086.3c-8.83,4.29-17.79,8.36-26.87,12.2-70.42,29.79-145.17,44.9-222.21,44.9s-151.78-15.1-222.21-44.9c-67.97-28.75-129-69.91-181.41-122.33-21.91-21.91-41.85-45.33-59.73-70.15,337.55,284.78,463.35,105.37,463.35,105.37,58.91,0,116.07-11.54,168.86-33.54l80.21,108.46Z"/></g><g style="mix-blend-mode:soft-light; opacity:.3;"><path d="M1143.08,572.45h-131.97c0-31.79-3.35-63.05-9.9-93.4,147.18,29.33,56.47-205.67,54.89-209.78,16.13,25.7,30.2,52.7,42.11,80.91,29.77,70.44,44.87,145.21,44.87,222.26Z"/></g><path d="M787.78,1180.7c-103.15,0-187.06-83.94-187.06-187.11s83.92-187.11,187.06-187.11,187.06,83.94,187.06,187.11-83.92,187.11-187.06,187.11Z" style="fill:#91dece;"/><path d="M787.78,807.98c102.48,0,185.56,83.1,185.56,185.61s-83.08,185.61-185.56,185.61-185.56-83.1-185.56-185.61,83.08-185.61,185.56-185.61M787.78,804.98c-25.45,0-50.15,4.99-73.4,14.82-22.45,9.5-42.62,23.1-59.94,40.42-17.32,17.32-30.91,37.49-40.41,59.95-9.83,23.25-14.82,47.96-14.82,73.42s4.99,50.16,14.82,73.42c9.5,22.46,23.09,42.63,40.41,59.95,17.32,17.32,37.48,30.92,59.94,40.42,23.25,9.84,47.94,14.82,73.4,14.82s50.15-4.99,73.4-14.82c22.45-9.5,42.62-23.1,59.94-40.42,17.32-17.32,30.91-37.49,40.41-59.95,9.83-23.25,14.82-47.96,14.82-73.42s-4.99-50.16-14.82-73.42c-9.5-22.46-23.09-42.63-40.41-59.95-17.32-17.32-37.48-30.92-59.94-40.42-23.25-9.84-47.94-14.82-73.4-14.82h0Z" style="fill:#223656;"/><path d="M819.34,830.13c-11.28-12.71-40.4-4.32-40.74.61-.16,2.27,5.27,2.22,16.22,10.09,8.69,6.25,10.46,10.02,15.9,10.35,4.57.27,10.21-1.98,12.28-6.46,2.41-5.21-.91-11.49-3.67-14.6Z" style="fill:#fff;"/><ellipse cx="765.46" cy="836.66" rx="8.73" ry="5.43" transform="translate(-284.23 407.61) rotate(-25.31)" style="fill:#fff;"/><g style="mix-blend-mode:soft-light; opacity:.3;"><path d="M973.34,993.59c0,102.5-83.08,185.61-185.57,185.61-61.97,0-116.84-30.39-150.53-77.07,30.52,22.04,67.98,35.02,108.49,35.02,102.49,0,185.57-83.1,185.57-185.61,0-40.53-12.98-78.01-35.01-108.53,46.69,33.72,77.05,88.6,77.05,150.59Z"/></g><path d="M1062.07,713.99c-11.38,0-21.74-6.24-27.03-16.29l-54.58-103.74c-.05-.08-.1-.16-.14-.25l-1.14-2.15-.26-.28v-.23l-14.09-26.77c-5.02-9.54-4.7-20.73.86-29.92,5.59-9.26,15.29-14.79,25.94-14.79,1.54,0,3.11.12,4.66.35l176.19,26.2c11.59,1.72,20.72,9.39,24.43,20.5,3.66,10.96.89,22.88-7.23,31.1l-105.98,107.22c-5.77,5.84-13.46,9.06-21.63,9.06Z" style="fill:#ff92ba;"/><path d="M991.63,521.06c1.45,0,2.93.11,4.44.33l176.19,26.2c23.48,3.48,33.03,32.18,16.35,49.07l-105.98,107.22c-5.76,5.83-13.2,8.61-20.56,8.61-10.26,0-20.39-5.4-25.71-15.49l-54.64-103.84s-.04-.05-.05-.09l-1.2-2.27c-.03-.07-.04-.09-.05-.11h0s-14.27-27.11-14.27-27.11c-10.34-19.65,4.31-42.52,25.48-42.52M991.63,518.06v3-3h0c-11.18,0-21.36,5.8-27.23,15.52-5.83,9.65-6.17,21.39-.9,31.39l13.92,26.45v.48l.54.56,1,1.9c.06.12.12.24.19.35l54.56,103.68c5.55,10.54,16.42,17.09,28.36,17.09,8.58,0,16.64-3.38,22.7-9.5l105.98-107.22c8.52-8.62,11.43-21.13,7.59-32.63-3.83-11.49-13.66-19.74-25.64-21.51l-176.18-26.2c-1.63-.24-3.27-.36-4.88-.36h0Z" style="fill:#223656;"/><rect x="756.11" y="763.8" width="44.99" height="459.57" rx="17.04" ry="17.04" transform="translate(-466.1 783.46) rotate(-42.33)" style="fill:#ffe; stroke:#223656; stroke-miterlimit:10; stroke-width:3px;"/><g style="mix-blend-mode:soft-light; opacity:.3;"><path d="M1188.61,596.66l-105.98,107.22c-13.78,13.94-37.14,10.47-46.27-6.88l-54.64-103.84c4.92,8.48,25.06,35.95,80.97,40.38,66.25,5.24,109.57-85.95,109.57-85.95,23.48,3.48,33.03,32.18,16.35,49.07Z"/></g><path d="M983.63,539.67c10.29-10.11,34.45-1.31,34.45,2.89,0,1.93-4.59,1.57-14.32,7.6-7.72,4.78-9.43,7.88-14.06,7.84-3.89-.03-8.53-2.27-10.02-6.18-1.73-4.55,1.44-9.68,3.95-12.14Z" style="fill:#fff;"/><ellipse cx="1029.27" cy="546.79" rx="4.61" ry="7.41" transform="translate(49.4 1177.84) rotate(-60.76)" style="fill:#fff;"/><path d="M533.06,32.85c10.29-10.11,34.45-1.31,34.45,2.89,0,1.93-4.59,1.57-14.32,7.6-7.72,4.78-9.43,7.88-14.06,7.84-3.89-.03-8.53-2.27-10.02-6.18-1.73-4.55,1.44-9.68,3.95-12.14Z" style="fill:#fff;"/><ellipse cx="578.7" cy="39.97" rx="4.61" ry="7.41" transform="translate(261.16 525.42) rotate(-60.76)" style="fill:#fff;"/></g></g></svg>