<?xml version="1.0" encoding="UTF-8"?><svg xmlns="http://www.w3.org/2000/svg" viewBox="0 0 1200 1202.85"><g style="isolation:isolate;"><g id="Layer_1"><path d="M600,1201.35c-80.8,0-159.18-15.86-232.96-47.15-71.27-30.22-135.28-73.47-190.24-128.57-54.96-55.09-98.12-119.25-128.26-190.69C17.32,760.98,1.5,682.41,1.5,601.42s15.82-159.55,47.03-233.52c30.14-71.44,73.3-135.6,128.26-190.69,54.96-55.1,118.97-98.35,190.24-128.57C440.82,17.36,519.2,1.5,600,1.5s159.18,15.86,232.96,47.15c71.27,30.22,135.28,73.47,190.24,128.57,54.96,55.1,98.12,119.25,128.26,190.69,31.21,73.96,47.03,152.53,47.03,233.52s-15.82,159.55-47.03,233.52c-30.14,71.44-73.3,135.6-128.26,190.69-54.96,55.1-118.97,98.35-190.24,128.57-73.79,31.28-152.17,47.15-232.96,47.15Z" style="fill:#feb13d;"/><path d="M600,3c329.71,0,597,267.92,597,598.42s-267.29,598.42-597,598.42S3,931.92,3,601.42,270.29,3,600,3M600,0c-81,0-159.58,15.9-233.55,47.27-35.55,15.07-69.84,33.73-101.92,55.45-31.77,21.51-61.65,46.22-88.8,73.44-27.15,27.21-51.8,57.16-73.26,89.01-21.67,32.15-40.28,66.52-55.32,102.16C15.86,441.47,0,520.23,0,601.42s15.86,159.95,47.15,234.1c15.04,35.64,33.65,70.01,55.32,102.16,21.46,31.85,46.11,61.79,73.26,89.01,27.15,27.22,57.03,51.92,88.8,73.44,32.08,21.72,66.37,40.38,101.92,55.45,73.97,31.36,152.55,47.27,233.55,47.27s159.58-15.9,233.55-47.27c35.55-15.07,69.84-33.73,101.92-55.45,31.77-21.51,61.65-46.22,88.8-73.44,27.15-27.21,51.8-57.16,73.26-89.01,21.67-32.15,40.28-66.52,55.32-102.16,31.29-74.15,47.15-152.91,47.15-234.1s-15.86-159.95-47.15-234.1c-15.04-35.64-33.65-70.01-55.32-102.16-21.46-31.85-46.11-61.79-73.26-89.01-27.15-27.22-57.03-51.92-88.8-73.44-32.08-21.72-66.37-40.38-101.92-55.45C759.58,15.9,681,0,600,0h0Z" style="fill:#192e58;"/><g style="mix-blend-mode:soft-light; opacity:.3;"><path d="M1197,601.47c0,330.46-267.31,598.4-596.98,598.4S3.05,931.93,3.05,601.47c0-14.7.53-29.18,1.59-43.56,20.93,282.21,255.94,504.58,542.79,504.58s544.39-244.3,544.39-545.68c0-200.53-107.94-375.82-268.79-470.61,219.28,88.5,373.97,303.73,373.97,555.27Z"/></g><path d="M538.16,58.9c82.66-48.33,223.73,47.91,216.91,74.95-3.15,12.46-32.11,2.62-104.51,25.57-57.46,18.21-73.53,35.35-103.23,27.54-24.95-6.57-51.18-28.56-54.39-56.24-3.73-32.19,25.06-60.03,45.22-71.82Z" style="fill:#ffe;"/><ellipse cx="832.48" cy="156.79" rx="30.67" ry="49.17" transform="translate(475.04 924.8) rotate(-75.71)" style="fill:#ffe;"/><path d="M576.89,936.93c-17.21,0-30.63-4.7-39.88-13.96-9.26-9.25-13.96-22.66-13.96-39.87v-14.83c0-17.2,4.7-30.61,13.96-39.88s22.68-13.96,39.88-13.96h11.34c17.18,0,30.6,4.7,39.87,13.96,9.26,9.28,13.96,22.69,13.96,39.88v14.83c0,17.2-4.7,30.61-13.96,39.88-9.26,9.26-22.68,13.96-39.88,13.96h-11.34ZM581.26,780.8c-15.48,0-28.46-5.29-38.58-15.72-10.12-10.4-15.25-23.52-15.25-38.99v-66.29c0-15.46,5.13-28.57,15.25-38.99,10.14-10.43,23.12-15.72,38.58-15.72,37.86,0,68.66-8.99,91.54-26.73,22.76-17.64,34.31-45.42,34.31-82.55,0-28.5-10.4-52.48-30.91-71.29-20.55-18.84-46.62-28.39-77.49-28.39s-59.58,10.73-83.62,31.9c-14.15,12.97-29.16,19.56-44.6,19.56-11.35,0-21.64-3.63-30.59-10.8-15.41-11.84-23.24-26.04-23.24-42.17,0-13.72,5.72-26.41,17.01-37.69,20.97-21.55,45.94-38.54,74.18-50.48,28.27-11.94,58.84-18,90.86-18,39.59,0,76.22,9.16,108.88,27.23,32.65,18.08,58.95,43.35,78.19,75.11,19.24,31.79,29,67.12,29,105.01,0,55.96-16.29,100.92-48.4,133.63-32.03,32.61-75.1,53.29-128.01,61.46-1.53.63-3.26,1.63-3.26,2.91v32.27c0,15.46-5.13,28.58-15.25,38.99-10.14,10.43-23.12,15.72-38.58,15.72Z" style="fill:#ffe;"/><path d="M598.7,289.97c39.54,0,75.58,9.02,108.16,27.04,32.56,18.03,58.44,42.89,77.63,74.58,19.19,31.7,28.78,66.44,28.78,104.23,0,55.82-16,100.02-47.97,132.58-31.99,32.57-74.44,52.92-127.35,61.06-2.92,1.17-4.36,2.62-4.36,4.36v32.27c0,15.13-4.95,27.78-14.83,37.94-9.9,10.18-22.39,15.26-37.51,15.26s-27.63-5.08-37.51-15.26c-9.89-10.17-14.83-22.82-14.83-37.94v-66.29c0-15.11,4.93-27.76,14.83-37.94,9.88-10.17,22.38-15.26,37.51-15.26,38.38,0,69.19-9.01,92.46-27.04,23.25-18.02,34.89-45.93,34.89-83.73,0-29.07-10.47-53.21-31.4-72.4-20.93-19.19-47.1-28.78-78.5-28.78s-60.18,10.77-84.61,32.27c-13.96,12.8-28.5,19.19-43.61,19.19-11.05,0-20.93-3.49-29.66-10.47-15.13-11.62-22.68-25.29-22.68-40.99,0-13.37,5.52-25.58,16.57-36.63,20.93-21.51,45.49-38.23,73.7-50.15,28.2-11.91,58.29-17.88,90.28-17.88M588.23,815.93c16.86,0,29.79,4.51,38.81,13.52,9.01,9.02,13.52,21.96,13.52,38.81v14.83c0,16.87-4.51,29.81-13.52,38.81-9.02,9.02-21.95,13.52-38.81,13.52h-11.34c-16.87,0-29.81-4.5-38.82-13.52-9.02-9.01-13.52-21.94-13.52-38.81v-14.83c0-16.86,4.5-29.79,13.52-38.81,9.01-9.01,21.94-13.52,38.82-13.52h11.34M598.7,286.97c-32.22,0-62.98,6.1-91.44,18.12-28.43,12.02-53.56,29.12-74.69,50.82-11.55,11.55-17.42,24.59-17.42,38.73,0,16.61,8.02,31.2,23.83,43.36,9.22,7.37,19.82,11.11,31.51,11.11,15.82,0,31.17-6.71,45.62-19.96,23.75-20.91,51.54-31.51,82.6-31.51s56.21,9.42,76.47,28c10.11,9.26,17.78,19.85,22.83,31.47,5.04,11.63,7.6,24.65,7.6,38.71,0,18.41-2.86,34.61-8.5,48.13-5.59,13.4-14.07,24.58-25.23,33.23-22.61,17.53-53.1,26.41-90.62,26.41-15.89,0-29.23,5.44-39.66,16.17-10.4,10.7-15.68,24.17-15.68,40.03v66.29c0,15.88,5.27,29.35,15.68,40.04,10.41,10.73,23.76,16.17,39.66,16.17s29.23-5.44,39.66-16.17c10.4-10.7,15.68-24.17,15.68-40.03v-32.27s.27-.63,2.18-1.45c26.48-4.1,50.71-11.36,72-21.57,21.44-10.28,40.51-23.84,56.67-40.3,16.22-16.51,28.55-36.25,36.66-58.65,8.08-22.33,12.18-47.91,12.18-76.04,0-38.17-9.83-73.76-29.22-105.79-19.37-31.99-45.86-57.44-78.74-75.65-32.89-18.19-69.77-27.42-109.61-27.42h0ZM588.23,812.93h-11.34c-17.61,0-31.38,4.84-40.94,14.4-9.55,9.55-14.4,23.33-14.4,40.94v14.83c0,17.62,4.84,31.4,14.4,40.94,9.54,9.55,23.31,14.4,40.94,14.4h11.34c17.61,0,31.38-4.84,40.94-14.4,9.55-9.55,14.4-23.33,14.4-40.94v-14.83c0-17.6-4.84-31.37-14.4-40.93-9.57-9.56-23.34-14.4-40.94-14.4h0Z" style="fill:#192e58;"/></g></g></svg>