<?xml version="1.0" encoding="UTF-8"?>
<svg xmlns="http://www.w3.org/2000/svg" viewBox="0 0 483.68 754.64">
  <g style="isolation: isolate;">
    <g id="Layer_1" data-name="Layer 1">
      <g>
        <g>
          <g>
            <path d="M48,700.37h52.78v32.84c0,11-8.93,19.93-19.93,19.93h-12.91c-11,0-19.93-8.93-19.93-19.93v-32.84h0Z" style="fill: #fa7532;"/>
            <path d="M80.84,754.64h-12.91c-11.82,0-21.43-9.62-21.43-21.43v-34.34h55.78v34.34c0,11.82-9.62,21.43-21.43,21.43ZM49.5,701.87v31.34c0,10.16,8.27,18.43,18.43,18.43h12.91c10.16,0,18.43-8.27,18.43-18.43v-31.34h-49.78Z" style="fill: #223656;"/>
          </g>
          <g>
            <path d="M382.91,700.37h52.78v32.84c0,11-8.93,19.93-19.93,19.93h-12.91c-11,0-19.93-8.93-19.93-19.93v-32.84h0Z" style="fill: #fa7532;"/>
            <path d="M415.75,754.64h-12.91c-11.82,0-21.43-9.62-21.43-21.43v-34.34h55.78v34.34c0,11.82-9.62,21.43-21.43,21.43ZM384.41,701.87v31.34c0,10.16,8.27,18.43,18.43,18.43h12.91c10.16,0,18.43-8.27,18.43-18.43v-31.34h-49.78Z" style="fill: #223656;"/>
          </g>
        </g>
        <g>
          <path d="M452.45,710.42c-140.41,11.81-280.81,11.81-421.22,0-12.95-1.09-23.13-12.06-23.61-25.58-8.16-225.94-8.16-422.95,0-648.9.49-13.52,10.66-24.5,23.61-25.58,140.41-11.81,280.81-11.81,421.22,0,12.95,1.09,23.13,12.06,23.61,25.58,8.16,225.94,8.16,422.95,0,648.9-.49,13.52-10.66,24.5-23.61,25.58Z" style="fill: #8d98ff;"/>
          <path d="M241.84,720.74c-70.41,0-140.82-2.94-210.73-8.82-13.73-1.15-24.47-12.77-24.99-27.02C-2.09,457.44-2.09,263.34,6.12,35.89c.51-14.25,11.26-25.87,24.99-27.03,139.83-11.76,281.64-11.76,421.47,0,13.73,1.16,24.47,12.77,24.99,27.03,8.21,227.45,8.21,421.55,0,649-.51,14.25-11.26,25.87-24.99,27.02-69.92,5.88-140.33,8.82-210.74,8.82ZM241.84,3.04c-70.33,0-140.65,2.94-210.48,8.81-12.22,1.03-21.78,11.41-22.24,24.14C.91,263.38.91,457.41,9.12,684.79c.46,12.74,10.02,23.12,22.24,24.14,139.67,11.75,281.3,11.75,420.97,0l.13,1.49-.13-1.49c12.22-1.03,21.78-11.41,22.24-24.14,8.21-227.38,8.21-421.41,0-648.79-.46-12.74-10.02-23.12-22.24-24.14C382.49,5.98,312.17,3.04,241.84,3.04Z" style="fill: #223656;"/>
        </g>
        <rect x="38.28" y="98.06" width="392.91" height="556.84" style="fill: #223656;"/>
        <g>
          <g id="Layer_1-2" data-name="Layer 1">
            <circle cx="353.46" cy="644.01" r="8.55" style="fill: #fde167;"/>
            <circle cx="384.93" cy="644.01" r="8.55" style="fill: #f26066;"/>
            <path d="M424.93,644.01c0,4.72-3.83,8.55-8.55,8.55s-8.55-3.83-8.55-8.55,3.83-8.55,8.55-8.55,8.55,3.83,8.55,8.55h0Z" style="fill: #a3d92f;"/>
            <circle cx="353.46" cy="612.75" r="8.55" style="fill: #fde167;"/>
            <circle cx="384.93" cy="612.75" r="8.55" style="fill: #a3d92f;"/>
            <circle cx="416.39" cy="612.75" r="8.55" style="fill: #f26066;"/>
            <g>
              <path d="M316.23,569.32v120.82h0c-52.02.54-104.88.61-153.8.04h0c-48.37-.56-92.88-1.76-128.9-3.77-2.68,0-5.03-1.4-6.36-3.5,0,0-.03-.05-.04-.07-.73-1.15-1.14-2.51-1.14-3.96-4.28-34.7-4.58-68.41,0-100.9,0-4.17,3.38-7.54,7.54-7.54,96.91-1.76,242.15-1.76,282.71-1.12Z" style="fill: #c7eeff;"/>
              <path d="M234.12,692.08c-24.96,0-48.91-.13-71.7-.4-51.38-.6-94.77-1.87-128.97-3.77h0c-3.02,0-5.87-1.57-7.54-4.2l-.06-.1c-.87-1.39-1.34-2.99-1.35-4.64-4.41-35.75-4.41-69.77,0-101.11.06-4.94,4.09-8.93,9.04-8.93,96.69-1.75,241.23-1.77,282.73-1.12l1.48.02v123.79h-1.5c-28.35.29-55.79.44-82.12.44ZM28.44,682.12c1.13,1.76,3.02,2.79,5.08,2.79,34.24,1.9,77.59,3.17,128.92,3.77,46.4.54,97.63.53,152.29-.03v-117.85c-43.34-.63-185.61-.59-281.18,1.14-3.36,0-6.07,2.71-6.07,6.04v.21c-4.4,31.13-4.4,64.95-.01,100.51v.18c.01,1.13.32,2.22.92,3.16l.05.09Z" style="fill: #223656;"/>
            </g>
            <g>
              <path d="M453.39,673.59c-.51,4.62-3.53,8.59-7.85,10.31-20.51,8.17-78.95,6.09-129.3,6.24h0v-120.45h0c37.23-.64,101.21-.55,129.09,1.41,4.41.35,6.45,4.31,6.66,6.2,1.23,11.59,5.62,58.31,1.41,96.29Z" style="fill: #777df5;"/>
              <path d="M366.09,691.77c-7.32,0-14.82-.04-22.4-.07-9.08-.04-18.47-.09-27.45-.06h-1.5s0-1.5,0-1.5v-121.95h1.5c36.44-.62,100.63-.6,129.2,1.41,4.99.39,7.74,4.73,8.04,7.54,1.39,13.12,5.6,58.86,1.41,96.62-.58,5.19-3.94,9.61-8.79,11.54-14.16,5.64-44.96,6.48-80,6.48ZM321.7,688.63c7.29,0,14.74.04,22,.07,41.64.2,84.7.41,101.28-6.19,3.81-1.52,6.46-5,6.91-9.08h0c4.16-37.45-.02-82.92-1.41-95.97-.13-1.2-1.62-4.58-5.28-4.87-27.77-1.95-91.81-2.01-127.48-1.43v117.47c1.32,0,2.64,0,3.98,0Z" style="fill: #223656;"/>
            </g>
            <g>
              <circle cx="353.3" cy="643.85" r="8.54" style="fill: #fafb33;"/>
              <path d="M353.3,653.89c-5.54,0-10.04-4.5-10.04-10.04s4.5-10.04,10.04-10.04,10.04,4.5,10.04,10.04-4.5,10.04-10.04,10.04ZM353.3,636.81c-3.88,0-7.04,3.16-7.04,7.04s3.16,7.04,7.04,7.04,7.04-3.16,7.04-7.04-3.16-7.04-7.04-7.04Z" style="fill: #223656;"/>
            </g>
            <g>
              <circle cx="384.74" cy="643.85" r="8.54" style="fill: #fc6760;"/>
              <path d="M384.74,653.89c-5.54,0-10.04-4.5-10.04-10.04s4.5-10.04,10.04-10.04,10.04,4.5,10.04,10.04-4.5,10.04-10.04,10.04ZM384.74,636.81c-3.88,0-7.04,3.16-7.04,7.04s3.16,7.04,7.04,7.04,7.04-3.16,7.04-7.04-3.16-7.04-7.04-7.04Z" style="fill: #223656;"/>
            </g>
            <g>
              <circle cx="416.19" cy="643.85" r="8.54" style="fill: #83d689;"/>
              <path d="M416.18,653.89c-5.54,0-10.04-4.5-10.04-10.04s4.5-10.04,10.04-10.04,10.04,4.5,10.04,10.04-4.5,10.04-10.04,10.04ZM416.18,636.81c-3.88,0-7.04,3.16-7.04,7.04s3.16,7.04,7.04,7.04,7.04-3.16,7.04-7.04-3.16-7.04-7.04-7.04Z" style="fill: #223656;"/>
            </g>
            <g>
              <path d="M361.84,612.62c0,4.71-3.82,8.54-8.54,8.54-3.35,0-6.25-1.92-7.65-4.73-.57-1.15-.9-2.44-.9-3.8,0-4.71,3.82-8.54,8.55-8.54,2.58,0,4.89,1.15,6.45,2.96h.01c1.29,1.51,2.07,3.45,2.07,5.58h0Z" style="fill: #fafb33;"/>
              <path d="M353.3,622.66c-3.84,0-7.29-2.13-8.99-5.56-.7-1.4-1.05-2.9-1.05-4.47,0-5.54,4.51-10.04,10.05-10.04,2.89,0,5.63,1.25,7.54,3.42l.06.07c1.24,1.43,2.04,3.19,2.32,5.05h.11v1.5c0,5.54-4.5,10.04-10.04,10.04ZM353.3,605.58c-3.89,0-7.05,3.16-7.05,7.04,0,1.1.25,2.15.74,3.13,1.2,2.41,3.61,3.9,6.31,3.9,3.79,0,6.88-3,7.04-6.75v-.29c0-1.67-.59-3.28-1.67-4.54l-.05-.06c-1.34-1.55-3.28-2.44-5.32-2.44Z" style="fill: #223656;"/>
            </g>
            <g>
              <circle cx="384.74" cy="612.62" r="8.54" style="fill: #83d689;"/>
              <path d="M384.74,622.66c-5.54,0-10.04-4.5-10.04-10.04s4.5-10.04,10.04-10.04,10.04,4.5,10.04,10.04-4.5,10.04-10.04,10.04ZM384.74,605.57c-3.88,0-7.04,3.16-7.04,7.04s3.16,7.04,7.04,7.04,7.04-3.16,7.04-7.04-3.16-7.04-7.04-7.04Z" style="fill: #223656;"/>
            </g>
            <g>
              <circle cx="416.19" cy="612.62" r="8.54" style="fill: #fc6760;"/>
              <path d="M416.18,622.66c-5.54,0-10.04-4.5-10.04-10.04s4.5-10.04,10.04-10.04,10.04,4.5,10.04,10.04-4.5,10.04-10.04,10.04ZM416.18,605.57c-3.88,0-7.04,3.16-7.04,7.04s3.16,7.04,7.04,7.04,7.04-3.16,7.04-7.04-3.16-7.04-7.04-7.04Z" style="fill: #223656;"/>
            </g>
            <g>
              <g>
                <path d="M59.59,601.05c17.12-.67,34.24-.67,51.36,0,1.53.06,3.29,1.37,3.72,2.9,1.23,4.47,1.23,8.93,0,13.4-.43,1.54-2.19,2.84-3.72,2.9-17.12.67-34.24.67-51.36,0-1.53-.06-3.29-1.37-3.72-2.9-1.23-4.47-1.23-8.93,0-13.4.43-1.54,2.19-2.84,3.72-2.9Z" style="fill: #777df5;"/>
                <path d="M85.27,622.26c-8.6,0-17.2-.17-25.74-.5-2.22-.09-4.51-1.89-5.1-4-1.3-4.72-1.3-9.49,0-14.2.59-2.12,2.88-3.91,5.1-4h0c17.08-.67,34.4-.67,51.48,0,2.22.09,4.51,1.89,5.1,4,1.3,4.72,1.3,9.49,0,14.2-.59,2.12-2.88,3.91-5.1,4-8.54.33-17.15.5-25.75.5ZM59.65,602.55c-.93.04-2.09.94-2.33,1.81-1.15,4.18-1.15,8.42,0,12.6.24.87,1.4,1.77,2.33,1.8,17,.66,34.24.66,51.24,0,.91-.04,2.09-.95,2.33-1.81,1.15-4.18,1.15-8.42,0-12.6-.24-.87-1.4-1.77-2.33-1.8-17-.66-34.24-.66-51.24,0Z" style="fill: #223656;"/>
              </g>
              <g>
                <path d="M59.59,640.24c17.12-.67,34.24-.67,51.36,0,1.53.06,3.29,1.37,3.72,2.9,1.23,4.47,1.23,8.93,0,13.4-.43,1.54-2.19,2.84-3.72,2.9-17.12.67-34.24.67-51.36,0-1.53-.06-3.29-1.37-3.72-2.9-1.23-4.47-1.23-8.93,0-13.4.43-1.54,2.19-2.84,3.72-2.9Z" style="fill: #777df5;"/>
                <path d="M85.27,661.45c-8.6,0-17.2-.17-25.74-.5-2.22-.09-4.51-1.89-5.1-4-1.3-4.72-1.3-9.49,0-14.2.59-2.12,2.88-3.91,5.1-4h0c17.08-.67,34.4-.67,51.48,0,2.22.09,4.51,1.89,5.1,4,1.3,4.72,1.3,9.49,0,14.2-.59,2.12-2.88,3.91-5.1,4-8.54.33-17.15.5-25.75.5ZM59.65,641.74c-.92.04-2.09.95-2.33,1.81-1.15,4.18-1.15,8.42,0,12.6.24.87,1.4,1.77,2.33,1.8,17,.66,34.24.66,51.24,0,.91-.04,2.09-.95,2.33-1.81,1.15-4.18,1.15-8.42,0-12.6-.24-.87-1.4-1.77-2.33-1.8-17-.66-34.24-.66-51.24,0Z" style="fill: #223656;"/>
              </g>
              <g>
                <path d="M136.74,601.05c17.12-.67,34.24-.67,51.37,0,1.53.06,3.28,1.37,3.72,2.9,1.23,4.47,1.23,8.93,0,13.4-.43,1.54-2.19,2.84-3.72,2.9-17.12.67-34.24.67-51.37,0-1.53-.06-3.29-1.37-3.72-2.9-1.23-4.47-1.23-8.93,0-13.4.43-1.54,2.19-2.84,3.72-2.9Z" style="fill: #777df5;"/>
                <path d="M162.42,622.26c-8.6,0-17.2-.17-25.74-.5-2.22-.09-4.51-1.89-5.1-4-1.3-4.72-1.3-9.49,0-14.2.6-2.12,2.88-3.91,5.1-4h0c17.08-.67,34.4-.67,51.48,0,2.22.09,4.51,1.88,5.1,4,1.3,4.72,1.3,9.49,0,14.21-.6,2.12-2.88,3.91-5.1,4-8.54.33-17.14.5-25.75.5ZM136.8,602.55c-.93.04-2.09.94-2.33,1.81-1.15,4.17-1.15,8.41,0,12.6.24.87,1.4,1.77,2.33,1.8,17,.66,34.24.66,51.24,0,.91-.04,2.09-.95,2.33-1.81,1.15-4.17,1.15-8.41,0-12.6-.24-.87-1.4-1.77-2.33-1.8-17-.66-34.24-.66-51.24,0Z" style="fill: #223656;"/>
              </g>
              <g>
                <path d="M136.74,640.24c17.12-.67,34.24-.67,51.37,0,1.53.06,3.29,1.37,3.72,2.9,1.23,4.47,1.23,8.93,0,13.4-.43,1.54-2.19,2.84-3.72,2.9-17.12.67-34.24.67-51.37,0-1.53-.06-3.29-1.37-3.72-2.9-1.23-4.47-1.23-8.93,0-13.4.43-1.54,2.19-2.84,3.72-2.9Z" style="fill: #777df5;"/>
                <path d="M162.42,661.45c-8.6,0-17.2-.17-25.74-.5-2.22-.09-4.51-1.89-5.1-4-1.3-4.72-1.3-9.49,0-14.2.6-2.12,2.88-3.91,5.1-4h0c17.08-.67,34.4-.67,51.48,0,2.22.09,4.51,1.89,5.1,4,1.3,4.72,1.3,9.49,0,14.2-.6,2.12-2.88,3.91-5.1,4-8.54.33-17.14.5-25.75.5ZM136.8,641.74c-.93.04-2.09.94-2.33,1.81-1.15,4.17-1.15,8.41,0,12.6.24.87,1.4,1.77,2.33,1.8,17,.66,34.24.66,51.24,0,.91-.04,2.09-.95,2.33-1.81,1.15-4.17,1.15-8.41,0-12.6-.24-.85-1.42-1.77-2.33-1.8-17-.66-34.24-.66-51.24,0Z" style="fill: #223656;"/>
              </g>
              <g>
                <path d="M213.89,601.05c17.12-.67,34.24-.67,51.37,0,1.53.06,3.29,1.37,3.72,2.9,1.23,4.47,1.23,8.93,0,13.4-.43,1.54-2.19,2.84-3.72,2.9-17.12.67-34.24.67-51.37,0-1.53-.06-3.29-1.37-3.72-2.9-1.23-4.47-1.23-8.93,0-13.4.43-1.54,2.19-2.84,3.72-2.9Z" style="fill: #777df5;"/>
                <path d="M239.57,622.26c-8.6,0-17.2-.17-25.74-.5-2.23-.09-4.51-1.89-5.1-4-1.3-4.71-1.3-9.49,0-14.2.59-2.12,2.88-3.91,5.1-4h0c17.08-.67,34.4-.67,51.48,0,2.22.09,4.51,1.88,5.1,4,1.3,4.72,1.3,9.49,0,14.21-.6,2.12-2.88,3.91-5.1,4-8.54.33-17.14.5-25.75.5ZM213.95,602.55c-.93.04-2.09.94-2.33,1.81-1.15,4.18-1.15,8.42,0,12.6.24.85,1.42,1.77,2.33,1.8,17,.66,34.24.66,51.24,0,.93-.04,2.09-.94,2.33-1.81,1.15-4.17,1.15-8.41,0-12.6-.24-.87-1.4-1.77-2.33-1.8-17-.66-34.24-.66-51.24,0Z" style="fill: #223656;"/>
              </g>
              <g>
                <path d="M213.89,640.24c17.12-.67,34.24-.67,51.37,0,1.52.06,3.29,1.37,3.72,2.9,1.23,4.47,1.23,8.93,0,13.4-.43,1.54-2.19,2.84-3.72,2.9-17.12.67-34.24.67-51.37,0-1.53-.06-3.29-1.37-3.72-2.9-1.23-4.47-1.23-8.93,0-13.4.43-1.54,2.19-2.84,3.72-2.9Z" style="fill: #777df5;"/>
                <path d="M239.57,661.45c-8.6,0-17.2-.17-25.74-.5-2.23-.09-4.51-1.89-5.1-4-1.3-4.71-1.3-9.49,0-14.2.59-2.12,2.88-3.91,5.1-4h0c17.08-.67,34.4-.67,51.48,0,2.22.09,4.51,1.89,5.1,4,1.3,4.72,1.3,9.49,0,14.2-.6,2.12-2.88,3.91-5.1,4-8.54.33-17.14.5-25.75.5ZM213.95,641.74c-.93.04-2.09.94-2.33,1.81-1.15,4.18-1.15,8.42,0,12.6.24.85,1.42,1.77,2.33,1.8,17,.66,34.24.66,51.24,0,.93-.04,2.09-.94,2.33-1.81,1.15-4.17,1.15-8.41,0-12.6-.24-.85-1.42-1.77-2.33-1.8-17-.66-34.24-.66-51.24,0Z" style="fill: #223656;"/>
              </g>
            </g>
          </g>
          <path d="M44.47,581.43c-5.95,2.73-10.92,7.97-12.38,14.35-.81,3.55-.33,7.85,3.54,9.49,1.16.49,2.46.62,3.71.41,3.69-.62,6.25-3.47,7.88-6.62,1.29-2.49,2.07-5.2,3.06-7.82s2.21-5.23,4.19-7.21c1.84-1.83,4.07-2.83,6.36-3.79.79-.33.62-1.48-.22-1.59-5.28-.68-11.69.74-16.14,2.78Z" style="fill: #fff;"/>
          <path d="M30.02,623.98c-.16,3.69-.26,7.61,1.57,10.81.44.78,1.07,1.54,1.93,1.76,1.19.29,2.37-.54,3.16-1.48,2.43-2.88,2.97-6.87,3.2-10.63.16-2.63.33-5.43-.82-7.8-3.02-6.22-7.05-4.09-8.65,2.3-.41,1.64-.32,3.36-.39,5.04Z" style="fill: #fff;"/>
          <g style="mix-blend-mode: multiply; opacity: .28;">
            <path d="M453.39,673.59c-.51,4.62-3.53,8.59-7.85,10.31-20.51,8.17-78.95,6.09-129.3,6.24h0c-52.02.54-104.88.61-153.8.04.86-.03,81.38-3.17,153.8-9.7h0c54.38-4.9,104.19-11.7,112.26-20.53,18.9-20.65,23.48-82.66,23.48-82.66,1.23,11.59,5.62,58.31,1.41,96.29Z" style="fill: #1894d1;"/>
          </g>
        </g>
        <g>
          <g id="Layer_1-3" data-name="Layer 1">
            <circle cx="353.46" cy="509.82" r="8.55" style="fill: #fde167;"/>
            <circle cx="384.93" cy="509.82" r="8.55" style="fill: #f26066;"/>
            <path d="M424.93,509.82c0,4.72-3.83,8.55-8.55,8.55s-8.55-3.83-8.55-8.55,3.83-8.55,8.55-8.55,8.55,3.83,8.55,8.55h0Z" style="fill: #a3d92f;"/>
            <circle cx="353.46" cy="478.56" r="8.55" style="fill: #fde167;"/>
            <circle cx="384.93" cy="478.56" r="8.55" style="fill: #a3d92f;"/>
            <circle cx="416.39" cy="478.56" r="8.55" style="fill: #f26066;"/>
            <g>
              <path d="M316.23,435.13v120.82h0c-52.02.54-104.88.61-153.8.04h0c-48.37-.56-92.88-1.76-128.9-3.77-2.68,0-5.03-1.4-6.36-3.5,0,0-.03-.05-.04-.07-.73-1.15-1.14-2.51-1.14-3.96-4.28-34.7-4.58-68.41,0-100.9,0-4.17,3.38-7.54,7.54-7.54,96.91-1.76,242.15-1.76,282.71-1.12Z" style="fill: #c7eeff;"/>
              <path d="M234.13,557.89c-24.96,0-48.92-.13-71.72-.4-51.38-.6-94.77-1.87-128.97-3.77h0c-3.02,0-5.87-1.57-7.54-4.2l-.06-.1c-.87-1.39-1.34-2.99-1.36-4.64-4.41-35.75-4.41-69.77,0-101.11.06-4.94,4.09-8.93,9.04-8.93,96.69-1.75,241.23-1.77,282.73-1.12l1.48.02v123.79h-1.5c-28.34.29-55.78.44-82.1.44ZM28.44,547.93c1.13,1.76,3.02,2.79,5.08,2.79,34.24,1.9,77.59,3.17,128.92,3.77,46.41.54,97.64.53,152.29-.03v-117.85c-43.34-.63-185.61-.59-281.18,1.14-3.36,0-6.07,2.71-6.07,6.04v.21c-4.4,31.13-4.4,64.95-.01,100.51v.18c.01,1.13.32,2.22.92,3.16l.05.08Z" style="fill: #223656;"/>
            </g>
            <g>
              <path d="M453.39,539.4c-.51,4.62-3.53,8.59-7.85,10.31-20.51,8.17-78.95,6.09-129.3,6.24h0v-120.45h0c37.23-.64,101.21-.55,129.09,1.41,4.41.35,6.45,4.31,6.66,6.2,1.23,11.59,5.62,58.31,1.41,96.29Z" style="fill: #777df5;"/>
              <path d="M366.09,557.58c-7.32,0-14.82-.04-22.41-.07-9.08-.04-18.47-.09-27.45-.06h-1.5s0-1.5,0-1.5v-121.95h1.5c36.44-.62,100.63-.6,129.2,1.41,4.99.39,7.74,4.73,8.04,7.54,1.39,13.12,5.6,58.86,1.41,96.62-.58,5.19-3.94,9.61-8.79,11.54-14.16,5.64-44.96,6.48-80,6.48ZM321.7,554.44c7.29,0,14.74.04,22,.07,41.64.2,84.7.41,101.28-6.19,3.81-1.52,6.46-5,6.91-9.08h0c4.16-37.45-.02-82.92-1.41-95.97-.13-1.2-1.62-4.58-5.28-4.87-27.77-1.95-91.81-2-127.48-1.43v117.47c1.32,0,2.65,0,3.98,0Z" style="fill: #223656;"/>
            </g>
            <g>
              <circle cx="353.3" cy="509.66" r="8.54" style="fill: #fafb33;"/>
              <path d="M353.3,519.7c-5.54,0-10.04-4.5-10.04-10.04s4.5-10.04,10.04-10.04,10.04,4.5,10.04,10.04-4.5,10.04-10.04,10.04ZM353.3,502.62c-3.88,0-7.04,3.16-7.04,7.04s3.16,7.04,7.04,7.04,7.04-3.16,7.04-7.04-3.16-7.04-7.04-7.04Z" style="fill: #223656;"/>
            </g>
            <g>
              <circle cx="384.74" cy="509.66" r="8.54" style="fill: #fc6760;"/>
              <path d="M384.74,519.7c-5.54,0-10.04-4.5-10.04-10.04s4.5-10.04,10.04-10.04,10.04,4.5,10.04,10.04-4.5,10.04-10.04,10.04ZM384.74,502.62c-3.88,0-7.04,3.16-7.04,7.04s3.16,7.04,7.04,7.04,7.04-3.16,7.04-7.04-3.16-7.04-7.04-7.04Z" style="fill: #223656;"/>
            </g>
            <g>
              <circle cx="416.19" cy="509.66" r="8.54" style="fill: #83d689;"/>
              <path d="M416.18,519.7c-5.54,0-10.04-4.5-10.04-10.04s4.5-10.04,10.04-10.04,10.04,4.5,10.04,10.04-4.5,10.04-10.04,10.04ZM416.18,502.62c-3.88,0-7.04,3.16-7.04,7.04s3.16,7.04,7.04,7.04,7.04-3.16,7.04-7.04-3.16-7.04-7.04-7.04Z" style="fill: #223656;"/>
            </g>
            <g>
              <path d="M361.84,478.43c0,4.71-3.82,8.54-8.54,8.54-3.35,0-6.25-1.92-7.65-4.73-.57-1.15-.9-2.44-.9-3.8,0-4.71,3.82-8.54,8.55-8.54,2.58,0,4.89,1.15,6.45,2.96h.01c1.29,1.51,2.07,3.45,2.07,5.58h0Z" style="fill: #fafb33;"/>
              <path d="M353.3,488.47c-3.84,0-7.29-2.13-8.99-5.56-.7-1.4-1.05-2.91-1.05-4.47,0-5.54,4.51-10.04,10.05-10.04,2.89,0,5.63,1.25,7.54,3.42l.06.07c1.24,1.43,2.04,3.19,2.32,5.05h.11v1.5c0,5.54-4.5,10.04-10.04,10.04ZM353.3,471.39c-3.89,0-7.05,3.16-7.05,7.04,0,1.1.25,2.15.74,3.13,1.2,2.41,3.61,3.9,6.31,3.9,3.79,0,6.88-3,7.04-6.75v-.29c0-1.67-.59-3.28-1.67-4.54l-.05-.06c-1.34-1.55-3.28-2.44-5.32-2.44Z" style="fill: #223656;"/>
            </g>
            <g>
              <circle cx="384.74" cy="478.43" r="8.54" style="fill: #83d689;"/>
              <path d="M384.74,488.47c-5.54,0-10.04-4.5-10.04-10.04s4.5-10.04,10.04-10.04,10.04,4.5,10.04,10.04-4.5,10.04-10.04,10.04ZM384.74,471.39c-3.88,0-7.04,3.16-7.04,7.04s3.16,7.04,7.04,7.04,7.04-3.16,7.04-7.04-3.16-7.04-7.04-7.04Z" style="fill: #223656;"/>
            </g>
            <g>
              <circle cx="416.19" cy="478.43" r="8.54" style="fill: #fc6760;"/>
              <path d="M416.18,488.47c-5.54,0-10.04-4.5-10.04-10.04s4.5-10.04,10.04-10.04,10.04,4.5,10.04,10.04-4.5,10.04-10.04,10.04ZM416.18,471.39c-3.88,0-7.04,3.16-7.04,7.04s3.16,7.04,7.04,7.04,7.04-3.16,7.04-7.04-3.16-7.04-7.04-7.04Z" style="fill: #223656;"/>
            </g>
            <g>
              <g>
                <path d="M59.59,466.86c17.12-.67,34.24-.67,51.36,0,1.53.06,3.29,1.37,3.72,2.9,1.23,4.47,1.23,8.93,0,13.4-.43,1.54-2.19,2.84-3.72,2.9-17.12.67-34.24.67-51.36,0-1.53-.06-3.29-1.37-3.72-2.9-1.23-4.47-1.23-8.93,0-13.4.43-1.54,2.19-2.84,3.72-2.9Z" style="fill: #777df5;"/>
                <path d="M85.27,488.07c-8.6,0-17.2-.17-25.74-.5-2.22-.09-4.51-1.89-5.1-4-1.3-4.72-1.3-9.49,0-14.2.59-2.12,2.88-3.91,5.1-4h0c17.08-.67,34.4-.67,51.48,0,2.22.09,4.51,1.89,5.1,4,1.3,4.72,1.3,9.49,0,14.2-.59,2.12-2.88,3.91-5.1,4-8.54.33-17.15.5-25.75.5ZM59.65,468.36c-.93.04-2.09.94-2.33,1.81-1.15,4.18-1.15,8.42,0,12.6.24.87,1.4,1.77,2.33,1.8,17,.66,34.24.66,51.24,0,.91-.04,2.09-.95,2.33-1.81,1.15-4.18,1.15-8.42,0-12.6-.24-.87-1.4-1.77-2.33-1.8-17-.66-34.24-.66-51.24,0Z" style="fill: #223656;"/>
              </g>
              <g>
                <path d="M59.59,506.05c17.12-.67,34.24-.67,51.36,0,1.53.06,3.29,1.37,3.72,2.9,1.23,4.47,1.23,8.93,0,13.4-.43,1.54-2.19,2.84-3.72,2.9-17.12.67-34.24.67-51.36,0-1.53-.06-3.29-1.37-3.72-2.9-1.23-4.47-1.23-8.93,0-13.4.43-1.54,2.19-2.84,3.72-2.9Z" style="fill: #777df5;"/>
                <path d="M85.27,527.26c-8.6,0-17.2-.17-25.74-.5-2.22-.09-4.51-1.89-5.1-4-1.3-4.72-1.3-9.49,0-14.2.59-2.12,2.88-3.91,5.1-4h0c17.08-.67,34.4-.67,51.48,0,2.22.09,4.51,1.89,5.1,4,1.3,4.72,1.3,9.49,0,14.2-.59,2.12-2.88,3.91-5.1,4-8.54.33-17.15.5-25.75.5ZM59.65,507.55c-.92.04-2.09.95-2.33,1.81-1.15,4.18-1.15,8.42,0,12.6.24.87,1.4,1.77,2.33,1.8,17,.66,34.24.66,51.24,0,.91-.04,2.09-.95,2.33-1.81,1.15-4.18,1.15-8.42,0-12.6-.24-.87-1.4-1.77-2.33-1.8-17-.66-34.24-.66-51.24,0Z" style="fill: #223656;"/>
              </g>
              <g>
                <path d="M136.74,466.86c17.12-.67,34.24-.67,51.37,0,1.53.06,3.28,1.37,3.72,2.9,1.23,4.47,1.23,8.93,0,13.4-.43,1.54-2.19,2.84-3.72,2.9-17.12.67-34.24.67-51.37,0-1.53-.06-3.29-1.37-3.72-2.9-1.23-4.47-1.23-8.93,0-13.4.43-1.54,2.19-2.84,3.72-2.9Z" style="fill: #777df5;"/>
                <path d="M162.42,488.07c-8.6,0-17.2-.17-25.74-.5-2.22-.09-4.51-1.89-5.1-4-1.3-4.72-1.3-9.49,0-14.2.6-2.12,2.88-3.91,5.1-4.01h0c17.08-.67,34.4-.67,51.48,0,2.22.09,4.51,1.89,5.1,4,1.3,4.72,1.3,9.49,0,14.21-.6,2.12-2.88,3.91-5.1,4-8.54.33-17.14.5-25.75.5ZM136.8,468.36c-.93.04-2.09.94-2.33,1.81-1.15,4.17-1.15,8.41,0,12.6.24.87,1.4,1.77,2.33,1.8,17,.66,34.24.66,51.24,0,.93-.04,2.09-.94,2.33-1.81,1.15-4.17,1.15-8.42,0-12.6-.24-.87-1.4-1.77-2.33-1.8-17-.66-34.24-.66-51.24,0Z" style="fill: #223656;"/>
              </g>
              <g>
                <path d="M136.74,506.05c17.12-.67,34.24-.67,51.37,0,1.53.06,3.29,1.37,3.72,2.9,1.23,4.47,1.23,8.93,0,13.4-.43,1.54-2.19,2.84-3.72,2.9-17.12.67-34.24.67-51.37,0-1.53-.06-3.29-1.37-3.72-2.9-1.23-4.47-1.23-8.93,0-13.4.43-1.54,2.19-2.84,3.72-2.9Z" style="fill: #777df5;"/>
                <path d="M162.42,527.26c-8.6,0-17.2-.17-25.74-.5-2.22-.09-4.51-1.89-5.1-4-1.3-4.72-1.3-9.49,0-14.2.6-2.12,2.88-3.91,5.1-4h0c17.08-.67,34.4-.67,51.48,0,2.22.09,4.51,1.89,5.1,4,1.3,4.72,1.3,9.49,0,14.2-.59,2.12-2.88,3.91-5.1,4-8.54.33-17.14.5-25.75.5ZM136.8,507.55c-.92.04-2.09.95-2.33,1.81-1.15,4.17-1.15,8.41,0,12.6.24.87,1.4,1.76,2.33,1.8,17,.67,34.24.66,51.24,0,.93-.04,2.09-.94,2.33-1.81,1.15-4.17,1.15-8.41,0-12.6-.24-.85-1.42-1.77-2.33-1.8-17-.66-34.24-.66-51.24,0Z" style="fill: #223656;"/>
              </g>
              <g>
                <path d="M213.89,466.86c17.12-.67,34.24-.67,51.37,0,1.53.06,3.29,1.37,3.72,2.9,1.23,4.47,1.23,8.93,0,13.4-.43,1.54-2.19,2.84-3.72,2.9-17.12.67-34.24.67-51.37,0-1.53-.06-3.29-1.37-3.72-2.9-1.23-4.47-1.23-8.93,0-13.4.43-1.54,2.19-2.84,3.72-2.9Z" style="fill: #777df5;"/>
                <path d="M239.57,488.07c-8.6,0-17.2-.17-25.74-.5-2.23-.09-4.51-1.89-5.1-4-1.3-4.72-1.3-9.49,0-14.2.59-2.12,2.88-3.91,5.1-4h0c17.08-.67,34.4-.67,51.48,0,2.22.09,4.51,1.89,5.1,4,1.3,4.72,1.3,9.49,0,14.21-.6,2.12-2.88,3.91-5.1,4-8.54.33-17.14.5-25.75.5ZM213.95,468.36c-.93.04-2.09.94-2.33,1.81-1.15,4.18-1.15,8.42,0,12.6.24.85,1.42,1.77,2.33,1.8,17,.66,34.24.66,51.24,0,.93-.04,2.09-.94,2.33-1.81,1.15-4.17,1.15-8.41,0-12.6-.24-.87-1.4-1.77-2.33-1.8-17-.66-34.24-.66-51.24,0Z" style="fill: #223656;"/>
              </g>
              <g>
                <path d="M213.89,506.05c17.12-.67,34.24-.67,51.37,0,1.52.06,3.29,1.37,3.72,2.9,1.23,4.47,1.23,8.93,0,13.4-.43,1.54-2.19,2.84-3.72,2.9-17.12.67-34.24.67-51.37,0-1.53-.06-3.29-1.37-3.72-2.9-1.23-4.47-1.23-8.93,0-13.4.43-1.54,2.19-2.84,3.72-2.9Z" style="fill: #777df5;"/>
                <path d="M239.57,527.26c-8.6,0-17.2-.17-25.74-.5-2.23-.09-4.51-1.89-5.1-4-1.3-4.71-1.3-9.49,0-14.2.59-2.12,2.88-3.91,5.1-4h0c17.08-.67,34.4-.67,51.48,0,2.22.09,4.51,1.89,5.1,4,1.3,4.72,1.3,9.49,0,14.2-.6,2.12-2.88,3.91-5.1,4-8.54.33-17.14.5-25.75.5ZM213.95,507.55c-.93.04-2.09.94-2.33,1.81-1.15,4.18-1.15,8.42,0,12.6.24.85,1.42,1.77,2.33,1.8,17,.67,34.24.66,51.24,0,.93-.04,2.09-.94,2.33-1.81,1.15-4.17,1.15-8.41,0-12.6-.24-.85-1.42-1.77-2.33-1.8-17-.66-34.24-.66-51.24,0Z" style="fill: #223656;"/>
              </g>
            </g>
          </g>
          <path d="M44.47,447.24c-5.95,2.73-10.92,7.97-12.38,14.35-.81,3.55-.33,7.85,3.54,9.49,1.16.49,2.46.62,3.71.41,3.69-.62,6.25-3.47,7.88-6.62,1.29-2.49,2.07-5.2,3.06-7.82s2.21-5.23,4.19-7.21c1.84-1.83,4.07-2.83,6.36-3.79.79-.33.62-1.48-.22-1.59-5.28-.68-11.69.74-16.14,2.78Z" style="fill: #fff;"/>
          <path d="M30.02,489.79c-.16,3.69-.26,7.61,1.57,10.81.44.78,1.07,1.54,1.93,1.76,1.19.29,2.37-.54,3.16-1.48,2.43-2.88,2.97-6.87,3.2-10.63.16-2.63.33-5.43-.82-7.8-3.02-6.22-7.05-4.09-8.65,2.3-.41,1.64-.32,3.36-.39,5.04Z" style="fill: #fff;"/>
          <g style="mix-blend-mode: multiply; opacity: .28;">
            <path d="M453.39,539.4c-.51,4.62-3.53,8.59-7.85,10.31-20.51,8.17-78.95,6.09-129.3,6.24h0c-52.02.54-104.88.61-153.8.04.86-.03,81.38-3.17,153.8-9.7h0c54.38-4.9,104.19-11.7,112.26-20.53,18.9-20.65,23.48-82.66,23.48-82.66,1.23,11.59,5.62,58.31,1.41,96.29Z" style="fill: #1894d1;"/>
          </g>
        </g>
        <g>
          <g id="Layer_1-4" data-name="Layer 1">
            <circle cx="353.46" cy="375.63" r="8.55" style="fill: #fde167;"/>
            <circle cx="384.93" cy="375.63" r="8.55" style="fill: #f26066;"/>
            <path d="M424.93,375.63c0,4.72-3.83,8.55-8.55,8.55s-8.55-3.83-8.55-8.55,3.83-8.55,8.55-8.55,8.55,3.83,8.55,8.55h0Z" style="fill: #a3d92f;"/>
            <circle cx="353.46" cy="344.37" r="8.55" style="fill: #fde167;"/>
            <circle cx="384.93" cy="344.37" r="8.55" style="fill: #a3d92f;"/>
            <circle cx="416.39" cy="344.37" r="8.55" style="fill: #f26066;"/>
            <g>
              <path d="M316.23,300.94v120.82h0c-52.02.54-104.88.61-153.8.04h0c-48.37-.56-92.88-1.76-128.9-3.77-2.68,0-5.03-1.4-6.36-3.5,0,0-.03-.05-.04-.07-.73-1.15-1.14-2.51-1.14-3.96-4.28-34.7-4.58-68.41,0-100.9,0-4.17,3.38-7.54,7.54-7.54,96.91-1.76,242.15-1.76,282.71-1.12Z" style="fill: #c7eeff;"/>
              <path d="M234.14,423.7c-24.97,0-48.93-.13-71.73-.4-51.38-.6-94.77-1.87-128.97-3.77h0c-3.02,0-5.87-1.57-7.54-4.2l-.06-.1c-.87-1.39-1.34-2.99-1.35-4.64-4.41-35.75-4.41-69.77,0-101.11.06-4.94,4.09-8.93,9.04-8.93,96.69-1.75,241.22-1.77,282.73-1.12l1.48.02v123.79h-1.5c-28.34.29-55.78.44-82.09.44ZM28.44,413.74c1.13,1.76,3.02,2.79,5.08,2.79,34.24,1.9,77.59,3.17,128.92,3.77,46.41.54,97.63.53,152.29-.03v-117.85c-43.34-.63-185.62-.59-281.18,1.14-3.36,0-6.07,2.71-6.07,6.04v.21c-4.4,31.13-4.4,64.95-.01,100.51v.18c.01,1.13.32,2.22.92,3.16l.05.09Z" style="fill: #223656;"/>
            </g>
            <g>
              <path d="M453.39,405.21c-.51,4.62-3.53,8.59-7.85,10.31-20.51,8.17-78.95,6.09-129.3,6.24h0v-120.45h0c37.23-.64,101.21-.55,129.09,1.41,4.41.35,6.45,4.31,6.66,6.2,1.23,11.59,5.62,58.31,1.41,96.29Z" style="fill: #777df5;"/>
              <path d="M366.09,423.39c-7.32,0-14.82-.04-22.4-.07-9.08-.04-18.47-.09-27.45-.06h-1.5s0-1.5,0-1.5v-121.95h1.5c36.44-.62,100.63-.6,129.2,1.41,4.99.39,7.74,4.73,8.04,7.54,1.39,13.12,5.6,58.86,1.41,96.62-.58,5.19-3.94,9.61-8.79,11.54-14.17,5.64-44.96,6.48-80,6.48ZM321.71,420.25c7.29,0,14.74.04,21.99.07,41.64.2,84.69.41,101.28-6.19,3.81-1.52,6.46-5,6.91-9.08h0c4.16-37.45-.02-82.92-1.41-95.97-.13-1.2-1.62-4.58-5.28-4.87-27.77-1.95-91.81-2-127.48-1.43v117.47c1.32,0,2.65,0,3.98,0Z" style="fill: #223656;"/>
            </g>
            <g>
              <circle cx="353.3" cy="375.47" r="8.54" style="fill: #fafb33;"/>
              <path d="M353.3,385.52c-5.54,0-10.04-4.5-10.04-10.04s4.5-10.04,10.04-10.04,10.04,4.5,10.04,10.04-4.5,10.04-10.04,10.04ZM353.3,368.43c-3.88,0-7.04,3.16-7.04,7.04s3.16,7.04,7.04,7.04,7.04-3.16,7.04-7.04-3.16-7.04-7.04-7.04Z" style="fill: #223656;"/>
            </g>
            <g>
              <circle cx="384.74" cy="375.47" r="8.54" style="fill: #fc6760;"/>
              <path d="M384.74,385.52c-5.54,0-10.04-4.5-10.04-10.04s4.5-10.04,10.04-10.04,10.04,4.5,10.04,10.04-4.5,10.04-10.04,10.04ZM384.74,368.43c-3.88,0-7.04,3.16-7.04,7.04s3.16,7.04,7.04,7.04,7.04-3.16,7.04-7.04-3.16-7.04-7.04-7.04Z" style="fill: #223656;"/>
            </g>
            <g>
              <circle cx="416.19" cy="375.47" r="8.54" style="fill: #83d689;"/>
              <path d="M416.18,385.52c-5.54,0-10.04-4.5-10.04-10.04s4.5-10.04,10.04-10.04,10.04,4.5,10.04,10.04-4.5,10.04-10.04,10.04ZM416.18,368.43c-3.88,0-7.04,3.16-7.04,7.04s3.16,7.04,7.04,7.04,7.04-3.16,7.04-7.04-3.16-7.04-7.04-7.04Z" style="fill: #223656;"/>
            </g>
            <g>
              <path d="M361.84,344.24c0,4.71-3.82,8.54-8.54,8.54-3.35,0-6.25-1.92-7.65-4.73-.57-1.15-.9-2.44-.9-3.8,0-4.71,3.82-8.54,8.55-8.54,2.58,0,4.89,1.15,6.45,2.96h.01c1.29,1.51,2.07,3.45,2.07,5.58h0Z" style="fill: #fafb33;"/>
              <path d="M353.3,354.28c-3.84,0-7.29-2.13-8.99-5.56-.7-1.4-1.05-2.91-1.05-4.47,0-5.54,4.51-10.04,10.05-10.04,2.89,0,5.63,1.25,7.54,3.42l.06.07c1.24,1.43,2.04,3.19,2.32,5.05h.11v1.5c0,5.54-4.5,10.04-10.04,10.04ZM353.3,337.2c-3.89,0-7.05,3.16-7.05,7.04,0,1.1.25,2.15.74,3.13,1.2,2.41,3.61,3.9,6.31,3.9,3.79,0,6.88-3,7.04-6.75v-.29c0-1.67-.59-3.28-1.67-4.54l-.05-.06c-1.34-1.55-3.28-2.44-5.32-2.44Z" style="fill: #223656;"/>
            </g>
            <g>
              <circle cx="384.74" cy="344.24" r="8.54" style="fill: #83d689;"/>
              <path d="M384.74,354.28c-5.54,0-10.04-4.5-10.04-10.04s4.5-10.04,10.04-10.04,10.04,4.5,10.04,10.04-4.5,10.04-10.04,10.04ZM384.74,337.2c-3.88,0-7.04,3.16-7.04,7.04s3.16,7.04,7.04,7.04,7.04-3.16,7.04-7.04-3.16-7.04-7.04-7.04Z" style="fill: #223656;"/>
            </g>
            <g>
              <circle cx="416.19" cy="344.24" r="8.54" style="fill: #fc6760;"/>
              <path d="M416.18,354.28c-5.54,0-10.04-4.5-10.04-10.04s4.5-10.04,10.04-10.04,10.04,4.5,10.04,10.04-4.5,10.04-10.04,10.04ZM416.18,337.2c-3.88,0-7.04,3.16-7.04,7.04s3.16,7.04,7.04,7.04,7.04-3.16,7.04-7.04-3.16-7.04-7.04-7.04Z" style="fill: #223656;"/>
            </g>
            <g>
              <g>
                <path d="M59.59,332.67c17.12-.67,34.24-.67,51.36,0,1.53.06,3.29,1.37,3.72,2.9,1.23,4.47,1.23,8.93,0,13.4-.43,1.54-2.19,2.84-3.72,2.9-17.12.67-34.24.67-51.36,0-1.53-.06-3.29-1.37-3.72-2.9-1.23-4.47-1.23-8.93,0-13.4.43-1.54,2.19-2.84,3.72-2.9Z" style="fill: #777df5;"/>
                <path d="M85.27,353.88c-8.6,0-17.2-.17-25.74-.5-2.22-.09-4.51-1.89-5.1-4-1.3-4.72-1.3-9.49,0-14.2.59-2.12,2.88-3.91,5.1-4h0c17.08-.67,34.4-.67,51.48,0,2.22.09,4.51,1.89,5.1,4,1.3,4.72,1.3,9.49,0,14.2-.59,2.12-2.88,3.91-5.1,4-8.54.33-17.15.5-25.75.5ZM59.65,334.17c-.93.04-2.09.94-2.33,1.81-1.15,4.18-1.15,8.42,0,12.6.24.87,1.4,1.77,2.33,1.8,17,.66,34.24.66,51.24,0,.91-.04,2.09-.95,2.33-1.81,1.15-4.18,1.15-8.42,0-12.6-.24-.87-1.4-1.77-2.33-1.8-17-.66-34.24-.66-51.24,0Z" style="fill: #223656;"/>
              </g>
              <g>
                <path d="M59.59,371.86c17.12-.67,34.24-.67,51.36,0,1.53.06,3.29,1.37,3.72,2.9,1.23,4.47,1.23,8.93,0,13.4-.43,1.54-2.19,2.84-3.72,2.9-17.12.67-34.24.67-51.36,0-1.53-.06-3.29-1.37-3.72-2.9-1.23-4.47-1.23-8.93,0-13.4.43-1.54,2.19-2.84,3.72-2.9Z" style="fill: #777df5;"/>
                <path d="M85.27,393.07c-8.6,0-17.2-.17-25.74-.5-2.22-.09-4.51-1.89-5.1-4-1.3-4.72-1.3-9.49,0-14.2.59-2.12,2.88-3.91,5.1-4h0c17.08-.67,34.4-.67,51.48,0,2.22.09,4.51,1.89,5.1,4,1.3,4.72,1.3,9.49,0,14.2-.59,2.12-2.88,3.91-5.1,4-8.54.33-17.15.5-25.75.5ZM59.65,373.36c-.92.04-2.09.95-2.33,1.81-1.15,4.18-1.15,8.42,0,12.6.24.87,1.4,1.77,2.33,1.8,17,.66,34.24.66,51.24,0,.91-.04,2.09-.95,2.33-1.81,1.15-4.18,1.15-8.42,0-12.6-.24-.87-1.4-1.77-2.33-1.8-17-.66-34.24-.66-51.24,0Z" style="fill: #223656;"/>
              </g>
              <g>
                <path d="M136.74,332.67c17.12-.67,34.24-.67,51.37,0,1.53.06,3.28,1.37,3.72,2.9,1.23,4.47,1.23,8.93,0,13.4-.43,1.54-2.19,2.84-3.72,2.9-17.12.67-34.24.67-51.37,0-1.53-.06-3.29-1.37-3.72-2.9-1.23-4.47-1.23-8.93,0-13.4.43-1.54,2.19-2.84,3.72-2.9Z" style="fill: #777df5;"/>
                <path d="M162.42,353.88c-8.6,0-17.2-.17-25.74-.5-2.22-.09-4.51-1.89-5.1-4-1.3-4.72-1.3-9.49,0-14.2.6-2.12,2.88-3.91,5.1-4.01h0c17.08-.67,34.4-.67,51.48,0,2.22.09,4.51,1.89,5.1,4,1.3,4.72,1.3,9.49,0,14.21-.6,2.12-2.88,3.91-5.1,4-8.54.33-17.14.5-25.75.5ZM136.8,334.17c-.93.04-2.09.94-2.33,1.81-1.15,4.17-1.15,8.41,0,12.6.24.87,1.4,1.77,2.33,1.8,17,.66,34.24.66,51.24,0,.93-.04,2.09-.94,2.33-1.81,1.15-4.17,1.15-8.42,0-12.6-.24-.87-1.4-1.77-2.33-1.8-17-.66-34.24-.66-51.24,0Z" style="fill: #223656;"/>
              </g>
              <g>
                <path d="M136.74,371.86c17.12-.67,34.24-.67,51.37,0,1.53.06,3.29,1.37,3.72,2.9,1.23,4.47,1.23,8.93,0,13.4-.43,1.54-2.19,2.84-3.72,2.9-17.12.67-34.24.67-51.37,0-1.53-.06-3.29-1.37-3.72-2.9-1.23-4.47-1.23-8.93,0-13.4.43-1.54,2.19-2.84,3.72-2.9Z" style="fill: #777df5;"/>
                <path d="M162.42,393.07c-8.6,0-17.2-.17-25.74-.5-2.22-.09-4.51-1.89-5.1-4-1.3-4.72-1.3-9.49,0-14.2.6-2.12,2.88-3.91,5.1-4h0c17.08-.67,34.4-.67,51.48,0,2.22.09,4.51,1.89,5.1,4,1.3,4.72,1.3,9.49,0,14.2-.6,2.12-2.88,3.91-5.1,4-8.54.33-17.14.5-25.75.5ZM136.8,373.36c-.92.04-2.09.95-2.33,1.81-1.15,4.17-1.15,8.41,0,12.6.24.87,1.4,1.76,2.33,1.8,17,.67,34.24.66,51.24,0,.91-.04,2.09-.95,2.33-1.81,1.15-4.17,1.15-8.41,0-12.6-.24-.85-1.42-1.77-2.33-1.8-17-.66-34.24-.66-51.24,0Z" style="fill: #223656;"/>
              </g>
              <g>
                <path d="M213.89,332.67c17.12-.67,34.24-.67,51.37,0,1.53.06,3.29,1.37,3.72,2.9,1.23,4.47,1.23,8.93,0,13.4-.43,1.54-2.19,2.84-3.72,2.9-17.12.67-34.24.67-51.37,0-1.53-.06-3.29-1.37-3.72-2.9-1.23-4.47-1.23-8.93,0-13.4.43-1.54,2.19-2.84,3.72-2.9Z" style="fill: #777df5;"/>
                <path d="M239.57,353.88c-8.6,0-17.2-.17-25.74-.5-2.23-.09-4.51-1.89-5.1-4-1.3-4.72-1.3-9.49,0-14.2.59-2.12,2.88-3.91,5.1-4h0c17.08-.67,34.4-.67,51.48,0,2.22.09,4.51,1.89,5.1,4,1.3,4.72,1.3,9.49,0,14.21-.6,2.12-2.88,3.91-5.1,4-8.54.33-17.14.5-25.75.5ZM213.95,334.17c-.93.04-2.09.94-2.33,1.81-1.15,4.18-1.15,8.42,0,12.6.24.85,1.42,1.77,2.33,1.8,17,.66,34.24.66,51.24,0,.93-.04,2.09-.94,2.33-1.81,1.15-4.17,1.15-8.41,0-12.6-.24-.87-1.4-1.77-2.33-1.8-17-.66-34.24-.66-51.24,0Z" style="fill: #223656;"/>
              </g>
              <g>
                <path d="M213.89,371.86c17.12-.67,34.24-.67,51.37,0,1.52.06,3.29,1.37,3.72,2.9,1.23,4.47,1.23,8.93,0,13.4-.43,1.54-2.19,2.84-3.72,2.9-17.12.67-34.24.67-51.37,0-1.53-.06-3.29-1.37-3.72-2.9-1.23-4.47-1.23-8.93,0-13.4.43-1.54,2.19-2.84,3.72-2.9Z" style="fill: #777df5;"/>
                <path d="M239.57,393.07c-8.6,0-17.2-.17-25.74-.5-2.23-.09-4.51-1.89-5.1-4-1.3-4.71-1.3-9.49,0-14.2.59-2.12,2.88-3.91,5.1-4h0c17.08-.67,34.4-.67,51.48,0,2.22.09,4.51,1.89,5.1,4,1.3,4.72,1.3,9.49,0,14.2-.6,2.12-2.88,3.91-5.1,4-8.54.33-17.14.5-25.75.5ZM213.95,373.36c-.93.04-2.09.94-2.33,1.81-1.15,4.18-1.15,8.42,0,12.6.24.85,1.42,1.77,2.33,1.8,17,.67,34.24.66,51.24,0,.93-.04,2.09-.94,2.33-1.81,1.15-4.17,1.15-8.41,0-12.6-.24-.85-1.42-1.77-2.33-1.8-17-.66-34.24-.66-51.24,0Z" style="fill: #223656;"/>
              </g>
            </g>
          </g>
          <path d="M44.47,313.05c-5.95,2.73-10.92,7.97-12.38,14.35-.81,3.55-.33,7.85,3.54,9.49,1.16.49,2.46.62,3.71.41,3.69-.62,6.25-3.47,7.88-6.62,1.29-2.49,2.07-5.2,3.06-7.82.98-2.62,2.21-5.23,4.19-7.21,1.84-1.83,4.07-2.83,6.36-3.79.79-.33.62-1.48-.22-1.59-5.28-.68-11.69.74-16.14,2.78Z" style="fill: #fff;"/>
          <path d="M30.02,355.6c-.16,3.69-.26,7.61,1.57,10.81.44.78,1.07,1.54,1.93,1.76,1.19.29,2.37-.54,3.16-1.48,2.43-2.88,2.97-6.87,3.2-10.63.16-2.63.33-5.43-.82-7.8-3.02-6.22-7.05-4.09-8.65,2.3-.41,1.64-.32,3.36-.39,5.04Z" style="fill: #fff;"/>
          <g style="mix-blend-mode: multiply; opacity: .28;">
            <path d="M453.39,405.21c-.51,4.62-3.53,8.59-7.85,10.31-20.51,8.17-78.95,6.09-129.3,6.24h0c-52.02.54-104.88.61-153.8.04.86-.03,81.38-3.17,153.8-9.7h0c54.38-4.9,104.19-11.7,112.26-20.53,18.9-20.65,23.48-82.66,23.48-82.66,1.23,11.59,5.62,58.31,1.41,96.29Z" style="fill: #1894d1;"/>
          </g>
        </g>
        <g>
          <g id="Layer_1-5" data-name="Layer 1">
            <circle cx="353.46" cy="240.36" r="8.55" style="fill: #fde167;"/>
            <circle cx="384.93" cy="240.36" r="8.55" style="fill: #f26066;"/>
            <path d="M424.93,240.36c0,4.72-3.83,8.55-8.55,8.55s-8.55-3.83-8.55-8.55,3.83-8.55,8.55-8.55,8.55,3.83,8.55,8.55h0Z" style="fill: #a3d92f;"/>
            <circle cx="353.46" cy="209.1" r="8.55" style="fill: #fde167;"/>
            <circle cx="384.93" cy="209.1" r="8.55" style="fill: #a3d92f;"/>
            <circle cx="416.39" cy="209.1" r="8.55" style="fill: #f26066;"/>
            <g>
              <path d="M316.23,165.66v120.82h0c-52.02.54-104.88.61-153.8.04h0c-48.37-.56-92.88-1.76-128.9-3.77-2.68,0-5.03-1.4-6.36-3.5,0,0-.03-.05-.04-.07-.73-1.15-1.14-2.51-1.14-3.96-4.28-34.7-4.58-68.41,0-100.9,0-4.17,3.38-7.54,7.54-7.54,96.91-1.76,242.15-1.76,282.71-1.12Z" style="fill: #c7eeff;"/>
              <path d="M234.13,288.42c-24.96,0-48.92-.13-71.72-.4-51.38-.6-94.77-1.87-128.97-3.77h0c-3.02,0-5.87-1.57-7.54-4.2l-.06-.1c-.87-1.39-1.34-2.99-1.36-4.64-4.41-35.75-4.41-69.77,0-101.11.06-4.94,4.09-8.93,9.04-8.93,96.69-1.75,241.23-1.77,282.73-1.12l1.48.02v123.79h-1.5c-28.34.29-55.78.44-82.1.44ZM28.44,278.47c1.13,1.76,3.02,2.79,5.08,2.79,34.24,1.9,77.59,3.17,128.92,3.77,46.41.54,97.64.53,152.29-.03v-117.85c-43.34-.63-185.61-.59-281.18,1.14-3.36,0-6.07,2.71-6.07,6.04v.21c-4.4,31.13-4.4,64.95-.01,100.51v.18c.01,1.13.32,2.22.92,3.16l.05.08Z" style="fill: #223656;"/>
            </g>
            <g>
              <path d="M453.39,269.93c-.51,4.62-3.53,8.59-7.85,10.31-20.51,8.17-78.95,6.09-129.3,6.24h0v-120.45h0c37.23-.64,101.21-.55,129.09,1.41,4.41.35,6.45,4.31,6.66,6.2,1.23,11.59,5.62,58.31,1.41,96.29Z" style="fill: #777df5;"/>
              <path d="M366.09,288.12c-7.32,0-14.82-.04-22.41-.07-9.08-.04-18.47-.09-27.45-.06h-1.5s0-1.5,0-1.5v-121.95h1.5c36.44-.62,100.63-.6,129.2,1.41,4.99.39,7.74,4.73,8.04,7.54,1.39,13.12,5.6,58.86,1.41,96.62-.58,5.19-3.94,9.61-8.79,11.54-14.16,5.64-44.96,6.48-80,6.48ZM321.7,284.97c7.29,0,14.74.04,22,.07,41.64.2,84.7.41,101.28-6.19,3.81-1.52,6.46-5,6.91-9.08h0c4.16-37.45-.02-82.92-1.41-95.97-.13-1.2-1.62-4.58-5.28-4.87-27.77-1.95-91.81-2-127.48-1.43v117.47c1.32,0,2.65,0,3.98,0Z" style="fill: #223656;"/>
            </g>
            <g>
              <circle cx="353.3" cy="240.2" r="8.54" style="fill: #fafb33;"/>
              <path d="M353.3,250.24c-5.54,0-10.04-4.5-10.04-10.04s4.5-10.04,10.04-10.04,10.04,4.5,10.04,10.04-4.5,10.04-10.04,10.04ZM353.3,233.16c-3.88,0-7.04,3.16-7.04,7.04s3.16,7.04,7.04,7.04,7.04-3.16,7.04-7.04-3.16-7.04-7.04-7.04Z" style="fill: #223656;"/>
            </g>
            <g>
              <circle cx="384.74" cy="240.2" r="8.54" style="fill: #fc6760;"/>
              <path d="M384.74,250.24c-5.54,0-10.04-4.5-10.04-10.04s4.5-10.04,10.04-10.04,10.04,4.5,10.04,10.04-4.5,10.04-10.04,10.04ZM384.74,233.16c-3.88,0-7.04,3.16-7.04,7.04s3.16,7.04,7.04,7.04,7.04-3.16,7.04-7.04-3.16-7.04-7.04-7.04Z" style="fill: #223656;"/>
            </g>
            <g>
              <circle cx="416.19" cy="240.2" r="8.54" style="fill: #83d689;"/>
              <path d="M416.18,250.24c-5.54,0-10.04-4.5-10.04-10.04s4.5-10.04,10.04-10.04,10.04,4.5,10.04,10.04-4.5,10.04-10.04,10.04ZM416.18,233.16c-3.88,0-7.04,3.16-7.04,7.04s3.16,7.04,7.04,7.04,7.04-3.16,7.04-7.04-3.16-7.04-7.04-7.04Z" style="fill: #223656;"/>
            </g>
            <g>
              <path d="M361.84,208.96c0,4.71-3.82,8.54-8.54,8.54-3.35,0-6.25-1.92-7.65-4.73-.57-1.15-.9-2.44-.9-3.8,0-4.71,3.82-8.54,8.55-8.54,2.58,0,4.89,1.15,6.45,2.96h.01c1.29,1.51,2.07,3.45,2.07,5.58h0Z" style="fill: #fafb33;"/>
              <path d="M353.3,219c-3.84,0-7.29-2.13-8.99-5.56-.7-1.4-1.05-2.91-1.05-4.47,0-5.54,4.51-10.04,10.05-10.04,2.89,0,5.63,1.25,7.54,3.42l.06.07c1.24,1.43,2.04,3.19,2.32,5.05h.11v1.5c0,5.54-4.5,10.04-10.04,10.04ZM353.3,201.93c-3.89,0-7.05,3.16-7.05,7.04,0,1.1.25,2.15.74,3.13,1.2,2.41,3.61,3.9,6.31,3.9,3.79,0,6.88-3,7.04-6.75v-.29c0-1.67-.59-3.28-1.67-4.54l-.05-.06c-1.34-1.55-3.28-2.44-5.32-2.44Z" style="fill: #223656;"/>
            </g>
            <g>
              <circle cx="384.74" cy="208.96" r="8.54" style="fill: #83d689;"/>
              <path d="M384.74,219c-5.54,0-10.04-4.5-10.04-10.04s4.5-10.04,10.04-10.04,10.04,4.5,10.04,10.04-4.5,10.04-10.04,10.04ZM384.74,201.92c-3.88,0-7.04,3.16-7.04,7.04s3.16,7.04,7.04,7.04,7.04-3.16,7.04-7.04-3.16-7.04-7.04-7.04Z" style="fill: #223656;"/>
            </g>
            <g>
              <circle cx="416.19" cy="208.96" r="8.54" style="fill: #fc6760;"/>
              <path d="M416.18,219c-5.54,0-10.04-4.5-10.04-10.04s4.5-10.04,10.04-10.04,10.04,4.5,10.04,10.04-4.5,10.04-10.04,10.04ZM416.18,201.92c-3.88,0-7.04,3.16-7.04,7.04s3.16,7.04,7.04,7.04,7.04-3.16,7.04-7.04-3.16-7.04-7.04-7.04Z" style="fill: #223656;"/>
            </g>
            <g>
              <g>
                <path d="M59.59,197.4c17.12-.67,34.24-.67,51.36,0,1.53.06,3.29,1.37,3.72,2.9,1.23,4.47,1.23,8.93,0,13.4-.43,1.54-2.19,2.84-3.72,2.9-17.12.67-34.24.67-51.36,0-1.53-.06-3.29-1.37-3.72-2.9-1.23-4.47-1.23-8.93,0-13.4.43-1.54,2.19-2.84,3.72-2.9Z" style="fill: #777df5;"/>
                <path d="M85.27,218.61c-8.6,0-17.2-.17-25.74-.5-2.22-.09-4.51-1.89-5.1-4-1.3-4.72-1.3-9.49,0-14.2.59-2.12,2.88-3.91,5.1-4h0c17.08-.67,34.4-.67,51.48,0,2.22.09,4.51,1.89,5.1,4,1.3,4.72,1.3,9.49,0,14.2-.59,2.12-2.88,3.91-5.1,4-8.54.33-17.15.5-25.75.5ZM59.65,198.9c-.93.04-2.09.94-2.33,1.81-1.15,4.18-1.15,8.42,0,12.6.24.87,1.4,1.77,2.33,1.8,17,.66,34.24.66,51.24,0,.91-.04,2.09-.95,2.33-1.81,1.15-4.18,1.15-8.42,0-12.6-.24-.87-1.4-1.77-2.33-1.8-17-.66-34.24-.66-51.24,0Z" style="fill: #223656;"/>
              </g>
              <g>
                <path d="M59.59,236.59c17.12-.67,34.24-.67,51.36,0,1.53.06,3.29,1.37,3.72,2.9,1.23,4.47,1.23,8.93,0,13.4-.43,1.54-2.19,2.84-3.72,2.9-17.12.67-34.24.67-51.36,0-1.53-.06-3.29-1.37-3.72-2.9-1.23-4.47-1.23-8.93,0-13.4.43-1.54,2.19-2.84,3.72-2.9Z" style="fill: #777df5;"/>
                <path d="M85.27,257.79c-8.6,0-17.2-.17-25.74-.5-2.22-.09-4.51-1.89-5.1-4-1.3-4.72-1.3-9.49,0-14.2.59-2.12,2.88-3.91,5.1-4h0c17.08-.67,34.4-.67,51.48,0,2.22.09,4.51,1.89,5.1,4,1.3,4.72,1.3,9.49,0,14.2-.59,2.12-2.88,3.91-5.1,4-8.54.33-17.15.5-25.75.5ZM59.65,238.08c-.92.04-2.09.95-2.33,1.81-1.15,4.18-1.15,8.42,0,12.6.24.87,1.4,1.77,2.33,1.8,17,.66,34.24.66,51.24,0,.91-.04,2.09-.95,2.33-1.81,1.15-4.18,1.15-8.42,0-12.6-.24-.87-1.4-1.77-2.33-1.8-17-.66-34.24-.66-51.24,0Z" style="fill: #223656;"/>
              </g>
              <g>
                <path d="M136.74,197.4c17.12-.67,34.24-.67,51.37,0,1.53.06,3.28,1.37,3.72,2.9,1.23,4.47,1.23,8.93,0,13.4-.43,1.54-2.19,2.84-3.72,2.9-17.12.67-34.24.67-51.37,0-1.53-.06-3.29-1.37-3.72-2.9-1.23-4.47-1.23-8.93,0-13.4.43-1.54,2.19-2.84,3.72-2.9Z" style="fill: #777df5;"/>
                <path d="M162.42,218.61c-8.6,0-17.2-.17-25.74-.5-2.22-.09-4.51-1.89-5.1-4-1.3-4.72-1.3-9.49,0-14.2.6-2.12,2.88-3.91,5.1-4h0c17.08-.67,34.4-.67,51.48,0,2.22.09,4.51,1.89,5.1,4,1.3,4.72,1.3,9.5,0,14.21-.6,2.12-2.88,3.91-5.1,4-8.54.33-17.14.5-25.75.5ZM136.8,198.9c-.93.04-2.09.94-2.33,1.81-1.15,4.17-1.15,8.41,0,12.6.24.87,1.4,1.76,2.33,1.8,17,.66,34.24.66,51.24,0,.91-.04,2.09-.95,2.33-1.81,1.15-4.17,1.15-8.42,0-12.6-.24-.87-1.4-1.77-2.33-1.8-17-.66-34.24-.66-51.24,0Z" style="fill: #223656;"/>
              </g>
              <g>
                <path d="M136.74,236.59c17.12-.67,34.24-.67,51.37,0,1.53.06,3.29,1.37,3.72,2.9,1.23,4.47,1.23,8.93,0,13.4-.43,1.54-2.19,2.84-3.72,2.9-17.12.67-34.24.67-51.37,0-1.53-.06-3.29-1.37-3.72-2.9-1.23-4.47-1.23-8.93,0-13.4.43-1.54,2.19-2.84,3.72-2.9Z" style="fill: #777df5;"/>
                <path d="M162.42,257.79c-8.6,0-17.2-.17-25.74-.5-2.22-.09-4.51-1.89-5.1-4-1.3-4.72-1.3-9.49,0-14.2.6-2.12,2.88-3.91,5.1-4h0c17.08-.67,34.4-.67,51.48,0,2.22.09,4.51,1.89,5.1,4,1.3,4.72,1.3,9.49,0,14.2-.59,2.12-2.88,3.91-5.1,4-8.54.33-17.14.5-25.75.5ZM136.8,238.08c-.92.04-2.09.95-2.33,1.81-1.15,4.17-1.15,8.41,0,12.6.24.87,1.4,1.76,2.33,1.8,17,.67,34.24.66,51.24,0,.93-.04,2.09-.94,2.33-1.81,1.15-4.17,1.15-8.42,0-12.6-.24-.85-1.42-1.77-2.33-1.8-17-.66-34.24-.66-51.24,0Z" style="fill: #223656;"/>
              </g>
              <g>
                <path d="M213.89,197.4c17.12-.67,34.24-.67,51.37,0,1.53.06,3.29,1.37,3.72,2.9,1.23,4.47,1.23,8.93,0,13.4-.43,1.54-2.19,2.84-3.72,2.9-17.12.67-34.24.67-51.37,0-1.53-.06-3.29-1.37-3.72-2.9-1.23-4.47-1.23-8.93,0-13.4.43-1.54,2.19-2.84,3.72-2.9Z" style="fill: #777df5;"/>
                <path d="M239.57,218.61c-8.6,0-17.2-.17-25.74-.5-2.23-.09-4.51-1.89-5.1-4-1.3-4.72-1.3-9.49,0-14.2.59-2.12,2.88-3.91,5.1-4h0c17.08-.67,34.4-.67,51.48,0,2.22.09,4.51,1.89,5.1,4,1.3,4.72,1.3,9.5,0,14.21-.6,2.12-2.88,3.91-5.1,4-8.54.33-17.14.5-25.75.5ZM213.95,198.9c-.93.04-2.09.94-2.33,1.81-1.15,4.18-1.15,8.42,0,12.6.24.85,1.42,1.77,2.33,1.8,17,.66,34.24.66,51.24,0,.93-.04,2.09-.94,2.33-1.81,1.15-4.17,1.15-8.41,0-12.6-.24-.87-1.4-1.77-2.33-1.8-17-.66-34.24-.66-51.24,0Z" style="fill: #223656;"/>
              </g>
              <g>
                <path d="M213.89,236.59c17.12-.67,34.24-.67,51.37,0,1.52.06,3.29,1.37,3.72,2.9,1.23,4.47,1.23,8.93,0,13.4-.43,1.54-2.19,2.84-3.72,2.9-17.12.67-34.24.67-51.37,0-1.53-.06-3.29-1.37-3.72-2.9-1.23-4.47-1.23-8.93,0-13.4.43-1.54,2.19-2.84,3.72-2.9Z" style="fill: #777df5;"/>
                <path d="M239.57,257.79c-8.6,0-17.2-.17-25.74-.5-2.23-.09-4.51-1.89-5.1-4-1.3-4.72-1.3-9.49,0-14.2.59-2.12,2.88-3.91,5.1-4h0c17.08-.67,34.4-.67,51.48,0,2.22.09,4.51,1.89,5.1,4,1.3,4.72,1.3,9.49,0,14.2-.6,2.12-2.88,3.91-5.1,4-8.54.33-17.14.5-25.75.5ZM213.95,238.08c-.93.04-2.09.94-2.33,1.81-1.15,4.18-1.15,8.42,0,12.6.24.85,1.42,1.77,2.33,1.8,17,.67,34.24.66,51.24,0,.93-.04,2.09-.94,2.33-1.81,1.15-4.17,1.15-8.41,0-12.6-.24-.85-1.42-1.77-2.33-1.8-17-.66-34.24-.66-51.24,0Z" style="fill: #223656;"/>
              </g>
            </g>
          </g>
          <path d="M44.47,177.78c-5.95,2.73-10.92,7.97-12.38,14.35-.81,3.55-.33,7.85,3.54,9.49,1.16.49,2.46.62,3.71.41,3.69-.62,6.25-3.47,7.88-6.62,1.29-2.49,2.07-5.2,3.06-7.82.98-2.62,2.21-5.23,4.19-7.21,1.84-1.83,4.07-2.83,6.36-3.79.79-.33.62-1.48-.22-1.59-5.28-.68-11.69.74-16.14,2.78Z" style="fill: #fff;"/>
          <path d="M30.02,220.33c-.16,3.69-.26,7.61,1.57,10.81.44.78,1.07,1.54,1.93,1.76,1.19.29,2.37-.54,3.16-1.48,2.43-2.88,2.97-6.87,3.2-10.63.16-2.63.33-5.43-.82-7.8-3.02-6.22-7.05-4.09-8.65,2.3-.41,1.64-.32,3.36-.39,5.04Z" style="fill: #fff;"/>
          <g style="mix-blend-mode: multiply; opacity: .28;">
            <path d="M453.39,269.93c-.51,4.62-3.53,8.59-7.85,10.31-20.51,8.17-78.95,6.09-129.3,6.24h0c-52.02.54-104.88.61-153.8.04.86-.03,81.38-3.17,153.8-9.7h0c54.38-4.9,104.19-11.7,112.26-20.53,18.9-20.65,23.48-82.66,23.48-82.66,1.23,11.59,5.62,58.31,1.41,96.29Z" style="fill: #1894d1;"/>
          </g>
        </g>
        <g>
          <g id="Layer_1-6" data-name="Layer 1">
            <circle cx="353.46" cy="105.46" r="8.55" style="fill: #fde167;"/>
            <circle cx="384.93" cy="105.46" r="8.55" style="fill: #f26066;"/>
            <path d="M424.93,105.46c0,4.72-3.83,8.55-8.55,8.55s-8.55-3.83-8.55-8.55,3.83-8.55,8.55-8.55,8.55,3.83,8.55,8.55h0Z" style="fill: #a3d92f;"/>
            <circle cx="353.46" cy="74.2" r="8.55" style="fill: #fde167;"/>
            <circle cx="384.93" cy="74.2" r="8.55" style="fill: #a3d92f;"/>
            <circle cx="416.39" cy="74.2" r="8.55" style="fill: #f26066;"/>
            <g>
              <path d="M316.23,30.76v120.82h0c-52.02.54-104.88.61-153.8.04h0c-48.37-.56-92.88-1.76-128.9-3.77-2.68,0-5.03-1.4-6.36-3.5,0,0-.03-.05-.04-.07-.73-1.15-1.14-2.51-1.14-3.96-4.28-34.7-4.58-68.41,0-100.9,0-4.17,3.38-7.54,7.54-7.54,96.91-1.76,242.15-1.76,282.71-1.12Z" style="fill: #c7eeff;"/>
              <path d="M234.12,153.52c-24.96,0-48.92-.13-71.71-.4-51.38-.6-94.77-1.87-128.97-3.77h0c-3.02,0-5.87-1.57-7.54-4.2l-.06-.1c-.87-1.39-1.34-2.99-1.36-4.64-4.41-35.75-4.41-69.77,0-101.11.06-4.94,4.09-8.93,9.04-8.93,96.69-1.75,241.23-1.77,282.73-1.12l1.48.02v123.79h-1.5c-28.35.29-55.79.44-82.11.44ZM28.44,143.57c1.13,1.76,3.02,2.79,5.08,2.79,34.24,1.9,77.59,3.17,128.92,3.77,46.4.54,97.63.53,152.29-.03V32.24c-43.34-.63-185.61-.59-281.18,1.14-3.36,0-6.07,2.71-6.07,6.04v.21c-4.4,31.13-4.4,64.95-.01,100.51v.18c.01,1.13.32,2.22.92,3.16l.05.08Z" style="fill: #223656;"/>
            </g>
            <g>
              <path d="M453.39,135.03c-.51,4.62-3.53,8.59-7.85,10.31-20.51,8.17-78.95,6.09-129.3,6.24h0V31.13h0c37.23-.64,101.21-.55,129.09,1.41,4.41.35,6.45,4.31,6.66,6.2,1.23,11.59,5.62,58.31,1.41,96.29Z" style="fill: #777df5;"/>
              <path d="M366.09,153.22c-7.32,0-14.83-.04-22.4-.07-9.08-.04-18.47-.09-27.45-.06h-1.5s0-1.5,0-1.5V29.63h1.5c36.43-.62,100.63-.6,129.2,1.41,4.99.39,7.74,4.73,8.04,7.54,1.39,13.12,5.6,58.86,1.41,96.62-.58,5.19-3.94,9.61-8.79,11.54-14.17,5.64-44.96,6.48-80,6.48ZM321.71,150.07c7.29,0,14.74.04,21.99.07,41.64.2,84.7.41,101.28-6.19,3.81-1.52,6.46-5,6.91-9.08h0c4.16-37.45-.02-82.92-1.41-95.97-.13-1.2-1.62-4.58-5.28-4.87-27.77-1.95-91.81-2-127.48-1.43v117.47c1.32,0,2.65,0,3.98,0Z" style="fill: #223656;"/>
            </g>
            <g>
              <circle cx="353.3" cy="105.3" r="8.54" style="fill: #fafb33;"/>
              <path d="M353.3,115.34c-5.54,0-10.04-4.5-10.04-10.04s4.5-10.04,10.04-10.04,10.04,4.5,10.04,10.04-4.5,10.04-10.04,10.04ZM353.3,98.26c-3.88,0-7.04,3.16-7.04,7.04s3.16,7.04,7.04,7.04,7.04-3.16,7.04-7.04-3.16-7.04-7.04-7.04Z" style="fill: #223656;"/>
            </g>
            <g>
              <circle cx="384.74" cy="105.3" r="8.54" style="fill: #fc6760;"/>
              <path d="M384.74,115.34c-5.54,0-10.04-4.5-10.04-10.04s4.5-10.04,10.04-10.04,10.04,4.5,10.04,10.04-4.5,10.04-10.04,10.04ZM384.74,98.26c-3.88,0-7.04,3.16-7.04,7.04s3.16,7.04,7.04,7.04,7.04-3.16,7.04-7.04-3.16-7.04-7.04-7.04Z" style="fill: #223656;"/>
            </g>
            <g>
              <circle cx="416.19" cy="105.3" r="8.54" style="fill: #83d689;"/>
              <path d="M416.18,115.34c-5.54,0-10.04-4.5-10.04-10.04s4.5-10.04,10.04-10.04,10.04,4.5,10.04,10.04-4.5,10.04-10.04,10.04ZM416.18,98.26c-3.88,0-7.04,3.16-7.04,7.04s3.16,7.04,7.04,7.04,7.04-3.16,7.04-7.04-3.16-7.04-7.04-7.04Z" style="fill: #223656;"/>
            </g>
            <g>
              <path d="M361.84,74.06c0,4.71-3.82,8.54-8.54,8.54-3.35,0-6.25-1.92-7.65-4.73-.57-1.15-.9-2.44-.9-3.8,0-4.71,3.82-8.54,8.55-8.54,2.58,0,4.89,1.15,6.45,2.96h.01c1.29,1.51,2.07,3.45,2.07,5.58h0Z" style="fill: #fafb33;"/>
              <path d="M353.3,84.1c-3.84,0-7.29-2.13-8.99-5.56-.7-1.4-1.05-2.91-1.05-4.47,0-5.54,4.51-10.04,10.05-10.04,2.89,0,5.63,1.24,7.54,3.41l.06.07c1.24,1.43,2.04,3.19,2.32,5.05h.11v1.5c0,5.54-4.5,10.04-10.04,10.04ZM353.3,67.03c-3.89,0-7.05,3.16-7.05,7.04,0,1.1.25,2.15.74,3.13,1.2,2.41,3.61,3.9,6.31,3.9,3.79,0,6.88-3,7.04-6.75v-.29c0-1.67-.59-3.28-1.66-4.54l-.05-.06c-1.34-1.55-3.28-2.44-5.32-2.44Z" style="fill: #223656;"/>
            </g>
            <g>
              <circle cx="384.74" cy="74.06" r="8.54" style="fill: #83d689;"/>
              <path d="M384.74,84.1c-5.54,0-10.04-4.5-10.04-10.04s4.5-10.04,10.04-10.04,10.04,4.5,10.04,10.04-4.5,10.04-10.04,10.04ZM384.74,67.02c-3.88,0-7.04,3.16-7.04,7.04s3.16,7.04,7.04,7.04,7.04-3.16,7.04-7.04-3.16-7.04-7.04-7.04Z" style="fill: #223656;"/>
            </g>
            <g>
              <circle cx="416.19" cy="74.06" r="8.54" style="fill: #fc6760;"/>
              <path d="M416.18,84.1c-5.54,0-10.04-4.5-10.04-10.04s4.5-10.04,10.04-10.04,10.04,4.5,10.04,10.04-4.5,10.04-10.04,10.04ZM416.18,67.02c-3.88,0-7.04,3.16-7.04,7.04s3.16,7.04,7.04,7.04,7.04-3.16,7.04-7.04-3.16-7.04-7.04-7.04Z" style="fill: #223656;"/>
            </g>
            <g>
              <g>
                <path d="M59.59,62.5c17.12-.67,34.24-.67,51.36,0,1.53.06,3.29,1.37,3.72,2.9,1.23,4.47,1.23,8.93,0,13.4-.43,1.54-2.19,2.84-3.72,2.9-17.12.67-34.24.67-51.36,0-1.53-.06-3.29-1.37-3.72-2.9-1.23-4.47-1.23-8.93,0-13.4.43-1.54,2.19-2.84,3.72-2.9Z" style="fill: #777df5;"/>
                <path d="M85.27,83.71c-8.6,0-17.2-.17-25.74-.5-2.22-.09-4.51-1.89-5.1-4-1.3-4.72-1.3-9.49,0-14.2.59-2.12,2.88-3.91,5.1-4h0c17.08-.67,34.4-.67,51.48,0,2.22.09,4.51,1.89,5.1,4,1.3,4.72,1.3,9.49,0,14.2-.59,2.12-2.88,3.91-5.1,4-8.54.33-17.15.5-25.75.5ZM59.65,64c-.93.04-2.09.94-2.33,1.81-1.15,4.18-1.15,8.42,0,12.6.24.87,1.4,1.77,2.33,1.8,17,.66,34.24.66,51.24,0,.91-.04,2.09-.95,2.33-1.81,1.15-4.18,1.15-8.42,0-12.6-.24-.87-1.4-1.77-2.33-1.8-17-.66-34.24-.66-51.24,0Z" style="fill: #223656;"/>
              </g>
              <g>
                <path d="M59.59,101.69c17.12-.67,34.24-.67,51.36,0,1.53.06,3.29,1.37,3.72,2.9,1.23,4.47,1.23,8.93,0,13.4-.43,1.54-2.19,2.84-3.72,2.9-17.12.67-34.24.67-51.36,0-1.53-.06-3.29-1.37-3.72-2.9-1.23-4.47-1.23-8.93,0-13.4.43-1.54,2.19-2.84,3.72-2.9Z" style="fill: #777df5;"/>
                <path d="M85.27,122.9c-8.6,0-17.2-.17-25.74-.5-2.22-.09-4.51-1.89-5.1-4-1.3-4.72-1.3-9.49,0-14.2.59-2.12,2.88-3.91,5.1-4h0c17.08-.67,34.4-.67,51.48,0,2.22.09,4.51,1.89,5.1,4,1.3,4.72,1.3,9.49,0,14.2-.59,2.12-2.88,3.91-5.1,4-8.54.33-17.15.5-25.75.5ZM59.65,103.19c-.92.04-2.09.95-2.33,1.81-1.15,4.18-1.15,8.42,0,12.6.24.87,1.4,1.77,2.33,1.8,17,.66,34.24.66,51.24,0,.91-.04,2.09-.95,2.33-1.81,1.15-4.18,1.15-8.42,0-12.6-.24-.87-1.4-1.77-2.33-1.8-17-.66-34.24-.66-51.24,0Z" style="fill: #223656;"/>
              </g>
              <g>
                <path d="M136.74,62.5c17.12-.67,34.24-.67,51.37,0,1.53.06,3.28,1.37,3.72,2.9,1.23,4.47,1.23,8.93,0,13.4-.43,1.54-2.19,2.84-3.72,2.9-17.12.67-34.24.67-51.37,0-1.53-.06-3.29-1.37-3.72-2.9-1.23-4.47-1.23-8.93,0-13.4.43-1.54,2.19-2.84,3.72-2.9Z" style="fill: #777df5;"/>
                <path d="M162.42,83.71c-8.6,0-17.2-.17-25.74-.5-2.22-.09-4.51-1.89-5.1-4-1.3-4.72-1.3-9.49,0-14.2.6-2.12,2.88-3.91,5.1-4h0c17.08-.67,34.4-.67,51.48,0,2.22.09,4.51,1.89,5.1,4,1.3,4.72,1.3,9.5,0,14.21-.6,2.12-2.88,3.91-5.1,4-8.54.33-17.14.5-25.75.5ZM136.8,64c-.93.04-2.09.94-2.33,1.81-1.15,4.17-1.15,8.41,0,12.6.24.87,1.4,1.76,2.33,1.8,17,.67,34.24.66,51.24,0,.91-.04,2.09-.95,2.33-1.81,1.15-4.17,1.15-8.42,0-12.6-.24-.87-1.4-1.77-2.33-1.8-17-.66-34.24-.66-51.24,0Z" style="fill: #223656;"/>
              </g>
              <g>
                <path d="M136.74,101.69c17.12-.67,34.24-.67,51.37,0,1.53.06,3.29,1.37,3.72,2.9,1.23,4.47,1.23,8.93,0,13.4-.43,1.54-2.19,2.84-3.72,2.9-17.12.67-34.24.67-51.37,0-1.53-.06-3.29-1.37-3.72-2.9-1.23-4.47-1.23-8.93,0-13.4.43-1.54,2.19-2.84,3.72-2.9Z" style="fill: #777df5;"/>
                <path d="M162.42,122.9c-8.6,0-17.2-.17-25.74-.5-2.22-.09-4.51-1.89-5.1-4-1.3-4.72-1.3-9.49,0-14.2.6-2.12,2.88-3.91,5.1-4.01h0c17.08-.67,34.4-.67,51.48,0,2.22.09,4.51,1.89,5.1,4,1.3,4.72,1.3,9.49,0,14.2-.6,2.12-2.88,3.91-5.1,4-8.54.33-17.14.5-25.75.5ZM136.8,103.19c-.93.04-2.09.94-2.33,1.81-1.15,4.17-1.15,8.41,0,12.6.24.87,1.4,1.77,2.33,1.8,17,.66,34.24.66,51.24,0,.93-.04,2.09-.94,2.33-1.81,1.15-4.17,1.15-8.41,0-12.6-.24-.87-1.4-1.77-2.33-1.8-17-.66-34.24-.66-51.24,0Z" style="fill: #223656;"/>
              </g>
              <g>
                <path d="M213.89,62.5c17.12-.67,34.24-.67,51.37,0,1.53.06,3.29,1.37,3.72,2.9,1.23,4.47,1.23,8.93,0,13.4-.43,1.54-2.19,2.84-3.72,2.9-17.12.67-34.24.67-51.37,0-1.53-.06-3.29-1.37-3.72-2.9-1.23-4.47-1.23-8.93,0-13.4.43-1.54,2.19-2.84,3.72-2.9Z" style="fill: #777df5;"/>
                <path d="M239.57,83.71c-8.6,0-17.2-.17-25.74-.5-2.23-.09-4.51-1.89-5.1-4-1.3-4.72-1.3-9.49,0-14.2.59-2.12,2.88-3.91,5.1-4h0c17.08-.67,34.4-.67,51.48,0,2.22.09,4.51,1.89,5.1,4,1.3,4.72,1.3,9.5,0,14.21-.6,2.12-2.88,3.91-5.1,4-8.54.33-17.14.5-25.75.5ZM213.95,64c-.93.04-2.09.94-2.33,1.81-1.15,4.18-1.15,8.42,0,12.6.24.85,1.42,1.77,2.33,1.8,17,.67,34.24.66,51.24,0,.93-.04,2.09-.94,2.33-1.81,1.15-4.17,1.15-8.41,0-12.6-.24-.87-1.4-1.77-2.33-1.8-17-.66-34.24-.66-51.24,0Z" style="fill: #223656;"/>
              </g>
              <g>
                <path d="M213.89,101.69c17.12-.67,34.24-.67,51.37,0,1.52.06,3.29,1.37,3.72,2.9,1.23,4.47,1.23,8.93,0,13.4-.43,1.54-2.19,2.84-3.72,2.9-17.12.67-34.24.67-51.37,0-1.53-.06-3.29-1.37-3.72-2.9-1.23-4.47-1.23-8.93,0-13.4.43-1.54,2.19-2.84,3.72-2.9Z" style="fill: #777df5;"/>
                <path d="M239.57,122.9c-8.6,0-17.2-.17-25.74-.5-2.23-.09-4.51-1.89-5.1-4-1.3-4.72-1.3-9.49,0-14.2.59-2.12,2.88-3.91,5.1-4h0c17.08-.67,34.4-.67,51.48,0,2.22.09,4.51,1.89,5.1,4,1.3,4.72,1.3,9.49,0,14.2-.6,2.12-2.88,3.91-5.1,4-8.54.33-17.14.5-25.75.5ZM213.95,103.19c-.93.04-2.09.94-2.33,1.81-1.15,4.18-1.15,8.42,0,12.6.24.85,1.42,1.77,2.33,1.8,17,.66,34.24.66,51.24,0,.93-.04,2.09-.94,2.33-1.81,1.15-4.17,1.15-8.41,0-12.6-.24-.85-1.42-1.77-2.33-1.8-17-.66-34.24-.66-51.24,0Z" style="fill: #223656;"/>
              </g>
            </g>
          </g>
          <path d="M44.47,42.88c-5.95,2.73-10.92,7.97-12.38,14.35-.81,3.55-.33,7.85,3.54,9.49,1.16.49,2.46.62,3.71.41,3.69-.62,6.25-3.47,7.88-6.62,1.29-2.49,2.07-5.2,3.06-7.82.98-2.62,2.21-5.23,4.19-7.21,1.84-1.83,4.07-2.83,6.36-3.79.79-.33.62-1.48-.22-1.59-5.28-.68-11.69.74-16.14,2.78Z" style="fill: #fff;"/>
          <path d="M30.02,85.43c-.16,3.69-.26,7.61,1.57,10.81.44.78,1.07,1.54,1.93,1.76,1.19.29,2.37-.54,3.16-1.48,2.43-2.88,2.97-6.87,3.2-10.63.16-2.63.33-5.43-.82-7.8-3.02-6.22-7.05-4.09-8.65,2.3-.41,1.64-.32,3.36-.39,5.04Z" style="fill: #fff;"/>
          <g style="mix-blend-mode: multiply; opacity: .28;">
            <path d="M453.39,135.03c-.51,4.62-3.53,8.59-7.85,10.31-20.51,8.17-78.95,6.09-129.3,6.24h0c-52.02.54-104.88.61-153.8.04.86-.03,81.38-3.17,153.8-9.7h0c54.38-4.9,104.19-11.7,112.26-20.53,18.9-20.65,23.48-82.66,23.48-82.66,1.23,11.59,5.62,58.31,1.41,96.29Z" style="fill: #1894d1;"/>
          </g>
        </g>
      </g>
    </g>
  </g>
</svg>