<?xml version="1.0" encoding="UTF-8"?><svg xmlns="http://www.w3.org/2000/svg" viewBox="0 0 1203.89 678.62"><g style="isolation:isolate;"><g id="Layer_1"><rect x="47.07" y="98.13" width="34.13" height="288.2" style="fill:#91dece;"/><path d="M79.7,99.63v285.2h-31.13V99.63h31.13M82.7,96.63h-37.13v291.2h37.13V96.63h0Z" style="fill:#223656;"/><path d="M81.65,364.97s-33.08-1.76-33.08-31.92v31.92s33.08,0,33.08,0Z" style="fill:#192e58;"/><path d="M64.14,107.03c5.43,0,10.65-.83,15.57-2.39v8.88c-4.3,2.09-9.54,3.31-15.21,3.31-5.98,0-11.49-1.37-15.92-3.67v-8.52c4.91,1.56,10.14,2.39,15.57,2.39Z" style="fill:#192e58;"/><path d="M64.14,108.53c-5.49,0-10.88-.83-16.02-2.46-22.34-7.03-37.35-27.54-37.35-51.05C10.77,25.51,34.71,1.5,64.14,1.5s53.37,24.01,53.37,53.52c0,23.51-15.01,44.03-37.36,51.05-5.14,1.63-10.53,2.46-16.01,2.46Z" style="fill:#f05b30;"/><path d="M64.14,3c28.64,0,51.87,23.28,51.87,52.02,0,23.28-15.26,43.01-36.31,49.62-4.91,1.56-10.14,2.39-15.57,2.39s-10.65-.83-15.57-2.39c-21.04-6.62-36.31-26.34-36.31-49.62h0C12.27,26.28,35.49,3,64.14,3M64.14,0C33.88,0,9.27,24.68,9.27,55.02c0,11.94,3.75,23.3,10.85,32.85,6.87,9.23,16.65,16.21,27.55,19.64,5.28,1.68,10.82,2.53,16.47,2.53s11.18-.85,16.47-2.53c10.89-3.43,20.68-10.4,27.54-19.63,7.1-9.55,10.85-20.91,10.85-32.85C119.01,24.68,94.39,0,64.14,0h0Z" style="fill:#223656;"/><g style="mix-blend-mode:soft-light; opacity:.5;"><path d="M12.27,55.02c0,28.72,23.23,52.02,51.87,52.02,16.87,0,31.87-8.08,41.35-20.6-8.65,6.47-19.38,10.29-30.99,10.29-28.64,0-51.87-23.28-51.87-52.02,0-11.81,3.93-22.69,10.55-31.43-12.68,9.48-20.91,24.64-20.91,41.74Z"/><path d="M28.45,18.64c-4.48,7.92-6.83,16.81-6.83,26.07,0,29.23,23.72,53.02,52.87,53.02,9.08,0,17.81-2.27,25.6-6.61-9.49,9.55-22.27,14.91-35.96,14.91-28.05,0-50.87-22.89-50.87-51.02,0-13.91,5.46-26.83,15.19-36.38M33.18,13.28c-12.68,9.48-20.91,24.64-20.91,41.74,0,28.72,23.23,52.02,51.87,52.02,16.87,0,31.87-8.08,41.35-20.6-8.65,6.47-19.38,10.29-30.99,10.29-28.64,0-51.87-23.28-51.87-52.02,0-11.81,3.93-22.69,10.55-31.43h0Z"/><g style="mix-blend-mode:soft-light; opacity:.4;"><path d="M12.27,55.02c0,28.72,23.23,52.02,51.87,52.02,16.87,0,31.87-8.08,41.35-20.6-8.65,6.47-19.38,10.29-30.99,10.29-28.64,0-51.87-23.28-51.87-52.02,0-11.81,3.93-22.69,10.55-31.43-12.68,9.48-20.91,24.64-20.91,41.74Z"/></g></g><path d="M63.74,11.19c10.94-4.79,27.03,9.19,25.79,12.44-.57,1.5-4.02-.14-13.32,1.65-7.38,1.42-9.62,3.31-13.19,1.91-3-1.18-5.93-4.28-5.93-7.76,0-4.04,3.97-7.08,6.64-8.25Z" style="fill:#ffe;"/><ellipse cx="98.39" cy="31.37" rx="3.82" ry="6.14" transform="translate(10.48 85.56) rotate(-49.33)" style="fill:#ffe;"/><path d="M74.81,543.67c-15.05,0-30.66-1.77-46.42-5.25-12.2-2.09-24.02-15-25.21-27.62-2.64-30.9-3.08-62.27-1.31-93.26.1-1.68.16-3.4.23-5.15.37-9.65.74-19.63,6.14-27.81,5.13-7.77,12.69-13.16,20.23-14.41l.22-.04c.14-.03.34-.07.6-.12,18.06-3.73,31.86-4.51,40.25-4.51,1.12,0,2.24.01,3.36.04.67-.01,1.4-.02,2.13-.02,11.12,0,21.91,1.4,29,2.57,13.71,2.27,14.07,2.82,14.08,3.99,6.94,54.95,6.94,110.67-.01,165.62l-.13,1.04-1.02.23c-5.04,1.14-10.16,2.09-15.22,2.81-2.46.35-5.03.66-7.64.92-6.33.64-12.82.97-19.27.97h0Z" style="fill:#f05b30;"/><path d="M69.54,366.99c1.11,0,2.22.01,3.33.04.72-.01,1.45-.02,2.17-.02,21.24,0,41.58,5.09,41.58,5.16,6.97,55.11,6.97,110.23,0,165.34-5.02,1.14-10.05,2.07-15.1,2.79-2.53.36-5.06.66-7.58.91-6.36.64-12.73.96-19.12.96-15.27,0-30.64-1.8-46.1-5.22-11.92-2.04-22.93-14.54-24.04-26.3-2.65-31.01-3.08-62.02-1.31-93.03.61-10.68-.02-22.91,6.12-32.22,4.34-6.58,11.25-12.44,19.23-13.76,0,0,0,0,0,0,.35,0,20.19-4.65,40.82-4.65M69.54,363.99h0c-8.46,0-22.36.79-40.55,4.54-.25.05-.44.09-.57.12l-.2.03c-7.94,1.32-15.88,6.95-21.24,15.07-5.63,8.54-6.03,19.19-6.39,28.58-.07,1.78-.13,3.45-.23,5.12-1.77,31.05-1.33,62.5,1.32,93.46,1.27,13.46,13.37,26.71,26.45,28.99,15.84,3.5,31.54,5.27,46.68,5.27,6.51,0,13.04-.33,19.43-.97,2.63-.26,5.23-.57,7.7-.92,5.1-.73,10.26-1.68,15.34-2.83l2.05-.47.26-2.08c6.96-55.07,6.97-110.91.01-165.98-.15-2.15-2.19-2.65-3.2-2.9-.53-.13-1.41-.34-2.67-.61-2.04-.44-5.34-1.12-9.46-1.8-7.15-1.18-18.03-2.59-29.24-2.59-.72,0-1.44,0-2.16.02-1.09-.03-2.21-.04-3.34-.04h0Z" style="fill:#223656;"/><g style="mix-blend-mode:soft-light; opacity:.3;"><path d="M1.56,403.73c.04-.61.09-1.21.14-1.82-.11.14-.17.76-.14,1.82ZM3.36,417.62c-1.77,31.01-1.34,62.02,1.31,93.03,1.11,11.76,12.12,24.26,24.04,26.3,21.92,4.85,43.67,6.44,65.22,4.26-2.2-.13-4.35-.4-6.47-.8,0,0-2.21-.42-4.45-1.06-26.81-7.65-44.88-26.1-44.88-26.1-18.63-19.03-23.74-43.18-33.54-89.59-.54-2.57-.96-4.69-1.23-6.04Z"/></g><g style="mix-blend-mode:soft-light; opacity:.4;"><path d="M4.67,510.65c1.11,11.76,12.12,24.26,24.04,26.3,21.92,4.85,43.67,6.44,65.22,4.26.85.06,1.71.09,2.58.09,2.3-.31,4.6-.66,6.89-1.05-.01,0-.68.03-1.89.05h-.02c-3.17.06-10.03.03-18.48-.95-3.8-.43-7.92-1.06-12.17-1.96-17.3-3.18-36.83-10.81-43.89-16.54-8.2-7.09-16.34-39.04-19.8-68.48-1.33-10.19-2.11-20.09-2.56-28.71-.32-6.4-.47-12.1-.53-16.7-.27,3.55-.5,7.11-.7,10.66-1.77,31.01-1.34,62.02,1.31,93.03Z"/></g><path d="M388.26,677.12c-6.4,0-11.61-5.22-11.61-11.64v-38.35h536.77v38.35c0,6.42-5.21,11.64-11.61,11.64H388.26Z" style="fill:#f05b30;"/><path d="M911.93,628.63v36.85c0,5.59-4.53,10.14-10.11,10.14H388.26c-5.58,0-10.11-4.54-10.11-10.14v-36.85h533.77M914.93,625.63H375.16v39.85c0,7.24,5.88,13.14,13.11,13.14h513.56c7.23,0,13.11-5.89,13.11-13.14v-39.85h0Z" style="fill:#223656;"/><g style="mix-blend-mode:soft-light; opacity:.7;"><path d="M911.93,638.07H378.16s0,14.05,0,14.05c82.36,4.82,169.18,7.66,260.09,7.79,95.88.14,187.26-2.74,273.68-7.79v-14.05Z"/></g><path d="M649.05,646.58c-171.22,0-344.55-1.72-515.15-5.1-12.51-.25-24.26-10.55-26.21-22.95-16.96-108.96-16.96-219.46,0-328.42,1.95-12.4,13.71-22.69,26.21-22.94,170.94-3.39,344.26-5.11,515.15-5.11,28.35,0,57.03.05,85.24.15,143.15.47,287.79,2.14,429.91,4.96,12.51.25,24.26,10.54,26.21,22.94,13.26,85.19,16.16,171.83,8.63,257.51-2.08,23.66-4.99,47.52-8.63,70.91-1.95,12.4-13.71,22.69-26.21,22.95-170.65,3.38-343.97,5.1-515.15,5.1Z" style="fill:#91dece;"/><path d="M649.05,263.56c28.35,0,56.77.05,85.23.15,143.11.47,287.34,2.13,429.89,4.96,11.82.24,22.92,9.96,24.76,21.67,13.27,85.27,16.15,171.47,8.62,257.15-2.08,23.65-4.95,47.27-8.62,70.81-1.84,11.71-12.94,21.44-24.76,21.68-170.9,3.39-344.22,5.1-515.12,5.1s-344.22-1.71-515.12-5.1c-11.81-.24-22.92-9.97-24.76-21.68-16.94-108.81-16.94-219.15,0-327.96,1.84-11.71,12.95-21.43,24.76-21.67,170.91-3.39,344.22-5.11,515.12-5.11M649.05,260.56c-170.88,0-344.21,1.72-515.18,5.11-13.2.27-25.61,11.13-27.66,24.2-16.99,109.12-16.99,219.77,0,328.89,2.06,13.09,14.47,23.95,27.66,24.22,170.63,3.38,343.96,5.1,515.18,5.1s344.55-1.72,515.18-5.1c13.2-.27,25.61-11.13,27.66-24.21,3.65-23.43,6.56-47.32,8.65-71.01,7.54-85.8,4.63-172.56-8.64-257.87-2.06-13.08-14.47-23.94-27.66-24.21-142.13-2.82-286.78-4.49-429.94-4.96-28.29-.1-56.97-.15-85.24-.15h0Z" style="fill:#223656;"/><g style="mix-blend-mode:soft-light; opacity:.4;"><path d="M109.2,292.47c-16.94,108.99-16.94,217.97,0,326.96,1.75,11.2,12.42,20.45,23.56,20.68,343.25,6.81,686.5,6.81,1029.75,0-186.05-10.4-341.76-15.07-450.45-16.95-279.45-4.99-448.47,8.29-525.44-50.41-32.24-24.83-55.53-75.86-67-130.17-12-54.32-12.19-111.91-10.42-150.1Z"/></g><g style="mix-blend-mode:soft-light; opacity:.4;"><path d="M734.28,263.71c136.53,5.49,273.7,11.99,411.43,19.24,14.74.78,28.43,12.53,31.3,27.18,15.41,79.26,22.52,158.38,20.54,237.36,7.53-85.68,4.65-171.88-8.62-257.15-1.84-11.71-12.94-21.43-24.76-21.67-142.55-2.83-286.78-4.49-429.89-4.96Z"/></g><rect x="176.65" y="324.66" width="944.81" height="259.34" rx="9" ry="9" transform="translate(1298.11 908.66) rotate(-180)" style="fill:#192e58; stroke:#223656; stroke-miterlimit:10;"/><path d="M663.57,353.61v201.44c0,5.54,4.47,10.03,10,10.03h109.41c5.51,0,9.99-4.49,9.99-10.03v-201.44c0-5.53-4.48-10.02-9.99-10.02h-109.41c-5.53,0-10,4.49-10,10.02h0Z" style="fill:#c7eeff;"/><path d="M509.12,353.6v201.46c0,5.53,4.48,10.02,10,10.02h109.41c5.52,0,10-4.49,10-10.02v-201.46c0-5.52-4.48-10.01-10-10.01h-109.41c-5.52,0-10,4.49-10,10.01h0Z" style="fill:#c7eeff;"/><path d="M354.67,353.6v201.46c0,5.53,4.47,10.02,9.99,10.02h109.42c5.51,0,9.99-4.49,9.99-10.02v-201.46c0-5.52-4.48-10.01-9.99-10.01h-109.42c-5.52,0-9.99,4.49-9.99,10.01h0Z" style="fill:#c7eeff;"/><path d="M972.48,353.6v201.46c0,5.53,4.48,10.02,10,10.02h109.42c5.51,0,9.99-4.49,9.99-10.02v-201.46c0-5.52-4.48-10.01-9.99-10.01h-109.42c-5.52,0-10,4.49-10,10.01h0Z" style="fill:#c7eeff;"/><path d="M818.03,353.6v201.46c0,5.53,4.47,10.02,10,10.02h109.41c5.52,0,10-4.49,10-10.02v-201.46c0-5.52-4.48-10.01-10-10.01h-109.41c-5.53,0-10,4.49-10,10.01h0Z" style="fill:#c7eeff;"/><path d="M196.23,353.6v201.46c0,5.53,4.47,10.02,10,10.02h109.41c5.52,0,10-4.49,10-10.02v-201.46c0-5.52-4.48-10.01-10-10.01h-109.41c-5.53,0-10,4.49-10,10.01h0Z" style="fill:#c7eeff;"/><path d="M1101.88,451.26h-129.4s0,103.79,0,103.79c0,5.53,4.48,10.02,10,10.02h109.42c5.51,0,9.99-4.49,9.99-10.02v-103.79s0,0,0,0Z" style="fill:#e9f9ff;"/><path d="M947.43,451.26h-129.4s0,103.79,0,103.79c0,5.53,4.47,10.02,10,10.02h109.41c5.52,0,10-4.49,10-10.02v-103.79s0,0,0,0Z" style="fill:#e9f9ff;"/><path d="M792.97,451.26h-129.39s0,103.78,0,103.78c0,5.54,4.47,10.03,10,10.03h109.41c5.51,0,9.99-4.49,9.99-10.03v-103.78s0,0,0,0Z" style="fill:#e9f9ff;"/><path d="M638.52,451.26h-129.4s0,103.79,0,103.79c0,5.53,4.48,10.02,10,10.02h109.41c5.52,0,10-4.49,10-10.02v-103.79s0,0,0,0Z" style="fill:#e9f9ff;"/><path d="M484.06,451.26h-129.39s0,103.79,0,103.79c0,5.53,4.47,10.02,9.99,10.02h109.42c5.51,0,9.99-4.49,9.99-10.02v-103.79s0,0,0,0Z" style="fill:#e9f9ff;"/><path d="M196.23,451.26v103.79c0,5.53,4.47,10.02,10,10.02h109.41c5.52,0,10-4.49,10-10.02v-103.79s-129.4,0-129.4,0h0Z" style="fill:#e9f9ff;"/><path d="M468.74,410.91c1.69,1.51,2.54,3.57,2.54,6.16s-1.24,4.87-3.73,6.8c.28.71.42,1.59.42,2.66s-.22,2.11-.67,3.12c-.44,1.01-1.02,1.88-1.73,2.58-1.4,1.28-2.86,1.92-4.37,1.92-3.14,0-5.18-.43-6.12-1.28.14-.33.35-.65.64-.95s.54-.67.78-1.09c.61-1.19.92-2.8.92-4.86s-.46-4.01-1.4-5.88c-.94-1.86-2.3-3.44-4.08-4.71-3.38-2.41-8.26-3.62-14.65-3.62-4.79,0-8.68,1.6-11.68,4.81-3.28,3.45-4.93,8.31-4.93,14.6v12.34c4.55-2.5,9.55-3.76,14.99-3.76s10.2.42,14.25,1.24c4.06.83,7.68,2.21,10.88,4.15,6.52,3.92,10.87,10.23,13.02,18.92.94,3.82,3.16,6.78,6.69,8.86-3.52,1.99-5.9,5.23-7.15,9.74-1.24,4.51-2.83,8.72-4.75,12.61-1.92,3.9-4.39,7.22-7.39,9.95-6.29,5.72-15.27,8.57-26.97,8.57-18.91,0-31.98-7.63-39.21-22.89-2.68-5.63-4.44-12.61-5.28-20.97-.37-3.5-1.37-6.53-2.99-9.1-1.62-2.57-3.49-4.38-5.6-5.42,5.02-2.36,7.87-6.62,8.55-12.75s2.39-11.7,5.1-16.65c2.72-4.96,6.18-9.21,10.35-12.75,8.77-7.37,19.17-11.06,31.18-11.06,5.49,0,9.55.5,12.18,1.49,2.82,1.04,5,1.56,6.55,1.56,1.31,0,1.97-.82,1.97-2.48,0-.94-.16-1.99-.5-3.12,1.22-.71,2.58-1.06,4.08-1.06s2.76.14,3.77.43,1.91.73,2.71,1.35c1.92,1.42,2.89,3.2,2.89,5.35s-.42,3.88-1.26,5.21h-.01ZM405.74,492.26c.71-.28,1.05-.78,1.05-1.49,0-1.04-.5-2.67-1.48-4.89-2.49-5.72-3.73-15.87-3.73-30.47,0-10.96,1.31-20.31,3.94-28.06.32-1.19.5-2.08.5-2.7s-.3-1.01-.92-1.21c-2.3,2.88-3.89,5.57-4.79,8.08-1.69,4.72-3.05,11.29-4.08,19.7-.09.9-1.24,2.06-3.45,3.48-.52.33-.99.57-1.4.71,1.78.8,3.02,1.63,3.73,2.48.71.85,1.08,1.46,1.12,1.84,1.17,10.11,2.29,16.92,3.38,20.4,1.6,4.92,3.64,8.95,6.12,12.12v-.02ZM420.66,486.74c0,8.41,2.91,13.87,8.73,16.37,1.83.8,3.65,1.21,5.46,1.21s3.38-.33,4.72-.99c1.33-.66,2.5-1.67,3.49-3.05,2.2-2.98,3.31-7.25,3.31-12.82v-22.18c0-5.38-1.05-9.4-3.16-12.05-2.11-2.65-4.93-3.97-8.45-3.97-6.34,0-10.65,3.02-12.96,9.07-.75,2.08-1.12,4.49-1.12,7.23v21.18h-.01ZM449.66,451.66c2.49,5.63,3.73,12.68,3.73,21.18s-.27,14.29-.81,18.21-.93,6.16-1.16,6.73c1.92-.38,3.59-3.9,5-10.56.42-1.99.85-4.16,1.26-6.52.8-4.35,2.49-6.96,5.06-7.87-1.36-.43-2.49-1.32-3.38-2.7-.89-1.37-1.58-3.48-2.04-6.3-.46-2.84-1.46-5.5-2.96-8.01s-3.07-3.89-4.72-4.18h.01Z" style="fill:#f05b30;"/><path d="M714.84,510.22c-2.75,2.38-5.27,3.57-7.56,3.57s-4.02-.56-5.18-1.68c-1.16-1.11-1.74-2.58-1.74-4.4,1.09-.53,1.92-1.09,2.49-1.71-.81-2.43-1.2-5.33-1.2-8.72s.58-6.78,1.74-10.19c1.16-3.41,2.87-6.61,5.14-9.61,4.07-5.29,10.91-10.81,20.52-16.58,5.73-3.86,9.77-7.76,12.14-11.72,2.84-4.86,4.26-11.01,4.26-18.44,0-13.91-4.71-20.87-14.13-20.87-4.78,0-8.82,1.67-12.14,5-3.55,3.58-5.33,8.45-5.33,14.65s1.2,10.81,3.62,13.87c-1.09.9-2.21,1.36-3.38,1.36s-2.35-.22-3.59-.68-2.37-1.14-3.41-2.04c-2.37-2.19-3.55-4.77-3.55-7.75s.37-5.32,1.13-7.03c-2.51-1.67-3.76-3.83-3.76-6.51s.9-4.96,2.7-6.86c-1.52-1.96-2.27-3.75-2.27-5.39s.22-3.05.68-4.22c.44-1.17,1.1-2.2,1.95-3.11,1.75-1.85,3.88-2.79,6.39-2.79,1.23,0,2.37.26,3.41.79-.67.9-.99,1.85-.99,2.86,0,1.29.71,1.93,2.13,1.93.95,0,2.7-.43,5.26-1.29,4.69-1.57,9.86-2.36,15.54-2.36,5.68,0,10.26.35,13.74,1.07,3.48.72,6.64,1.85,9.48,3.43,5.73,3.14,10.22,8.31,13.48,15.51,1.52,3.48,3.76,6.1,6.74,7.86-2.84,1.62-5.21,4.81-7.1,9.58-3.46,8.48-9.16,15.49-17.11,21.01-2.75,1.85-6.32,3.87-10.72,6.04-4.41,2.17-8.43,4.35-12.07,6.54-3.65,2.19-6.6,4.24-8.87,6.14-4.21,3.53-6.77,7.17-7.66,10.94,6.58,1.15,13.56,1.71,20.94,1.71,7.38,0,12.54-.22,15.47-.68,2.93-.46,5.28-1.16,7.02-2.11,3.26-1.66,4.9-4.38,4.9-8.15,0-1.38-.28-2.57-.85-3.58.28-.67,1.09-1,2.42-1s2.5.26,3.52.79,1.9,1.22,2.66,2.07c1.61,1.91,2.42,4.31,2.42,7.22s-1.16,5.57-3.48,8.01c1.8,1.2,2.7,2.86,2.7,5.01s-.62,3.83-1.85,5.08c.67,1.09.99,2.2.99,3.32s-.2,2.07-.61,2.86-.93,1.44-1.6,1.97c-1.42,1.04-3.21,1.57-5.4,1.57s-4.21-.48-6.1-1.43c-6.86.95-13.95,1.43-21.27,1.43-7.32,0-14.87-.76-22.68-2.29l.02.03ZM761.56,495.42c-5.01,2.24-13.02,3.35-23.99,3.35s-18.56-.93-22.72-2.79c-.19.28-.21.72-.07,1.29s.4,1.09.78,1.57,1.4.93,3.09,1.36c1.68.43,3.61.76,5.78,1,3.32.43,6.91.64,10.79.64s7.06-.05,9.55-.14c2.49-.09,4.81-.26,6.99-.5,5.06-.62,8.1-1.59,9.09-2.93.62-.81.85-1.76.71-2.86h0ZM746.65,410.89c3.5,3.95,5.26,10.15,5.26,18.58s-.67,13.96-1.99,17.15c1.89-.39,3.53-2.38,4.9-6,.48-1.34.84-2.72,1.1-4.15.26-1.43.48-2.54.64-3.35.16-.81.43-1.52.82-2.14.71-1.24,1.96-2.17,3.76-2.79-1.89-.62-3.05-1.28-3.48-1.97s-.74-1.37-.92-2.04l-.71-2.5c-1.18-4.24-3.24-7.39-6.18-9.44-.99-.72-2.06-1.17-3.19-1.36h-.01Z" style="fill:#f05b30;"/><path d="M269.29,511.72c-2.81,1.99-5.99,2.5-9.52,1.53-4.17-1.12-6.25-3.82-6.25-8.09s.8-8.3,2.4-12.22c1.6-3.91,3.05-7.3,4.36-10.17l10.98-22.53,20.36-36.75c-5.29-1.41-10.88-2.12-16.8-2.12s-10.72.41-14.4,1.24c-3.68.83-6.71,1.94-9.09,3.35-4.8,2.72-7.2,6.13-7.2,10.21,0,1.41.29,2.63.87,3.65-.29.68-1.12,1.02-2.47,1.02s-2.56-.27-3.6-.8c-1.04-.53-1.95-1.24-2.73-2.11-1.65-1.94-2.47-4.36-2.47-7.26s1.14-5.41,3.42-7.55c-1.75-1.31-2.62-3.04-2.62-5.18s.63-3.84,1.89-5.11c-1.65-2.53-2.47-4.93-2.47-7.22s.22-4.11.65-5.47c.44-1.36,1.02-2.55,1.75-3.57,1.7-2.28,3.73-3.43,6.11-3.43-.19,5.2,2.18,7.8,7.13,7.8,1.45,0,5.09-.29,10.91-.87,5.33-.53,11.79-.8,19.38-.8,7.59,0,15.62,1.14,24.11,3.43,1.75-2.29,3.59-3.43,5.53-3.43,2.81,0,4.22,1.63,4.22,4.89,0,1.9-.83,4.57-2.47,8.02l-3.56,7.37c-15.76,32.09-23.64,57.98-23.64,77.67,0,5.64,3.25,8.46,9.75,8.46,1.65,0,3-.41,4.07-1.24.53.73.8,1.58.8,2.55s-.28,1.87-.84,2.7c-.56.83-1.27,1.56-2.15,2.19-1.94,1.26-4.23,1.9-6.87,1.9s-5.13-.51-7.45-1.53c-4.27,2.24-8.29,2.07-12.07-.51ZM250.75,413.27c3.49-1.9,10.18-2.84,20.07-2.84s17.11,1.14,21.67,3.43c.14-1.46-.18-2.61-.98-3.46-.8-.85-2.9-1.6-6.29-2.26s-6.99-.98-10.8-.98-6.81.07-9.02.22c-2.21.15-4.23.36-6.07.66-3.98.54-6.46,1.25-7.45,2.15-.99.9-1.37,1.93-1.13,3.1ZM283.91,449.66c-14.3,25.28-21.45,41.93-21.45,49.95,0,1.75.48,3,1.45,3.76.97.75,2.52,1.13,4.65,1.13-.73-1.12-1.09-2.21-1.09-3.28v-2.48c0-3.69,2.04-10.4,6.11-20.13,4.27-9.87,6.96-16.16,8.07-18.89l2.18-5.54c.53-1.41.8-2.44.8-3.1s-.24-1.13-.73-1.42Z" style="fill:#f05b30;"/><path d="M548.61,498.4c-2.33-3.55-4.04-7.15-5.13-10.79-1.09-3.65-2.29-6.15-3.6-7.51-1.31-1.36-2.74-2.48-4.29-3.35,3.64-2.14,5.94-4.89,6.91-8.24,1.45-5.35,5.45-10.11,12-14.29,1.94-1.21,3.93-2.19,5.96-2.92-5.72-3.55-9.89-8.14-12.51-13.78l-1.45-3.14c-1.45-3.31-3.39-5.64-5.82-7,1.94-.92,3.27-1.87,4-2.84.97-1.31,2.08-3.45,3.35-6.42,1.26-2.96,3.1-5.72,5.53-8.28,2.42-2.55,5.24-4.63,8.44-6.23,6.06-3.11,13.86-4.67,23.42-4.67,9.55,0,17.43,1.57,23.63,4.7,6.21,3.14,10.86,8.3,13.96,15.5,1.65,3.79,3.95,6.54,6.91,8.24-2.86,1.6-5.14,4.23-6.84,7.88-3.44,7.44-7.66,12.79-12.65,16.04,6.5,2.24,11.61,6.22,15.34,11.96,1.12,1.75,1.85,3.32,2.22,4.7.36,1.39.81,2.52,1.34,3.39.53.87,1.14,1.65,1.82,2.33,1.12,1.22,2.4,2.24,3.85,3.06-3.39,1.9-5.89,5.08-7.49,9.55-1.6,4.47-3.64,8.48-6.11,12.03-2.47,3.55-5.43,6.47-8.87,8.75-6.69,4.47-15.66,6.71-26.91,6.71-12.27,0-21.72-2.21-28.36-6.64-3.44-2.28-6.33-5.2-8.65-8.75ZM558.8,497.38c-3.2-8.02-4.8-14.9-4.8-20.64,0-4.91.46-8.45,1.38-10.61.92-2.16,1.79-3.95,2.62-5.36-3.39.58-6.01,3.89-7.85,9.92-.58,1.85-1.33,3.2-2.25,4.05-.92.85-2.13,1.52-3.64,2.01,2.91.92,4.84,3.04,5.78,6.34s1.81,5.81,2.58,7.51c.77,1.7,1.53,3.04,2.25,4.01,1.16,1.6,2.47,2.53,3.93,2.77ZM563.67,443.34c-3.2-4.42-4.8-10.21-4.8-17.36,0-5.54,1.84-10.96,5.53-16.26-1.7.29-3.47,1.37-5.31,3.24-1.84,1.87-3.32,4.63-4.44,8.28-.78,2.19-2.18,3.94-4.22,5.25-.63.39-1.24.68-1.82.87,2.96.97,4.85,2.55,5.67,4.74,1.5,3.89,2.95,6.7,4.33,8.42,1.38,1.73,3.07,2.66,5.05,2.81ZM571.59,488.27c0,4.96,1.45,8.9,4.36,11.81,2.62,2.62,5.84,3.94,9.67,3.94,3.78,0,6.88-1.31,9.31-3.94,2.71-2.87,4.07-6.81,4.07-11.81v-16.99c0-6.46-2.86-10.45-8.58-11.96-1.6-.39-3.24-.58-4.91-.58s-3.34.29-5.02.87c-1.67.58-3.16,1.41-4.47,2.48-2.96,2.43-4.44,5.49-4.44,9.19v16.99ZM581.63,448.45c1.41.34,2.73.51,3.96.51s2.52-.17,3.86-.51c1.33-.34,2.53-.97,3.6-1.9,2.52-2.09,3.78-5.42,3.78-9.99v-16.26c0-3.35-1.16-6.15-3.49-8.39-2.18-2.09-4.75-3.14-7.71-3.14s-5.33.75-7.13,2.26c-3.15,2.58-4.73,5.49-4.73,8.75v16.77c0,6.66,2.62,10.62,7.85,11.89ZM602.86,443.34c1.21-.19,2.08-.8,2.62-1.82.87-1.65,1.53-3.72,1.96-6.2s.79-4.02,1.05-4.63c.27-.61.62-1.1,1.05-1.49.83-.73,2.01-1.34,3.56-1.82-1.84-.63-3.19-1.59-4.03-2.88-.85-1.29-1.38-2.54-1.6-3.76-.22-1.22-.57-2.47-1.05-3.76-.49-1.29-1.02-2.39-1.6-3.32-1.31-1.94-2.59-3.01-3.86-3.21l.73,1.6c1.16,2.43,1.75,7.54,1.75,15.31v4.81c0,4.96-.2,8.68-.58,11.16ZM603.81,460.77c1.21,2.72,1.82,6.72,1.82,12s-.06,9.03-.18,11.27c-.12,2.24-.28,4.26-.47,6.05-.39,3.5-.85,5.91-1.38,7.22,1.55-.29,2.69-1.07,3.42-2.33,1.16-1.99,2.06-4.79,2.69-8.39,1.07-5.64,2.93-8.92,5.6-9.84-3.15-.97-4.97-2.95-5.45-5.94-.49-2.99-1.3-5.35-2.44-7.07-1.14-1.73-2.34-2.71-3.6-2.95Z" style="fill:#f05b30;"/><path d="M894.39,513.79c-25.11,0-39.46-15.65-43.05-46.96-.73-6.37-3.2-10.57-7.42-12.62,4.22-1.99,6.7-6.09,7.45-12.29.75-6.2,2.27-11.96,4.55-17.28,2.28-5.32,5.24-9.88,8.87-13.67,7.51-7.78,17.43-11.67,29.74-11.67s22.08,3.62,29.31,10.87c7.22,7.25,11.64,18.01,13.23,32.31.63,5.83,3.1,9.75,7.42,11.74-4.22,2.09-6.73,6.6-7.53,13.53-.8,6.93-2.34,13.31-4.62,19.14-2.28,5.83-5.24,10.75-8.87,14.73-7.32,8.12-17.02,12.18-29.09,12.18ZM867.85,493.01c.73-.29,1.09-.8,1.09-1.53,0-1.07-.51-2.75-1.53-5.03-2.57-5.88-3.85-16.63-3.85-32.23,0-11.38,1.36-21.05,4.07-29.02.34-1.21.51-2.14.51-2.77s-.32-1.05-.95-1.24c-2.28,2.87-3.9,5.71-4.87,8.53-1.79,5.15-3.23,12.13-4.29,20.93-.15,1.26-1.58,2.46-4.29,3.57,2.71,1.22,4.14,2.46,4.29,3.72,1.75,15.07,3.97,25.14,6.69,30.19.92,1.8,1.96,3.43,3.13,4.89ZM894.39,504.02c7.95,0,11.93-5.18,11.93-15.53v-63.44c0-7.44-2.33-12.4-6.98-14.88-1.5-.78-3.15-1.17-4.95-1.17-3.78,0-6.82,1.38-9.13,4.16s-3.45,6.73-3.45,11.89v63.44c0,5.01,1.08,8.85,3.24,11.52,2.16,2.67,5.27,4.01,9.34,4.01ZM918.17,458.73c0-2.43,1.65-4.2,4.95-5.32-3.3-1.02-4.95-3.35-4.95-7v-5.91c0-11.47-1.62-17.91-4.87-19.33v71.83c2.18-.87,3.54-3.91,4.07-9.12.53-4.91.8-13.3.8-25.16Z" style="fill:#f05b30;"/><path d="M1061.08,511.46c-2.47,1.56-5.28,2.33-8.44,2.33s-5.96-.78-8.44-2.33c-2.47,1.56-4.76,2.33-6.87,2.33s-3.84-.18-5.2-.55c-1.36-.36-2.55-.86-3.56-1.49-2.09-1.26-3.13-2.84-3.13-4.74,0-.97.27-1.82.8-2.55,1.07.83,2.42,1.24,4.07,1.24,4.31,0,7.3-1.85,8.94-5.54v-35.66c0-2.24-.46-3.89-1.38-4.96-1.45-1.8-3.95-3.57-7.49-5.32,3.3-1.51,5.43-2.84,6.4-4.01,1.65-1.9,2.47-4.03,2.47-6.42l.07-15.75c0-4.28-1.32-6.42-3.96-6.42s-4.93,1.12-6.87,3.35c-.68-.58-1.02-1.41-1.02-2.48s.18-2.26.54-3.57c.36-1.31.98-2.65,1.85-4.01,2.08-3.26,5.09-5.62,9.02-7.07,1.94-.73,3.71-1.09,5.31-1.09s2.93.1,4,.29c3.83-4.86,7.15-7.46,9.96-7.8,2.81-.34,5.06.06,6.73,1.2s2.51,3.05,2.51,5.72v1.75c0,.68-.03,1.41-.07,2.19-.05.78-.1,1.56-.15,2.33-.05.78-.12,1.51-.22,2.19-.1.68-.21,1.65-.33,2.92-.12,1.26-.23,2.65-.33,4.16-.19,3.01-.29,6.25-.29,9.7v12.4c0,2.38.51,4.16,1.53,5.32,1.6,1.9,4.05,3.6,7.35,5.1-3.54,1.75-5.79,3.19-6.76,4.3-1.41,1.75-2.11,3.74-2.11,5.98v35.66c1.65,3.7,4.63,5.54,8.94,5.54,1.65,0,3-.41,4.07-1.24.53.73.8,1.57.8,2.52s-.28,1.84-.84,2.66c-.56.83-1.32,1.53-2.29,2.12-2.23,1.36-4.78,2.04-7.64,2.04-2.86,0-5.53-.78-8-2.33ZM1046.24,493.01c2.42-.92,3.76-4.11,4-9.55.29-5.44.44-12.97.44-22.57s-.01-15.85-.04-18.74c-.03-2.89-.06-5.14-.11-6.75-.05-1.6-.14-2.8-.29-3.57l-.36-2.62c-.44-2.58-1.65-4.33-3.64-5.25,0,13.95-.11,21.65-.33,23.08-.22,1.43-.45,2.54-.69,3.32-.58,1.8-2.18,3.11-4.8,3.94,2.91,1.02,4.56,2.24,4.95,3.65.58,2.33.87,10.87.87,25.6v9.48Z" style="fill:#f05b30;"/><path d="M40.72,377.62c-1.28-2.51-23.48,1.98-25.48,12.41,0,.05-.02.12-.04.21-.12.7-.78,4.54,1.24,6.66,1.53,1.61,4.15,1.73,5.95,1.26,3.21-.84,4.82-3.83,6.31-6.21,6.55-10.48,12.89-12.59,12.01-14.32Z" style="fill:#ffffef;"/><ellipse cx="50.05" cy="375.24" rx="5.84" ry="2.08" transform="translate(-66.14 14.95) rotate(-10.28)" style="fill:#ffffef;"/><path d="M1115.48,288.57c.29-5.67,44.9-15.61,57.13,1.98.06.08.14.2.24.35.79,1.18,5.17,7.73,3.18,13.29-1.51,4.22-6.23,6.59-9.94,7.2-6.61,1.09-12.02-3.1-16.73-6.28-20.66-13.95-34.08-12.64-33.88-16.55Z" style="fill:#ffffef;"/><ellipse cx="1096.97" cy="288.26" rx="11.78" ry="4.19" transform="translate(-1.34 5.15) rotate(-.27)" style="fill:#ffffef;"/></g></g></svg>