<?xml version="1.0" encoding="UTF-8"?><svg xmlns="http://www.w3.org/2000/svg" viewBox="0 0 1249.7 1272.24"><g style="isolation:isolate;"><g id="Layer_1"><path d="M603,1270.74c-3.5,0-7.04-.03-10.53-.09-20.23-.35-40.66-1.72-60.72-4.09-13.68-1.6-27.53-3.73-41.17-6.32-.1,0-.21-.03-.3-.06-115.26-21.84-220.96-76.76-305.68-158.82-5.38-5.2-10.78-10.62-16.03-16.11-5.92-6.18-11.79-12.57-17.43-19-46.03-52.34-82.29-111.6-107.78-176.13C17.01,823.42,2.96,752.95,1.61,680.69c-.07-4.04-.11-7.79-.11-11.45,0-4,.03-7.68.1-11.23,2.78-151.76,62.24-295.68,167.43-405.25,4.82-5.04,9.83-10.07,14.87-14.96,84.53-82.14,190.07-137.22,305.19-159.28,13.6-2.61,27.42-4.76,41.07-6.41,20.52-2.48,41.49-3.92,62.31-4.28,3.5-.06,7.04-.09,10.53-.09,3.71,0,7.16.03,10.53.1,20.81.35,41.83,1.79,62.47,4.29,13.62,1.64,27.31,3.78,40.67,6.34,91.44,17.49,178.92,56.87,252.96,113.89,18.25,14.04,35.88,29.31,52.41,45.37,4.98,4.84,9.99,9.87,14.88,14.96,105.22,109.57,164.7,253.52,167.47,405.31.07,3.46.11,7.13.11,11.23,0,3.68-.04,7.43-.11,11.45-2.83,151.47-62.15,295.17-167.04,404.63-5.22,5.47-10.61,10.89-16.01,16.1-84.56,81.89-190.05,136.75-305.06,158.67-.02,0-.05,0-.07.01-13.49,2.58-27.3,4.71-41.04,6.35-20.28,2.43-41.02,3.84-61.64,4.2-3.49.06-7.03.09-10.53.09Z" style="fill:#51b5f2;"/><path d="M603,69.25c3.51,0,7.01.03,10.5.1,21.06.35,41.85,1.8,62.32,4.28,13.67,1.65,27.2,3.76,40.57,6.32,93.66,17.91,179.6,57.6,252.33,113.61,18.29,14.08,35.75,29.2,52.28,45.26,5.03,4.88,9.98,9.86,14.84,14.92,101.13,105.31,164.19,247.45,167.05,404.3.08,3.72.11,7.46.11,11.2s-.04,7.62-.11,11.42c-2.92,156.53-65.79,298.4-166.62,403.62-5.21,5.46-10.54,10.82-15.97,16.06-82.26,79.66-187.25,135.97-304.3,158.27h-.01c-13.51,2.58-27.18,4.7-41,6.35-20.2,2.42-40.72,3.83-61.49,4.19-3.49.06-6.99.09-10.5.09s-7.01-.03-10.5-.09c-20.45-.35-40.66-1.73-60.57-4.08-13.89-1.63-27.64-3.75-41.22-6.33,0,0,0,0,0,0,0,0,0,0,0,0-117.36-22.21-222.62-78.6-305.05-158.45-5.43-5.25-10.76-10.61-15.99-16.07-5.93-6.19-11.73-12.51-17.39-18.95C61.69,962.27,5.86,827.96,3.11,680.66c-.07-3.8-.11-7.6-.11-11.42s.03-7.48.1-11.2c2.87-156.82,65.91-298.93,167.01-404.24,4.84-5.06,9.79-10.04,14.83-14.92,82.23-79.9,187.27-136.43,304.43-158.88,13.5-2.59,27.16-4.73,40.97-6.39,20.42-2.47,41.16-3.91,62.16-4.27,3.49-.06,6.99-.09,10.5-.09M603,66.25c-3.51,0-7.06.03-10.55.09-20.86.36-41.88,1.8-62.47,4.29-13.68,1.64-27.53,3.8-41.17,6.42-57.97,11.11-113.86,30.68-166.15,58.19-51.17,26.92-98.21,61.06-139.81,101.49-5.05,4.89-10.06,9.93-14.91,15C62.49,361.57,2.88,505.85.1,657.98c-.07,3.54-.1,7.33-.1,11.25,0,3.69.04,7.44.11,11.48,1.35,72.44,15.43,143.09,41.85,209.96,25.56,64.69,61.91,124.1,108.05,176.57,5.66,6.45,11.54,12.85,17.48,19.04,5.28,5.51,10.68,10.94,16.07,16.15,41.7,40.4,88.85,74.49,140.12,101.34,52.33,27.4,108.26,46.87,166.25,57.86.14.04.29.06.43.08,13.64,2.58,27.5,4.71,41.21,6.32,20.11,2.37,40.59,3.75,60.87,4.1,3.5.06,7.05.09,10.55.09s7.05-.03,10.55-.09c20.67-.36,41.46-1.77,61.8-4.21,13.75-1.64,27.59-3.78,41.12-6.36.03,0,.07-.01.1-.02,57.91-11.03,113.77-30.52,166.03-57.91,51.15-26.81,98.18-60.85,139.8-101.15,5.43-5.24,10.83-10.67,16.05-16.14,105.15-109.73,164.62-253.78,167.45-405.64.07-4.03.11-7.79.11-11.48,0-4.11-.04-7.8-.11-11.26-2.77-152.16-62.4-296.47-167.89-406.31-4.91-5.11-9.93-10.16-14.92-15-16.57-16.1-34.25-31.4-52.54-45.48-36.77-28.31-76.77-52.35-118.91-71.45-43-19.49-88.32-33.86-134.69-42.73-13.41-2.57-27.13-4.7-40.77-6.35-20.7-2.51-41.77-3.95-62.63-4.3-3.36-.07-6.82-.1-10.55-.1h0Z" style="fill:#223656;"/><path d="M916.93,669.35c0,3.78-.02,7.55-.06,11.31-.98,106.75-15.94,209.54-43.72,302.08-2.19,7.28-4.45,14.5-6.8,21.65-6.25,19.09-13.07,37.7-20.44,55.78-22.51,55.22-49.49,103.59-80.2,143.76-15.79,20.66-32.4,38.92-49.71,54.68h-.01c-13.51,2.58-27.18,4.7-41,6.35,26.11-18.84,50.93-43.57,74.04-73.79,29.57-38.69,55.63-85.43,77.43-138.93,7.36-18.05,14.15-36.64,20.37-55.73,2.33-7.14,4.58-14.34,6.74-21.62,26.86-90.11,41.32-190.2,42.29-294.23.04-3.76.06-7.53.06-11.31s-.02-7.55-.06-11.31c-.98-104.1-15.58-204.44-42.68-294.94-2.02-6.75-4.11-13.44-6.27-20.07-6.38-19.62-13.36-38.73-20.94-57.27-21.93-53.69-48.1-100.6-77.78-139.44-22.65-29.64-46.91-53.99-72.37-72.69,13.67,1.65,27.2,3.76,40.57,6.32,16.85,15.5,33.06,33.42,48.49,53.62,30.8,40.31,57.9,88.84,80.53,144.24,7.59,18.58,14.61,37.72,21.02,57.34,2.18,6.65,4.29,13.34,6.33,20.1h0c28.03,92.94,43.12,195.98,44.11,302.79.04,3.77.06,7.54.06,11.31Z" style="fill:#e1f3fd;"/><path d="M531.93,1265.07c-13.89-1.63-27.64-3.75-41.22-6.33t-.01,0c-17.62-15.92-34.52-34.42-50.57-55.4-30.7-40.1-57.66-88.39-80.14-143.52-7.33-17.97-14.11-36.48-20.34-55.45-2.35-7.15-4.61-14.37-6.8-21.66-27.78-92.45-42.74-195.24-43.72-302.05-.04-3.76-.06-7.53-.06-11.31s.02-7.55.06-11.31c.98-107.06,15.96-210.14,43.8-302.88,2.03-6.77,4.13-13.48,6.3-20.13,6.31-19.39,13.2-38.3,20.66-56.65,22.47-55.28,49.4-103.69,80.06-143.88,15.7-20.58,32.22-38.79,49.42-54.5,13.5-2.59,27.16-4.73,40.97-6.39-25.99,18.81-50.69,43.49-73.69,73.63-29.53,38.71-55.54,85.49-77.3,139.05-7.45,18.33-14.32,37.23-20.6,56.63-2.16,6.64-4.24,13.33-6.25,20.08-26.9,90.32-41.39,190.7-42.36,295.04-.04,3.76-.06,7.53-.06,11.31s.02,7.55.06,11.31c.97,104.09,15.43,204.17,42.29,294.21,2.16,7.27,4.41,14.48,6.75,21.62,6.18,18.97,12.94,37.46,20.26,55.4,21.78,53.4,47.81,100.06,77.36,138.69,23.42,30.6,48.61,55.57,75.13,74.49Z" style="fill:#e1f3fd;"/><path d="M613.5,69.35v1199.8c-3.49.06-6.99.09-10.5.09s-7.01-.03-10.5-.09V69.34c3.49-.06,6.99-.09,10.5-.09s7.01.03,10.5.1Z" style="fill:#e1f3fd;"/><path d="M1035.84,253.74c-47.1,41.86-102.37,76.05-163.08,101.51h0c-6.46,2.73-12.99,5.34-19.58,7.85-74.05,28.28-155.5,43.92-239.68,45.12-3.52.05-7.04.08-10.57.08s-6.96-.02-10.43-.08c-84.24-1.19-165.83-16.87-240-45.22-6.59-2.51-13.11-5.12-19.57-7.84-60.61-25.46-115.8-59.59-162.82-101.36,4.84-5.06,9.79-10.04,14.83-14.92,44.63,39.48,96.9,71.84,154.29,96.15,6.44,2.74,12.95,5.37,19.52,7.89,72.12,27.75,151.6,43.1,233.75,44.3,3.47.05,6.95.08,10.43.08s7.05-.03,10.57-.08c82.08-1.21,161.42-16.52,233.41-44.19,6.57-2.52,13.08-5.14,19.52-7.88,57.51-24.34,109.86-56.76,154.57-96.33,5.03,4.88,9.98,9.86,14.84,14.92Z" style="fill:#e1f3fd;"/><path d="M1036.27,1084.28c-5.21,5.46-10.54,10.82-15.97,16.06-44.55-39.38-96.69-71.68-153.95-95.95-6.44-2.73-12.95-5.36-19.52-7.88-71.96-27.68-151.27-43-233.33-44.21-3.52-.05-7.04-.08-10.57-.08s-6.96.03-10.43.08c-82.01,1.2-161.34,16.51-233.32,44.19-6.58,2.51-13.09,5.14-19.53,7.88-57.28,24.26-109.44,56.54-154,95.92-5.43-5.25-10.76-10.61-15.99-16.07,47.12-41.84,102.44-76.03,163.19-101.51,6.47-2.72,12.99-5.33,19.58-7.84,74.2-28.34,155.81-44,240.07-45.19,3.47-.06,6.95-.08,10.43-.08s7.05.03,10.57.08c84.32,1.21,165.9,16.87,240.07,45.21,6.59,2.51,13.12,5.13,19.58,7.85,60.73,25.48,116.01,59.68,163.12,101.54Z" style="fill:#e1f3fd;"/><path d="M1203,669.24c0,3.82-.04,7.62-.11,11.42H3.11c-.07-3.8-.11-7.6-.11-11.42s.03-7.48.1-11.2h1199.79c.08,3.72.11,7.46.11,11.2Z" style="fill:#e1f3fd;"/><g style="mix-blend-mode:soft-light; opacity:.3;"><path d="M1203,669.23c0,331.37-268.63,600-600,600-144.23,0-276.62-50.9-380.09-135.74-43.09-35.3-81.14-76.46-112.99-122.27,97.04,67.4,214.88,106.93,341.98,106.93,331.37,0,600-268.63,600-600,0-127.08-39.51-244.92-106.9-341.93,45.84,31.85,87.02,69.95,122.32,113.04,84.8,103.47,135.67,235.78,135.67,379.99Z"/></g><g style="mix-blend-mode:soft-light; opacity:.3;"><path d="M968.72,193.56c-86.1-45.36-184.19-71.04-288.27-71.04C338.44,122.52,61.18,399.78,61.18,741.79c0,118.57,33.33,229.33,91.09,323.48C59.35,959.61,3,821.01,3,669.24,3,337.87,271.63,69.25,603,69.25c137.65,0,264.48,46.35,365.72,124.31Z"/></g><g style="mix-blend-mode:soft-light; opacity:.3;"><path d="M1203,669.23c0,331.37-268.63,600-600,600-144.23,0-276.62-50.9-380.09-135.74-10.11-12.29-19.73-25.01-28.82-38.1,97.04,67.4,214.88,106.93,341.98,106.93,331.37,0,600-268.63,600-600,0-127.08-39.51-244.92-106.9-341.93,13.12,9.11,25.84,18.73,38.15,28.87,84.8,103.47,135.67,235.78,135.67,379.99Z"/></g><path d="M341.79,1042.94c-36.06,0-69.97-14.05-95.47-39.55-25.5-25.51-39.55-59.42-39.55-95.47s14.05-69.96,39.55-95.46l12.05-12.06,538.28-490.61c-14.14-40.62-16.78-84.32-7.63-126.46,9.47-43.6,31.22-83.4,62.92-115.09C895.93,24.23,954.44,0,1016.68,0c25.91,0,51.42,4.25,75.84,12.63.49.17.86.58.97,1.08.12.5-.03,1.03-.4,1.4l-144.46,144.47,37.1,104.39,104.39,37.1,144.46-144.47c.28-.28.67-.44,1.06-.44.11,0,.23.01.34.04.5.12.91.48,1.08.97,13.96,40.67,16.41,84.41,7.09,126.47-9.57,43.21-31.25,82.68-62.69,114.13-44.01,44-102.53,68.24-164.76,68.24h0c-26.26,0-52.09-4.36-76.79-12.96l-490.57,538.23-12.1,12.1c-25.5,25.5-59.4,39.55-95.46,39.55ZM341.79,834.68c-19.56,0-37.96,7.62-51.79,21.45-28.56,28.56-28.56,75.02,0,103.58,13.83,13.83,32.22,21.45,51.79,21.45s37.95-7.62,51.78-21.45c28.56-28.56,28.56-75.02,0-103.58-13.83-13.83-32.22-21.45-51.78-21.45Z" style="fill:#ff92ba;"/><path d="M1016.68,1.5c25.49,0,50.98,4.18,75.35,12.55l-145.13,145.14,37.66,105.96,105.96,37.66,145.13-145.14c27.81,81.02,9.4,174.39-55.24,239.05-45.21,45.2-104.46,67.8-163.7,67.8-26.14,0-52.29-4.4-77.23-13.2l-491.24,538.96-12.05,12.05c-26.07,26.08-60.24,39.11-94.41,39.11s-68.33-13.04-94.4-39.11c-26.07-26.08-39.11-60.24-39.11-94.41s13.04-68.33,39.11-94.4l12.05-12.06,538.96-491.23c-28.75-81.45-10.55-175.78,54.6-240.93C898.19,24.09,957.43,1.5,1016.68,1.5M341.79,982.66c19.13,0,38.25-7.3,52.84-21.89,29.19-29.19,29.19-76.51,0-105.7-14.59-14.59-33.72-21.88-52.84-21.88s-38.26,7.29-52.84,21.88c-29.19,29.19-29.19,76.51,0,105.7,14.59,14.6,33.72,21.89,52.84,21.89M1016.68-1.5V1.5s0-3,0-3c-30.46,0-60.14,5.77-88.24,17.17-29.09,11.8-55.19,29.13-77.57,51.51-31.9,31.9-53.79,71.95-63.32,115.84-9.14,42.08-6.59,85.72,7.36,126.33l-537.5,489.9s-.07.06-.1.1l-12.05,12.06c-25.79,25.79-39.99,60.06-39.99,96.52s14.2,70.73,39.99,96.53c25.78,25.79,60.06,39.99,96.53,39.99s70.74-14.2,96.53-39.99l12.05-12.05s.06-.07.1-.1l489.91-537.5c24.57,8.44,50.25,12.72,76.34,12.72,30.46,0,60.15-5.78,88.24-17.17,29.09-11.8,55.19-29.13,77.58-51.51,31.64-31.65,53.46-71.37,63.1-114.86,9.38-42.33,6.91-86.35-7.14-127.28-.34-.98-1.15-1.72-2.16-1.95-.22-.05-.45-.08-.68-.08-.79,0-1.55.31-2.12.88l-143.79,143.8-102.83-36.55-36.55-102.83,143.79-143.8c.73-.73,1.03-1.79.8-2.8-.23-1.01-.97-1.83-1.95-2.16-24.57-8.43-50.25-12.71-76.32-12.71h0ZM341.79,979.66c-19.16,0-37.18-7.46-50.72-21.01-13.55-13.55-21.01-31.57-21.01-50.73s7.46-37.18,21.01-50.73c13.55-13.55,31.56-21.01,50.72-21.01s37.18,7.46,50.72,21.01c13.55,13.55,21.01,31.57,21.01,50.73s-7.46,37.18-21.01,50.73c-13.55,13.55-31.56,21.01-50.72,21.01h0Z" style="fill:#223656;"/><g style="mix-blend-mode:soft-light; opacity:.3;"><path d="M1180.41,396.72c-65.16,65.15-159.48,83.34-240.93,54.6l-491.24,538.96-12.05,12.05c-52.14,52.15-136.67,52.15-188.81,0-26.07-26.08-39.11-60.24-39.11-94.41,3.52,98.63,139.27,160.4,231.96,54.15,103.33-118.44,275.06-362.53,468.99-600,332.45,59.37,326.43-204.4,326.43-204.4,27.81,81.02,9.4,174.39-55.24,239.05Z"/></g><g style="mix-blend-mode:soft-light; opacity:.3;"><path d="M404.71,956.03c-11.62,11.62-25.67,19.36-40.51,23.2,11.13-3.48,21.61-9.64,30.43-18.46,29.19-29.19,29.19-76.51,0-105.7-29.18-29.18-76.51-29.18-105.69,0-29.19,29.19-29.19,76.51,0,105.7,8.82,8.82,19.3,14.98,30.43,18.46-14.84-3.84-28.88-11.58-40.5-23.2-34.75-34.76-34.75-91.1,0-125.85,34.74-34.74,91.09-34.74,125.84,0,34.75,34.75,34.75,91.09,0,125.85Z"/></g><path d="M890.18,71.93c2.65,2.86,1.37,7.57-1.43,10.71-3.34,3.74-7.53,3.77-17.73,7.88-12.85,5.18-15.82,9.01-17.68,8.17-4.06-1.87,4.98-24.77,22.3-28.73,4.22-.97,11.47-1.36,14.54,1.97ZM843.14,110.83c-1.45,3.69-.25,7.01,2.67,7.4,2.92.39,6.45-2.31,7.91-6.03,1.46-3.72.28-7.02-2.65-7.39-2.93-.37-6.48,2.32-7.93,6.01Z" style="fill:#ffe;"/><path d="M395.62,791.65c17.29,4.11,26.13,27.08,22.05,28.92-1.87.82-4.81-3.03-17.61-8.33-10.16-4.2-14.35-4.27-17.65-8.04-2.77-3.16-4.01-7.88-1.34-10.72,3.11-3.3,10.35-2.84,14.56-1.84ZM419.87,826.72c-2.93.34-4.14,3.63-2.71,7.36,1.43,3.73,4.94,6.46,7.86,6.1,2.92-.36,4.15-3.67,2.73-7.37-1.42-3.7-4.95-6.42-7.88-6.08Z" style="fill:#ffe;"/><path d="M483.25,166.97c20.21-14.67,52.78-3.05,51.01,2.98-.83,2.74-7.63,2.35-25,11.14-13.78,6.97-17.69,11.38-24.73,11.45-5.91.06-12.07-2.94-12.65-8.39-.68-6.33,6.45-13.64,11.37-17.2ZM542.82,173.23c-2.32,3.43.09,7.73,5.36,9.63,5.28,1.89,11.4.65,13.69-2.79,2.28-3.44-.11-7.78-5.36-9.66-5.24-1.88-11.38-.61-13.7,2.83Z" style="fill:#ffe;"/></g></g></svg>