<svg id="Layer_1" data-name="Layer 1" xmlns="http://www.w3.org/2000/svg" width="681.73" height="554.03" viewBox="0 0 681.73 554.03">
  <defs>
    <style>
      .cls-1 {
        fill: #2aa9e0;
      }
    </style>
  </defs>
  <path class="cls-1" d="M957.67,464.51a279.41,279.41,0,0,1-80.33,22,140.29,140.29,0,0,0,61.49-77.38A279.85,279.85,0,0,1,850,443.1,140,140,0,0,0,611.68,570.67c-116.24-5.84-219.3-61.52-288.28-146.14a140,140,0,0,0,43.28,186.73,139.25,139.25,0,0,1-63.34-17.49c0,.58,0,1.17,0,1.76a140,140,0,0,0,112.2,137.14,140.12,140.12,0,0,1-63.17,2.4A140,140,0,0,0,483,832.2,280.66,280.66,0,0,1,309.3,892.07a284.77,284.77,0,0,1-33.36-2A395.94,395.94,0,0,0,490.34,953c257.26,0,397.94-213.12,397.94-398q0-9.09-.4-18.09A284.16,284.16,0,0,0,957.67,464.51Z" transform="translate(-275.94 -398.93)"/>
</svg>
