<?xml version="1.0" encoding="UTF-8"?>
<svg xmlns="http://www.w3.org/2000/svg" viewBox="0 0 2195.4 1526.34">
  <g style="isolation: isolate;">
    <g id="Layer_1" data-name="Layer 1">
      <g>
        <g>
          <path d="M729.07,23.55v602.08c0,12.18-9.9,22.08-22.08,22.08H23.55c-12.18,0-22.05-9.9-22.05-22.08V23.55C1.5,11.37,11.37,1.5,23.55,1.5h683.44c12.18,0,22.08,9.87,22.08,22.05Z" style="fill: #51b5f2; stroke: #223656; stroke-linecap: round; stroke-linejoin: round; stroke-width: 3px;"/>
          <path d="M729.07,123.06v502.56c0,12.18-9.9,22.08-22.08,22.08h-136.89c18.23-8.92,35.48-19.56,50.35-33.38,24.74-22.96,41.36-53.47,53.4-85,22.08-57.74,29.99-119.78,36.18-181.26,5.63-56.3,10.01-112.75,13.02-169.26.66-12.42-4.06-46.5,6.02-55.74Z" style="fill: #d6d6d4; mix-blend-mode: multiply; opacity: .4;"/>
          <g>
            <rect x="57.4" y="193.44" width="618.99" height="19.89" rx="9.94" ry="9.94" style="fill: #ffe; stroke: #223656; stroke-miterlimit: 10; stroke-width: 3px;"/>
            <rect x="57.4" y="248.13" width="280.01" height="19.89" rx="9.94" ry="9.94" style="fill: #fad0ec; stroke: #223656; stroke-linecap: round; stroke-linejoin: round; stroke-width: 3px;"/>
            <rect x="57.4" y="298.02" width="131.11" height="19.89" rx="9.94" ry="9.94" style="fill: #fafb33; stroke: #223656; stroke-linecap: round; stroke-linejoin: round; stroke-width: 3px;"/>
            <rect x="205.65" y="298.02" width="367.78" height="19.89" rx="9.94" ry="9.94" style="fill: #ffe; stroke: #223656; stroke-miterlimit: 10; stroke-width: 3px;"/>
            <rect x="359.34" y="248.13" width="280.01" height="19.89" rx="9.94" ry="9.94" style="fill: #fe877b; stroke: #223656; stroke-miterlimit: 10; stroke-width: 3px;"/>
            <rect x="57.4" y="350.72" width="618.99" height="19.89" rx="9.94" ry="9.94" style="fill: #fe877b; stroke: #223656; stroke-miterlimit: 10; stroke-width: 3px;"/>
            <rect x="57.4" y="405.41" width="280.01" height="19.89" rx="9.94" ry="9.94" style="fill: #fad0ec; stroke: #223656; stroke-linecap: round; stroke-linejoin: round; stroke-width: 3px;"/>
            <rect x="57.4" y="455.31" width="131.11" height="19.89" rx="9.94" ry="9.94" style="fill: #91dece; stroke: #223656; stroke-linecap: round; stroke-linejoin: round; stroke-width: 3px;"/>
            <rect x="205.65" y="455.31" width="367.78" height="19.89" rx="9.94" ry="9.94" style="fill: #fe877b; stroke: #223656; stroke-miterlimit: 10; stroke-width: 3px;"/>
            <rect x="359.34" y="405.41" width="156.6" height="19.89" rx="9.94" ry="9.94" style="fill: #fafb33; stroke: #223656; stroke-linecap: round; stroke-linejoin: round; stroke-width: 3px;"/>
            <rect x="56.73" y="511.64" width="429.4" height="19.89" rx="9.94" ry="9.94" style="fill: #ffe; stroke: #223656; stroke-miterlimit: 10; stroke-width: 3px;"/>
            <rect x="508.05" y="511.64" width="156.6" height="19.89" rx="9.94" ry="9.94" style="fill: #91dece; stroke: #223656; stroke-linecap: round; stroke-linejoin: round; stroke-width: 3px;"/>
          </g>
          <path d="M51.12,96.05c.26,1.82-9.38,2.4-19.44,9.6-13.88,9.93-22.63,28.22-24.51,44.89-.75,6.6-3.04,36.04-5.15,38.24-.01.01-.04.04-.07.04-1.93-.06-.45-92.94-.45-92.94,40.28-2.77,49.37-1.57,49.62.17Z" style="fill: #223656;"/>
          <path d="M729.07,23.55v72.89H1.5V23.55C1.5,11.37,11.37,1.5,23.55,1.5h683.44c12.18,0,22.08,9.87,22.08,22.05Z" style="fill: #777df5; stroke: #223656; stroke-miterlimit: 10; stroke-width: 3px;"/>
          <circle cx="55.49" cy="49.99" r="15.44" style="fill: #fe877b; stroke: #223656; stroke-miterlimit: 10; stroke-width: 3px;"/>
          <circle cx="104.08" cy="49.99" r="15.44" style="fill: #27b292; stroke: #223656; stroke-linecap: round; stroke-linejoin: round; stroke-width: 3px;"/>
          <circle cx="152.66" cy="49.99" r="15.44" style="fill: #fefc8b; stroke: #223656; stroke-linecap: round; stroke-linejoin: round; stroke-width: 3px;"/>
          <path d="M729.07,23.55v602.08c0,12.18-9.9,22.08-22.08,22.08H23.55c-12.18,0-22.05-9.9-22.05-22.08V23.55C1.5,11.37,11.37,1.5,23.55,1.5h683.44c12.18,0,22.08,9.87,22.08,22.05Z" style="fill: none; stroke: #223656; stroke-linecap: round; stroke-linejoin: round; stroke-width: 3px;"/>
        </g>
        <g>
          <g>
            <g>
              <path d="M1871.47,1039.31c-2.22,5.38-9.05,7.4-14.85,6.64-5.77-.79-11.06-3.61-16.68-5.12-4.24-1.14-8.7-1.54-13.07-1.16-1.65.15-3.41.32-4.96-.1l.16,131.68-19.51-1.87,12.81-148.18c-1.08.39-2.24.53-3.44.56-1.44.03-2.93-.15-4.37-.28-6.4-.58-12.92-.02-19.14,1.61-8.23,2.2-15.98,6.28-24.42,7.4-8.47,1.09-18.45-1.92-21.66-9.82-1.37-3.35-1.3-7.15-.52-10.71,2.05-9.06,9.21-16.82,18.1-19.58t.06-.03c3.56-1.07,7.33-1.42,11.07-1.47,11.18-.13,22.66,2.7,32.16,8.73,2.57,1.62,8.81,6.27,12.72,11.21l2.31-50.42,1.74-.68,1.72,72.61c2.7-3.11,6.56-5.94,8.21-6.98,6.5-4.08,14.37-5.98,22.02-5.88,2.57.06,5.14.31,7.59,1.06,1.14.36,2.24.84,3.29,1.41,4.48,2.52,7.91,6.98,9.04,12.04.53,2.42.56,5.02-.37,7.33Z" style="fill: #27b292; stroke: #223656; stroke-linecap: round; stroke-linejoin: round; stroke-width: 3.67px;"/>
              <path d="M1871.47,1039.31c-2.22,5.38-9.05,7.4-14.85,6.64-5.77-.79-11.06-3.61-16.68-5.12-4.24-1.14-8.7-1.54-13.07-1.16-1.65.15-3.41.32-4.96-.1l.64,26.44h-1.7c-2.28-7.28-3-13.36-3.23-17.5-.29-5.33-.54-10.87,2.38-12.53,1.5-.85,2.33.17,6.04.41,6.7.44,7.97-2.63,14.55-2.16,2.13.15,1.83.46,7.24,1.2,4.37.6,5.81.57,7.33.29,2.58-.48,4.3-1.49,5.5-2.21,2.31-1.39,2.92-2.45,3.17-3,.36-.77.46-1.49.48-2.21.1-2.84-.29-5.77-1.51-8.35,4.48,2.52,7.91,6.98,9.04,12.04.53,2.42.56,5.02-.37,7.33Z" style="fill: #a7de94; opacity: .4;"/>
              <path d="M1812.42,1019.34c.18.78-.03,1.61-.48,2.42-1.44.03-2.93-.15-4.37-.28-6.4-.58-12.92-.02-19.14,1.61-8.23,2.2-15.98,6.28-24.42,7.4-8.47,1.09-18.45-1.92-21.66-9.82-1.37-3.35-1.3-7.15-.52-10.71,2.05-9.06,9.21-16.82,18.1-19.58t.06-.03c-.34,5.26-6.06,10.25-6.37,15.99-.25,4.63,3.36,8.86,7.7,10.54s9.21,1.27,13.73.27c4.55-1.04,8.95-2.64,13.52-3.35,5.26-.83,10.74-.4,15.82,1.2,2.33.72,7.44,1.57,8.04,4.35Z" style="fill: #a7de94; opacity: .4;"/>
              <path d="M1871.47,1039.31c-2.22,5.38-9.05,7.4-14.85,6.64-5.77-.79-11.06-3.61-16.68-5.12-4.24-1.14-8.7-1.54-13.07-1.16-1.65.15-3.41.32-4.96-.1l.62,131.73-20.03-1.46,12.87-148.65c-2.36.86-5.2.53-7.81.28-6.4-.58-12.92-.02-19.14,1.61-8.23,2.2-15.98,6.28-24.42,7.4-8.47,1.09-18.45-1.92-21.66-9.82-1.37-3.35-1.3-7.15-.52-10.71,2.05-9.06,9.21-16.82,18.1-19.58,3.59-1.1,7.36-1.45,11.13-1.5,11.18-.13,22.66,2.7,32.16,8.73,2.57,1.62,8.81,6.27,12.72,11.21l2.31-50.42,1.74-.68,1.72,72.61c2.7-3.11,6.56-5.94,8.21-6.98,6.5-4.08,14.37-5.98,22.02-5.88,2.57.06,5.14.31,7.59,1.06,1.14.36,2.24.84,3.29,1.41,4.48,2.52,7.91,6.98,9.04,12.04.53,2.42.56,5.02-.37,7.33Z" style="fill: none; stroke: #223656; stroke-linecap: round; stroke-linejoin: round; stroke-width: 3.67px;"/>
              <path d="M1869.44,927.7c.02-10.41-7.32-19.06-17.1-21.12-1.4-.3-2.9-.45-4.4-.46-3.38,0-6.55.77-9.39,2.14.72-2.15,1.14-4.42,1.15-6.79.02-11.9-9.62-21.58-21.52-21.6-11.9-.02-21.55,9.62-21.57,21.52,0,1.85.23,3.68.68,5.38-3.11-1.77-6.72-2.79-10.55-2.8-11.9-.02-21.58,9.62-21.6,21.52-.02,10.62,7.68,19.45,17.81,21.24-4.28,3.94-6.99,9.56-7,15.84-.02,11.9,9.59,21.55,21.49,21.57,9.33.02,17.3-5.92,20.27-14.23.15-.36.27-.72.39-1.11.5,1.94,1.28,3.8,2.26,5.51,3.73,6.41,10.66,10.7,18.55,10.71,11.9.02,21.58-9.59,21.6-21.49.01-5.98-2.4-11.37-6.31-15.26,3.2-.98,6.08-2.71,8.44-4.95,4.16-3.91,6.78-9.47,6.79-15.63Z" style="fill: #fe77b8; stroke: #223656; stroke-linecap: round; stroke-linejoin: round; stroke-width: 3.67px;"/>
              <circle cx="1817.28" cy="932.43" r="19.13" style="fill: #fdda84; stroke: #223656; stroke-linecap: round; stroke-linejoin: round; stroke-width: 3.67px;"/>
              <path d="M1827.09,927.25c2.3,4.16,1.85,9.21.81,9.48-1.08.29-1.77-4.98-6.25-6.9-1.74-.75-3.01-.53-4.1-1.86-.91-1.11-1.49-3.03-.65-4.5.75-1.32,2.28-1.66,2.41-1.69,2.97-.61,6.25,2.71,7.78,5.48Z" style="fill: #ffe;"/>
              <path d="M1859.18,1036.03c-3.27.01-6.16-1.93-5.98-2.64.19-.75,3.59.58,6.23-1.49,1.03-.8,1.32-1.64,2.48-1.86.97-.18,2.32.11,2.93,1.1.55.89.25,1.92.22,2.01-.62,1.99-3.7,2.87-5.87,2.88Z" style="fill: #ffe;"/>
              <path d="M1751.23,1008.34c.66-3.2,3.15-5.63,3.81-5.31.69.34-1.31,3.39.18,6.4.58,1.17,1.33,1.62,1.31,2.81-.02.99-.58,2.25-1.67,2.64-.98.36-1.93-.15-2.01-.2-1.82-1.01-2.05-4.21-1.61-6.34Z" style="fill: #ffe;"/>
              <circle cx="1841.18" cy="964.61" r="7.4" style="fill: #fad0ec; opacity: .4;"/>
              <path d="M1869.44,927.7c-.01,6.16-2.62,11.72-6.79,15.63-9.66-2.2-16.85-10.89-16.83-21.23.01-6.07,2.5-11.54,6.52-15.51,9.78,2.05,17.12,10.71,17.1,21.12Z" style="fill: #fad0ec; opacity: .4;"/>
              <path d="M1869.44,927.7c.02-10.41-7.32-19.06-17.1-21.12-1.4-.3-2.9-.45-4.4-.46-3.38,0-6.55.77-9.39,2.14.72-2.15,1.14-4.42,1.15-6.79.02-11.9-9.62-21.58-21.52-21.6-11.9-.02-21.55,9.62-21.57,21.52,0,1.85.23,3.68.68,5.38-3.11-1.77-6.72-2.79-10.55-2.8-11.9-.02-21.58,9.62-21.6,21.52-.02,10.62,7.68,19.45,17.81,21.24-4.28,3.94-6.99,9.56-7,15.84-.02,11.9,9.59,21.55,21.49,21.57,9.33.02,17.3-5.92,20.27-14.23.15-.36.27-.72.39-1.11.5,1.94,1.28,3.8,2.26,5.51,3.73,6.41,10.66,10.7,18.55,10.71,11.9.02,21.58-9.59,21.6-21.49.01-5.98-2.4-11.37-6.31-15.26,3.2-.98,6.08-2.71,8.44-4.95,4.16-3.91,6.78-9.47,6.79-15.63Z" style="fill: none; stroke: #223656; stroke-linecap: round; stroke-linejoin: round; stroke-width: 3.67px;"/>
            </g>
            <g>
              <path d="M1830.59,1130.79c-1.48,5.63-7.97,8.55-13.82,8.58-5.82,0-11.44-2.09-17.21-2.82-4.36-.56-8.83-.36-13.1.61-1.61.37-3.34.78-4.93.57l4.19,26.11-9.13,1.22-4.02-44.66c-1.02.53-2.15.83-3.33,1.02-1.42.22-2.92.24-4.36.31-6.42.29-12.8,1.72-18.75,4.17-7.86,3.29-14.99,8.37-23.2,10.62-8.24,2.22-18.54.58-22.79-6.81-1.81-3.14-2.25-6.91-1.96-10.54.81-9.25,6.86-17.91,15.3-21.84t.06-.04c3.38-1.54,7.07-2.4,10.77-2.95,11.07-1.63,22.82-.37,33.04,4.32,2.76,1.26,9.57,5.02,14.11,9.39l-4.5-50.27,1.63-.91,11.48,71.72c2.25-3.44,5.7-6.77,7.19-8.02,5.89-4.92,13.43-7.86,21.03-8.79,2.56-.28,5.14-.39,7.67.03,1.17.2,2.33.53,3.45.96,4.78,1.89,8.78,5.85,10.58,10.71.86,2.33,1.23,4.9.62,7.31Z" style="fill: #27b292; stroke: #223656; stroke-linecap: round; stroke-linejoin: round; stroke-width: 3.67px;"/>
              <path d="M1830.59,1130.79c-1.48,5.63-7.97,8.55-13.82,8.58-5.82,0-11.44-2.09-17.21-2.82-4.36-.56-8.83-.36-13.1.61-1.61.37-3.34.78-4.93.57l4.19,26.11-1.69.23c-3.24-6.91-4.77-12.83-5.55-16.91-1.01-5.24-2-10.69.67-12.74,1.37-1.05,2.33-.15,6.04-.4,6.69-.46,7.55-3.68,14.13-4.1,2.13-.14,1.88.21,7.34.22,4.41,0,5.84-.22,7.3-.7,2.49-.82,4.06-2.06,5.15-2.93,2.1-1.69,2.56-2.82,2.74-3.4.25-.81.25-1.54.18-2.26-.29-2.83-1.06-5.68-2.62-8.07,4.78,1.89,8.78,5.85,10.58,10.71.86,2.33,1.23,4.9.62,7.31Z" style="fill: #a7de94; opacity: .4;"/>
              <path d="M1769.39,1118.96c.28.75.18,1.6-.15,2.46-1.42.22-2.92.24-4.36.31-6.42.29-12.8,1.72-18.75,4.17-7.86,3.29-14.99,8.37-23.2,10.62-8.24,2.22-18.54.58-22.79-6.81-1.81-3.14-2.25-6.91-1.96-10.54.81-9.25,6.86-17.91,15.3-21.84t.06-.04c.37,5.26-4.63,10.97-4.16,16.7.38,4.63,4.52,8.32,9.04,9.41s9.3.02,13.64-1.59c4.37-1.64,8.51-3.83,12.95-5.14,5.11-1.53,10.59-1.84,15.83-.94,2.41.4,7.59.55,8.55,3.23Z" style="fill: #a7de94; opacity: .4;"/>
              <path d="M1830.59,1130.79c-1.48,5.63-7.97,8.55-13.82,8.58-5.82,0-11.44-2.09-17.21-2.82-4.36-.56-8.83-.36-13.1.61-1.61.37-3.34.78-4.93.57l4.19,26.11-9.13,1.22-4.02-44.66c-2.23,1.17-5.09,1.22-7.7,1.33-6.42.29-12.8,1.72-18.75,4.17-7.86,3.29-14.99,8.37-23.2,10.62-8.24,2.22-18.54.58-22.79-6.81-1.81-3.14-2.25-6.91-1.96-10.54.81-9.25,6.86-17.91,15.3-21.84,3.41-1.57,7.1-2.43,10.82-2.99,11.07-1.63,22.82-.37,33.04,4.32,2.76,1.26,9.57,5.02,14.11,9.39l-4.5-50.27,1.63-.91,11.48,71.72c2.25-3.44,5.7-6.77,7.19-8.02,5.89-4.92,13.43-7.86,21.03-8.79,2.56-.28,5.14-.39,7.67.03,1.17.2,2.33.53,3.45.96,4.78,1.89,8.78,5.85,10.58,10.71.86,2.33,1.23,4.9.62,7.31Z" style="fill: none; stroke: #223656; stroke-linecap: round; stroke-linejoin: round; stroke-width: 3.67px;"/>
              <path d="M1813.55,1020.47c-1.38-10.31-9.82-17.9-19.78-18.62-1.43-.11-2.93-.06-4.42.14-3.35.45-6.39,1.64-9.02,3.38.43-2.23.54-4.54.22-6.88-1.58-11.8-12.44-20.09-24.23-18.51-11.8,1.58-20.06,12.43-18.48,24.23.25,1.84.73,3.61,1.4,5.24-3.32-1.34-7.04-1.86-10.83-1.35-11.8,1.58-20.09,12.44-18.51,24.23,1.41,10.52,10.23,18.24,20.51,18.64-3.71,4.48-5.64,10.41-4.8,16.63,1.58,11.8,12.4,20.06,24.2,18.48,9.25-1.24,16.34-8.19,18.17-16.83.1-.38.17-.75.24-1.15.76,1.86,1.78,3.59,2.98,5.15,4.55,5.85,12,9.16,19.82,8.12,11.8-1.58,20.09-12.41,18.51-24.2-.79-5.93-3.91-10.94-8.31-14.27,3.04-1.4,5.66-3.5,7.7-6.04,3.6-4.43,5.44-10.29,4.62-16.4Z" style="fill: #fa7532; stroke: #223656; stroke-linecap: round; stroke-linejoin: round; stroke-width: 3.67px;"/>
              <circle cx="1762.5" cy="1032.19" r="19.13" style="fill: #fdda84; stroke: #223656; stroke-linecap: round; stroke-linejoin: round; stroke-width: 3.67px;"/>
              <path d="M1771.52,1025.73c2.84,3.81,3.07,8.88,2.08,9.29-1.04.43-2.42-4.7-7.13-6-1.83-.5-3.05-.12-4.32-1.29-1.06-.98-1.88-2.8-1.25-4.38.56-1.41,2.04-1.95,2.16-2,2.86-1,6.56,1.84,8.45,4.38Z" style="fill: #ffe;"/>
              <path d="M1817.97,1129.2c-3.23.45-6.36-1.09-6.28-1.81.08-.77,3.63.09,5.97-2.31.91-.94,1.08-1.8,2.21-2.17.94-.31,2.31-.21,3.05.69.66.81.5,1.87.49,1.96-.34,2.06-3.28,3.34-5.43,3.64Z" style="fill: #ffe;"/>
              <path d="M1707.27,1116.3c.22-3.26,2.37-6.01,3.06-5.78.73.24-.84,3.54,1.04,6.32.73,1.08,1.54,1.43,1.67,2.6.11.98-.27,2.31-1.3,2.84-.92.48-1.93.11-2.02.07-1.94-.76-2.6-3.89-2.45-6.06Z" style="fill: #ffe;"/>
              <circle cx="1790.52" cy="1060.86" r="7.4" style="fill: #fad0ec; opacity: .4;"/>
              <path d="M1813.55,1020.47c.82,6.11-1.02,11.96-4.62,16.4-9.86-.88-18.16-8.52-19.53-18.78-.81-6.02.93-11.77,4.37-16.24,9.96.72,18.4,8.31,19.78,18.62Z" style="fill: #fad0ec; opacity: .4;"/>
              <path d="M1813.55,1020.47c-1.38-10.31-9.82-17.9-19.78-18.62-1.43-.11-2.93-.06-4.42.14-3.35.45-6.39,1.64-9.02,3.38.43-2.23.54-4.54.22-6.88-1.58-11.8-12.44-20.09-24.23-18.51-11.8,1.58-20.06,12.43-18.48,24.23.25,1.84.73,3.61,1.4,5.24-3.32-1.34-7.04-1.86-10.83-1.35-11.8,1.58-20.09,12.44-18.51,24.23,1.41,10.52,10.23,18.24,20.51,18.64-3.71,4.48-5.64,10.41-4.8,16.63,1.58,11.8,12.4,20.06,24.2,18.48,9.25-1.24,16.34-8.19,18.17-16.83.1-.38.17-.75.24-1.15.76,1.86,1.78,3.59,2.98,5.15,4.55,5.85,12,9.16,19.82,8.12,11.8-1.58,20.09-12.41,18.51-24.2-.79-5.93-3.91-10.94-8.31-14.27,3.04-1.4,5.66-3.5,7.7-6.04,3.6-4.43,5.44-10.29,4.62-16.4Z" style="fill: none; stroke: #223656; stroke-linecap: round; stroke-linejoin: round; stroke-width: 3.67px;"/>
            </g>
            <g>
              <path d="M1893.98,1159.39c-3.47,4.68-10.57,4.98-16.02,2.83-5.4-2.17-9.85-6.19-14.93-9.02-3.84-2.14-8.06-3.61-12.39-4.31-1.63-.26-3.39-.52-4.79-1.3l-5.81,25.8-8.93-2.26,12.87-42.95c-1.14.11-2.31-.03-3.47-.29-1.4-.32-2.8-.86-4.17-1.33-6.06-2.12-12.52-3.17-18.96-3.1-8.52.13-17.03,2.2-25.48,1.24-8.48-1-17.43-6.35-18.62-14.8-.51-3.58.48-7.25,2.1-10.51,4.19-8.29,13.03-14.07,22.32-14.59t.07-.01c3.71-.17,7.46.4,11.09,1.26,10.88,2.6,21.32,8.14,29.07,16.3,2.1,2.2,7.02,8.22,9.61,13.97l14.51-48.34,1.85-.24-16,70.85c3.37-2.36,7.81-4.16,9.66-4.78,7.3-2.38,15.39-2.31,22.79-.34,2.48.69,4.91,1.55,7.11,2.88,1.01.63,1.97,1.36,2.84,2.17,3.73,3.54,5.97,8.7,5.84,13.88-.07,2.48-.68,5.01-2.14,7.01Z" style="fill: #27b292; stroke: #223656; stroke-linecap: round; stroke-linejoin: round; stroke-width: 3.67px;"/>
              <path d="M1893.98,1159.39c-3.47,4.68-10.57,4.98-16.02,2.83-5.4-2.17-9.85-6.19-14.93-9.02-3.84-2.14-8.06-3.61-12.39-4.31-1.63-.26-3.39-.52-4.79-1.3l-5.81,25.8-1.65-.42c-.44-7.62.34-13.68,1.13-17.76,1.01-5.24,2.12-10.67,5.36-11.58,1.66-.46,2.22.73,5.76,1.87,6.39,2.06,8.37-.61,14.64,1.44,2.03.66,1.67.89,6.73,2.93,4.09,1.64,5.5,1.97,7.04,2.06,2.62.16,4.53-.4,5.87-.81,2.58-.78,3.43-1.66,3.81-2.14.53-.66.81-1.33,1.01-2.03.78-2.73,1.12-5.67.57-8.46,3.73,3.54,5.97,8.7,5.84,13.88-.07,2.48-.68,5.01-2.14,7.01Z" style="fill: #a7de94; opacity: .4;"/>
              <path d="M1841.56,1125.65c-.02.8-.42,1.56-1.06,2.23-1.4-.32-2.8-.86-4.17-1.33-6.06-2.12-12.52-3.17-18.96-3.1-8.52.13-17.03,2.2-25.48,1.24-8.48-1-17.43-6.35-18.62-14.8-.51-3.58.48-7.25,2.1-10.51,4.19-8.29,13.03-14.07,22.32-14.59t.07-.01c-1.61,5.02-8.37,8.46-10.07,13.96-1.37,4.44,1.11,9.41,4.9,12.1s8.62,3.48,13.25,3.6c4.66.1,9.32-.39,13.93.04,5.31.48,10.51,2.23,15.05,5.01,2.09,1.27,6.84,3.33,6.74,6.18Z" style="fill: #a7de94; opacity: .4;"/>
              <path d="M1893.98,1159.39c-3.47,4.68-10.57,4.98-16.02,2.83-5.4-2.17-9.85-6.19-14.93-9.02-3.84-2.14-8.06-3.61-12.39-4.31-1.63-.26-3.39-.52-4.79-1.3l-5.81,25.8-8.93-2.26,12.87-42.95c-2.5.26-5.18-.75-7.64-1.62-6.06-2.12-12.52-3.17-18.96-3.1-8.52.13-17.03,2.2-25.48,1.24-8.48-1-17.43-6.35-18.62-14.8-.51-3.58.48-7.25,2.1-10.51,4.19-8.29,13.03-14.07,22.32-14.59,3.75-.19,7.49.38,11.16,1.25,10.88,2.6,21.32,8.14,29.07,16.3,2.1,2.2,7.02,8.22,9.61,13.97l14.51-48.34,1.85-.24-16,70.85c3.37-2.36,7.81-4.16,9.66-4.78,7.3-2.38,15.39-2.31,22.79-.34,2.48.69,4.91,1.55,7.11,2.88,1.01.63,1.97,1.36,2.84,2.17,3.73,3.54,5.97,8.7,5.84,13.88-.07,2.48-.68,5.01-2.14,7.01Z" style="fill: none; stroke: #223656; stroke-linecap: round; stroke-linejoin: round; stroke-width: 3.67px;"/>
              <path d="M1919.17,1050.64c2.55-10.09-2.46-20.27-11.44-24.64-1.29-.63-2.7-1.15-4.15-1.51-3.28-.83-6.54-.85-9.63-.21,1.22-1.91,2.19-4.01,2.77-6.3,2.92-11.54-4.08-23.27-15.62-26.19-11.54-2.92-23.24,4.09-26.16,15.62-.45,1.8-.67,3.62-.65,5.39-2.58-2.47-5.84-4.35-9.55-5.28-11.54-2.92-23.27,4.08-26.19,15.62-2.6,10.29,2.71,20.74,12.11,24.93-5.11,2.78-9.1,7.57-10.64,13.66-2.92,11.54,4.06,23.24,15.6,26.15,9.05,2.29,18.22-1.53,23.13-8.87.23-.31.44-.63.65-.98.02,2.01.32,4,.85,5.89,2.05,7.12,7.73,12.97,15.39,14.9,11.54,2.92,23.26-4.05,26.18-15.59,1.47-5.8.44-11.61-2.41-16.34,3.34-.17,6.55-1.15,9.39-2.75,4.99-2.78,8.88-7.53,10.39-13.51Z" style="fill: #e2a8dc; stroke: #223656; stroke-linecap: round; stroke-linejoin: round; stroke-width: 3.67px;"/>
              <circle cx="1867.42" cy="1042.55" r="19.13" style="fill: #fdda84; stroke: #223656; stroke-linecap: round; stroke-linejoin: round; stroke-width: 3.67px;"/>
              <path d="M1878.2,1039.9c1.22,4.59-.45,9.38-1.52,9.39-1.12.01-.5-5.27-4.39-8.22-1.51-1.15-2.79-1.25-3.53-2.8-.62-1.3-.7-3.3.46-4.53,1.05-1.1,2.61-1.06,2.75-1.05,3.03.13,5.4,4.15,6.22,7.21Z" style="fill: #ffe;"/>
              <path d="M1882.86,1153.22c-3.17-.78-5.5-3.37-5.16-4.02.36-.68,3.34,1.44,6.4.07,1.19-.53,1.68-1.27,2.86-1.2.99.06,2.22.67,2.58,1.78.32.99-.23,1.92-.28,2-1.08,1.78-4.28,1.89-6.4,1.36Z" style="fill: #ffe;"/>
              <path d="M1784.88,1100.09c1.42-2.94,4.43-4.7,4.99-4.23.59.49-2.09,2.97-1.38,6.25.28,1.27.9,1.9.59,3.04-.26.95-1.11,2.04-2.27,2.16-1.04.11-1.84-.62-1.9-.68-1.52-1.42-.97-4.58-.02-6.54Z" style="fill: #ffe;"/>
              <circle cx="1882.77" cy="1079.57" r="7.4" style="fill: #fad0ec; opacity: .4;"/>
              <path d="M1919.17,1050.64c-1.51,5.97-5.4,10.73-10.39,13.51-8.83-4.48-13.69-14.66-11.15-24.69,1.49-5.89,5.24-10.58,10.1-13.46,8.98,4.37,14,14.55,11.44,24.64Z" style="fill: #fad0ec; opacity: .4;"/>
              <path d="M1919.17,1050.64c2.55-10.09-2.46-20.27-11.44-24.64-1.29-.63-2.7-1.15-4.15-1.51-3.28-.83-6.54-.85-9.63-.21,1.22-1.91,2.19-4.01,2.77-6.3,2.92-11.54-4.08-23.27-15.62-26.19-11.54-2.92-23.24,4.09-26.16,15.62-.45,1.8-.67,3.62-.65,5.39-2.58-2.47-5.84-4.35-9.55-5.28-11.54-2.92-23.27,4.08-26.19,15.62-2.6,10.29,2.71,20.74,12.11,24.93-5.11,2.78-9.1,7.57-10.64,13.66-2.92,11.54,4.06,23.24,15.6,26.15,9.05,2.29,18.22-1.53,23.13-8.87.23-.31.44-.63.65-.98.02,2.01.32,4,.85,5.89,2.05,7.12,7.73,12.97,15.39,14.9,11.54,2.92,23.26-4.05,26.18-15.59,1.47-5.8.44-11.61-2.41-16.34,3.34-.17,6.55-1.15,9.39-2.75,4.99-2.78,8.88-7.53,10.39-13.51Z" style="fill: none; stroke: #223656; stroke-linecap: round; stroke-linejoin: round; stroke-width: 3.67px;"/>
            </g>
          </g>
          <g>
            <path d="M1946.1,1341.56c-.56,3.9-1.39,7.8-2.54,11.66-.6,2.23-1.31,4.45-2.07,6.68-.42,1.18-.84,2.38-1.32,3.55-.91,2.37-1.94,4.75-3.01,7.08-2.11,4.68-4.59,9.29-7.23,13.8-23.97,39.51-60.34,75.96-75.51,113.9-.04,0-.08.04-.1.06h0s-.27.1-.39.14c-.1.04-.13.08-.22.08,0,0-.07.04-.1.04-.07.04-.13.06-.2.08-.2.08-.39.15-.59.2-.59.2-1.22.38-1.91.55-.39.1-.79.2-1.22.3-.12.06-.29.08-.43.1-.09,0-.19.04-.31.08-.24.06-.5.1-.74.16-.19.04-.35.08-.56.1-.12.04-.31.08-.45.08-.17.04-.33.08-.52.1-.17.04-.35.08-.54.1-.04,0-.09,0-.11,0-.12.03-.29.06-.42.08-.09,0-.19.04-.3.06-.28.06-.54.08-.84.14-.19.04-.38.08-.58.08-.47.08-.91.16-1.37.22-.19.04-.37.06-.56.08-.16,0-.32.04-.49.06-.19.04-.42.08-.62.08-.42.06-.86.1-1.27.16-.44.06-.87.1-1.31.16-.23,0-.46.06-.67.08-1.12.12-2.29.26-3.48.34-.48.06-.95.08-1.44.12-.23.04-.48.04-.68.06-.29,0-.59.06-.89.08-.66.06-1.27.08-1.93.12-.32,0-.66.06-.98.06-.27,0-.5.06-.77.06-.27,0-.5.04-.75.04-.25,0-.48.04-.75.06-.02,0-.05,0-.07,0-.29,0-.61,0-.88.04-.86.04-1.76.08-2.64.08-.47,0-.92.04-1.4.06-.27,0-.54,0-.81,0-.29,0-.54,0-.83,0h-.86c-.54,0-1.11.04-1.67.04-1.69,0-3.38,0-5.07,0-.85,0-1.69,0-2.52-.04-.29,0-.54,0-.83,0-.29,0-.63,0-.95-.04-.23,0-.45,0-.68,0-.29,0-.54-.04-.84-.04-.32,0-.65-.04-1.02-.06h-.09c-.29,0-.61,0-.9-.04-.61,0-1.24-.06-1.83-.08-.2,0-.4,0-.59,0-.52-.04-1.02-.08-1.52-.08-.32,0-.66-.04-.96-.08-.34,0-.68-.04-1.04-.06-.59-.06-1.2-.08-1.8-.14-.66-.06-1.32-.1-1.98-.16-.25-.04-.5-.07-.75-.08-.32-.05-.66-.08-.96-.1-.55-.06-1.1-.1-1.65-.16-.3-.04-.56-.08-.85-.1-.3-.04-.55-.08-.85-.08-.44-.06-.88-.12-1.32-.18-.21,0-.41-.06-.62-.08-.14,0-.3-.04-.46-.06-.16-.02-.31-.06-.44-.08-.12,0-.23-.04-.32-.04-.81-.12-1.61-.26-2.35-.38-.16-.04-.35-.08-.52-.1-.56-.08-1.1-.2-1.67-.3-.11,0-.26-.06-.38-.08-.24-.06-.47-.08-.69-.14-.15-.04-.31-.08-.43-.1-.4-.08-.81-.15-1.17-.26-.1-.04-.17-.06-.27-.08-.12-.04-.24-.06-.33-.08-.07,0-.11,0-.19-.06-.67-.16-1.27-.34-1.84-.52-.09,0-.17-.04-.24-.08-.31-.08-.64-.22-.91-.3-8.72-21-23.01-41.59-38.88-62.45-12.74-16.9-26.29-34.01-36.78-51.75-5.62-9.59-10.28-19.63-13.29-29.83,0,0,0-.05,0-.06-5.15-17.37-5.35-35.17,1.03-51.73,4.39-11.52,11.88-22.44,22.44-32.24.8-.76,1.64-1.5,2.5-2.24t0,0c2.14-1.86,4.37-3.66,6.72-5.41,9.98-7.49,21.61-13.88,30.84-21.43h0c1.03-.86,2.05-1.71,3.02-2.59.94-.81,1.8-1.67,2.65-2.52,11.5-11.61,15.74-25.66,16.32-38.84.32-7.68-.53-15.18-2.13-22.28-.08-.38-.16-.75-.25-1.09-1.45-6-3.4-11.69-5.7-16.91,34.09,0,68.18,0,102.27,0-.39.9-.77,1.83-1.14,2.76-.46,1.07-.89,2.18-1.29,3.3-1.28,3.46-2.36,7.1-3.26,10.85-1.76,7.41-2.74,15.26-2.41,23.34.58,13.2,4.82,27.26,16.32,38.84,1.91,1.92,3.98,3.75,6.19,5.51,9.15,7.38,20.54,13.67,30.35,21.03,2.76,2.09,5.4,4.22,7.86,6.45.97.84,1.88,1.71,2.79,2.58.91.86,1.8,1.77,2.65,2.65.85.9,1.68,1.78,2.5,2.69,5.69,6.32,10.2,13.07,13.53,20.06,1.45,2.99,2.63,6.04,3.64,9.12.33,1.03.63,2.08.92,3.1.55,2.08,1.03,4.15,1.42,6.25h0c.18.99.32,1.95.49,2.93.08.3.12.63.14.92.92,7.26.78,14.63-.33,22.01,0,0,0,.01,0,.02Z" style="fill: #a7de94; stroke: #223656; stroke-miterlimit: 10; stroke-width: 3.67px;"/>
            <path d="M1854.29,1498.25s0,.04-.01.06c-1.92,4.48-3.54,9.41-5.02,13.88-21.18,5-49.67,4.17-69.46-.35-1.46-4.41-3.1-8.85-4.95-13.29,25.38-.09,50.79-.18,76.24-.28,1.07,0,2.13,0,3.2,0,0,0,0-.01,0-.02Z" style="fill: #27b292; stroke: #223656; stroke-miterlimit: 10; stroke-width: 3.67px;"/>
            <path d="M1918.22,1269.24s-9.15,1.6-9.19,1.6c-23.67,3.79-50.73,4.59-91.32,4.59-40.63,0-76.98-2.42-100.5-6.19-1.8-.35-3.59-.69-5.37-1.04,2.14-1.86,4.36-3.66,6.69-5.41,9.99-7.49,21.62-13.88,30.87-21.43.94.08,1.9.16,2.84.25.94.09,1.91.17,2.82.23.74.06,1.45.11,2.17.17,1.91.13,3.83.27,5.77.4,1.74.13,3.53.21,5.27.33,1.01.06,2.01.1,3.01.17.95.06,1.9.1,2.84.17,1.47.06,2.93.15,4.46.21.58.02,1.18.04,1.78.08,1.81.08,3.63.15,5.47.21.98.02,1.99.06,3,.1,1.01.02,2.02.06,3.03.1.89.02,1.82.04,2.74.06.67.01,1.35.03,2.02.04.95.04,1.91.04,2.86.06.84,0,1.64.04,2.48.04,2.45.04,4.97.06,7.49.1h15.24c1.71,0,3.35-.02,5-.06.83,0,1.68,0,2.48-.04.84,0,1.65-.02,2.48-.04.81,0,1.62-.02,2.43-.04,1.39-.02,2.77-.06,4.13-.1,3.46-.1,6.86-.21,10.23-.33,1.55-.06,3.11-.12,4.63-.19.75-.02,1.52-.08,2.3-.1.95-.05,1.9-.1,2.84-.15,1.92-.11,3.85-.21,5.71-.31.89-.04,1.78-.1,2.63-.17.66-.05,1.35-.08,2-.15,1.43-.09,2.83-.19,4.26-.29,1.4-.1,2.8-.21,4.16-.33,9.15,7.36,20.53,13.67,30.35,21.03,2.77,2.09,5.4,4.22,7.83,6.45.02,0,.04-.01.06-.02Z" style="fill: #27b292; stroke: #223656; stroke-miterlimit: 10; stroke-width: 3.67px;"/>
            <path d="M1865.73,1157.15c-.39.89-.77,1.83-1.14,2.76-.48,1.07-.9,2.18-1.29,3.3-1.27,3.46-2.36,7.11-3.26,10.85-2.27.54-4.9,1.01-7.85,1.45-9.71,1.45-22.94,2.32-37.53,2.32-19.1,0-35.85-1.51-45.52-3.79-1.45-6-3.4-11.69-5.7-16.91h102.27s0,.01,0,.02Z" style="fill: #27b292; stroke: #223656; stroke-miterlimit: 10; stroke-width: 3.67px;"/>
            <g style="mix-blend-mode: soft-light; opacity: .7;">
              <path d="M1946.1,1341.56c-.56,3.9-1.39,7.8-2.54,11.66-.6,2.25-1.31,4.45-2.07,6.68-.42,1.18-.84,2.38-1.32,3.55-.91,2.37-1.91,4.73-3.01,7.08-2.11,4.68-4.59,9.29-7.23,13.8-23.97,39.51-60.34,75.96-75.51,113.9-.04,0-.08.04-.1.06,0-.02,0-.04.01-.06h-3.2c7.25-39.92,40.64-77.59,61.87-113.15,22.9-37.7,33.26-86.01-3.69-118.16-2.44-2.22-5.02-4.35-7.79-6.44-9.72-7.36-20.95-13.66-29.98-21.01-2.17-1.76-4.2-3.58-6.08-5.5-11.27-11.6-15.22-25.64-15.46-38.78-.14-4.51-1.37-10.2,2.23-19.69,1.84-4.98,4.95-11.02,9.27-18.38h4.26c-.4.89-.77,1.83-1.14,2.76-.45,1.07-.89,2.18-1.29,3.3-1.27,3.46-2.36,7.1-3.25,10.85-1.76,7.4-2.74,15.26-2.4,23.34.59,13.2,4.82,27.26,16.32,38.84,1.91,1.92,3.99,3.75,6.19,5.51,9.16,7.38,20.54,13.67,30.35,21.03,2.77,2.09,5.4,4.22,7.86,6.45.97.85,1.88,1.71,2.79,2.58.91.87,1.8,1.76,2.65,2.65.86.89,1.68,1.78,2.5,2.69,5.71,6.33,10.24,13.07,13.53,20.06,1.48,2.99,2.68,6.04,3.64,9.12.33,1.03.63,2.07.92,3.1.55,1.99.98,3.98,1.38,5.97,0,.08.04.19.08.28h0c.18.98.32,1.95.49,2.93.08.3.12.62.14.92.95,7.26.78,14.64-.33,22.01-.03.01-.06.03-.1.04Z"/>
            </g>
            <g style="mix-blend-mode: soft-light; opacity: .7;">
              <path d="M1736.06,1436.08c-12.74-16.9-26.29-34.01-36.79-51.75-5.65-9.56-10.3-19.62-13.29-29.81,0-.02,0-.05,0-.06-3.99-17.37-4.02-35.17,1.02-51.73,4.39-11.52,11.88-22.44,22.44-32.25-25.49,32.06-18.07,78.28-.7,114.61,7.52,16.54,17.8,33.52,27.29,50.98,0,0,.02,0,.03,0Z"/>
            </g>
          </g>
          <path d="M1897.44,1315.58c4.94,3.32,10.28,9.28,10.94,16.49,1.01,7.19-2.68,15.61-7.62,23.44-4.92,7.83-11.09,15.07-14.52,20.07-3.74,5.03-4.74,7.84-6.38,7.61-2.09-.56-4.41-8.51-7.99-34.42-3.06-21.84-.05-31.04,7.28-34.93,5.61-2.94,11.89-2.14,18.29,1.73Z" style="fill: #fff;"/>
          <path d="M1789.62,1195.93c5.47,2.11,6.79,9.4,4.17,15.8-2.19,6.45-8.33,12-7.82,11.72-.92-.12-.49-3.42-3.9-13.59-3.03-8.58-2.73-12.1.24-13.89,2.28-1.35,4.84-1.37,7.3-.04Z" style="fill: #fff;"/>
        </g>
        <rect x="205.59" y="1498.08" width="1903.9" height="26.76" rx="13.38" ry="13.38" style="fill: #a5663a; stroke: #223656; stroke-miterlimit: 10; stroke-width: 3px;"/>
        <g>
          <g>
            <g>
              <path d="M2183.55,670.18c-.61,7.28-6.4,13.4-12.87,13.66-164.52,6.42-329.03,8.04-493.55,4.87-55.65-1.07-111.3-2.69-166.94-4.87-6.48-.26-12.26-6.37-12.87-13.66-9.7-115.6-11.66-231.19-5.86-346.79.65-13.12,1.41-26.24,2.27-39.36v-.02l.32.02h693.11c.52,7.83.99,15.66,1.43,23.49,6.81,120.89,5.13,241.77-5.02,362.66Z" style="fill: #3382bb; stroke: #223656; stroke-miterlimit: 10; stroke-width: 3px;"/>
              <path d="M2183.55,670.18c-.61,7.28-6.4,13.4-12.87,13.66-164.52,6.42-329.03,8.04-493.55,4.87-55.65-1.07-111.3-2.69-166.94-4.87-6.48-.26-12.26-6.37-12.87-13.66-9.7-115.6-11.66-231.19-5.86-346.79.65-13.12,1.41-26.24,2.27-39.36v-.02l.32.02h693.11c.52,7.83.99,15.66,1.43,23.49,6.81,120.89,5.13,241.77-5.02,362.66Z" style="fill: #27357c; stroke: #223656; stroke-miterlimit: 10; stroke-width: 3px;"/>
              <path d="M1839.8,691.52c-54.38,0-108.65-.52-162.7-1.56-55.49-1.07-111.67-2.71-166.97-4.87-7.1-.28-13.41-6.92-14.07-14.8-9.67-115.14-11.64-231.87-5.87-346.95.65-13.15,1.42-26.4,2.27-39.38l.08-1.23,1.56.07h694.21s.08,1.17.08,1.17c.5,7.53.98,15.44,1.43,23.51,6.78,120.38,5.09,242.45-5.02,362.83-.66,7.88-6.97,14.52-14.07,14.8-109.71,4.28-220.5,6.43-330.93,6.43ZM1494.88,285.28c-.82,12.59-1.56,25.43-2.19,38.18-5.77,114.97-3.8,231.59,5.86,346.62.56,6.67,5.8,12.28,11.68,12.51,55.28,2.16,111.44,3.8,166.92,4.87,163.75,3.16,329.78,1.52,493.48-4.87,5.88-.23,11.12-5.84,11.68-12.51h0c10.1-120.26,11.79-242.22,5.02-362.48-.43-7.65-.88-15.15-1.35-22.31h-691.09Z" style="fill: #223656; stroke: #223656; stroke-miterlimit: 10; stroke-width: 3px;"/>
            </g>
            <g>
              <path d="M2187.14,284.03h-693.11l-.32-.02c1.05-16.06,2.25-32.11,3.6-48.16.61-7.28,6.4-13.4,12.87-13.66,220.17-8.59,440.33-8.59,660.5,0,6.48.26,12.26,6.38,12.87,13.66,1.35,16.06,2.55,32.12,3.59,48.18Z" style="fill: #5665e8; stroke: #223656; stroke-miterlimit: 10; stroke-width: 3px;"/>
              <path d="M2188.48,285.28l-694.84-.02-1.26-.07.08-1.26c1.04-15.97,2.26-32.18,3.6-48.18.66-7.88,6.97-14.52,14.07-14.81,219.17-8.55,441.43-8.55,660.59,0,7.1.29,13.41,6.93,14.07,14.81,1.35,16.11,2.56,32.32,3.59,48.2l.09,1.33ZM1840.43,217.03c-110.34,0-220.63,2.14-330.2,6.41-5.88.24-11.12,5.85-11.68,12.52-1.31,15.55-2.49,31.3-3.51,46.83h690.76c-1.01-15.44-2.19-31.19-3.5-46.83-.56-6.67-5.8-12.28-11.68-12.52-109.54-4.27-219.88-6.41-330.19-6.41Z" style="fill: #223656; stroke: #223656; stroke-miterlimit: 10; stroke-width: 3px;"/>
            </g>
            <g style="mix-blend-mode: multiply; opacity: .19;">
              <path d="M2183.55,670.18c-.61,7.28-6.4,13.4-12.87,13.66-164.52,6.42-329.03,8.04-493.55,4.87,136.03-16.23,248.26-49.85,332.96-103.62,97.85-62.1,158.96-151.08,177.55-271.16.33-2.12.65-4.26.94-6.41,6.81,120.89,5.13,241.77-5.02,362.66Z" style="fill: #21409a;"/>
            </g>
            <g>
              <g>
                <circle cx="2090.22" cy="252.18" r="10.44" style="fill: #a7de94; stroke: #223656; stroke-miterlimit: 10; stroke-width: 3px;"/>
                <path d="M2090.22,263.51c-6.25,0-11.33-5.08-11.33-11.33s5.08-11.33,11.33-11.33,11.33,5.08,11.33,11.33-5.08,11.33-11.33,11.33ZM2090.22,242.62c-5.27,0-9.55,4.29-9.55,9.55s4.29,9.55,9.55,9.55,9.55-4.29,9.55-9.55-4.29-9.55-9.55-9.55Z" style="fill: #223656; stroke: #223656; stroke-miterlimit: 10; stroke-width: 3px;"/>
              </g>
              <g>
                <circle cx="2117.56" cy="252.18" r="10.44" style="fill: #fafb33; stroke: #223656; stroke-miterlimit: 10; stroke-width: 3px;"/>
                <path d="M2117.56,263.51c-6.25,0-11.33-5.08-11.33-11.33s5.08-11.33,11.33-11.33,11.33,5.08,11.33,11.33-5.08,11.33-11.33,11.33ZM2117.56,242.62c-5.27,0-9.55,4.29-9.55,9.55s4.29,9.55,9.55,9.55,9.55-4.29,9.55-9.55-4.29-9.55-9.55-9.55Z" style="fill: #223656; stroke: #223656; stroke-miterlimit: 10; stroke-width: 3px;"/>
              </g>
              <g>
                <circle cx="2144.89" cy="252.18" r="10.44" style="fill: #fe877b; stroke: #223656; stroke-miterlimit: 10; stroke-width: 3px;"/>
                <path d="M2144.89,263.51c-6.25,0-11.33-5.08-11.33-11.33s5.08-11.33,11.33-11.33,11.33,5.08,11.33,11.33-5.08,11.33-11.33,11.33ZM2144.89,242.62c-5.27,0-9.55,4.29-9.55,9.55s4.29,9.55,9.55,9.55,9.55-4.29,9.55-9.55-4.29-9.55-9.55-9.55Z" style="fill: #223656; stroke: #223656; stroke-miterlimit: 10; stroke-width: 3px;"/>
              </g>
            </g>
            <path d="M1666.52,284.03c-12.33.72-40.06,2.35-79.56,4.87-36.46,2.33-55.08,3.75-74.36,16.03-9.41,5.99-16.33,12.83-21.15,18.47.65-13.12,1.41-26.24,2.27-39.36h172.8Z" style="fill: #223656; stroke: #223656; stroke-miterlimit: 10; stroke-width: 3px;"/>
            <g>
              <path d="M1583.86,604.41l-18.85-10.88c-.62-.36-1.38.09-1.38.8v4.1h-24.88c-.51,0-.92.41-.92.92v11.72c0,.51.41.92.92.92h24.88v4.1c0,.71.77,1.15,1.38.8l18.85-10.88c.62-.36.62-1.24,0-1.6Z" style="fill: #fe877b; stroke: #223656; stroke-miterlimit: 10; stroke-width: 3px;"/>
              <rect x="1595.81" y="337.51" width="19.32" height="19.32" rx="2.41" ry="2.41" style="fill: #91dece; stroke: #223656; stroke-miterlimit: 10; stroke-width: 3px;"/>
              <rect x="1595.81" y="373.58" width="19.32" height="19.32" rx="2.41" ry="2.41" style="fill: #91dece; stroke: #223656; stroke-miterlimit: 10; stroke-width: 3px;"/>
              <rect x="1595.81" y="400.47" width="19.32" height="19.32" rx="2.41" ry="2.41" style="fill: #91dece; stroke: #223656; stroke-miterlimit: 10; stroke-width: 3px;"/>
              <rect x="1595.81" y="425.39" width="19.32" height="19.32" rx="2.41" ry="2.41" style="fill: #91dece; stroke: #223656; stroke-miterlimit: 10; stroke-width: 3px;"/>
              <rect x="1595.81" y="449.96" width="19.32" height="19.32" rx="2.41" ry="2.41" style="fill: #91dece; stroke: #223656; stroke-miterlimit: 10; stroke-width: 3px;"/>
              <rect x="1595.81" y="485.5" width="19.32" height="19.32" rx="2.41" ry="2.41" style="fill: #91dece; stroke: #223656; stroke-miterlimit: 10; stroke-width: 3px;"/>
              <rect x="1595.81" y="510.33" width="19.32" height="19.32" rx="2.41" ry="2.41" style="fill: #91dece; stroke: #223656; stroke-miterlimit: 10; stroke-width: 3px;"/>
              <rect x="1595.81" y="535.62" width="19.32" height="19.32" rx="2.41" ry="2.41" style="fill: #91dece; stroke: #223656; stroke-miterlimit: 10; stroke-width: 3px;"/>
              <rect x="1595.81" y="561.37" width="19.32" height="19.32" rx="2.41" ry="2.41" style="fill: #91dece; stroke: #223656; stroke-miterlimit: 10; stroke-width: 3px;"/>
              <rect x="1595.81" y="595.76" width="19.32" height="19.32" rx="2.41" ry="2.41" style="fill: #91dece; stroke: #223656; stroke-miterlimit: 10; stroke-width: 3px;"/>
              <rect x="1595.81" y="620.12" width="19.32" height="19.32" rx="2.41" ry="2.41" style="fill: #91dece; stroke: #223656; stroke-miterlimit: 10; stroke-width: 3px;"/>
              <path d="M2085.53,353.23h-180.74c-3.83,0-6.94-3.11-6.94-6.94s3.11-6.94,6.94-6.94h180.74c3.83,0,6.94,3.11,6.94,6.94s-3.11,6.94-6.94,6.94Z" style="fill: #ffe; stroke: #223656; stroke-miterlimit: 10; stroke-width: 3px;"/>
              <path d="M1878.43,353.23h-244.83c-3.83,0-6.94-3.11-6.94-6.94s3.11-6.94,6.94-6.94h244.83c3.83,0,6.94,3.11,6.94,6.94s-3.11,6.94-6.94,6.94Z" style="fill: #ffe; stroke: #223656; stroke-miterlimit: 10; stroke-width: 3px;"/>
              <path d="M1698.73,394.34h-57.92c-6.27,0-11.36-5.08-11.36-11.35s5.08-11.35,11.36-11.35h57.92c6.27,0,11.36,5.08,11.36,11.35s-5.08,11.35-11.36,11.35Z" style="fill: #fe877b; stroke: #223656; stroke-miterlimit: 10; stroke-width: 3px;"/>
              <path d="M1698.73,506.27h-57.92c-6.27,0-11.36-5.08-11.36-11.35s5.08-11.35,11.36-11.35h57.92c6.27,0,11.36,5.08,11.36,11.35s-5.08,11.35-11.36,11.35Z" style="fill: #fe877b; stroke: #223656; stroke-miterlimit: 10; stroke-width: 3px;"/>
              <path d="M1921.98,417.07h-248.3c-3.83,0-6.94-3.11-6.94-6.94s3.11-6.94,6.94-6.94h248.3c3.83,0,6.94,3.11,6.94,6.94s-3.11,6.94-6.94,6.94Z" style="fill: #c7eeff; stroke: #223656; stroke-miterlimit: 10; stroke-width: 3px;"/>
              <path d="M1932.43,526.93h-258.75c-3.83,0-6.94-3.11-6.94-6.94s3.11-6.94,6.94-6.94h258.75c3.83,0,6.94,3.11,6.94,6.94s-3.11,6.94-6.94,6.94Z" style="fill: #ffe; stroke: #223656; stroke-miterlimit: 10; stroke-width: 3px;"/>
              <path d="M1724.48,552.22h-50.8c-3.83,0-6.94-3.11-6.94-6.94s3.11-6.94,6.94-6.94h50.8c3.83,0,6.94,3.11,6.94,6.94s-3.11,6.94-6.94,6.94Z" style="fill: #ffe; stroke: #223656; stroke-miterlimit: 10; stroke-width: 3px;"/>
              <path d="M1822.76,577.97h-149.08c-3.83,0-6.94-3.11-6.94-6.94s3.11-6.94,6.94-6.94h149.08c3.83,0,6.94,3.11,6.94,6.94s-3.11,6.94-6.94,6.94Z" style="fill: #ffe; stroke: #223656; stroke-miterlimit: 10; stroke-width: 3px;"/>
              <path d="M1749.16,612.36h-114.51c-3.83,0-6.94-3.11-6.94-6.94s3.11-6.94,6.94-6.94h114.51c3.83,0,6.94,3.11,6.94,6.94s-3.11,6.94-6.94,6.94Z" style="fill: #a7de94; stroke: #223656; stroke-miterlimit: 10; stroke-width: 3px;"/>
              <path d="M1691.71,636.72h-57.06c-3.83,0-6.94-3.11-6.94-6.94s3.11-6.94,6.94-6.94h57.06c3.83,0,6.94,3.11,6.94,6.94s-3.11,6.94-6.94,6.94Z" style="fill: #c7eeff; stroke: #223656; stroke-miterlimit: 10; stroke-width: 3px;"/>
              <path d="M1966.61,636.72h-250.68c-3.83,0-6.94-3.11-6.94-6.94s3.11-6.94,6.94-6.94h250.68c3.83,0,6.94,3.11,6.94,6.94s-3.11,6.94-6.94,6.94Z" style="fill: #c7eeff; stroke: #223656; stroke-miterlimit: 10; stroke-width: 3px;"/>
              <path d="M2034.98,636.72h-42.25c-3.83,0-6.94-3.11-6.94-6.94s3.11-6.94,6.94-6.94h42.25c3.83,0,6.94,3.11,6.94,6.94s-3.11,6.94-6.94,6.94Z" style="fill: #c7eeff; stroke: #223656; stroke-miterlimit: 10; stroke-width: 3px;"/>
              <path d="M1859.79,612.36h-87.36c-3.83,0-6.94-3.11-6.94-6.94s3.11-6.94,6.94-6.94h87.36c3.83,0,6.94,3.11,6.94,6.94s-3.11,6.94-6.94,6.94Z" style="fill: #a7de94; stroke: #223656; stroke-miterlimit: 10; stroke-width: 3px;"/>
              <path d="M2063.46,612.36h-181.36c-3.83,0-6.94-3.11-6.94-6.94s3.11-6.94,6.94-6.94h181.36c3.83,0,6.94,3.11,6.94,6.94s-3.11,6.94-6.94,6.94Z" style="fill: #a7de94; stroke: #223656; stroke-miterlimit: 10; stroke-width: 3px;"/>
              <path d="M1894.92,552.22h-148.6c-3.83,0-6.94-3.11-6.94-6.94s3.11-6.94,6.94-6.94h148.6c3.83,0,6.94,3.11,6.94,6.94s-3.11,6.94-6.94,6.94Z" style="fill: #ffe; stroke: #223656; stroke-miterlimit: 10; stroke-width: 3px;"/>
              <path d="M2066.31,552.22h-148.6c-3.83,0-6.94-3.11-6.94-6.94s3.11-6.94,6.94-6.94h148.6c3.83,0,6.94,3.11,6.94,6.94s-3.11,6.94-6.94,6.94Z" style="fill: #ffe; stroke: #223656; stroke-miterlimit: 10; stroke-width: 3px;"/>
              <path d="M2041.15,526.93h-85.93c-3.83,0-6.94-3.11-6.94-6.94s3.11-6.94,6.94-6.94h85.93c3.83,0,6.94,3.11,6.94,6.94s-3.11,6.94-6.94,6.94Z" style="fill: #ffe; stroke: #223656; stroke-miterlimit: 10; stroke-width: 3px;"/>
              <path d="M1790.95,441.99h-117.27c-3.83,0-6.94-3.11-6.94-6.94s3.11-6.94,6.94-6.94h117.27c3.83,0,6.94,3.11,6.94,6.94s-3.11,6.94-6.94,6.94Z" style="fill: #c7eeff; stroke: #223656; stroke-miterlimit: 10; stroke-width: 3px;"/>
              <path d="M1741.1,466.56h-67.42c-3.83,0-6.94-3.11-6.94-6.94s3.11-6.94,6.94-6.94h67.42c3.83,0,6.94,3.11,6.94,6.94s-3.11,6.94-6.94,6.94Z" style="fill: #c7eeff; stroke: #223656; stroke-miterlimit: 10; stroke-width: 3px;"/>
              <path d="M1881.63,466.56h-121.06c-3.83,0-6.94-3.11-6.94-6.94s3.11-6.94,6.94-6.94h121.06c3.83,0,6.94,3.11,6.94,6.94s-3.11,6.94-6.94,6.94Z" style="fill: #c7eeff; stroke: #223656; stroke-miterlimit: 10; stroke-width: 3px;"/>
              <path d="M2041.62,466.56h-136.26c-3.83,0-6.94-3.11-6.94-6.94s3.11-6.94,6.94-6.94h136.26c3.83,0,6.94,3.11,6.94,6.94s-3.11,6.94-6.94,6.94Z" style="fill: #c7eeff; stroke: #223656; stroke-miterlimit: 10; stroke-width: 3px;"/>
              <path d="M2068.68,441.99h-251.63c-3.83,0-6.94-3.11-6.94-6.94s3.11-6.94,6.94-6.94h251.63c3.83,0,6.94,3.11,6.94,6.94s-3.11,6.94-6.94,6.94Z" style="fill: #c7eeff; stroke: #223656; stroke-miterlimit: 10; stroke-width: 3px;"/>
              <path d="M2043.05,577.97h-197.03c-3.83,0-6.94-3.11-6.94-6.94s3.11-6.94,6.94-6.94h197.03c3.83,0,6.94,3.11,6.94,6.94s-3.11,6.94-6.94,6.94Z" style="fill: #ffe; stroke: #223656; stroke-miterlimit: 10; stroke-width: 3px;"/>
            </g>
            <path d="M2183.55,670.18c-.61,7.28-6.4,13.4-12.87,13.66-164.52,6.42-329.03,8.04-493.55,4.87-55.65-1.07-111.3-2.69-166.94-4.87-6.48-.26-12.26-6.37-12.87-13.66-9.7-115.6-11.66-231.19-5.86-346.79.65-13.12,1.41-26.24,2.27-39.36v-.02l.32.02h693.11c.52,7.83.99,15.66,1.43,23.49,6.81,120.89,5.13,241.77-5.02,362.66Z" style="fill: none; stroke: #223656; stroke-miterlimit: 10; stroke-width: 3px;"/>
            <path d="M1839.8,691.52c-54.38,0-108.65-.52-162.7-1.56-55.49-1.07-111.67-2.71-166.97-4.87-7.1-.28-13.41-6.92-14.07-14.8-9.67-115.14-11.64-231.87-5.87-346.95.65-13.15,1.42-26.4,2.27-39.38l.08-1.23,1.56.07h694.21s.08,1.17.08,1.17c.5,7.53.98,15.44,1.43,23.51,6.78,120.38,5.09,242.45-5.02,362.83-.66,7.88-6.97,14.52-14.07,14.8-109.71,4.28-220.5,6.43-330.93,6.43ZM1494.88,285.28c-.82,12.59-1.56,25.43-2.19,38.18-5.77,114.97-3.8,231.59,5.86,346.62.56,6.67,5.8,12.28,11.68,12.51,55.28,2.16,111.44,3.8,166.92,4.87,163.75,3.16,329.78,1.52,493.48-4.87,5.88-.23,11.12-5.84,11.68-12.51h0c10.1-120.26,11.79-242.22,5.02-362.48-.43-7.65-.88-15.15-1.35-22.31h-691.09Z" style="fill: #223656; stroke: #223656; stroke-miterlimit: 10; stroke-width: 3px;"/>
          </g>
          <g>
            <g>
              <path d="M2123.41,625.08c-.61,7.28-6.4,13.4-12.87,13.66-164.52,6.42-329.03,8.04-493.55,4.87-55.65-1.07-111.3-2.69-166.94-4.87-6.48-.26-12.26-6.37-12.87-13.66-9.7-115.6-11.66-231.19-5.86-346.79.65-13.12,1.41-26.24,2.27-39.36v-.02l.32.02h693.11c.52,7.83.99,15.66,1.43,23.49,6.81,120.89,5.13,241.77-5.02,362.66Z" style="fill: #3382bb; stroke: #223656; stroke-miterlimit: 10; stroke-width: 3px;"/>
              <path d="M2123.41,625.08c-.61,7.28-6.4,13.4-12.87,13.66-164.52,6.42-329.03,8.04-493.55,4.87-55.65-1.07-111.3-2.69-166.94-4.87-6.48-.26-12.26-6.37-12.87-13.66-9.7-115.6-11.66-231.19-5.86-346.79.65-13.12,1.41-26.24,2.27-39.36v-.02l.32.02h693.11c.52,7.83.99,15.66,1.43,23.49,6.81,120.89,5.13,241.77-5.02,362.66Z" style="fill: #3a4591; stroke: #223656; stroke-miterlimit: 10; stroke-width: 3px;"/>
              <path d="M1779.66,646.42c-54.38,0-108.65-.52-162.7-1.56-55.49-1.07-111.67-2.71-166.97-4.87-7.1-.28-13.41-6.92-14.07-14.8-9.67-115.14-11.64-231.87-5.87-346.95.65-13.15,1.42-26.4,2.27-39.38l.08-1.23,1.56.07h694.21s.08,1.17.08,1.17c.5,7.53.98,15.44,1.43,23.51,6.78,120.38,5.09,242.45-5.02,362.83-.66,7.88-6.97,14.52-14.07,14.8-109.71,4.28-220.5,6.43-330.93,6.43ZM1434.74,240.18c-.82,12.59-1.56,25.43-2.19,38.18-5.77,114.97-3.8,231.59,5.86,346.62.56,6.67,5.8,12.28,11.68,12.51,55.28,2.16,111.44,3.8,166.92,4.87,163.75,3.16,329.78,1.52,493.48-4.87,5.88-.23,11.12-5.84,11.68-12.51h0c10.1-120.26,11.79-242.22,5.02-362.48-.43-7.65-.88-15.15-1.35-22.31h-691.09Z" style="fill: #223656; stroke: #223656; stroke-miterlimit: 10; stroke-width: 3px;"/>
            </g>
            <g>
              <path d="M2127,238.93h-693.11l-.32-.02c1.05-16.06,2.25-32.11,3.6-48.16.61-7.28,6.4-13.4,12.87-13.66,220.17-8.59,440.33-8.59,660.5,0,6.48.26,12.26,6.38,12.87,13.66,1.35,16.06,2.55,32.12,3.59,48.18Z" style="fill: #6c79ef; stroke: #223656; stroke-miterlimit: 10; stroke-width: 3px;"/>
              <path d="M2128.34,240.18l-694.84-.02-1.26-.07.08-1.26c1.04-15.97,2.26-32.18,3.6-48.18.66-7.88,6.97-14.52,14.07-14.81,219.17-8.55,441.43-8.55,660.59,0,7.1.29,13.41,6.93,14.07,14.81,1.35,16.11,2.56,32.32,3.59,48.2l.09,1.33ZM1780.29,171.92c-110.34,0-220.63,2.14-330.2,6.41-5.88.24-11.12,5.85-11.68,12.52-1.31,15.55-2.49,31.3-3.51,46.83h690.76c-1.01-15.44-2.19-31.19-3.5-46.83-.56-6.67-5.8-12.28-11.68-12.52-109.54-4.27-219.88-6.41-330.19-6.41Z" style="fill: #223656; stroke: #223656; stroke-miterlimit: 10; stroke-width: 3px;"/>
            </g>
            <g style="mix-blend-mode: multiply; opacity: .19;">
              <path d="M2123.41,625.08c-.61,7.28-6.4,13.4-12.87,13.66-164.52,6.42-329.03,8.04-493.55,4.87,136.03-16.23,248.26-49.85,332.96-103.62,97.85-62.1,158.96-151.08,177.55-271.16.33-2.12.65-4.26.94-6.41,6.81,120.89,5.13,241.77-5.02,362.66Z" style="fill: #21409a;"/>
            </g>
            <g>
              <g>
                <circle cx="2030.08" cy="207.07" r="10.44" style="fill: #a7de94; stroke: #223656; stroke-miterlimit: 10; stroke-width: 3px;"/>
                <path d="M2030.08,218.4c-6.25,0-11.33-5.08-11.33-11.33s5.08-11.33,11.33-11.33,11.33,5.08,11.33,11.33-5.08,11.33-11.33,11.33ZM2030.08,197.52c-5.27,0-9.55,4.29-9.55,9.55s4.29,9.55,9.55,9.55,9.55-4.29,9.55-9.55-4.29-9.55-9.55-9.55Z" style="fill: #223656; stroke: #223656; stroke-miterlimit: 10; stroke-width: 3px;"/>
              </g>
              <g>
                <circle cx="2057.42" cy="207.07" r="10.44" style="fill: #fafb33; stroke: #223656; stroke-miterlimit: 10; stroke-width: 3px;"/>
                <path d="M2057.42,218.4c-6.25,0-11.33-5.08-11.33-11.33s5.08-11.33,11.33-11.33,11.33,5.08,11.33,11.33-5.08,11.33-11.33,11.33ZM2057.42,197.52c-5.27,0-9.55,4.29-9.55,9.55s4.29,9.55,9.55,9.55,9.55-4.29,9.55-9.55-4.29-9.55-9.55-9.55Z" style="fill: #223656; stroke: #223656; stroke-miterlimit: 10; stroke-width: 3px;"/>
              </g>
              <g>
                <circle cx="2084.75" cy="207.07" r="10.44" style="fill: #fe877b; stroke: #223656; stroke-miterlimit: 10; stroke-width: 3px;"/>
                <path d="M2084.75,218.4c-6.25,0-11.33-5.08-11.33-11.33s5.08-11.33,11.33-11.33,11.33,5.08,11.33,11.33-5.08,11.33-11.33,11.33ZM2084.75,197.52c-5.27,0-9.55,4.29-9.55,9.55s4.29,9.55,9.55,9.55,9.55-4.29,9.55-9.55-4.29-9.55-9.55-9.55Z" style="fill: #223656; stroke: #223656; stroke-miterlimit: 10; stroke-width: 3px;"/>
              </g>
            </g>
            <path d="M1606.38,238.93c-12.33.72-40.06,2.35-79.56,4.87-36.46,2.33-55.08,3.75-74.36,16.03-9.41,5.99-16.33,12.83-21.15,18.47.65-13.12,1.41-26.24,2.27-39.36h172.8Z" style="fill: #223656; stroke: #223656; stroke-miterlimit: 10; stroke-width: 3px;"/>
            <g>
              <path d="M1523.72,559.3l-18.85-10.88c-.62-.36-1.38.09-1.38.8v4.1h-24.88c-.51,0-.92.41-.92.92v11.72c0,.51.41.92.92.92h24.88v4.1c0,.71.77,1.15,1.38.8l18.85-10.88c.62-.36.62-1.24,0-1.6Z" style="fill: #fe877b; stroke: #223656; stroke-miterlimit: 10; stroke-width: 3px;"/>
              <rect x="1535.67" y="292.41" width="19.32" height="19.32" rx="2.41" ry="2.41" style="fill: #91dece; stroke: #223656; stroke-miterlimit: 10; stroke-width: 3px;"/>
              <rect x="1535.67" y="328.47" width="19.32" height="19.32" rx="2.41" ry="2.41" style="fill: #91dece; stroke: #223656; stroke-miterlimit: 10; stroke-width: 3px;"/>
              <rect x="1535.67" y="355.36" width="19.32" height="19.32" rx="2.41" ry="2.41" style="fill: #91dece; stroke: #223656; stroke-miterlimit: 10; stroke-width: 3px;"/>
              <rect x="1535.67" y="380.28" width="19.32" height="19.32" rx="2.41" ry="2.41" style="fill: #91dece; stroke: #223656; stroke-miterlimit: 10; stroke-width: 3px;"/>
              <rect x="1535.67" y="404.85" width="19.32" height="19.32" rx="2.41" ry="2.41" style="fill: #91dece; stroke: #223656; stroke-miterlimit: 10; stroke-width: 3px;"/>
              <rect x="1535.67" y="440.4" width="19.32" height="19.32" rx="2.41" ry="2.41" style="fill: #91dece; stroke: #223656; stroke-miterlimit: 10; stroke-width: 3px;"/>
              <rect x="1535.67" y="465.22" width="19.32" height="19.32" rx="2.41" ry="2.41" style="fill: #91dece; stroke: #223656; stroke-miterlimit: 10; stroke-width: 3px;"/>
              <rect x="1535.67" y="490.51" width="19.32" height="19.32" rx="2.41" ry="2.41" style="fill: #91dece; stroke: #223656; stroke-miterlimit: 10; stroke-width: 3px;"/>
              <rect x="1535.67" y="516.27" width="19.32" height="19.32" rx="2.41" ry="2.41" style="fill: #91dece; stroke: #223656; stroke-miterlimit: 10; stroke-width: 3px;"/>
              <rect x="1535.67" y="550.65" width="19.32" height="19.32" rx="2.41" ry="2.41" style="fill: #91dece; stroke: #223656; stroke-miterlimit: 10; stroke-width: 3px;"/>
              <rect x="1535.67" y="575.02" width="19.32" height="19.32" rx="2.41" ry="2.41" style="fill: #91dece; stroke: #223656; stroke-miterlimit: 10; stroke-width: 3px;"/>
              <path d="M2025.39,308.12h-180.74c-3.83,0-6.94-3.11-6.94-6.94s3.11-6.94,6.94-6.94h180.74c3.83,0,6.94,3.11,6.94,6.94s-3.11,6.94-6.94,6.94Z" style="fill: #ffe; stroke: #223656; stroke-miterlimit: 10; stroke-width: 3px;"/>
              <path d="M1818.29,308.12h-244.83c-3.83,0-6.94-3.11-6.94-6.94s3.11-6.94,6.94-6.94h244.83c3.83,0,6.94,3.11,6.94,6.94s-3.11,6.94-6.94,6.94Z" style="fill: #ffe; stroke: #223656; stroke-miterlimit: 10; stroke-width: 3px;"/>
              <path d="M1638.59,349.24h-57.92c-6.27,0-11.36-5.08-11.36-11.35s5.08-11.35,11.36-11.35h57.92c6.27,0,11.36,5.08,11.36,11.35s-5.08,11.35-11.36,11.35Z" style="fill: #fe877b; stroke: #223656; stroke-miterlimit: 10; stroke-width: 3px;"/>
              <path d="M1638.59,461.16h-57.92c-6.27,0-11.36-5.08-11.36-11.35s5.08-11.35,11.36-11.35h57.92c6.27,0,11.36,5.08,11.36,11.35s-5.08,11.35-11.36,11.35Z" style="fill: #fe877b; stroke: #223656; stroke-miterlimit: 10; stroke-width: 3px;"/>
              <path d="M1861.84,371.96h-248.3c-3.83,0-6.94-3.11-6.94-6.94s3.11-6.94,6.94-6.94h248.3c3.83,0,6.94,3.11,6.94,6.94s-3.11,6.94-6.94,6.94Z" style="fill: #c7eeff; stroke: #223656; stroke-miterlimit: 10; stroke-width: 3px;"/>
              <path d="M1872.29,481.82h-258.75c-3.83,0-6.94-3.11-6.94-6.94s3.11-6.94,6.94-6.94h258.75c3.83,0,6.94,3.11,6.94,6.94s-3.11,6.94-6.94,6.94Z" style="fill: #ffe; stroke: #223656; stroke-miterlimit: 10; stroke-width: 3px;"/>
              <path d="M1664.34,507.11h-50.8c-3.83,0-6.94-3.11-6.94-6.94s3.11-6.94,6.94-6.94h50.8c3.83,0,6.94,3.11,6.94,6.94s-3.11,6.94-6.94,6.94Z" style="fill: #ffe; stroke: #223656; stroke-miterlimit: 10; stroke-width: 3px;"/>
              <path d="M1762.61,532.87h-149.08c-3.83,0-6.94-3.11-6.94-6.94s3.11-6.94,6.94-6.94h149.08c3.83,0,6.94,3.11,6.94,6.94s-3.11,6.94-6.94,6.94Z" style="fill: #ffe; stroke: #223656; stroke-miterlimit: 10; stroke-width: 3px;"/>
              <path d="M1689.02,567.25h-114.51c-3.83,0-6.94-3.11-6.94-6.94s3.11-6.94,6.94-6.94h114.51c3.83,0,6.94,3.11,6.94,6.94s-3.11,6.94-6.94,6.94Z" style="fill: #a7de94; stroke: #223656; stroke-miterlimit: 10; stroke-width: 3px;"/>
              <path d="M1631.57,591.62h-57.06c-3.83,0-6.94-3.11-6.94-6.94s3.11-6.94,6.94-6.94h57.06c3.83,0,6.94,3.11,6.94,6.94s-3.11,6.94-6.94,6.94Z" style="fill: #c7eeff; stroke: #223656; stroke-miterlimit: 10; stroke-width: 3px;"/>
              <path d="M1906.47,591.62h-250.68c-3.83,0-6.94-3.11-6.94-6.94s3.11-6.94,6.94-6.94h250.68c3.83,0,6.94,3.11,6.94,6.94s-3.11,6.94-6.94,6.94Z" style="fill: #c7eeff; stroke: #223656; stroke-miterlimit: 10; stroke-width: 3px;"/>
              <path d="M1974.84,591.62h-42.25c-3.83,0-6.94-3.11-6.94-6.94s3.11-6.94,6.94-6.94h42.25c3.83,0,6.94,3.11,6.94,6.94s-3.11,6.94-6.94,6.94Z" style="fill: #c7eeff; stroke: #223656; stroke-miterlimit: 10; stroke-width: 3px;"/>
              <path d="M1799.65,567.25h-87.36c-3.83,0-6.94-3.11-6.94-6.94s3.11-6.94,6.94-6.94h87.36c3.83,0,6.94,3.11,6.94,6.94s-3.11,6.94-6.94,6.94Z" style="fill: #a7de94; stroke: #223656; stroke-miterlimit: 10; stroke-width: 3px;"/>
              <path d="M2003.32,567.25h-181.36c-3.83,0-6.94-3.11-6.94-6.94s3.11-6.94,6.94-6.94h181.36c3.83,0,6.94,3.11,6.94,6.94s-3.11,6.94-6.94,6.94Z" style="fill: #a7de94; stroke: #223656; stroke-miterlimit: 10; stroke-width: 3px;"/>
              <path d="M1834.78,507.11h-148.6c-3.83,0-6.94-3.11-6.94-6.94s3.11-6.94,6.94-6.94h148.6c3.83,0,6.94,3.11,6.94,6.94s-3.11,6.94-6.94,6.94Z" style="fill: #ffe; stroke: #223656; stroke-miterlimit: 10; stroke-width: 3px;"/>
              <path d="M2006.17,507.11h-148.6c-3.83,0-6.94-3.11-6.94-6.94s3.11-6.94,6.94-6.94h148.6c3.83,0,6.94,3.11,6.94,6.94s-3.11,6.94-6.94,6.94Z" style="fill: #ffe; stroke: #223656; stroke-miterlimit: 10; stroke-width: 3px;"/>
              <path d="M1981.01,481.82h-85.93c-3.83,0-6.94-3.11-6.94-6.94s3.11-6.94,6.94-6.94h85.93c3.83,0,6.94,3.11,6.94,6.94s-3.11,6.94-6.94,6.94Z" style="fill: #ffe; stroke: #223656; stroke-miterlimit: 10; stroke-width: 3px;"/>
              <path d="M1730.81,396.88h-117.27c-3.83,0-6.94-3.11-6.94-6.94s3.11-6.94,6.94-6.94h117.27c3.83,0,6.94,3.11,6.94,6.94s-3.11,6.94-6.94,6.94Z" style="fill: #c7eeff; stroke: #223656; stroke-miterlimit: 10; stroke-width: 3px;"/>
              <path d="M1680.96,421.45h-67.42c-3.83,0-6.94-3.11-6.94-6.94s3.11-6.94,6.94-6.94h67.42c3.83,0,6.94,3.11,6.94,6.94s-3.11,6.94-6.94,6.94Z" style="fill: #c7eeff; stroke: #223656; stroke-miterlimit: 10; stroke-width: 3px;"/>
              <path d="M1821.49,421.45h-121.06c-3.83,0-6.94-3.11-6.94-6.94s3.11-6.94,6.94-6.94h121.06c3.83,0,6.94,3.11,6.94,6.94s-3.11,6.94-6.94,6.94Z" style="fill: #c7eeff; stroke: #223656; stroke-miterlimit: 10; stroke-width: 3px;"/>
              <path d="M1981.48,421.45h-136.26c-3.83,0-6.94-3.11-6.94-6.94s3.11-6.94,6.94-6.94h136.26c3.83,0,6.94,3.11,6.94,6.94s-3.11,6.94-6.94,6.94Z" style="fill: #c7eeff; stroke: #223656; stroke-miterlimit: 10; stroke-width: 3px;"/>
              <path d="M2008.54,396.88h-251.63c-3.83,0-6.94-3.11-6.94-6.94s3.11-6.94,6.94-6.94h251.63c3.83,0,6.94,3.11,6.94,6.94s-3.11,6.94-6.94,6.94Z" style="fill: #c7eeff; stroke: #223656; stroke-miterlimit: 10; stroke-width: 3px;"/>
              <path d="M1982.91,532.87h-197.03c-3.83,0-6.94-3.11-6.94-6.94s3.11-6.94,6.94-6.94h197.03c3.83,0,6.94,3.11,6.94,6.94s-3.11,6.94-6.94,6.94Z" style="fill: #ffe; stroke: #223656; stroke-miterlimit: 10; stroke-width: 3px;"/>
            </g>
            <path d="M2123.41,625.08c-.61,7.28-6.4,13.4-12.87,13.66-164.52,6.42-329.03,8.04-493.55,4.87-55.65-1.07-111.3-2.69-166.94-4.87-6.48-.26-12.26-6.37-12.87-13.66-9.7-115.6-11.66-231.19-5.86-346.79.65-13.12,1.41-26.24,2.27-39.36v-.02l.32.02h693.11c.52,7.83.99,15.66,1.43,23.49,6.81,120.89,5.13,241.77-5.02,362.66Z" style="fill: none; stroke: #223656; stroke-miterlimit: 10; stroke-width: 3px;"/>
            <path d="M1779.66,646.42c-54.38,0-108.65-.52-162.7-1.56-55.49-1.07-111.67-2.71-166.97-4.87-7.1-.28-13.41-6.92-14.07-14.8-9.67-115.14-11.64-231.87-5.87-346.95.65-13.15,1.42-26.4,2.27-39.38l.08-1.23,1.56.07h694.21s.08,1.17.08,1.17c.5,7.53.98,15.44,1.43,23.51,6.78,120.38,5.09,242.45-5.02,362.83-.66,7.88-6.97,14.52-14.07,14.8-109.71,4.28-220.5,6.43-330.93,6.43ZM1434.74,240.18c-.82,12.59-1.56,25.43-2.19,38.18-5.77,114.97-3.8,231.59,5.86,346.62.56,6.67,5.8,12.28,11.68,12.51,55.28,2.16,111.44,3.8,166.92,4.87,163.75,3.16,329.78,1.52,493.48-4.87,5.88-.23,11.12-5.84,11.68-12.51h0c10.1-120.26,11.79-242.22,5.02-362.48-.43-7.65-.88-15.15-1.35-22.31h-691.09Z" style="fill: #223656; stroke: #223656; stroke-miterlimit: 10; stroke-width: 3px;"/>
          </g>
          <g>
            <g>
              <path d="M2067.03,574.34c-.61,7.28-6.4,13.4-12.87,13.66-164.52,6.42-329.03,8.04-493.55,4.87-55.65-1.07-111.3-2.69-166.94-4.87-6.48-.26-12.26-6.37-12.87-13.66-9.7-115.6-11.66-231.19-5.86-346.79.65-13.12,1.41-26.24,2.27-39.36v-.02l.32.02h693.11c.52,7.83.99,15.66,1.43,23.49,6.81,120.89,5.13,241.77-5.02,362.66Z" style="fill: #3382bb; stroke: #223656; stroke-miterlimit: 10; stroke-width: 3px;"/>
              <path d="M2067.03,574.34c-.61,7.28-6.4,13.4-12.87,13.66-164.52,6.42-329.03,8.04-493.55,4.87-55.65-1.07-111.3-2.69-166.94-4.87-6.48-.26-12.26-6.37-12.87-13.66-9.7-115.6-11.66-231.19-5.86-346.79.65-13.12,1.41-26.24,2.27-39.36v-.02l.32.02h693.11c.52,7.83.99,15.66,1.43,23.49,6.81,120.89,5.13,241.77-5.02,362.66Z" style="fill: #4f5aaa; stroke: #223656; stroke-miterlimit: 10; stroke-width: 3px;"/>
              <path d="M1723.28,595.67c-54.38,0-108.65-.52-162.7-1.56-55.49-1.07-111.67-2.71-166.97-4.87-7.1-.28-13.41-6.92-14.07-14.8-9.67-115.14-11.64-231.87-5.87-346.95.65-13.15,1.42-26.4,2.27-39.38l.08-1.23,1.56.07h694.21s.08,1.17.08,1.17c.5,7.53.98,15.44,1.43,23.51,6.78,120.38,5.09,242.45-5.02,362.83-.66,7.88-6.97,14.52-14.07,14.8-109.71,4.28-220.5,6.43-330.93,6.43ZM1378.36,189.43c-.82,12.59-1.56,25.43-2.19,38.18-5.77,114.97-3.8,231.59,5.86,346.62.56,6.67,5.8,12.28,11.68,12.51,55.28,2.16,111.44,3.8,166.92,4.87,163.75,3.16,329.78,1.52,493.48-4.87,5.88-.23,11.12-5.84,11.68-12.51h0c10.1-120.26,11.79-242.22,5.02-362.48-.43-7.65-.88-15.15-1.35-22.31h-691.09Z" style="fill: #223656; stroke: #223656; stroke-miterlimit: 10; stroke-width: 3px;"/>
            </g>
            <g>
              <path d="M2070.62,188.18h-693.11l-.32-.02c1.05-16.06,2.25-32.11,3.6-48.16.61-7.28,6.4-13.4,12.87-13.66,220.17-8.59,440.33-8.59,660.5,0,6.48.26,12.26,6.38,12.87,13.66,1.35,16.06,2.55,32.12,3.59,48.18Z" style="fill: #777df5; stroke: #223656; stroke-miterlimit: 10; stroke-width: 3px;"/>
              <path d="M2071.96,189.43l-694.84-.02-1.26-.07.08-1.26c1.04-15.97,2.26-32.18,3.6-48.18.66-7.88,6.97-14.52,14.07-14.81,219.17-8.55,441.43-8.55,660.59,0,7.1.29,13.41,6.93,14.07,14.81,1.35,16.11,2.56,32.32,3.59,48.2l.09,1.33ZM1723.91,121.18c-110.34,0-220.63,2.14-330.2,6.41-5.88.24-11.12,5.85-11.68,12.52-1.31,15.55-2.49,31.3-3.51,46.83h690.76c-1.01-15.44-2.19-31.19-3.5-46.83-.56-6.67-5.8-12.28-11.68-12.52-109.54-4.27-219.88-6.41-330.19-6.41Z" style="fill: #223656; stroke: #223656; stroke-miterlimit: 10; stroke-width: 3px;"/>
            </g>
            <g style="mix-blend-mode: multiply; opacity: .19;">
              <path d="M2067.03,574.34c-.61,7.28-6.4,13.4-12.87,13.66-164.52,6.42-329.03,8.04-493.55,4.87,136.03-16.23,248.26-49.85,332.96-103.62,97.85-62.1,158.96-151.08,177.55-271.16.33-2.12.65-4.26.94-6.41,6.81,120.89,5.13,241.77-5.02,362.66Z" style="fill: #21409a;"/>
            </g>
            <g>
              <g>
                <circle cx="1973.7" cy="156.33" r="10.44" style="fill: #a7de94; stroke: #223656; stroke-miterlimit: 10; stroke-width: 3px;"/>
                <path d="M1973.7,167.66c-6.25,0-11.33-5.08-11.33-11.33s5.08-11.33,11.33-11.33,11.33,5.08,11.33,11.33-5.08,11.33-11.33,11.33ZM1973.7,146.78c-5.27,0-9.55,4.29-9.55,9.55s4.29,9.55,9.55,9.55,9.55-4.29,9.55-9.55-4.29-9.55-9.55-9.55Z" style="fill: #223656; stroke: #223656; stroke-miterlimit: 10; stroke-width: 3px;"/>
              </g>
              <g>
                <circle cx="2001.04" cy="156.33" r="10.44" style="fill: #fafb33; stroke: #223656; stroke-miterlimit: 10; stroke-width: 3px;"/>
                <path d="M2001.04,167.66c-6.25,0-11.33-5.08-11.33-11.33s5.08-11.33,11.33-11.33,11.33,5.08,11.33,11.33-5.08,11.33-11.33,11.33ZM2001.04,146.78c-5.27,0-9.55,4.29-9.55,9.55s4.29,9.55,9.55,9.55,9.55-4.29,9.55-9.55-4.29-9.55-9.55-9.55Z" style="fill: #223656; stroke: #223656; stroke-miterlimit: 10; stroke-width: 3px;"/>
              </g>
              <g>
                <circle cx="2028.37" cy="156.33" r="10.44" style="fill: #fe877b; stroke: #223656; stroke-miterlimit: 10; stroke-width: 3px;"/>
                <path d="M2028.37,167.66c-6.25,0-11.33-5.08-11.33-11.33s5.08-11.33,11.33-11.33,11.33,5.08,11.33,11.33-5.08,11.33-11.33,11.33ZM2028.37,146.78c-5.27,0-9.55,4.29-9.55,9.55s4.29,9.55,9.55,9.55,9.55-4.29,9.55-9.55-4.29-9.55-9.55-9.55Z" style="fill: #223656; stroke: #223656; stroke-miterlimit: 10; stroke-width: 3px;"/>
              </g>
            </g>
            <path d="M1549.99,188.18c-12.33.72-40.06,2.35-79.56,4.87-36.46,2.33-55.08,3.75-74.36,16.03-9.41,5.99-16.33,12.83-21.15,18.47.65-13.12,1.41-26.24,2.27-39.36h172.8Z" style="fill: #223656; stroke: #223656; stroke-miterlimit: 10; stroke-width: 3px;"/>
            <g>
              <path d="M1467.34,508.56l-18.85-10.88c-.62-.36-1.38.09-1.38.8v4.1h-24.88c-.51,0-.92.41-.92.92v11.72c0,.51.41.92.92.92h24.88v4.1c0,.71.77,1.15,1.38.8l18.85-10.88c.62-.36.62-1.24,0-1.6Z" style="fill: #fe877b; stroke: #223656; stroke-miterlimit: 10; stroke-width: 3px;"/>
              <rect x="1479.29" y="241.66" width="19.32" height="19.32" rx="2.41" ry="2.41" style="fill: #91dece; stroke: #223656; stroke-miterlimit: 10; stroke-width: 3px;"/>
              <rect x="1479.29" y="277.73" width="19.32" height="19.32" rx="2.41" ry="2.41" style="fill: #91dece; stroke: #223656; stroke-miterlimit: 10; stroke-width: 3px;"/>
              <rect x="1479.29" y="304.62" width="19.32" height="19.32" rx="2.41" ry="2.41" style="fill: #91dece; stroke: #223656; stroke-miterlimit: 10; stroke-width: 3px;"/>
              <rect x="1479.29" y="329.54" width="19.32" height="19.32" rx="2.41" ry="2.41" style="fill: #91dece; stroke: #223656; stroke-miterlimit: 10; stroke-width: 3px;"/>
              <rect x="1479.29" y="354.11" width="19.32" height="19.32" rx="2.41" ry="2.41" style="fill: #91dece; stroke: #223656; stroke-miterlimit: 10; stroke-width: 3px;"/>
              <rect x="1479.29" y="389.65" width="19.32" height="19.32" rx="2.41" ry="2.41" style="fill: #91dece; stroke: #223656; stroke-miterlimit: 10; stroke-width: 3px;"/>
              <rect x="1479.29" y="414.48" width="19.32" height="19.32" rx="2.41" ry="2.41" style="fill: #91dece; stroke: #223656; stroke-miterlimit: 10; stroke-width: 3px;"/>
              <rect x="1479.29" y="439.77" width="19.32" height="19.32" rx="2.41" ry="2.41" style="fill: #91dece; stroke: #223656; stroke-miterlimit: 10; stroke-width: 3px;"/>
              <rect x="1479.29" y="465.52" width="19.32" height="19.32" rx="2.41" ry="2.41" style="fill: #91dece; stroke: #223656; stroke-miterlimit: 10; stroke-width: 3px;"/>
              <rect x="1479.29" y="499.91" width="19.32" height="19.32" rx="2.41" ry="2.41" style="fill: #91dece; stroke: #223656; stroke-miterlimit: 10; stroke-width: 3px;"/>
              <rect x="1479.29" y="524.27" width="19.32" height="19.32" rx="2.41" ry="2.41" style="fill: #91dece; stroke: #223656; stroke-miterlimit: 10; stroke-width: 3px;"/>
              <path d="M1969.01,257.38h-180.74c-3.83,0-6.94-3.11-6.94-6.94s3.11-6.94,6.94-6.94h180.74c3.83,0,6.94,3.11,6.94,6.94s-3.11,6.94-6.94,6.94Z" style="fill: #ffe; stroke: #223656; stroke-miterlimit: 10; stroke-width: 3px;"/>
              <path d="M1761.9,257.38h-244.83c-3.83,0-6.94-3.11-6.94-6.94s3.11-6.94,6.94-6.94h244.83c3.83,0,6.94,3.11,6.94,6.94s-3.11,6.94-6.94,6.94Z" style="fill: #ffe; stroke: #223656; stroke-miterlimit: 10; stroke-width: 3px;"/>
              <path d="M1582.21,298.49h-57.92c-6.27,0-11.36-5.08-11.36-11.35s5.08-11.35,11.36-11.35h57.92c6.27,0,11.36,5.08,11.36,11.35s-5.08,11.35-11.36,11.35Z" style="fill: #fe877b; stroke: #223656; stroke-miterlimit: 10; stroke-width: 3px;"/>
              <path d="M1582.21,410.42h-57.92c-6.27,0-11.36-5.08-11.36-11.35s5.08-11.35,11.36-11.35h57.92c6.27,0,11.36,5.08,11.36,11.35s-5.08,11.35-11.36,11.35Z" style="fill: #fe877b; stroke: #223656; stroke-miterlimit: 10; stroke-width: 3px;"/>
              <path d="M1805.46,321.22h-248.3c-3.83,0-6.94-3.11-6.94-6.94s3.11-6.94,6.94-6.94h248.3c3.83,0,6.94,3.11,6.94,6.94s-3.11,6.94-6.94,6.94Z" style="fill: #c7eeff; stroke: #223656; stroke-miterlimit: 10; stroke-width: 3px;"/>
              <path d="M1815.9,431.08h-258.75c-3.83,0-6.94-3.11-6.94-6.94s3.11-6.94,6.94-6.94h258.75c3.83,0,6.94,3.11,6.94,6.94s-3.11,6.94-6.94,6.94Z" style="fill: #ffe; stroke: #223656; stroke-miterlimit: 10; stroke-width: 3px;"/>
              <path d="M1607.96,456.37h-50.8c-3.83,0-6.94-3.11-6.94-6.94s3.11-6.94,6.94-6.94h50.8c3.83,0,6.94,3.11,6.94,6.94s-3.11,6.94-6.94,6.94Z" style="fill: #ffe; stroke: #223656; stroke-miterlimit: 10; stroke-width: 3px;"/>
              <path d="M1706.23,482.12h-149.08c-3.83,0-6.94-3.11-6.94-6.94s3.11-6.94,6.94-6.94h149.08c3.83,0,6.94,3.11,6.94,6.94s-3.11,6.94-6.94,6.94Z" style="fill: #ffe; stroke: #223656; stroke-miterlimit: 10; stroke-width: 3px;"/>
              <path d="M1632.63,516.51h-114.51c-3.83,0-6.94-3.11-6.94-6.94s3.11-6.94,6.94-6.94h114.51c3.83,0,6.94,3.11,6.94,6.94s-3.11,6.94-6.94,6.94Z" style="fill: #a7de94; stroke: #223656; stroke-miterlimit: 10; stroke-width: 3px;"/>
              <path d="M1575.19,540.87h-57.06c-3.83,0-6.94-3.11-6.94-6.94s3.11-6.94,6.94-6.94h57.06c3.83,0,6.94,3.11,6.94,6.94s-3.11,6.94-6.94,6.94Z" style="fill: #c7eeff; stroke: #223656; stroke-miterlimit: 10; stroke-width: 3px;"/>
              <path d="M1850.09,540.87h-250.68c-3.83,0-6.94-3.11-6.94-6.94s3.11-6.94,6.94-6.94h250.68c3.83,0,6.94,3.11,6.94,6.94s-3.11,6.94-6.94,6.94Z" style="fill: #c7eeff; stroke: #223656; stroke-miterlimit: 10; stroke-width: 3px;"/>
              <path d="M1918.45,540.87h-42.25c-3.83,0-6.94-3.11-6.94-6.94s3.11-6.94,6.94-6.94h42.25c3.83,0,6.94,3.11,6.94,6.94s-3.11,6.94-6.94,6.94Z" style="fill: #c7eeff; stroke: #223656; stroke-miterlimit: 10; stroke-width: 3px;"/>
              <path d="M1743.27,516.51h-87.36c-3.83,0-6.94-3.11-6.94-6.94s3.11-6.94,6.94-6.94h87.36c3.83,0,6.94,3.11,6.94,6.94s-3.11,6.94-6.94,6.94Z" style="fill: #a7de94; stroke: #223656; stroke-miterlimit: 10; stroke-width: 3px;"/>
              <path d="M1946.94,516.51h-181.36c-3.83,0-6.94-3.11-6.94-6.94s3.11-6.94,6.94-6.94h181.36c3.83,0,6.94,3.11,6.94,6.94s-3.11,6.94-6.94,6.94Z" style="fill: #a7de94; stroke: #223656; stroke-miterlimit: 10; stroke-width: 3px;"/>
              <path d="M1778.4,456.37h-148.6c-3.83,0-6.94-3.11-6.94-6.94s3.11-6.94,6.94-6.94h148.6c3.83,0,6.94,3.11,6.94,6.94s-3.11,6.94-6.94,6.94Z" style="fill: #ffe; stroke: #223656; stroke-miterlimit: 10; stroke-width: 3px;"/>
              <path d="M1949.79,456.37h-148.6c-3.83,0-6.94-3.11-6.94-6.94s3.11-6.94,6.94-6.94h148.6c3.83,0,6.94,3.11,6.94,6.94s-3.11,6.94-6.94,6.94Z" style="fill: #ffe; stroke: #223656; stroke-miterlimit: 10; stroke-width: 3px;"/>
              <path d="M1924.63,431.08h-85.93c-3.83,0-6.94-3.11-6.94-6.94s3.11-6.94,6.94-6.94h85.93c3.83,0,6.94,3.11,6.94,6.94s-3.11,6.94-6.94,6.94Z" style="fill: #ffe; stroke: #223656; stroke-miterlimit: 10; stroke-width: 3px;"/>
              <path d="M1674.42,346.14h-117.27c-3.83,0-6.94-3.11-6.94-6.94s3.11-6.94,6.94-6.94h117.27c3.83,0,6.94,3.11,6.94,6.94s-3.11,6.94-6.94,6.94Z" style="fill: #c7eeff; stroke: #223656; stroke-miterlimit: 10; stroke-width: 3px;"/>
              <path d="M1624.57,370.71h-67.42c-3.83,0-6.94-3.11-6.94-6.94s3.11-6.94,6.94-6.94h67.42c3.83,0,6.94,3.11,6.94,6.94s-3.11,6.94-6.94,6.94Z" style="fill: #c7eeff; stroke: #223656; stroke-miterlimit: 10; stroke-width: 3px;"/>
              <path d="M1765.1,370.71h-121.06c-3.83,0-6.94-3.11-6.94-6.94s3.11-6.94,6.94-6.94h121.06c3.83,0,6.94,3.11,6.94,6.94s-3.11,6.94-6.94,6.94Z" style="fill: #c7eeff; stroke: #223656; stroke-miterlimit: 10; stroke-width: 3px;"/>
              <path d="M1925.1,370.71h-136.26c-3.83,0-6.94-3.11-6.94-6.94s3.11-6.94,6.94-6.94h136.26c3.83,0,6.94,3.11,6.94,6.94s-3.11,6.94-6.94,6.94Z" style="fill: #c7eeff; stroke: #223656; stroke-miterlimit: 10; stroke-width: 3px;"/>
              <path d="M1952.16,346.14h-251.63c-3.83,0-6.94-3.11-6.94-6.94s3.11-6.94,6.94-6.94h251.63c3.83,0,6.94,3.11,6.94,6.94s-3.11,6.94-6.94,6.94Z" style="fill: #c7eeff; stroke: #223656; stroke-miterlimit: 10; stroke-width: 3px;"/>
              <path d="M1926.52,482.12h-197.03c-3.83,0-6.94-3.11-6.94-6.94s3.11-6.94,6.94-6.94h197.03c3.83,0,6.94,3.11,6.94,6.94s-3.11,6.94-6.94,6.94Z" style="fill: #ffe; stroke: #223656; stroke-miterlimit: 10; stroke-width: 3px;"/>
            </g>
            <path d="M2067.03,574.34c-.61,7.28-6.4,13.4-12.87,13.66-164.52,6.42-329.03,8.04-493.55,4.87-55.65-1.07-111.3-2.69-166.94-4.87-6.48-.26-12.26-6.37-12.87-13.66-9.7-115.6-11.66-231.19-5.86-346.79.65-13.12,1.41-26.24,2.27-39.36v-.02l.32.02h693.11c.52,7.83.99,15.66,1.43,23.49,6.81,120.89,5.13,241.77-5.02,362.66Z" style="fill: none; stroke: #223656; stroke-miterlimit: 10; stroke-width: 3px;"/>
            <path d="M1723.28,595.67c-54.38,0-108.65-.52-162.7-1.56-55.49-1.07-111.67-2.71-166.97-4.87-7.1-.28-13.41-6.92-14.07-14.8-9.67-115.14-11.64-231.87-5.87-346.95.65-13.15,1.42-26.4,2.27-39.38l.08-1.23,1.56.07h694.21s.08,1.17.08,1.17c.5,7.53.98,15.44,1.43,23.51,6.78,120.38,5.09,242.45-5.02,362.83-.66,7.88-6.97,14.52-14.07,14.8-109.71,4.28-220.5,6.43-330.93,6.43ZM1378.36,189.43c-.82,12.59-1.56,25.43-2.19,38.18-5.77,114.97-3.8,231.59,5.86,346.62.56,6.67,5.8,12.28,11.68,12.51,55.28,2.16,111.44,3.8,166.92,4.87,163.75,3.16,329.78,1.52,493.48-4.87,5.88-.23,11.12-5.84,11.68-12.51h0c10.1-120.26,11.79-242.22,5.02-362.48-.43-7.65-.88-15.15-1.35-22.31h-691.09Z" style="fill: #223656; stroke: #223656; stroke-miterlimit: 10; stroke-width: 3px;"/>
          </g>
        </g>
        <g>
          <g>
            <g>
              <path d="M707.81,757.73c-.37,4.41-3.88,8.12-7.8,8.27-99.64,3.89-199.29,4.87-298.93,2.95-33.71-.65-67.41-1.63-101.11-2.95-3.92-.15-7.43-3.86-7.8-8.27-5.88-70.01-7.06-140.03-3.55-210.04.4-7.95.85-15.89,1.37-23.84h0s.19,0,.19,0h419.8c.31,4.74.6,9.49.87,14.23,4.12,73.22,3.11,146.44-3.04,219.65Z" style="fill: #3382bb;"/>
              <path d="M707.81,757.73c-.37,4.41-3.88,8.12-7.8,8.27-99.64,3.89-199.29,4.87-298.93,2.95-33.71-.65-67.41-1.63-101.11-2.95-3.92-.15-7.43-3.86-7.8-8.27-5.88-70.01-7.06-140.03-3.55-210.04.4-7.95.85-15.89,1.37-23.84h0s.19,0,.19,0h419.8c.31,4.74.6,9.49.87,14.23,4.12,73.22,3.11,146.44-3.04,219.65Z" style="fill: #3382bb;"/>
              <path d="M707.81,757.73c-.37,4.41-3.88,8.12-7.8,8.27-99.64,3.89-199.29,4.87-298.93,2.95-33.71-.65-67.41-1.63-101.11-2.95-3.92-.15-7.43-3.86-7.8-8.27-5.88-70.01-7.06-140.03-3.55-210.04.4-7.95.85-15.89,1.37-23.84h0s.19,0,.19,0h419.8c.31,4.74.6,9.49.87,14.23,4.12,73.22,3.11,146.44-3.04,219.65Z" style="fill: none; stroke: #223656; stroke-miterlimit: 10; stroke-width: 3px;"/>
            </g>
            <path d="M709.98,523.84h-419.99c.64-9.74,1.36-19.46,2.18-29.18.37-4.41,3.88-8.12,7.8-8.28,133.35-5.2,266.7-5.2,400.05,0,3.92.16,7.43,3.86,7.8,8.28.82,9.73,1.54,19.45,2.17,29.18Z" style="fill: #b5d8fe; stroke: #223656; stroke-miterlimit: 10; stroke-width: 3px;"/>
            <path d="M707.81,757.73c-.37,4.41-3.88,8.12-7.8,8.27-99.64,3.89-199.29,4.87-298.93,2.95,82.39-9.83,150.36-30.19,201.66-62.76,59.26-37.61,96.28-91.51,107.53-164.23.2-1.29.39-2.58.57-3.88,4.12,73.22,3.11,146.44-3.04,219.65Z" style="fill: #98d7fa; mix-blend-mode: multiply; opacity: .4;"/>
            <g>
              <circle cx="651.28" cy="504.55" r="6.32" style="fill: #a7de94; stroke: #223656; stroke-miterlimit: 10; stroke-width: 3px;"/>
              <circle cx="667.83" cy="504.55" r="6.32" style="fill: #fafb33; stroke: #223656; stroke-miterlimit: 10; stroke-width: 3px;"/>
              <circle cx="684.39" cy="504.55" r="6.32" style="fill: #fe877b; stroke: #223656; stroke-miterlimit: 10; stroke-width: 3px;"/>
            </g>
            <path d="M394.65,523.84c-7.47.43-24.26,1.42-48.19,2.95-22.08,1.41-33.36,2.27-45.04,9.71-5.7,3.63-9.89,7.77-12.81,11.18.4-7.95.85-15.89,1.37-23.84h104.66Z" style="fill: #223656;"/>
          </g>
          <g>
            <path d="M525.67,556.22c-.94-.27-1.88-.54-2.82-.82-4.71-1.36-9.63,1.3-11.08,5.98-15.27,49.46-35.09,100.56-49.27,150.14-1.36,4.76,1.4,9.73,6.16,11.11.94.27,1.88.54,2.82.82,4.71,1.36,9.63-1.3,11.08-5.98,15.27-49.46,35.09-100.56,49.27-150.14,1.36-4.76-1.4-9.73-6.16-11.11Z" style="fill: #fafb33; stroke: #223656; stroke-miterlimit: 10; stroke-width: 3px;"/>
            <path d="M556.48,603.12c-5.97-2.37-12.44,2.12-12.29,8.54l.02.71c.08,3.64,2.34,6.87,5.72,8.2,26.23,10.3,52.58,20.61,78.4,30.91-26.42,10.32-53.04,20.62-79.2,30.89-3.32,1.3-5.54,4.45-5.69,8.01v.2c-.29,6.5,6.23,11.12,12.27,8.72,28.85-11.47,58.53-23.01,88.14-34.57,5.35-2.09,8.97-7.15,9.16-12.89,0-.07,0-.13,0-.2.2-6.09-3.41-11.66-9.07-13.92-28.98-11.55-58.43-23.09-87.47-34.59Z" style="fill: #fafb33; stroke: #223656; stroke-miterlimit: 10; stroke-width: 3px;"/>
            <path d="M429.98,603.12c5.97-2.37,12.44,2.12,12.29,8.54l-.02.71c-.08,3.64-2.34,6.87-5.72,8.2-26.23,10.3-52.58,20.61-78.4,30.91,26.42,10.32,53.04,20.62,79.2,30.89,3.32,1.3,5.54,4.45,5.69,8.01v.2c.29,6.5-6.23,11.12-12.27,8.72-28.85-11.47-58.53-23.01-88.14-34.57-5.35-2.09-8.97-7.15-9.16-12.89,0-.07,0-.13,0-.2-.2-6.09,3.41-11.66,9.07-13.92,28.98-11.55,58.43-23.09,87.47-34.59Z" style="fill: #fafb33; stroke: #223656; stroke-miterlimit: 10; stroke-width: 3px;"/>
          </g>
        </g>
        <g>
          <g>
            <path d="M1153.71,692.54c0,34.52,25.21,63.14,58.23,68.45,3.61.58,7.32.89,11.11.89,38.3,0,69.34-31.04,69.34-69.34s-31.04-69.34-69.34-69.34c-3.79,0-7.5.3-11.11.89-33.02,5.32-58.23,33.94-58.23,68.45Z" style="fill: #ffc3b3; stroke: #223656; stroke-miterlimit: 10; stroke-width: 3.74px;"/>
            <path d="M1223.05,667.76c-1.1,0-2.14.18-3.2.32-1.42-15.06-4-29.79-7.91-44-33.02,5.32-58.23,33.94-58.23,68.45s25.21,63.14,58.23,68.45c3.91-14.2,6.49-28.93,7.91-43.99,1.06.14,2.1.32,3.2.32,13.69,0,24.79-11.1,24.79-24.79s-11.1-24.77-24.79-24.77Z" style="fill: #ffc3b3; mix-blend-mode: multiply; opacity: .4;"/>
          </g>
          <g>
            <path d="M1451.81,1369.4c1.14,19.79-11.08,40.31-46.1,56.12-251.36,116.19-471.16,112.31-886.77,27.29-49.69-10.16-60.14-44-64.21-73.91-.5-3.68-.68-6.93-.54-9.5,14.35-261.63,233.91-472.4,498.77-472.4,171.76,0,324.5,88.61,414.55,222.34,48.88,72.38,79,158.14,84.31,250.06Z" style="fill: #91dece; stroke: #223656; stroke-miterlimit: 10; stroke-width: 3.74px;"/>
            <path d="M1097.53,964.94c2.16,1.27,4.48,2.73,5.25,5.11.52,1.62.22,3.37-.09,5.05-8.98,48.96-17.97,97.93-26.95,146.89-25.67-11.03-51.35-22.05-77.02-33.08-14.93,21.56-30.5,42.67-46.7,63.29-7.5-14.83,6.32-43.31,4.8-59.86-4.29-46.82-21.23-82.38-19.1-129.35.15-3.2.43-6.7,2.67-9,1.88-1.93,4.71-2.54,7.35-3.05,29.66-5.73,59.31-11.47,88.97-17.2,17.74-3.43,45.95,22.47,60.81,31.18Z" style="fill: #77c6b3; mix-blend-mode: multiply; opacity: .4;"/>
            <path d="M828.83,1135.85c23.37-15.66,47.89-29.6,73.28-41.7,15.01,19.52,30.02,39.03,45.03,58.55,1.31-31.74,2.61-63.48,3.92-95.22,1.13-27.54,2.1-56.11-8.49-81.56-10.58-25.45-36.2-46.88-63.54-43.33-18.02,2.34-36.72,14.29-52.42,22.93-16.75,9.21-10.14,28.02-9.2,45.44,1.22,22.75,2.8,45.48,4.73,68.17.63,7.36,10.64,64.07,6.69,66.71Z" style="fill: #77c6b3; mix-blend-mode: multiply; opacity: .4;"/>
            <polygon points="1033.4 1369.84 957.88 1465.1 894.74 1385.36 882.45 1369.84 953.48 1108.58 901.82 1025.7 1014.03 1025.7 969.54 1097 962.36 1108.49 1033.4 1369.84" style="fill: #ff92ba; stroke: #223656; stroke-miterlimit: 10; stroke-width: 3.74px;"/>
            <path d="M1033.4,1369.84l-75.52,95.25-63.14-79.74c12.92,7.89,26.82,13.36,41.71,13.54,6.73.09,13.99-1.26,18.39-6.28,4.39-5.11,4.66-12.47,4.75-19.19.18-46.82.36-93.64.63-140.37.09-23.95.18-47.89.27-71.75.09-21.44-2.66-38.03,2.1-58.65,2.51.18,4.36-7.81,6.96-5.66l-7.18,11.48,71.04,261.36Z" style="fill: #f36792; mix-blend-mode: multiply; opacity: .4;"/>
            <polygon points="1033.4 1369.84 957.88 1465.1 894.74 1385.36 882.45 1369.84 953.48 1108.58 901.82 1025.7 1014.03 1025.7 969.54 1097 962.36 1108.49 1033.4 1369.84" style="fill: none; stroke: #223656; stroke-miterlimit: 10; stroke-width: 3.74px;"/>
            <path d="M957.88,1035.82l-94.08,52.29-28.62-133.14,58.45-34.43" style="fill: #c7eeff; stroke: #223656; stroke-miterlimit: 10; stroke-width: 3.74px;"/>
            <path d="M957.88,1035.82l94.09,52.29,28.62-133.14-58.47-34.43" style="fill: #c7eeff; stroke: #223656; stroke-miterlimit: 10; stroke-width: 3.74px;"/>
            <path d="M702.41,623.46c-3.61-.58-7.32-.89-11.11-.89-38.3,0-69.34,31.04-69.34,69.34,0,38.3,31.04,69.34,69.34,69.34,3.79,0,7.5-.3,11.11-.89,33.02-5.31,58.23-33.93,58.23-68.45,0-34.51-25.21-63.13-58.23-68.45Z" style="fill: #ffc3b3; stroke: #223656; stroke-miterlimit: 10; stroke-width: 3.74px;"/>
            <path d="M688.59,621.18c-3.79,13.78-9.09,33.09-1.43,46.1-13.36.74-28.12,12.54-28.12,25.8s14.59,22.78,27.88,23.49c1.39,15.4,4.02,30.46,8.01,44.97,33.02-5.31,58.23-33.93,58.23-68.45s-31.56-66.58-64.58-71.9Z" style="fill: #ffc3b3; mix-blend-mode: multiply; opacity: .4;"/>
            <path d="M1026.05,886.77v91.48c0,32.97-21.33,60.88-50.97,70.66-.2.07-.4.14-.6.2-.36.18-.63.27-.99.36-6.91,2.15-14.35,3.4-22.06,3.4-41.17,0-74.54-33.45-74.54-74.62v-91.48h149.16Z" style="fill: #ffc3b3; stroke: #223656; stroke-miterlimit: 10; stroke-width: 3.74px;"/>
            <path d="M1209.46,655.05c0,116.6-77.31,215.08-183.42,247.01-10.76,3.23-21.88,5.83-33.19,7.62-13.45,2.24-27.27,3.41-41.35,3.41-25.92,0-51.03-3.86-74.62-11.03-4.75-1.34-9.42-2.96-13.99-4.66-98.84-36.06-169.43-130.95-169.43-242.34,0-67.45,23.41-168.62,65.74-214.54,47.18-51.21,117.14-43.41,192.3-43.41,14.08,0,27.89,1.08,41.35,3.32.18,0,.36.09.63.09,6.37,1.08,12.74,2.33,19.01,3.86.72.18,1.43.36,2.24.54,6.1,1.52,12.02,3.32,17.94,5.29.99.36,1.97.63,2.87.99,5.83,1.97,11.48,4.13,17.04,6.55.99.45,1.97.81,3.05,1.26,5.47,2.42,10.85,5.11,16.14,7.89.99.45,1.88.99,2.87,1.52,5.29,2.87,10.49,5.92,15.52,9.15.81.54,1.61,1.08,2.42,1.61,5.2,3.32,10.22,6.91,15.07,10.58.63.45,1.17.9,1.7,1.34,5.11,3.95,9.96,7.98,14.71,12.29.27.18.45.36.63.54,4.75,4.3,9.42,8.88,13.81,13.54.27.27.54.54.81.81,3.5,3.59,6.82,7.36,9.96,11.3.9.99,1.79,1.97,2.6,3.05.45.54.9,1.16,1.35,1.7,3.86,4.84,7.53,9.78,11.03,14.89.45.72.99,1.53,1.53,2.24,3.41,5.02,6.64,10.23,9.6,15.52.54.9.99,1.7,1.53,2.6,2.96,5.29,5.74,10.67,8.34,16.23.36.9.72,1.79,1.17,2.6,2.51,5.65,4.93,11.39,7.09,17.22.27.81.54,1.53.81,2.33,2.15,6.01,4.22,12.2,5.92,18.39.09.45.18.9.36,1.34,1.7,6.55,3.23,13.1,4.48,19.73,0,.18.09.27.09.45,1.26,6.64,2.15,13.36,2.87,20.27,0,.36.09.81.18,1.17,0,.27,0,.54.09.9.27,2.78.45,5.65.63,8.52.09,1.26.18,2.6.27,3.86.18,4.13.27,8.25.27,12.47Z" style="fill: #ffc3b3; stroke: #223656; stroke-miterlimit: 10; stroke-width: 3.74px;"/>
            <path d="M1026.05,902.16v76.09c0,32.97-21.33,60.88-50.97,70.66-2.66-35.65-7.07-85.23-12.71-95.36-10.5-18.92-33.73-37.04-85.48-44.75v-6.64c23.59,7.18,48.7,11.03,74.62,11.03,14.09,0,27.9-1.16,41.35-3.41,11.3-1.79,22.42-4.39,33.19-7.62Z" style="fill: #ffc3b3; mix-blend-mode: multiply; opacity: .4;"/>
            <path d="M1209.46,655.05c0,116.6-77.31,215.08-183.42,247.01-10.76,3.23-21.88,5.83-33.19,7.62-13.45,2.24-27.27,3.41-41.35,3.41-25.92,0-51.03-3.86-74.62-11.03-4.75-1.34-9.42-2.96-13.99-4.66,4.66-1.16,9.33-2.51,13.99-3.95,13.63-4.13,27.09-9.06,40.18-14.8,15.07-6.55,40.45-17.76,67.9-36.77,22.42-15.61,46.19-36.41,66.91-64.04,0,0,72.11-96.33,97.4-288.27.9.99,1.79,1.97,2.6,3.05.45.54.9,1.16,1.35,1.7,3.86,4.84,7.53,9.78,11.03,14.89.45.72.99,1.53,1.53,2.24,3.41,5.02,6.64,10.23,9.6,15.52.54.9.99,1.7,1.53,2.6,2.96,5.29,5.74,10.67,8.34,16.23.36.9.72,1.79,1.17,2.6,2.51,5.65,4.93,11.39,7.09,17.22.27.81.54,1.53.81,2.33,2.15,6.01,4.22,12.2,5.92,18.39.09.45.18.9.36,1.34,1.7,6.55,3.23,13.1,4.48,19.73,0,.18.09.27.09.45,1.26,6.64,2.15,13.36,2.87,20.27,0,.36.09.81.18,1.17,0,.27,0,.54.09.9.27,2.78.45,5.65.63,8.52.09,1.26.18,2.6.27,3.86.18,4.13.27,8.25.27,12.47Z" style="fill: #ffc3b3; mix-blend-mode: multiply; opacity: .4;"/>
            <path d="M1209.46,655.05c0,116.6-77.31,215.08-183.42,247.01-10.76,3.23-21.88,5.83-33.19,7.62-13.45,2.24-27.27,3.41-41.35,3.41-25.92,0-51.03-3.86-74.62-11.03-4.75-1.34-9.42-2.96-13.99-4.66-98.84-36.06-169.43-130.95-169.43-242.34,0-67.45,23.41-168.62,65.74-214.54,47.18-51.21,117.14-43.41,192.3-43.41,14.08,0,27.89,1.08,41.35,3.32.18,0,.36.09.63.09,6.37,1.08,12.74,2.33,19.01,3.86.72.18,1.43.36,2.24.54,6.1,1.52,12.02,3.32,17.94,5.29.99.36,1.97.63,2.87.99,5.83,1.97,11.48,4.13,17.04,6.55.99.45,1.97.81,3.05,1.26,5.47,2.42,10.85,5.11,16.14,7.89.99.45,1.88.99,2.87,1.52,5.29,2.87,10.49,5.92,15.52,9.15.81.54,1.61,1.08,2.42,1.61,5.2,3.32,10.22,6.91,15.07,10.58.63.45,1.17.9,1.7,1.34,5.11,3.95,9.96,7.98,14.71,12.29.27.18.45.36.63.54,4.75,4.3,9.42,8.88,13.81,13.54.27.27.54.54.81.81,3.5,3.59,6.82,7.36,9.96,11.3.9.99,1.79,1.97,2.6,3.05.45.54.9,1.16,1.35,1.7,3.86,4.84,7.53,9.78,11.03,14.89.45.72.99,1.53,1.53,2.24,3.41,5.02,6.64,10.23,9.6,15.52.54.9.99,1.7,1.53,2.6,2.96,5.29,5.74,10.67,8.34,16.23.36.9.72,1.79,1.17,2.6,2.51,5.65,4.93,11.39,7.09,17.22.27.81.54,1.53.81,2.33,2.15,6.01,4.22,12.2,5.92,18.39.09.45.18.9.36,1.34,1.7,6.55,3.23,13.1,4.48,19.73,0,.18.09.27.09.45,1.26,6.64,2.15,13.36,2.87,20.27,0,.36.09.81.18,1.17,0,.27,0,.54.09.9.27,2.78.45,5.65.63,8.52.09,1.26.18,2.6.27,3.86.18,4.13.27,8.25.27,12.47Z" style="fill: none; stroke: #223656; stroke-miterlimit: 10; stroke-width: 3.74px;"/>
            <path d="M1066.76,300.14c-5.56-.63-11.21-.9-16.86-.9-.47-5.4,0-11.81,3.64-17.33,5.9-8.97,15.62-8.74,15.95-11.8.78-7.28-52.15-30.21-108.6-23.98-50.96,5.63-88.48,33.23-109.93,53.11-19.81.37-57.77,3.74-97.87,26.04-9.91,5.51-72.72,41.64-95.3,113-27.87,88.06,26.43,179.19,27.91,187.2,23.12,4.89,38.13,2.27,48.11-5.09,38.08-28.1,11.45-111.73,46.05-129.26,10.48-5.31,22.74-2.45,31.51.83,17.79,3.21,41.69,5.73,69.71,3.67,29.14-2.14,53.21-8.53,70.69-14.59,32.67,67.8,116.77,52.32,191.13,43.41,7.07,50.33,7.49,133.32,81.71,115.43,44.41-107.93,27.7-221.94-40.82-286.43-40.2-37.84-88.4-49.37-117.03-53.32Z" style="fill: #192e58;"/>
            <path d="M929.62,1389.33c-5.04-12.99-3.03-26.95-.72-27.28,1.93-.28,1.35,9.4,9.34,17.7,8.01,8.32,16.65,6.96,19.86,15.15.39.99,2.19,5.95-.29,9.72-2.86,4.34-9.39,4.06-9.69,4.04-10.84-.62-17.33-16.33-18.5-19.32Z" style="fill: #fff;"/>
            <rect x="610.39" y="1464.02" width="697.95" height="48.51" rx="24.25" ry="24.25" style="fill: #ce80ca; stroke: #223656; stroke-miterlimit: 10; stroke-width: 3px;"/>
            <path d="M1306.52,1451.73c-1.77,10.5-10.31,18.61-20.9,19.8-218.8,24.62-436.4,25.15-652.91.76-2.53-.29-5.01-.57-7.54-.86-10.16-1.15-18.47-8.69-20.61-18.66-28.92-135.05-38.18-266.47-23.81-393.55,1.24-11.17,9.98-20.04,21.14-21.24,236.17-25.58,471.67-25.77,706.59-.19,11.64,1.29,20.66,10.83,21.24,22.52,6.2,130.47-1.53,260.93-23.19,391.4Z" style="fill: #e2a8dc; stroke: #223656; stroke-miterlimit: 10; stroke-width: 3px;"/>
            <circle cx="952.92" cy="1254.5" r="39.52" style="fill: #ce80ca; stroke: #223656; stroke-miterlimit: 10; stroke-width: 3px;"/>
            <path d="M646.8,1062.91c-6.92.81-13.85,3.17-19,7.86-4.77,4.33-7.72,10.37-9.37,16.6-1.65,6.23-2.09,12.7-2.52,19.13-.28,4.12-.55,8.32.42,12.34s3.38,7.9,7.14,9.61c2.85,1.29,6.13,1.21,9.25.86,21.24-2.39,40.68-16.95,48.94-36.66,1.9-4.53,3.25-9.6,1.94-14.34-1.06-3.82-3.75-7.01-6.92-9.39-8.84-6.63-19.14-7.27-29.88-6.01Z" style="fill: #fff;"/>
          </g>
        </g>
      </g>
    </g>
  </g>
</svg>