<?xml version="1.0" encoding="UTF-8"?><svg xmlns="http://www.w3.org/2000/svg" xmlns:xlink="http://www.w3.org/1999/xlink" viewBox="0 0 943.96 950.04"><defs><clipPath id="clippath"><path d="M471.98,943.96c-189.44,0-352.86-111.64-427.95-272.75h-.07C15.76,610.67,0,543.19,0,471.98c0-71.21,15.76-138.68,43.96-199.23h.07C119.12,111.64,282.54,0,471.98,0c260.66,0,471.98,211.32,471.98,471.98,0,260.66-211.32,471.98-471.98,471.98Z" style="fill:none;"/></clipPath></defs><g style="isolation:isolate;"><g id="Backup"><path d="M471.98,945.46c-91.88,0-180.98-26.35-257.68-76.2-74.46-48.4-133.65-116.35-171.23-196.55l-.47-.87C13.34,609.01-1.5,541.77-1.5,471.98s14.84-137.03,44.1-199.86l.4-.87h.07c37.57-80.2,96.77-148.15,171.23-196.55C291,24.85,380.1-1.5,471.98-1.5c63.92,0,125.92,12.52,184.29,37.21,56.38,23.85,107.02,57.99,150.5,101.47,43.48,43.48,77.62,94.12,101.47,150.5,24.69,58.37,37.21,120.38,37.21,184.29s-12.52,125.92-37.21,184.3c-23.85,56.38-57.99,107.02-101.47,150.5s-94.12,77.62-150.5,101.47c-58.37,24.69-120.38,37.21-184.29,37.21Z" style="fill:#fdda84;"/><path d="M471.98,0C732.63,0,943.96,211.32,943.96,471.98s-211.32,471.98-471.98,471.98c-189.44,0-352.86-111.64-427.95-272.75h-.07C15.76,610.67,0,543.19,0,471.98s15.76-138.68,43.96-199.23h.07C119.12,111.64,282.54,0,471.98,0M471.98-3c-92.17,0-181.56,26.43-258.49,76.44-74.43,48.38-133.65,116.23-171.36,196.31h-.07l-.81,1.73c-14.33,30.77-25.36,63.15-32.76,96.22-7.62,34.01-11.48,69.09-11.48,104.27s3.86,70.26,11.48,104.27c7.41,33.08,18.43,65.45,32.76,96.22l.81,1.73h.07c37.71,80.08,96.93,147.93,171.36,196.31,76.94,50.01,166.32,76.44,258.49,76.44,64.12,0,126.32-12.56,184.88-37.33,56.56-23.92,107.36-58.17,150.98-101.79,43.62-43.62,77.87-94.42,101.79-150.98,24.77-58.56,37.33-120.76,37.33-184.88s-12.56-126.32-37.33-184.88c-23.92-56.56-58.17-107.36-101.79-150.98-43.62-43.62-94.42-77.87-150.98-101.79C598.3,9.56,536.1-3,471.98-3h0Z" style="fill:#263554;"/><ellipse cx="770.74" cy="227.57" rx="31.67" ry="96.89" transform="translate(12.97 495.16) rotate(-35.9)" style="fill:#fff;"/><path d="M471.98,943.96c-189.44,0-352.86-111.64-427.95-272.75h-.07C15.76,610.67,0,543.19,0,471.98c0-71.21,15.76-138.68,43.96-199.23h.07C96.83,159.41,193.39,70.6,311.89,27.86c-49.47,43.15-89.9,96.42-117.89,156.62h-.07c-28.2,60.54-43.96,128.02-43.96,199.23,0,71.21,15.76,138.68,43.96,199.23h.07c75.08,161.11,238.5,272.75,427.95,272.75,56.19,0,110.08-9.85,160.02-27.86-82.83,72.37-191.35,116.13-309.99,116.13Z" style="fill:#f4c082; mix-blend-mode:multiply; opacity:.2;"/><g style="clip-path:url(#clippath);"><path d="M846.06,926.73c.64,11.64-8.69,21.44-20.36,21.44H80.19c-11.66,0-20.99-9.8-20.36-21.44,11.31-207.13,184.34-374,393.07-374,135.36,0,255.73,70.16,326.7,176.03,38.52,57.3,62.48,125.19,66.44,197.97Z" style="fill:#91dece; stroke:#223656; stroke-miterlimit:10; stroke-width:3.74px;"/><path d="M846.06,926.73c.64,11.64-8.69,21.44-20.36,21.44H303.49c2.64-2.37,6.66-5.64,12.01-8.76,14.29-8.32,27.79-9.53,45.69-10.94,38.55-3.02,42.02-3.02,42.02-3.02,27.56.06,163.44.36,266.14-13.07,0,0,33.16-4.34,84.68-29.12,10.57-5.09,23.91-11.88,31.81-26.41,6.29-11.57,7-25.28,6.79-38.41-.42-30.32-4.88-60.5-13.01-89.68,38.52,57.3,62.48,125.19,66.44,197.97Z" style="fill:#77c6b3; mix-blend-mode:multiply; opacity:.4;"/><path d="M846.06,926.73c.64,11.64-8.69,21.44-20.36,21.44H80.19c-11.66,0-20.99-9.8-20.36-21.44,11.31-207.13,184.34-374,393.07-374,135.36,0,255.73,70.16,326.7,176.03,38.52,57.3,62.48,125.19,66.44,197.97Z" style="fill:none; stroke:#223656; stroke-miterlimit:10; stroke-width:3.74px;"/><path d="M566.86,606.52c1.7,1,3.53,2.16,4.14,4.05.41,1.28.17,2.67-.07,4-7.08,38.77-14.16,77.53-21.24,116.3-20.23-8.73-40.47-17.46-60.7-26.19-11.76,17.07-24.04,33.78-36.81,50.11-5.91-11.74,4.98-34.29,3.78-47.39-3.38-37.07-16.73-65.22-15.05-102.4.11-2.53.34-5.31,2.1-7.12,1.48-1.53,3.71-2.01,5.8-2.41,23.37-4.54,46.74-9.08,70.12-13.62,13.98-2.71,36.21,17.79,47.92,24.69Z" style="fill:#77c6b3; mix-blend-mode:multiply; opacity:.4;"/><path d="M355.09,741.83c18.42-12.39,37.74-23.44,57.75-33.01,11.83,15.45,23.66,30.9,35.49,46.35,1.03-25.13,2.06-50.26,3.09-75.38.89-21.81,1.65-44.42-6.69-64.57-8.34-20.15-28.53-37.11-50.07-34.31-14.2,1.85-28.94,11.31-41.31,18.16-13.2,7.3-7.99,22.18-7.25,35.97.96,18.01,2.21,36,3.73,53.97.49,5.83,8.38,50.72,5.27,52.82Z" style="fill:#77c6b3; mix-blend-mode:multiply; opacity:.4;"/><polygon points="516.32 862.82 456.8 938.23 407.04 875.1 397.35 862.82 453.34 720.24 412.62 654.63 501.05 654.63 465.99 711.08 460.33 720.17 516.32 862.82" style="fill:#ff92ba; stroke:#223656; stroke-miterlimit:10; stroke-width:3.74px;"/><path d="M516.32,862.82l-59.52,75.41-49.76-63.13c10.18,6.25,21.13,10.58,32.87,10.72,5.3.07,11.03-.99,14.49-4.97,3.46-4.05,3.68-9.87,3.75-15.19.14-37.07.28-9.87.49-46.86.07-18.96.14-37.92.21-56.81.07-16.97-2.09-30.1,1.65-46.44,1.98.14,3.44-6.18,5.49-4.48l-5.66,9.09,55.98,142.65Z" style="fill:#f36792; mix-blend-mode:multiply; opacity:.4;"/><polygon points="516.32 862.82 456.8 938.23 407.04 875.1 397.35 862.82 453.34 720.24 412.62 654.63 501.05 654.63 465.99 711.08 460.33 720.17 516.32 862.82" style="fill:none; stroke:#223656; stroke-miterlimit:10; stroke-width:3.74px;"/><path d="M456.8,662.63l-74.14,41.4-22.56-105.4,46.07-27.26" style="fill:#c7eeff; stroke:#223656; stroke-miterlimit:10; stroke-width:3.74px;"/><path d="M456.8,662.63l74.15,41.4,22.56-105.4-46.08-27.26" style="fill:#c7eeff; stroke:#223656; stroke-miterlimit:10; stroke-width:3.74px;"/><path d="M612.94,425.91c0,27.33,19.87,49.99,45.89,54.19,2.84.46,5.77.7,8.76.7,30.19,0,54.65-24.57,54.65-54.9s-24.46-54.9-54.65-54.9c-2.99,0-5.91.24-8.76.7-26.02,4.21-45.89,26.87-45.89,54.19Z" style="fill:#ffc3b3; stroke:#223656; stroke-miterlimit:10; stroke-width:3.74px;"/><path d="M667.59,406.3c-.86,0-1.69.15-2.52.25-1.12-11.92-3.15-23.59-6.24-34.83-26.02,4.21-45.89,26.87-45.89,54.19s19.87,49.99,45.89,54.19c3.08-11.24,5.12-22.9,6.24-34.83.83.11,1.66.26,2.52.26,10.79,0,19.53-8.79,19.53-19.62s-8.75-19.61-19.53-19.61Z" style="fill:#ffc3b3; mix-blend-mode:multiply; opacity:.4;"/><path d="M255.47,371.72c-2.84-.46-5.77-.7-8.76-.7-30.19,0-54.65,24.57-54.65,54.9,0,30.32,24.46,54.9,54.65,54.9,2.99,0,5.91-.24,8.76-.7,26.02-4.2,45.89-26.86,45.89-54.19,0-27.32-19.87-49.98-45.89-54.19Z" style="fill:#ffc3b3; stroke:#223656; stroke-miterlimit:10; stroke-width:3.74px;"/><path d="M244.58,369.91c-2.99,10.91-7.17,26.2-1.12,36.5-10.53.59-22.16,9.93-22.16,20.42s11.49,18.03,21.97,18.59c1.1,12.2,3.17,24.11,6.31,35.6,26.02-4.2,45.89-26.86,45.89-54.19s-24.87-52.71-50.9-56.92Z" style="fill:#ffc3b3; mix-blend-mode:multiply; opacity:.4;"/><path d="M510.52,544.64v72.43c0,26.27-17.04,48.5-40.64,56.1-.28.14-.49.21-.78.28-5.44,1.7-11.31,2.7-17.39,2.7-32.44,0-58.74-26.49-58.74-59.08v-72.43h117.55Z" style="fill:#ffc3b3; stroke:#223656; stroke-miterlimit:10; stroke-width:3.74px;"/><path d="M655.07,396.73c0,92.31-60.93,170.28-144.55,195.56-8.48,2.56-17.25,4.62-26.15,6.04-10.6,1.78-21.49,2.7-32.59,2.7-20.43,0-40.22-3.05-58.81-8.73-3.75-1.06-7.42-2.34-11.03-3.69-77.89-28.55-133.52-103.67-133.52-191.86,0-53.4,18.45-133.49,51.81-169.85,37.18-40.55,92.31-34.37,151.55-34.37,11.1,0,21.98.85,32.59,2.63.14,0,.28.07.49.07,5.02.85,10.04,1.85,14.98,3.05.57.14,1.13.28,1.77.43,4.81,1.21,9.47,2.63,14.14,4.19.78.28,1.55.5,2.26.78,4.59,1.56,9.05,3.27,13.43,5.18.78.36,1.56.64,2.4.99,4.31,1.92,8.55,4.05,12.72,6.25.78.36,1.48.78,2.26,1.21,4.17,2.27,8.27,4.69,12.23,7.24.64.43,1.27.85,1.91,1.28,4.1,2.63,8.06,5.47,11.87,8.38.49.35.92.71,1.34,1.06,4.03,3.12,7.85,6.32,11.59,9.73.21.14.35.28.49.43,3.75,3.41,7.42,7.03,10.89,10.72.21.21.42.43.64.64,2.76,2.84,5.37,5.82,7.85,8.95.71.78,1.41,1.56,2.05,2.41.35.43.71.92,1.06,1.35,3.04,3.83,5.94,7.74,8.69,11.79.35.57.78,1.21,1.2,1.78,2.69,3.98,5.23,8.1,7.56,12.29.42.71.78,1.35,1.2,2.06,2.33,4.19,4.52,8.45,6.57,12.85.28.71.57,1.42.92,2.06,1.98,4.47,3.89,9.02,5.58,13.63.21.64.42,1.21.64,1.85,1.7,4.76,3.32,9.66,4.66,14.56.07.36.14.71.28,1.06,1.34,5.18,2.54,10.37,3.53,15.62,0,.14.07.21.07.35.99,5.25,1.7,10.58,2.26,16.05,0,.28.07.64.14.92,0,.21,0,.43.07.71.21,2.2.35,4.47.49,6.75.07.99.14,2.06.21,3.05.14,3.27.21,6.53.21,9.87Z" style="fill:#ffc3b3; stroke:#223656; stroke-miterlimit:10; stroke-width:3.74px;"/><path d="M510.52,592.28v24.78c0,26.27-17.04,48.5-40.64,56.1-1.06-13.21-3.04-28.47-9.54-40.19-8.27-14.98-26.58-29.33-67.36-35.43v-5.25c18.59,5.68,38.38,8.73,58.81,8.73,11.1,0,21.98-.92,32.59-2.7,8.91-1.42,17.67-3.48,26.15-6.04Z" style="fill:#ffc3b3; mix-blend-mode:multiply; opacity:.4;"/><path d="M655.07,396.73c0,92.31-60.93,170.28-144.55,195.56-8.48,2.56-17.25,4.62-26.15,6.04-10.6,1.78-21.49,2.7-32.59,2.7-20.43,0-40.22-3.05-58.81-8.73-3.75-1.06-7.42-2.34-11.03-3.69,3.68-.92,7.35-1.99,11.03-3.12,10.74-3.27,21.35-7.17,31.67-11.72,11.87-5.18,31.88-14.06,53.51-29.11,17.67-12.36,36.4-28.83,52.73-50.7,0,0,56.83-76.26,76.76-228.22.71.78,1.41,1.56,2.05,2.41.35.43.71.92,1.06,1.35,3.04,3.83,5.94,7.74,8.69,11.79.35.57.78,1.21,1.2,1.78,2.69,3.98,5.23,8.1,7.56,12.29.42.71.78,1.35,1.2,2.06,2.33,4.19,4.52,8.45,6.57,12.85.28.71.57,1.42.92,2.06,1.98,4.47,3.89,9.02,5.58,13.63.21.64.42,1.21.64,1.85,1.7,4.76,3.32,9.66,4.66,14.56.07.36.14.71.28,1.06,1.34,5.18,2.54,10.37,3.53,15.62,0,.14.07.21.07.35.99,5.25,1.7,10.58,2.26,16.05,0,.28.07.64.14.92,0,.21,0,.43.07.71.21,2.2.35,4.47.49,6.75.07.99.14,2.06.21,3.05.14,3.27.21,6.53.21,9.87Z" style="fill:#ffc3b3; mix-blend-mode:multiply; opacity:.4;"/><path d="M655.07,396.73c0,92.31-60.93,170.28-144.55,195.56-8.48,2.56-17.25,4.62-26.15,6.04-10.6,1.78-21.49,2.7-32.59,2.7-20.43,0-40.22-3.05-58.81-8.73-3.75-1.06-7.42-2.34-11.03-3.69-77.89-28.55-133.52-103.67-133.52-191.86,0-53.4,18.45-133.49,51.81-169.85,37.18-40.55,92.31-34.37,151.55-34.37,11.1,0,21.98.85,32.59,2.63.14,0,.28.07.49.07,5.02.85,10.04,1.85,14.98,3.05.57.14,1.13.28,1.77.43,4.81,1.21,9.47,2.63,14.14,4.19.78.28,1.55.5,2.26.78,4.59,1.56,9.05,3.27,13.43,5.18.78.36,1.56.64,2.4.99,4.31,1.92,8.55,4.05,12.72,6.25.78.36,1.48.78,2.26,1.21,4.17,2.27,8.27,4.69,12.23,7.24.64.43,1.27.85,1.91,1.28,4.1,2.63,8.06,5.47,11.87,8.38.49.35.92.71,1.34,1.06,4.03,3.12,7.85,6.32,11.59,9.73.21.14.35.28.49.43,3.75,3.41,7.42,7.03,10.89,10.72.21.21.42.43.64.64,2.76,2.84,5.37,5.82,7.85,8.95.71.78,1.41,1.56,2.05,2.41.35.43.71.92,1.06,1.35,3.04,3.83,5.94,7.74,8.69,11.79.35.57.78,1.21,1.2,1.78,2.69,3.98,5.23,8.1,7.56,12.29.42.71.78,1.35,1.2,2.06,2.33,4.19,4.52,8.45,6.57,12.85.28.71.57,1.42.92,2.06,1.98,4.47,3.89,9.02,5.58,13.63.21.64.42,1.21.64,1.85,1.7,4.76,3.32,9.66,4.66,14.56.07.36.14.71.28,1.06,1.34,5.18,2.54,10.37,3.53,15.62,0,.14.07.21.07.35.99,5.25,1.7,10.58,2.26,16.05,0,.28.07.64.14.92,0,.21,0,.43.07.71.21,2.2.35,4.47.49,6.75.07.99.14,2.06.21,3.05.14,3.27.21,6.53.21,9.87Z" style="fill:none; stroke:#223656; stroke-miterlimit:10; stroke-width:3.74px;"/><path d="M660.79,253.79l6.22,130.94c-25.8,8.38-52.66-9.37-56.69-37.49l-7.7-53.89c-41.63,13.99-88.43,5.96-123.98-24.14-7.63-6.46-16.89-10.22-26.65-10.22h-110.27c-21.56,0-39.94,16.62-43.19,39.13l-7,49.14c-3.53,24.57-24.46,41.18-46.86,39.41-3.25-.21-6.5-.85-9.83-1.92l6.29-132.57.28-6.32c3.46-73.49,61.21-131.08,131.12-130.8l79.02.36,77.75-.36c4.45,0,8.91.21,13.29.71l43.89.14c10.96.07,21.56-4.54,29.33-12.71l15.27-16.05c7.92-8.38,18.8-11.01,28.63-8.73,8.48,2.06,16.26,7.88,20.71,16.97,25.02,50.77,18.38,114.25-19.65,158.42Z" style="fill:#192e58;"/><path d="M434.53,878.24c-3.97-10.28-2.38-21.34-.57-21.6,1.52-.22,1.06,7.44,7.36,14.01,6.31,6.59,13.13,5.51,15.65,11.99.31.79,1.73,4.71-.23,7.69-2.25,3.44-7.4,3.22-7.64,3.2-8.54-.49-13.66-12.93-14.58-15.3Z" style="fill:#fff;"/><path d="M234.85,384.73l6.29-132.57.28-6.32c3.46-73.49,61.21-131.08,131.12-130.8l79.02.36,77.75-.36c4.45,0,8.91.21,13.29.71l43.89.14c10.96.07,21.56-4.54,29.33-12.71l15.27-16.05c7.92-8.38,18.8-11.01,28.63-8.73-3.46,12.36-8.06,23.79-14.77,32.45-17.11,22.08-44.81,28.4-118.61,33.23-92.45,6.04-108.57-.57-148.65,14.56-33.79,12.78-53.86,29.33-63.62,38.34-20.99,19.46-32.3,39.27-36.83,47.86-10.6,20.1-12.23,33.16-20.29,65.04-4.59,17.96-11.59,43.67-22.05,74.84h-.07Z" style="fill:#3382bb; opacity:.2;"/></g></g></g></svg>