<?xml version="1.0" encoding="UTF-8"?>
<svg xmlns="http://www.w3.org/2000/svg" xmlns:xlink="http://www.w3.org/1999/xlink" viewBox="0 0 1046.72 898.31">
  <defs>
    <clipPath id="clippath">
      <path d="M2438.07,869.4c9.21,0,18.43.02,27.64.05,14.17.04,28.34.09,42.51.13,4.78.02,9.57.04,14.35.04h3.15c8.43.02,16.85.04,25.29.04h29.51c-18.25,0-36.53-.05-54.78-.11-29.22-.09-58.45-.18-87.67-.14Z" style="fill: none;"/>
    </clipPath>
    <clipPath id="clippath-1">
      <rect x="701.8" y="-438.11" width="2007.54" height="2007.54" style="fill: none;"/>
    </clipPath>
  </defs>
  <g style="isolation: isolate;">
    <g id="Layer_1" data-name="Layer 1">
      <g style="mix-blend-mode: soft-light; opacity: .4;">
        <g style="clip-path: url(#clippath);">
          <g style="clip-path: url(#clippath-1);">
            <g>
              <rect x="862.95" y="681.32" width="23.34" height="1430.57" transform="translate(-731.38 1027.51) rotate(-45)"/>
              <rect x="894.38" y="649.9" width="23.34" height="1430.57" transform="translate(-699.95 1040.53) rotate(-45)"/>
              <rect x="925.8" y="618.48" width="23.34" height="1430.57" transform="translate(-668.53 1053.54) rotate(-45)"/>
              <rect x="957.22" y="587.05" width="23.34" height="1430.57" transform="translate(-637.11 1066.56) rotate(-45)"/>
              <rect x="988.64" y="555.63" width="23.34" height="1430.57" transform="translate(-605.69 1079.57) rotate(-45)"/>
              <rect x="1020.07" y="524.21" width="23.34" height="1430.57" transform="translate(-574.26 1092.59) rotate(-45)"/>
              <rect x="1051.49" y="492.79" width="23.34" height="1430.57" transform="translate(-542.84 1105.6) rotate(-45)"/>
              <rect x="1082.91" y="461.36" width="23.34" height="1430.57" transform="translate(-511.42 1118.62) rotate(-45)"/>
              <rect x="1114.33" y="429.94" width="23.34" height="1430.57" transform="translate(-480 1131.63) rotate(-45)"/>
              <rect x="1145.75" y="398.52" width="23.34" height="1430.57" transform="translate(-448.58 1144.65) rotate(-45)"/>
              <rect x="1177.18" y="367.1" width="23.34" height="1430.57" transform="translate(-417.15 1157.67) rotate(-45)"/>
            </g>
            <g>
              <rect x="1206.86" y="337.42" width="23.34" height="1430.57" transform="translate(-387.47 1169.96) rotate(-45)"/>
              <rect x="1238.28" y="305.99" width="23.34" height="1430.57" transform="translate(-356.05 1182.97) rotate(-45)"/>
              <rect x="1269.7" y="274.57" width="23.34" height="1430.57" transform="translate(-324.63 1195.99) rotate(-45)"/>
              <rect x="1301.12" y="243.15" width="23.34" height="1430.57" transform="translate(-293.21 1209.01) rotate(-45)"/>
              <rect x="1332.55" y="211.73" width="23.34" height="1430.57" transform="translate(-261.78 1222.02) rotate(-45)"/>
              <rect x="1363.97" y="180.31" width="23.34" height="1430.57" transform="translate(-230.36 1235.04) rotate(-45)"/>
              <rect x="1395.39" y="148.88" width="23.34" height="1430.57" transform="translate(-198.94 1248.05) rotate(-45)"/>
              <rect x="1426.81" y="117.46" width="23.34" height="1430.57" transform="translate(-167.52 1261.07) rotate(-45)"/>
              <rect x="1458.24" y="86.04" width="23.34" height="1430.57" transform="translate(-136.09 1274.08) rotate(-45)"/>
              <rect x="1489.66" y="54.62" width="23.34" height="1430.57" transform="translate(-104.67 1287.1) rotate(-45)"/>
              <rect x="1521.08" y="23.19" width="23.34" height="1430.57" transform="translate(-73.25 1300.11) rotate(-45)"/>
            </g>
            <g>
              <rect x="203.09" y="-666.35" width="23.34" height="1430.57" transform="translate(28.3 166.19) rotate(-45)"/>
              <rect x="234.51" y="-697.77" width="23.34" height="1430.57" transform="translate(59.72 179.2) rotate(-45)"/>
              <rect x="265.93" y="-729.2" width="23.34" height="1430.57" transform="translate(91.15 192.22) rotate(-45)"/>
              <rect x="297.35" y="-760.62" width="23.34" height="1430.57" transform="translate(122.57 205.24) rotate(-45)"/>
              <rect x="328.78" y="-792.04" width="23.34" height="1430.57" transform="translate(153.99 218.25) rotate(-45)"/>
              <rect x="360.2" y="-823.46" width="23.34" height="1430.57" transform="translate(185.41 231.27) rotate(-45)"/>
              <rect x="391.62" y="-854.89" width="23.34" height="1430.57" transform="translate(216.84 244.28) rotate(-45)"/>
              <rect x="423.04" y="-886.31" width="23.34" height="1430.57" transform="translate(248.26 257.3) rotate(-45)"/>
              <rect x="454.47" y="-917.73" width="23.34" height="1430.57" transform="translate(279.68 270.31) rotate(-45)"/>
              <rect x="485.89" y="-949.15" width="23.34" height="1430.57" transform="translate(311.1 283.33) rotate(-45)"/>
              <rect x="517.31" y="-980.57" width="23.34" height="1430.57" transform="translate(342.52 296.34) rotate(-45)"/>
              <rect x="548.73" y="-1012" width="23.34" height="1430.57" transform="translate(373.95 309.36) rotate(-45)"/>
              <rect x="580.15" y="-1043.42" width="23.34" height="1430.57" transform="translate(405.37 322.38) rotate(-45)"/>
              <rect x="611.58" y="-1074.84" width="23.34" height="1430.57" transform="translate(436.79 335.39) rotate(-45)"/>
              <rect x="643" y="-1106.26" width="23.34" height="1430.57" transform="translate(468.21 348.41) rotate(-45)"/>
              <rect x="674.42" y="-1137.69" width="23.34" height="1430.57" transform="translate(499.64 361.42) rotate(-45)"/>
              <rect x="705.84" y="-1169.11" width="23.34" height="1430.57" transform="translate(531.06 374.44) rotate(-45)"/>
              <rect x="737.27" y="-1200.53" width="23.34" height="1430.57" transform="translate(562.48 387.45) rotate(-45)"/>
            </g>
          </g>
        </g>
      </g>
      <g>
        <g>
          <circle cx="322.39" cy="550.01" r="136.01" style="fill: #f03930; stroke: #223656; stroke-miterlimit: 10; stroke-width: 3px;"/>
          <path d="M656.37,501.93c-68.13-4.45-50.57-15.95-76.91-67.5-13.72-23.44,10.47-45.07,23.51-61.92,23.17-29.16-24.58-56.07-39.78-75.2-23.29-21.81-44.48,4.07-62.71,17.84-25.03,20.04-51.59-7.87-77.02-13.16-26.23-6.88-24.56-39.13-27.29-60.27-3.83-36.91-56.88-22.33-80.92-25.06-14.45,0-26.43,10.62-28.07,25.07-4.14,67.57-16.35,50.93-67.49,76.91-40.04,22.54-62.09-54.6-99.53-21.33-15.12,19.09-62.97,46.04-39.78,75.2,13.3,17.22,37.09,38.25,23.5,61.93-14.28,21.69-13.28,60.27-45.15,63.85-73.45,3.29-54.12,26.28-56.83,84.57.19,31.08,34.85,28.88,56.83,31.72,31.86,3.59,30.91,42.12,45.15,63.84,13.72,23.44-10.48,45.08-23.51,61.94-23.18,29.15,24.6,56.07,39.78,75.2,22.51,21.76,44.91-4.1,62.7-17.85,25.05-20.04,51.58,7.88,77.03,13.17,26.23,6.87,24.55,39.13,27.28,60.26,3.85,36.92,56.88,22.34,80.93,25.07,49.73-2.68,11.24-73.24,55.35-85.32,25.44-5.23,52-33.23,77.02-13.17,11.71,8.13,32.12,31.43,48.75,25.48,5.15-1.12,10.01-3.69,13.96-7.63,15.15-19.12,62.96-46.04,39.78-75.2-13.29-17.21-37.09-38.26-23.5-61.94,26.9-52.6,8.35-62.59,76.91-67.49,36.91-3.85,22.33-56.88,25.06-80.93,0-14.44-10.62-26.43-25.06-28.06ZM414.96,629.71c-33.61,33.62-84.42,39.4-123.96,17.34-.75-.41-1.5-.83-2.22-1.28-3.68-2.17-7.25-4.59-10.69-7.25,0,0-.02,0-.03-.03-1.25-.97-2.48-1.97-3.69-2.99-.31-.26-.62-.52-.92-.81-1.83-1.58-3.6-3.24-5.34-4.98-.64-.63-1.27-1.27-1.87-1.91-33.8-35.32-37.61-88.97-11.45-128.44.48-.72.96-1.43,1.46-2.14.99-1.42,2.03-2.82,3.1-4.19,2.67-3.44,5.59-6.74,8.77-9.89,7.61-7.61,16.1-13.8,25.15-18.55,0,0,.02,0,.03,0,4.51-2.38,9.16-4.4,13.9-6.06,0,0,.03,0,.04,0,6.34-2.22,12.85-3.81,19.44-4.76,9.86-1.42,19.89-1.42,29.77,0,21.4,3.1,42.03,12.89,58.53,29.39,40.33,40.32,40.33,106.26,0,146.58Z" style="fill: #feb13d; stroke: #223656; stroke-miterlimit: 10; stroke-width: 3px;"/>
          <path d="M460.78,437.53c-65.89-65.89-172.47-65.89-238.36,0-65.89,65.32-65.89,172.34,0,237.81,65.89,65.89,172.47,65.89,238.36,0,65.47-65.47,65.47-172.48,0-237.81ZM414.99,629.75c-33.63,33.63-84.46,39.4-123.99,17.3-.75-.41-1.5-.83-2.22-1.28-3.68-2.17-7.25-4.58-10.69-7.25,0,0-.02,0-.03-.03-1.24-.96-2.48-1.96-3.69-2.99-.31-.26-.62-.52-.92-.81-1.82-1.56-3.58-3.21-5.31-4.94,0,0-.03-.03-.03-.04-.64-.63-1.27-1.27-1.87-1.91-33.87-35.37-37.67-88.97-11.45-128.44.48-.72.96-1.43,1.46-2.14.99-1.42,2.03-2.82,3.1-4.19,2.69-3.44,5.62-6.75,8.8-9.9,7.6-7.6,16.09-13.78,25.12-18.54,0,0,.02,0,.03,0,4.51-2.37,9.17-4.39,13.9-6.06,0,0,.03,0,.04,0,6.34-2.21,12.85-3.81,19.44-4.76,9.86-1.42,19.89-1.42,29.77,0,21.42,3.09,42.06,12.88,58.56,29.38,40.37,40.38,40.37,106.26,0,146.63Z" style="fill: #ea4e4e;"/>
          <path d="M472.67,425.69c-72.45-72.45-189.65-72.45-262.1,0-72.45,71.83-72.45,189.5,0,261.49,72.45,72.45,189.65,72.45,262.1,0,71.99-71.99,71.99-189.66,0-261.49Z" style="fill: #fa7532; stroke: #223656; stroke-miterlimit: 10; stroke-width: 3px;"/>
          <path d="M454.44,443.86c-62.38-62.38-163.3-62.38-225.69,0-62.38,61.85-62.38,163.17,0,225.16,62.38,62.38,163.3,62.38,225.69,0,61.99-61.99,61.99-163.31,0-225.16Z" style="fill: #f03930; stroke: #223656; stroke-miterlimit: 10; stroke-width: 3px;"/>
          <path d="M142.19,453.66c-3.65,4.64-7.29,9.28-10.94,13.92-12.95,21.61-17.41,25.3-19.06,24.57-2.09-.91-.47-9.16,1.71-20.32,1.92-9.8,4.96-16.17,6.34-19.08,1.66-3.5,3.33-6.36,4.68-8.49,2.97-3.6,7.96-4.75,12.01-2.88,4.46,2.06,6.81,7.34,5.27,12.28Z" style="fill: #fff;"/>
          <path d="M333.76,241.72l3.65,31.75c1.53,13.35,10.84,24.42,23.64,28.51,13.85,4.42,27.32,9.98,40.21,16.65,11.92,6.17,26.33,4.88,36.82-3.48l6.68-5.33c-6.98-2.92-14.08-5.53-21.3-7.84-12.8-4.08-22.1-15.16-23.64-28.51l-3.65-31.75c-1.64-14.44-13.62-25.07-28.06-25.07h-52.86c-1.63,0-3.22.14-4.78.4,12.23,2.05,21.84,11.85,23.29,24.66Z" style="fill: #e55ca3; mix-blend-mode: multiply; opacity: .23;"/>
          <path d="M559.1,328.45l-19.87,25.03c-8.35,10.52-9.6,24.93-3.44,36.87,6.67,12.91,12.26,26.37,16.66,40.2,4.07,12.79,15.16,22.07,28.5,23.57l8.49.96c-2.87-7-6.05-13.87-9.52-20.6-6.16-11.94-4.91-26.35,3.44-36.87l19.87-25.03c9.06-11.37,8.09-27.36-2.12-37.57l-37.38-37.38c-1.15-1.15-2.38-2.18-3.66-3.09,7.2,10.1,7.06,23.82-.97,33.91Z" style="fill: #e55ca3; mix-blend-mode: multiply; opacity: .23;"/>
          <path d="M656.53,548.8l-31.75,3.65c-13.35,1.53-24.42,10.84-28.51,23.64-4.42,13.85-9.98,27.32-16.65,40.21-6.17,11.92-4.88,26.33,3.48,36.82l5.33,6.68c2.92-6.98,5.53-14.08,7.84-21.3,4.08-12.8,15.16-22.1,28.51-23.64l31.75-3.65c14.44-1.64,25.07-13.62,25.07-28.06v-52.86c0-1.63-.14-3.22-.4-4.78-2.05,12.23-11.85,21.84-24.66,23.29Z" style="fill: #e55ca3; mix-blend-mode: multiply; opacity: .23;"/>
          <path d="M569.02,774.04l-25.03-19.87c-10.52-8.35-24.93-9.6-36.87-3.44-12.91,6.67-26.37,12.26-40.2,16.66-12.79,4.07-22.07,15.16-23.57,28.5l-.96,8.49c7-2.87,13.87-6.05,20.6-9.52,11.94-6.16,26.35-4.91,36.87,3.44l25.03,19.87c11.37,9.06,27.36,8.09,37.57-2.12l37.38-37.38c1.15-1.15,2.18-2.38,3.09-3.66-10.1,7.2-23.82,7.06-33.91-.97Z" style="fill: #e55ca3; mix-blend-mode: multiply; opacity: .23;"/>
          <path d="M120.46,315.15c10.49,8.37,24.9,9.65,36.82,3.49,6.18-3.19,12.49-6.13,18.91-8.81l-18.43-14.7c-11.44-8.99-27.52-7.9-37.6,2.18l-9.8,9.8,10.09,8.05Z" style="fill: #e55ca3; mix-blend-mode: multiply; opacity: .23;"/>
          <path d="M157.28,794.2c-11.92-6.17-26.33-4.88-36.82,3.48l-10.09,8.05,9.8,9.8c10.08,10.08,26.16,11.17,37.6,2.18l18.43-14.69c-6.42-2.68-12.73-5.62-18.91-8.81Z" style="fill: #e55ca3; mix-blend-mode: multiply; opacity: .23;"/>
          <path d="M327.65,588.58l-12.85-131.81c-1.01-10.31,7.1-19.24,17.45-19.24h25.43c10.34,0,18.44,8.91,17.46,19.2l-12.58,131.81c-.86,9-8.42,15.87-17.46,15.87h0c-9.03,0-16.58-6.85-17.45-15.84Z" style="fill: #ffe; stroke: #223656; stroke-miterlimit: 10; stroke-width: 3px;"/>
          <rect x="316.73" y="626.23" width="56.44" height="55.4" rx="17.54" ry="17.54" style="fill: #ffe; stroke: #223656; stroke-miterlimit: 10; stroke-width: 3px;"/>
        </g>
        <g>
          <circle cx="839.65" cy="192.39" r="77.74" style="fill: #f03930; stroke: #223656; stroke-miterlimit: 10; stroke-width: 3px;"/>
          <path d="M1030.54,164.91c-38.94-2.54-28.91-9.12-43.96-38.58-7.84-13.4,5.98-25.76,13.44-35.39,13.24-16.67-14.05-32.05-22.74-42.98-13.31-12.46-25.42,2.32-35.84,10.2-14.3,11.45-29.49-4.5-44.02-7.52-14.99-3.93-14.04-22.36-15.6-34.45-2.19-21.1-32.51-12.76-46.25-14.32-8.26,0-15.11,6.07-16.04,14.33-2.36,38.62-9.35,29.11-38.57,43.96-22.88,12.88-35.49-31.2-56.89-12.19-8.64,10.91-35.99,26.31-22.74,42.98,7.6,9.84,21.2,21.86,13.43,35.39-8.16,12.4-7.59,34.45-25.8,36.49-41.98,1.88-30.93,15.02-32.48,48.34.11,17.76,19.92,16.51,32.48,18.13,18.21,2.05,17.67,24.07,25.8,36.49,7.84,13.4-5.99,25.77-13.44,35.4-13.25,16.66,14.06,32.05,22.74,42.98,12.87,12.44,25.67-2.35,35.84-10.2,14.32-11.45,29.48,4.5,44.03,7.53,14.99,3.92,14.03,22.36,15.59,34.44,2.2,21.1,32.51,12.77,46.26,14.33,28.42-1.53,6.43-41.86,31.64-48.77,14.54-2.99,29.72-18.99,44.02-7.53,6.69,4.65,18.36,17.96,27.86,14.56,2.94-.64,5.72-2.11,7.98-4.36,8.66-10.93,35.98-26.31,22.74-42.98-7.6-9.84-21.2-21.87-13.43-35.4,15.38-30.07,4.77-35.77,43.96-38.57,21.1-2.2,12.77-32.51,14.32-46.26,0-8.25-6.07-15.11-14.32-16.04ZM892.56,237.95c-19.21,19.22-48.25,22.52-70.85,9.91-.43-.23-.85-.48-1.27-.73-2.1-1.24-4.15-2.62-6.11-4.15,0,0-.01,0-.02-.02-.72-.55-1.42-1.13-2.11-1.71-.18-.15-.36-.3-.53-.46-1.04-.9-2.06-1.85-3.05-2.85-.37-.36-.73-.73-1.07-1.09-19.32-20.19-21.5-50.85-6.54-73.41.27-.41.55-.82.83-1.22.57-.81,1.16-1.61,1.77-2.4,1.53-1.96,3.2-3.85,5.01-5.65,4.35-4.35,9.2-7.89,14.37-10.6,0,0,.01,0,.02,0,2.57-1.36,5.23-2.51,7.95-3.46,0,0,.02,0,.02,0,3.62-1.27,7.35-2.18,11.11-2.72,5.64-.81,11.37-.81,17.01,0,12.23,1.77,24.02,7.37,33.45,16.8,23.05,23.05,23.05,60.73,0,83.78Z" style="fill: #f05b30; stroke: #223656; stroke-miterlimit: 10; stroke-width: 3px;"/>
          <path d="M918.74,128.11c-37.66-37.66-98.58-37.66-136.24,0-37.66,37.34-37.66,98.5,0,135.92,37.66,37.66,98.58,37.66,136.24,0,37.42-37.42,37.42-98.59,0-135.92ZM892.57,237.97c-19.22,19.22-48.27,22.52-70.87,9.89-.43-.23-.85-.48-1.27-.73-2.1-1.24-4.15-2.62-6.11-4.15,0,0-.01,0-.02-.02-.71-.55-1.42-1.12-2.11-1.71-.18-.15-.36-.3-.53-.46-1.04-.89-2.05-1.84-3.04-2.82,0,0-.02-.02-.02-.02-.37-.36-.73-.73-1.07-1.09-19.36-20.22-21.53-50.85-6.54-73.41.27-.41.55-.82.83-1.22.57-.81,1.16-1.61,1.77-2.4,1.54-1.96,3.21-3.86,5.03-5.66,4.35-4.35,9.2-7.87,14.36-10.6,0,0,.01,0,.02,0,2.58-1.35,5.24-2.51,7.95-3.46,0,0,.02,0,.02,0,3.62-1.27,7.35-2.18,11.11-2.72,5.64-.81,11.37-.81,17.01,0,12.24,1.76,24.04,7.36,33.47,16.79,23.07,23.08,23.07,60.73,0,83.81Z" style="fill: #ea4e4e;"/>
          <path d="M925.54,121.34c-41.41-41.41-108.4-41.41-149.81,0-41.41,41.05-41.41,108.31,0,149.46,41.41,41.41,108.4,41.41,149.81,0,41.15-41.15,41.15-108.4,0-149.46Z" style="fill: #fa7532; stroke: #223656; stroke-miterlimit: 10; stroke-width: 3px;"/>
          <path d="M915.12,131.72c-35.66-35.66-93.34-35.66-128.99,0-35.66,35.35-35.66,93.26,0,128.7,35.66,35.66,93.34,35.66,128.99,0,35.43-35.43,35.43-93.34,0-128.7Z" style="fill: #f03930; stroke: #223656; stroke-miterlimit: 10; stroke-width: 3px;"/>
          <path d="M736.65,137.33c-2.08,2.65-4.17,5.3-6.25,7.96-7.4,12.35-9.95,14.46-10.9,14.04-1.19-.52-.27-5.24.98-11.61,1.1-5.6,2.83-9.24,3.63-10.91.95-2,1.9-3.64,2.67-4.85,1.7-2.06,4.55-2.72,6.86-1.65,2.55,1.18,3.89,4.2,3.01,7.02Z" style="fill: #fff;"/>
          <path d="M846.14,16.19l2.09,18.15c.88,7.63,6.2,13.96,13.51,16.29,7.91,2.53,15.61,5.7,22.98,9.51,6.81,3.52,15.05,2.79,21.05-1.99l3.82-3.04c-3.99-1.67-8.05-3.16-12.17-4.48-7.32-2.33-12.63-8.67-13.51-16.29l-2.09-18.15c-.93-8.25-7.79-14.33-16.04-14.33h-30.21c-.93,0-1.84.08-2.73.23,6.99,1.17,12.48,6.77,13.31,14.1Z" style="fill: #e55ca3; mix-blend-mode: multiply; opacity: .23;"/>
          <path d="M974.94,65.76l-11.36,14.31c-4.77,6.01-5.49,14.25-1.97,21.07,3.81,7.38,7.01,15.07,9.52,22.98,2.33,7.31,8.67,12.61,16.29,13.47l4.85.55c-1.64-4-3.46-7.93-5.44-11.77-3.52-6.82-2.81-15.06,1.97-21.07l11.36-14.31c5.18-6.5,4.62-15.64-1.21-21.47l-21.36-21.36c-.66-.66-1.36-1.25-2.09-1.77,4.12,5.77,4.04,13.61-.56,19.38Z" style="fill: #e55ca3; mix-blend-mode: multiply; opacity: .23;"/>
          <path d="M1030.63,191.7l-18.15,2.09c-7.63.88-13.96,6.2-16.29,13.51-2.53,7.91-5.7,15.61-9.51,22.98-3.52,6.81-2.79,15.05,1.99,21.05l3.04,3.82c1.67-3.99,3.16-8.05,4.48-12.17,2.33-7.32,8.67-12.63,16.29-13.51l18.15-2.09c8.25-.93,14.33-7.79,14.33-16.04v-30.21c0-.93-.08-1.84-.23-2.73-1.17,6.99-6.77,12.48-14.1,13.31Z" style="fill: #e55ca3; mix-blend-mode: multiply; opacity: .23;"/>
          <path d="M980.61,320.44l-14.31-11.36c-6.01-4.77-14.25-5.49-21.07-1.97-7.38,3.81-15.07,7.01-22.98,9.52-7.31,2.33-12.61,8.67-13.47,16.29l-.55,4.85c4-1.64,7.93-3.46,11.77-5.44,6.82-3.52,15.06-2.81,21.07,1.97l14.31,11.36c6.5,5.18,15.64,4.62,21.47-1.21l21.36-21.36c.66-.66,1.25-1.36,1.77-2.09-5.77,4.12-13.61,4.04-19.38-.56Z" style="fill: #e55ca3; mix-blend-mode: multiply; opacity: .23;"/>
          <path d="M724.23,58.15c6,4.78,14.23,5.52,21.05,1.99,3.53-1.83,7.14-3.5,10.81-5.04l-10.53-8.4c-6.54-5.14-15.73-4.52-21.49,1.25l-5.6,5.6,5.77,4.6Z" style="fill: #e55ca3; mix-blend-mode: multiply; opacity: .23;"/>
          <path d="M745.27,331.97c-6.81-3.52-15.05-2.79-21.05,1.99l-5.77,4.6,5.6,5.6c5.76,5.76,14.95,6.39,21.49,1.25l10.53-8.4c-3.67-1.53-7.28-3.21-10.81-5.04Z" style="fill: #e55ca3; mix-blend-mode: multiply; opacity: .23;"/>
          <g>
            <path d="M841.49,216.38l-8.21-84.17c-.64-6.58,4.53-12.29,11.15-12.29h16.24c6.61,0,11.78,5.69,11.15,12.26l-8.03,84.17c-.55,5.75-5.38,10.14-11.15,10.14h0c-5.76,0-10.59-4.38-11.15-10.11Z" style="fill: #f03930;"/>
            <rect x="834.52" y="240.42" width="36.04" height="35.38" rx="11.2" ry="11.2" style="fill: #f03930;"/>
          </g>
          <path d="M842.65,214.44l-7.35-75.34c-.57-5.89,4.06-11,9.98-11h14.54c5.91,0,10.54,5.09,9.98,10.98l-7.19,75.34c-.49,5.14-4.81,9.07-9.98,9.07h0c-5.16,0-9.48-3.92-9.98-9.05Z" style="fill: #ffe; stroke: #223656; stroke-miterlimit: 10; stroke-width: 3px;"/>
          <rect x="836.41" y="235.96" width="32.26" height="31.66" rx="10.02" ry="10.02" style="fill: #ffe; stroke: #223656; stroke-miterlimit: 10; stroke-width: 3px;"/>
        </g>
      </g>
    </g>
  </g>
</svg>