<?xml version="1.0" encoding="UTF-8"?><svg xmlns="http://www.w3.org/2000/svg" width="763.52" height="692.75" viewBox="0 0 763.52 692.75"><g style="isolation:isolate;"><g id="Layer_2"><path d="M267.07,604.68v.06s-.01-.02-.01-.03.01-.01.01-.02Z" style="fill:#feb13d;"/><path d="M267.07,604.68v.06s-.01-.02-.01-.03.01-.01.01-.02Z" style="fill:#fa7532;"/><path d="M659.09,606.02c-1.87,3.26-5.26,5.17-8.98,5.17-50.91,4.27-101.8,7.31-152.72,9.14h-.01c-127.67,4.61-255.33,1.56-383.02-9.14-7.77.25-13.26-4.62-9-15.6,1.38-26.66,242.78-437.71,267.85-463.92,5.36-6.63,13.52-6.23,17.98,0,12.32,10.8,111.46,163.27,186.45,299.22,38.57,69.91,70.74,135.46,81.44,175.12Z" style="fill:#feb13d;"/><path d="M742.41,676.85c-104.35,15.68-409.15,17.82-593.5,9.97h-.01c-56.94-2.41-102.4-5.8-126.9-10.02-14.24-2.46-24.89-17.23-18.69-29.23,10.35-20.04,21.02-40.26,32-60.65,0,0,.14-.13.24-.38C124.83,401.95,245.58,204.41,365.92,10.85c7.87-12.67,22.5-12.26,32.56,0,9.23,8.37,47.81,66.14,96.71,144.64,98.52,158.13,238.96,400.35,265.89,492.12,3.81,13-4.37,27.09-18.68,29.24Z" style="fill:#fa7532; stroke:#223656; stroke-miterlimit:10; stroke-width:3px;"/><path d="M577.64,430.9c38.57,69.91,70.74,135.46,81.44,175.12-1.87,3.26-5.26,5.17-8.98,5.17-50.91,4.27-101.81,7.31-152.73,9.14-127.67,4.61-255.33,1.56-383.02-9.14-7.77.25-13.26-4.62-9-15.6,1.38-26.66,242.78-437.71,267.85-463.92,5.36-6.63,13.52-6.23,17.98,0,12.32,10.8,111.46,163.27,186.45,299.22Z" style="fill:#feb13d; stroke:#223656; stroke-miterlimit:10; stroke-width:3px;"/><path d="M398.7,477.27c-3.73,23.16-29.26,22.51-33.13,0-9.84-76.36-15.75-147.69-11.88-206.47-.64-9.89,5.07-32.61,29.15-32.61,13.04,0,20.07,9.57,23.78,18.34,2.75,6.51,3.91,13.56,3.83,20.62-.3,27.47-2.1,137.49-11.76,200.12Z" style="fill:#fff; stroke:#223656; stroke-miterlimit:10; stroke-width:3px;"/><circle cx="382.26" cy="552.71" r="26.51" style="fill:#fff; stroke:#223656; stroke-miterlimit:10; stroke-width:3px;"/><path d="M742.41,676.85c-104.35,15.68-409.15,17.82-593.5,9.97,21.7-.74,47.38-.95,77.39-.54,131.26,1.8,217.11-24.17,271.08-65.94h.01c50.91-1.83,101.8-4.88,152.72-9.14,3.72,0,7.12-1.91,8.98-5.17-10.7-39.66-42.88-105.21-81.44-175.12-2.74-105.49-52.11-216.66-82.45-275.42,98.52,158.13,238.96,400.35,265.89,492.12,3.81,13-4.37,27.09-18.68,29.24Z" style="fill:#ea1515; mix-blend-mode:multiply; opacity:.2;"/><path d="M577.64,430.9c38.57,69.91,70.74,135.46,81.44,175.12-1.87,3.26-5.26,5.17-8.98,5.17-50.91,4.27-101.81,7.31-152.73,9.14,62.32-48.22,82.14-117.52,80.27-189.44Z" style="fill:#f49c00; mix-blend-mode:multiply; opacity:.2;"/><ellipse cx="352.49" cy="64.32" rx="41.04" ry="9.99" transform="translate(120.72 337.57) rotate(-60.04)" style="fill:#fff;"/><ellipse cx="312.66" cy="124.57" rx="17" ry="7.11" transform="translate(41.83 324.38) rotate(-58.14)" style="fill:#fff;"/></g></g></svg>