<?xml version="1.0" encoding="UTF-8"?>
<svg xmlns="http://www.w3.org/2000/svg" xmlns:xlink="http://www.w3.org/1999/xlink" viewBox="0 0 811.87 874.06">
  <defs>
    <clipPath id="clippath">
      <rect x="-89.1" y="-1311.94" width="923.47" height="961.78" style="fill: none; stroke-width: 0px;"/>
    </clipPath>
    <pattern id="Ed_line_thin" data-name="Ed line thin" x="0" y="0" width="258" height="258" patternTransform="translate(4057.31 2609.68) scale(1.51)" patternUnits="userSpaceOnUse" viewBox="0 0 258 258">
      <g>
        <rect width="258" height="258" style="fill: none; stroke-width: 0px;"/>
        <g>
          <line x1="130.41" y1="255.59" x2="260.41" y2="385.59" style="fill: none; stroke: #000; stroke-miterlimit: 10; stroke-width: 3px;"/>
          <line x1="134.44" y1="251.55" x2="264.45" y2="381.56" style="fill: none; stroke: #000; stroke-miterlimit: 10; stroke-width: 3px;"/>
          <line x1="138.48" y1="247.52" x2="268.48" y2="377.52" style="fill: none; stroke: #000; stroke-miterlimit: 10; stroke-width: 3px;"/>
          <line x1="142.52" y1="243.48" x2="272.52" y2="373.48" style="fill: none; stroke: #000; stroke-miterlimit: 10; stroke-width: 3px;"/>
          <line x1="146.56" y1="239.44" x2="276.56" y2="369.44" style="fill: none; stroke: #000; stroke-miterlimit: 10; stroke-width: 3px;"/>
          <line x1="150.6" y1="235.4" x2="280.6" y2="365.4" style="fill: none; stroke: #000; stroke-miterlimit: 10; stroke-width: 3px;"/>
          <line x1="154.64" y1="231.36" x2="284.64" y2="361.36" style="fill: none; stroke: #000; stroke-miterlimit: 10; stroke-width: 3px;"/>
          <line x1="158.67" y1="227.32" x2="288.68" y2="357.33" style="fill: none; stroke: #000; stroke-miterlimit: 10; stroke-width: 3px;"/>
          <line x1="162.71" y1="223.29" x2="292.71" y2="353.29" style="fill: none; stroke: #000; stroke-miterlimit: 10; stroke-width: 3px;"/>
          <line x1="166.75" y1="219.25" x2="296.75" y2="349.25" style="fill: none; stroke: #000; stroke-miterlimit: 10; stroke-width: 3px;"/>
          <line x1="170.79" y1="215.21" x2="300.79" y2="345.21" style="fill: none; stroke: #000; stroke-miterlimit: 10; stroke-width: 3px;"/>
          <line x1="174.83" y1="211.17" x2="304.83" y2="341.17" style="fill: none; stroke: #000; stroke-miterlimit: 10; stroke-width: 3px;"/>
          <line x1="178.87" y1="207.13" x2="308.87" y2="337.13" style="fill: none; stroke: #000; stroke-miterlimit: 10; stroke-width: 3px;"/>
          <line x1="182.9" y1="203.09" x2="312.91" y2="333.1" style="fill: none; stroke: #000; stroke-miterlimit: 10; stroke-width: 3px;"/>
          <line x1="186.94" y1="199.06" x2="316.94" y2="329.06" style="fill: none; stroke: #000; stroke-miterlimit: 10; stroke-width: 3px;"/>
          <line x1="190.98" y1="195.02" x2="320.98" y2="325.02" style="fill: none; stroke: #000; stroke-miterlimit: 10; stroke-width: 3px;"/>
          <line x1="195.02" y1="190.98" x2="325.02" y2="320.98" style="fill: none; stroke: #000; stroke-miterlimit: 10; stroke-width: 3px;"/>
          <line x1="199.06" y1="186.94" x2="329.06" y2="316.94" style="fill: none; stroke: #000; stroke-miterlimit: 10; stroke-width: 3px;"/>
          <line x1="203.09" y1="182.9" x2="333.1" y2="312.91" style="fill: none; stroke: #000; stroke-miterlimit: 10; stroke-width: 3px;"/>
          <line x1="207.13" y1="178.87" x2="337.13" y2="308.87" style="fill: none; stroke: #000; stroke-miterlimit: 10; stroke-width: 3px;"/>
          <line x1="211.17" y1="174.83" x2="341.17" y2="304.83" style="fill: none; stroke: #000; stroke-miterlimit: 10; stroke-width: 3px;"/>
          <line x1="215.21" y1="170.79" x2="345.21" y2="300.79" style="fill: none; stroke: #000; stroke-miterlimit: 10; stroke-width: 3px;"/>
          <line x1="219.25" y1="166.75" x2="349.25" y2="296.75" style="fill: none; stroke: #000; stroke-miterlimit: 10; stroke-width: 3px;"/>
          <line x1="223.29" y1="162.71" x2="353.29" y2="292.71" style="fill: none; stroke: #000; stroke-miterlimit: 10; stroke-width: 3px;"/>
          <line x1="227.32" y1="158.67" x2="357.33" y2="288.68" style="fill: none; stroke: #000; stroke-miterlimit: 10; stroke-width: 3px;"/>
          <line x1="231.36" y1="154.64" x2="361.36" y2="284.64" style="fill: none; stroke: #000; stroke-miterlimit: 10; stroke-width: 3px;"/>
          <line x1="235.4" y1="150.6" x2="365.4" y2="280.6" style="fill: none; stroke: #000; stroke-miterlimit: 10; stroke-width: 3px;"/>
          <line x1="239.44" y1="146.56" x2="369.44" y2="276.56" style="fill: none; stroke: #000; stroke-miterlimit: 10; stroke-width: 3px;"/>
          <line x1="243.48" y1="142.52" x2="373.48" y2="272.52" style="fill: none; stroke: #000; stroke-miterlimit: 10; stroke-width: 3px;"/>
          <line x1="247.52" y1="138.48" x2="377.52" y2="268.48" style="fill: none; stroke: #000; stroke-miterlimit: 10; stroke-width: 3px;"/>
          <line x1="251.55" y1="134.44" x2="381.56" y2="264.45" style="fill: none; stroke: #000; stroke-miterlimit: 10; stroke-width: 3px;"/>
          <line x1="255.59" y1="130.41" x2="385.59" y2="260.41" style="fill: none; stroke: #000; stroke-miterlimit: 10; stroke-width: 3px;"/>
        </g>
        <g>
          <line x1="-127.59" y1="255.59" x2="2.41" y2="385.59" style="fill: none; stroke: #000; stroke-miterlimit: 10; stroke-width: 3px;"/>
          <line x1="-123.56" y1="251.55" x2="6.45" y2="381.56" style="fill: none; stroke: #000; stroke-miterlimit: 10; stroke-width: 3px;"/>
          <line x1="-119.52" y1="247.52" x2="10.48" y2="377.52" style="fill: none; stroke: #000; stroke-miterlimit: 10; stroke-width: 3px;"/>
          <line x1="-115.48" y1="243.48" x2="14.52" y2="373.48" style="fill: none; stroke: #000; stroke-miterlimit: 10; stroke-width: 3px;"/>
          <line x1="-111.44" y1="239.44" x2="18.56" y2="369.44" style="fill: none; stroke: #000; stroke-miterlimit: 10; stroke-width: 3px;"/>
          <line x1="-107.4" y1="235.4" x2="22.6" y2="365.4" style="fill: none; stroke: #000; stroke-miterlimit: 10; stroke-width: 3px;"/>
          <line x1="-103.36" y1="231.36" x2="26.64" y2="361.36" style="fill: none; stroke: #000; stroke-miterlimit: 10; stroke-width: 3px;"/>
          <line x1="-99.33" y1="227.32" x2="30.68" y2="357.33" style="fill: none; stroke: #000; stroke-miterlimit: 10; stroke-width: 3px;"/>
          <line x1="-95.29" y1="223.29" x2="34.71" y2="353.29" style="fill: none; stroke: #000; stroke-miterlimit: 10; stroke-width: 3px;"/>
          <line x1="-91.25" y1="219.25" x2="38.75" y2="349.25" style="fill: none; stroke: #000; stroke-miterlimit: 10; stroke-width: 3px;"/>
          <line x1="-87.21" y1="215.21" x2="42.79" y2="345.21" style="fill: none; stroke: #000; stroke-miterlimit: 10; stroke-width: 3px;"/>
          <line x1="-83.17" y1="211.17" x2="46.83" y2="341.17" style="fill: none; stroke: #000; stroke-miterlimit: 10; stroke-width: 3px;"/>
          <line x1="-79.13" y1="207.13" x2="50.87" y2="337.13" style="fill: none; stroke: #000; stroke-miterlimit: 10; stroke-width: 3px;"/>
          <line x1="-75.1" y1="203.09" x2="54.91" y2="333.1" style="fill: none; stroke: #000; stroke-miterlimit: 10; stroke-width: 3px;"/>
          <line x1="-71.06" y1="199.06" x2="58.94" y2="329.06" style="fill: none; stroke: #000; stroke-miterlimit: 10; stroke-width: 3px;"/>
          <line x1="-67.02" y1="195.02" x2="62.98" y2="325.02" style="fill: none; stroke: #000; stroke-miterlimit: 10; stroke-width: 3px;"/>
          <line x1="-62.98" y1="190.98" x2="67.02" y2="320.98" style="fill: none; stroke: #000; stroke-miterlimit: 10; stroke-width: 3px;"/>
          <line x1="-58.94" y1="186.94" x2="71.06" y2="316.94" style="fill: none; stroke: #000; stroke-miterlimit: 10; stroke-width: 3px;"/>
          <line x1="-54.91" y1="182.9" x2="75.1" y2="312.91" style="fill: none; stroke: #000; stroke-miterlimit: 10; stroke-width: 3px;"/>
          <line x1="-50.87" y1="178.87" x2="79.13" y2="308.87" style="fill: none; stroke: #000; stroke-miterlimit: 10; stroke-width: 3px;"/>
          <line x1="-46.83" y1="174.83" x2="83.17" y2="304.83" style="fill: none; stroke: #000; stroke-miterlimit: 10; stroke-width: 3px;"/>
          <line x1="-42.79" y1="170.79" x2="87.21" y2="300.79" style="fill: none; stroke: #000; stroke-miterlimit: 10; stroke-width: 3px;"/>
          <line x1="-38.75" y1="166.75" x2="91.25" y2="296.75" style="fill: none; stroke: #000; stroke-miterlimit: 10; stroke-width: 3px;"/>
          <line x1="-34.71" y1="162.71" x2="95.29" y2="292.71" style="fill: none; stroke: #000; stroke-miterlimit: 10; stroke-width: 3px;"/>
          <line x1="-30.68" y1="158.67" x2="99.33" y2="288.68" style="fill: none; stroke: #000; stroke-miterlimit: 10; stroke-width: 3px;"/>
          <line x1="-26.64" y1="154.64" x2="103.36" y2="284.64" style="fill: none; stroke: #000; stroke-miterlimit: 10; stroke-width: 3px;"/>
          <line x1="-22.6" y1="150.6" x2="107.4" y2="280.6" style="fill: none; stroke: #000; stroke-miterlimit: 10; stroke-width: 3px;"/>
          <line x1="-18.56" y1="146.56" x2="111.44" y2="276.56" style="fill: none; stroke: #000; stroke-miterlimit: 10; stroke-width: 3px;"/>
          <line x1="-14.52" y1="142.52" x2="115.48" y2="272.52" style="fill: none; stroke: #000; stroke-miterlimit: 10; stroke-width: 3px;"/>
          <line x1="-10.48" y1="138.48" x2="119.52" y2="268.48" style="fill: none; stroke: #000; stroke-miterlimit: 10; stroke-width: 3px;"/>
          <line x1="-6.45" y1="134.44" x2="123.56" y2="264.45" style="fill: none; stroke: #000; stroke-miterlimit: 10; stroke-width: 3px;"/>
          <line x1="-2.41" y1="130.41" x2="127.59" y2="260.41" style="fill: none; stroke: #000; stroke-miterlimit: 10; stroke-width: 3px;"/>
        </g>
        <g>
          <line x1="1.41" y1="126.59" x2="131.41" y2="256.59" style="fill: none; stroke: #000; stroke-miterlimit: 10; stroke-width: 3px;"/>
          <line x1="5.44" y1="122.55" x2="135.45" y2="252.56" style="fill: none; stroke: #000; stroke-miterlimit: 10; stroke-width: 3px;"/>
          <line x1="9.48" y1="118.52" x2="139.48" y2="248.52" style="fill: none; stroke: #000; stroke-miterlimit: 10; stroke-width: 3px;"/>
          <line x1="13.52" y1="114.48" x2="143.52" y2="244.48" style="fill: none; stroke: #000; stroke-miterlimit: 10; stroke-width: 3px;"/>
          <line x1="17.56" y1="110.44" x2="147.56" y2="240.44" style="fill: none; stroke: #000; stroke-miterlimit: 10; stroke-width: 3px;"/>
          <line x1="21.6" y1="106.4" x2="151.6" y2="236.4" style="fill: none; stroke: #000; stroke-miterlimit: 10; stroke-width: 3px;"/>
          <line x1="25.64" y1="102.36" x2="155.64" y2="232.36" style="fill: none; stroke: #000; stroke-miterlimit: 10; stroke-width: 3px;"/>
          <line x1="29.67" y1="98.32" x2="159.68" y2="228.33" style="fill: none; stroke: #000; stroke-miterlimit: 10; stroke-width: 3px;"/>
          <line x1="33.71" y1="94.29" x2="163.71" y2="224.29" style="fill: none; stroke: #000; stroke-miterlimit: 10; stroke-width: 3px;"/>
          <line x1="37.75" y1="90.25" x2="167.75" y2="220.25" style="fill: none; stroke: #000; stroke-miterlimit: 10; stroke-width: 3px;"/>
          <line x1="41.79" y1="86.21" x2="171.79" y2="216.21" style="fill: none; stroke: #000; stroke-miterlimit: 10; stroke-width: 3px;"/>
          <line x1="45.83" y1="82.17" x2="175.83" y2="212.17" style="fill: none; stroke: #000; stroke-miterlimit: 10; stroke-width: 3px;"/>
          <line x1="49.87" y1="78.13" x2="179.87" y2="208.13" style="fill: none; stroke: #000; stroke-miterlimit: 10; stroke-width: 3px;"/>
          <line x1="53.9" y1="74.09" x2="183.91" y2="204.1" style="fill: none; stroke: #000; stroke-miterlimit: 10; stroke-width: 3px;"/>
          <line x1="57.94" y1="70.06" x2="187.94" y2="200.06" style="fill: none; stroke: #000; stroke-miterlimit: 10; stroke-width: 3px;"/>
          <line x1="61.98" y1="66.02" x2="191.98" y2="196.02" style="fill: none; stroke: #000; stroke-miterlimit: 10; stroke-width: 3px;"/>
          <line x1="66.02" y1="61.98" x2="196.02" y2="191.98" style="fill: none; stroke: #000; stroke-miterlimit: 10; stroke-width: 3px;"/>
          <line x1="70.06" y1="57.94" x2="200.06" y2="187.94" style="fill: none; stroke: #000; stroke-miterlimit: 10; stroke-width: 3px;"/>
          <line x1="74.09" y1="53.9" x2="204.1" y2="183.91" style="fill: none; stroke: #000; stroke-miterlimit: 10; stroke-width: 3px;"/>
          <line x1="78.13" y1="49.87" x2="208.13" y2="179.87" style="fill: none; stroke: #000; stroke-miterlimit: 10; stroke-width: 3px;"/>
          <line x1="82.17" y1="45.83" x2="212.17" y2="175.83" style="fill: none; stroke: #000; stroke-miterlimit: 10; stroke-width: 3px;"/>
          <line x1="86.21" y1="41.79" x2="216.21" y2="171.79" style="fill: none; stroke: #000; stroke-miterlimit: 10; stroke-width: 3px;"/>
          <line x1="90.25" y1="37.75" x2="220.25" y2="167.75" style="fill: none; stroke: #000; stroke-miterlimit: 10; stroke-width: 3px;"/>
          <line x1="94.29" y1="33.71" x2="224.29" y2="163.71" style="fill: none; stroke: #000; stroke-miterlimit: 10; stroke-width: 3px;"/>
          <line x1="98.32" y1="29.67" x2="228.33" y2="159.68" style="fill: none; stroke: #000; stroke-miterlimit: 10; stroke-width: 3px;"/>
          <line x1="102.36" y1="25.64" x2="232.36" y2="155.64" style="fill: none; stroke: #000; stroke-miterlimit: 10; stroke-width: 3px;"/>
          <line x1="106.4" y1="21.6" x2="236.4" y2="151.6" style="fill: none; stroke: #000; stroke-miterlimit: 10; stroke-width: 3px;"/>
          <line x1="110.44" y1="17.56" x2="240.44" y2="147.56" style="fill: none; stroke: #000; stroke-miterlimit: 10; stroke-width: 3px;"/>
          <line x1="114.48" y1="13.52" x2="244.48" y2="143.52" style="fill: none; stroke: #000; stroke-miterlimit: 10; stroke-width: 3px;"/>
          <line x1="118.52" y1="9.48" x2="248.52" y2="139.48" style="fill: none; stroke: #000; stroke-miterlimit: 10; stroke-width: 3px;"/>
          <line x1="122.55" y1="5.44" x2="252.56" y2="135.45" style="fill: none; stroke: #000; stroke-miterlimit: 10; stroke-width: 3px;"/>
          <line x1="126.59" y1="1.41" x2="256.59" y2="131.41" style="fill: none; stroke: #000; stroke-miterlimit: 10; stroke-width: 3px;"/>
        </g>
        <g>
          <line x1="130.41" y1="-2.41" x2="260.41" y2="127.59" style="fill: none; stroke: #000; stroke-miterlimit: 10; stroke-width: 3px;"/>
          <line x1="134.44" y1="-6.45" x2="264.45" y2="123.56" style="fill: none; stroke: #000; stroke-miterlimit: 10; stroke-width: 3px;"/>
          <line x1="138.48" y1="-10.48" x2="268.48" y2="119.52" style="fill: none; stroke: #000; stroke-miterlimit: 10; stroke-width: 3px;"/>
          <line x1="142.52" y1="-14.52" x2="272.52" y2="115.48" style="fill: none; stroke: #000; stroke-miterlimit: 10; stroke-width: 3px;"/>
          <line x1="146.56" y1="-18.56" x2="276.56" y2="111.44" style="fill: none; stroke: #000; stroke-miterlimit: 10; stroke-width: 3px;"/>
          <line x1="150.6" y1="-22.6" x2="280.6" y2="107.4" style="fill: none; stroke: #000; stroke-miterlimit: 10; stroke-width: 3px;"/>
          <line x1="154.64" y1="-26.64" x2="284.64" y2="103.36" style="fill: none; stroke: #000; stroke-miterlimit: 10; stroke-width: 3px;"/>
          <line x1="158.67" y1="-30.68" x2="288.68" y2="99.33" style="fill: none; stroke: #000; stroke-miterlimit: 10; stroke-width: 3px;"/>
          <line x1="162.71" y1="-34.71" x2="292.71" y2="95.29" style="fill: none; stroke: #000; stroke-miterlimit: 10; stroke-width: 3px;"/>
          <line x1="166.75" y1="-38.75" x2="296.75" y2="91.25" style="fill: none; stroke: #000; stroke-miterlimit: 10; stroke-width: 3px;"/>
          <line x1="170.79" y1="-42.79" x2="300.79" y2="87.21" style="fill: none; stroke: #000; stroke-miterlimit: 10; stroke-width: 3px;"/>
          <line x1="174.83" y1="-46.83" x2="304.83" y2="83.17" style="fill: none; stroke: #000; stroke-miterlimit: 10; stroke-width: 3px;"/>
          <line x1="178.87" y1="-50.87" x2="308.87" y2="79.13" style="fill: none; stroke: #000; stroke-miterlimit: 10; stroke-width: 3px;"/>
          <line x1="182.9" y1="-54.91" x2="312.91" y2="75.1" style="fill: none; stroke: #000; stroke-miterlimit: 10; stroke-width: 3px;"/>
          <line x1="186.94" y1="-58.94" x2="316.94" y2="71.06" style="fill: none; stroke: #000; stroke-miterlimit: 10; stroke-width: 3px;"/>
          <line x1="190.98" y1="-62.98" x2="320.98" y2="67.02" style="fill: none; stroke: #000; stroke-miterlimit: 10; stroke-width: 3px;"/>
          <line x1="195.02" y1="-67.02" x2="325.02" y2="62.98" style="fill: none; stroke: #000; stroke-miterlimit: 10; stroke-width: 3px;"/>
          <line x1="199.06" y1="-71.06" x2="329.06" y2="58.94" style="fill: none; stroke: #000; stroke-miterlimit: 10; stroke-width: 3px;"/>
          <line x1="203.09" y1="-75.1" x2="333.1" y2="54.91" style="fill: none; stroke: #000; stroke-miterlimit: 10; stroke-width: 3px;"/>
          <line x1="207.13" y1="-79.13" x2="337.13" y2="50.87" style="fill: none; stroke: #000; stroke-miterlimit: 10; stroke-width: 3px;"/>
          <line x1="211.17" y1="-83.17" x2="341.17" y2="46.83" style="fill: none; stroke: #000; stroke-miterlimit: 10; stroke-width: 3px;"/>
          <line x1="215.21" y1="-87.21" x2="345.21" y2="42.79" style="fill: none; stroke: #000; stroke-miterlimit: 10; stroke-width: 3px;"/>
          <line x1="219.25" y1="-91.25" x2="349.25" y2="38.75" style="fill: none; stroke: #000; stroke-miterlimit: 10; stroke-width: 3px;"/>
          <line x1="223.29" y1="-95.29" x2="353.29" y2="34.71" style="fill: none; stroke: #000; stroke-miterlimit: 10; stroke-width: 3px;"/>
          <line x1="227.32" y1="-99.33" x2="357.33" y2="30.68" style="fill: none; stroke: #000; stroke-miterlimit: 10; stroke-width: 3px;"/>
          <line x1="231.36" y1="-103.36" x2="361.36" y2="26.64" style="fill: none; stroke: #000; stroke-miterlimit: 10; stroke-width: 3px;"/>
          <line x1="235.4" y1="-107.4" x2="365.4" y2="22.6" style="fill: none; stroke: #000; stroke-miterlimit: 10; stroke-width: 3px;"/>
          <line x1="239.44" y1="-111.44" x2="369.44" y2="18.56" style="fill: none; stroke: #000; stroke-miterlimit: 10; stroke-width: 3px;"/>
          <line x1="243.48" y1="-115.48" x2="373.48" y2="14.52" style="fill: none; stroke: #000; stroke-miterlimit: 10; stroke-width: 3px;"/>
          <line x1="247.52" y1="-119.52" x2="377.52" y2="10.48" style="fill: none; stroke: #000; stroke-miterlimit: 10; stroke-width: 3px;"/>
          <line x1="251.55" y1="-123.56" x2="381.56" y2="6.45" style="fill: none; stroke: #000; stroke-miterlimit: 10; stroke-width: 3px;"/>
          <line x1="255.59" y1="-127.59" x2="385.59" y2="2.41" style="fill: none; stroke: #000; stroke-miterlimit: 10; stroke-width: 3px;"/>
        </g>
        <g>
          <line x1="-127.59" y1="-2.41" x2="2.41" y2="127.59" style="fill: none; stroke: #000; stroke-miterlimit: 10; stroke-width: 3px;"/>
          <line x1="-123.56" y1="-6.45" x2="6.45" y2="123.56" style="fill: none; stroke: #000; stroke-miterlimit: 10; stroke-width: 3px;"/>
          <line x1="-119.52" y1="-10.48" x2="10.48" y2="119.52" style="fill: none; stroke: #000; stroke-miterlimit: 10; stroke-width: 3px;"/>
          <line x1="-115.48" y1="-14.52" x2="14.52" y2="115.48" style="fill: none; stroke: #000; stroke-miterlimit: 10; stroke-width: 3px;"/>
          <line x1="-111.44" y1="-18.56" x2="18.56" y2="111.44" style="fill: none; stroke: #000; stroke-miterlimit: 10; stroke-width: 3px;"/>
          <line x1="-107.4" y1="-22.6" x2="22.6" y2="107.4" style="fill: none; stroke: #000; stroke-miterlimit: 10; stroke-width: 3px;"/>
          <line x1="-103.36" y1="-26.64" x2="26.64" y2="103.36" style="fill: none; stroke: #000; stroke-miterlimit: 10; stroke-width: 3px;"/>
          <line x1="-99.33" y1="-30.68" x2="30.68" y2="99.33" style="fill: none; stroke: #000; stroke-miterlimit: 10; stroke-width: 3px;"/>
          <line x1="-95.29" y1="-34.71" x2="34.71" y2="95.29" style="fill: none; stroke: #000; stroke-miterlimit: 10; stroke-width: 3px;"/>
          <line x1="-91.25" y1="-38.75" x2="38.75" y2="91.25" style="fill: none; stroke: #000; stroke-miterlimit: 10; stroke-width: 3px;"/>
          <line x1="-87.21" y1="-42.79" x2="42.79" y2="87.21" style="fill: none; stroke: #000; stroke-miterlimit: 10; stroke-width: 3px;"/>
          <line x1="-83.17" y1="-46.83" x2="46.83" y2="83.17" style="fill: none; stroke: #000; stroke-miterlimit: 10; stroke-width: 3px;"/>
          <line x1="-79.13" y1="-50.87" x2="50.87" y2="79.13" style="fill: none; stroke: #000; stroke-miterlimit: 10; stroke-width: 3px;"/>
          <line x1="-75.1" y1="-54.91" x2="54.91" y2="75.1" style="fill: none; stroke: #000; stroke-miterlimit: 10; stroke-width: 3px;"/>
          <line x1="-71.06" y1="-58.94" x2="58.94" y2="71.06" style="fill: none; stroke: #000; stroke-miterlimit: 10; stroke-width: 3px;"/>
          <line x1="-67.02" y1="-62.98" x2="62.98" y2="67.02" style="fill: none; stroke: #000; stroke-miterlimit: 10; stroke-width: 3px;"/>
          <line x1="-62.98" y1="-67.02" x2="67.02" y2="62.98" style="fill: none; stroke: #000; stroke-miterlimit: 10; stroke-width: 3px;"/>
          <line x1="-58.94" y1="-71.06" x2="71.06" y2="58.94" style="fill: none; stroke: #000; stroke-miterlimit: 10; stroke-width: 3px;"/>
          <line x1="-54.91" y1="-75.1" x2="75.1" y2="54.91" style="fill: none; stroke: #000; stroke-miterlimit: 10; stroke-width: 3px;"/>
          <line x1="-50.87" y1="-79.13" x2="79.13" y2="50.87" style="fill: none; stroke: #000; stroke-miterlimit: 10; stroke-width: 3px;"/>
          <line x1="-46.83" y1="-83.17" x2="83.17" y2="46.83" style="fill: none; stroke: #000; stroke-miterlimit: 10; stroke-width: 3px;"/>
          <line x1="-42.79" y1="-87.21" x2="87.21" y2="42.79" style="fill: none; stroke: #000; stroke-miterlimit: 10; stroke-width: 3px;"/>
          <line x1="-38.75" y1="-91.25" x2="91.25" y2="38.75" style="fill: none; stroke: #000; stroke-miterlimit: 10; stroke-width: 3px;"/>
          <line x1="-34.71" y1="-95.29" x2="95.29" y2="34.71" style="fill: none; stroke: #000; stroke-miterlimit: 10; stroke-width: 3px;"/>
          <line x1="-30.68" y1="-99.33" x2="99.33" y2="30.68" style="fill: none; stroke: #000; stroke-miterlimit: 10; stroke-width: 3px;"/>
          <line x1="-26.64" y1="-103.36" x2="103.36" y2="26.64" style="fill: none; stroke: #000; stroke-miterlimit: 10; stroke-width: 3px;"/>
          <line x1="-22.6" y1="-107.4" x2="107.4" y2="22.6" style="fill: none; stroke: #000; stroke-miterlimit: 10; stroke-width: 3px;"/>
          <line x1="-18.56" y1="-111.44" x2="111.44" y2="18.56" style="fill: none; stroke: #000; stroke-miterlimit: 10; stroke-width: 3px;"/>
          <line x1="-14.52" y1="-115.48" x2="115.48" y2="14.52" style="fill: none; stroke: #000; stroke-miterlimit: 10; stroke-width: 3px;"/>
          <line x1="-10.48" y1="-119.52" x2="119.52" y2="10.48" style="fill: none; stroke: #000; stroke-miterlimit: 10; stroke-width: 3px;"/>
          <line x1="-6.45" y1="-123.56" x2="123.56" y2="6.45" style="fill: none; stroke: #000; stroke-miterlimit: 10; stroke-width: 3px;"/>
          <line x1="-2.41" y1="-127.59" x2="127.59" y2="2.41" style="fill: none; stroke: #000; stroke-miterlimit: 10; stroke-width: 3px;"/>
        </g>
      </g>
    </pattern>
    <clipPath id="clippath-1">
      <rect x="-34.69" y="-12.39" width="910.99" height="881.32" style="fill: none; stroke-width: 0px;"/>
    </clipPath>
    <pattern id="Ed_line_thin-2" data-name="Ed line thin" patternTransform="translate(3043.28 1410.33) scale(1.36 1.31)" xlink:href="#Ed_line_thin"/>
    <pattern id="Ed_line_thin-3" data-name="Ed line thin" patternTransform="translate(3043.28 1410.33) scale(1.36 1.31)" xlink:href="#Ed_line_thin"/>
    <pattern id="Ed_line_thin-4" data-name="Ed line thin" patternTransform="translate(-17649.78 1406.9) rotate(-180) scale(1.36 -1.31)" xlink:href="#Ed_line_thin"/>
    <pattern id="Ed_line_thin-5" data-name="Ed line thin" patternTransform="translate(-17649.78 1406.9) rotate(-180) scale(1.36 -1.31)" xlink:href="#Ed_line_thin"/>
    <pattern id="Ed_line_thin-6" data-name="Ed line thin" patternTransform="translate(-17641.07 1410.05) rotate(-180) scale(1.36 -1.31)" xlink:href="#Ed_line_thin"/>
    <pattern id="Ed_line_thin-7" data-name="Ed line thin" patternTransform="translate(-17649.78 1406.9) rotate(-180) scale(1.36 -1.31)" xlink:href="#Ed_line_thin"/>
    <pattern id="Ed_line_thin-8" data-name="Ed line thin" patternTransform="translate(-17649.78 1406.9) rotate(-180) scale(1.36 -1.31)" xlink:href="#Ed_line_thin"/>
    <pattern id="Ed_line_thin-9" data-name="Ed line thin" patternTransform="translate(3043.28 1410.33) scale(1.36 1.31)" xlink:href="#Ed_line_thin"/>
    <pattern id="Ed_line_thin-10" data-name="Ed line thin" patternTransform="translate(-17649.78 1406.9) rotate(-180) scale(1.36 -1.31)" xlink:href="#Ed_line_thin"/>
  </defs>
  <g style="isolation: isolate;">
    <g id="Layer_5" data-name="Layer 5">
      <g style="clip-path: url(#clippath);">
        <g>
          <path d="M753.98-425.44c30.69,84.34,42.69,174.42,46.58,263.81,1.12,29.44.81,60.05-.39,89.47-5.56,110.8-21.26,237.24-73.68,337.12-5.21,9.38-10.59,18.98-17.41,27.39-18.53,21.63-51.08,24.14-72.71,5.61-23.49-19.63-22.03-54.6-6.18-71.88,3.38-4.37,5.94-9.39,8.34-14.42,43.54-99.37,35.72-257.05,26.74-365.07-3.96-44.86-9.43-89.49-16.35-134.09-4.01-24.84-8.86-55.73-12.24-80.57-3.8-26.95-7.21-54.78-11.13-81.7" style="fill: #f4bc95; stroke-width: 0px;"/>
          <path d="M-1.39-435.01c-30.69,84.34-42.69,174.42-46.58,263.81-1.12,29.44-.81,60.05.39,89.47C-42.03,29.07-26.33,155.51,26.09,255.38c5.21,9.38,10.59,18.98,17.41,27.39,18.53,21.63,51.08,24.14,72.71,5.61,23.49-19.63,22.03-54.6,6.18-71.88-3.38-4.37-5.94-9.39-8.34-14.42-43.54-99.37-35.72-257.05-26.74-365.07,3.96-44.86,9.43-89.49,16.35-134.09,4.01-24.84,8.86-55.73,12.24-80.57,3.8-26.95,7.21-54.78,11.13-81.7" style="fill: #f4bc95; stroke-width: 0px;"/>
          <path d="M654.16-386.38c5.48-93.27,14.84-232.97,16.82-262.3-2.81,40.37-20.15,291.11-25.92,393.57.35-.71-.3,22.75-.63,30.62-3,72.95,4.95,473.89,4.95,473.89,0,0-159.42,13.32-253.86,17.57-94.45,4.24-279.28-24.21-279.28-24.21,0,0-6.37-348.46-5.31-408.98,1.06-60.52-68.33-454.24-68.33-454.24,0,0,49.52-32.93,76.83-47.96,30.79-16.96,163.91-58.33,163.91-58.33,0,0,28.25,38.15,95.58,39.22,8.69.14,16.58-.38,23.7-1.4,45.53-6.44,60.52-32.82,61.98-35.6.08-.17.12-.24.12-.24,74.53,21.99,207.57,70.57,207.57,70.57,0,0-10.03,144.08-18.12,267.82Z" style="fill: #58bef7; stroke-width: 0px;"/>
          <path d="M672.28-654.2s-133.04-48.57-207.57-70.56c0,0-.04.07-.11.24-1.47,2.78-16.46,29.16-61.99,35.6-7.12,1.03-15.01,1.54-23.7,1.41-67.32-1.07-95.57-39.23-95.57-39.23,0,0-49.87,15.5-95.63,31.42-29,10.09-56.34,20.35-68.29,26.92-27.3,15.02-76.83,47.95-76.83,47.95,0,0,9.12,51.72,20.69,120.56,20.36,121.08,48.32,295.1,47.64,333.68-1.06,60.52,5.31,408.97,5.31,408.97,0,0,184.84,28.45,279.29,24.22,94.44-4.26,253.86-17.57,253.86-17.57,0,0-7.95-400.96-4.95-473.9.32-7.88.97-31.34.63-30.62,5.54-98.4,21.76-333.54,25.52-387.79-2.59,38.68-11.25,168.36-16.43,256.51,8.09-123.74,18.12-267.82,18.12-267.82ZM670.76-645.49c-.04.78-.1,1.61-.17,2.49.06-.89.11-1.72.17-2.49Z" style="fill: #58bef7; stroke-width: 0px;"/>
          <g>
            <path d="M671.36-654.19s-.01.15-.03.42c-.02.21-.03.5-.06.87,0,.09-.01.2-.01.3-.02.09-.02.18-.03.27.02.02,0,.03,0,.06-.02.23-.03.47-.05.74-.02.33-.05.68-.08,1.06-.02.26-.05.53-.06.8-.02.32-.03.65-.06,1-2.81,40.37-20.15,291.11-25.92,393.57-.71,12.72-1.25,23.16-1.55,30.62-.47,11.19-.66,30.14-.68,54.15-2.58,5.29-5.17,10.6-7.75,15.9-31.14,63.75-62.95,128.52-111.07,180.64-.39.44-.78.87-1.18,1.3,33.87-72.26,43.41-153.14,52.54-232.41,4.9-42.66,9.81-85.34,13.52-128.12,4.37-50.22,6.89-102.12-9.59-149.76-29.93-86.44-113.62-138.78-176.69-206.14l-.12-.12c47.43-7,61.31-35.72,61.31-35.72.26.08.53.15.8.24,74.67,22.1,206.77,70.33,206.77,70.33Z" style="fill: #58bef7; stroke-width: 0px;"/>
            <path d="M671.37-654.2s-.03.15-.04.42c-.01.21-.03.52-.06.87,0,.1-.01.2-.01.31-.01.08-.01.18-.03.27.01.01,0,.03,0,.06-.01.23-.03.47-.04.75-.01.32-.06.68-.08,1.06-.01.25-.03.51-.06.79-.01.32-.03.65-.06,1-2.8,40.37-20.15,291.11-25.91,393.57-.97,1.97-1.93,3.96-2.9,5.93-31.13,63.77-69.94,221.75-118.16,275.38-.39.44-.79.87-1.17,1.3,33.86-72.26,43.4-153.15,52.53-232.42,4.9-42.66,9.81-85.34,13.51-128.11,4.38-50.22,6.89-102.12-9.6-149.77-21.32-61.62-69.98-105.91-119.02-150.68-7.5-6.83-15.02-13.7-22.45-20.64,12.39-8.79,25.08-17.6,38.08-26.42,13.75-9.33,27.35-18.32,40.8-27.01,1.04.14,2.16.32,3.31.56,3.1,1.01,6.21,2.04,9.34,3.09,68.39,22.83,142.02,49.7,142.02,49.7Z" style="fill: url(#Ed_line_thin); mix-blend-mode: soft-light; opacity: .4; stroke-width: 0px;"/>
          </g>
          <g style="mix-blend-mode: soft-light;">
            <path d="M612.8-302.99c5.49-97.66,33.34-248.99,37.09-303.03-2.47,36.97-9.26,139.02-14.38,226.14,8.09-123.74,16.85-249.46,16.85-249.46,0,0-64.26-43.2-128.37-76.63,70.08,23.22,148.28,51.77,148.28,51.77,0,0-10.03,144.08-18.12,267.82,5.17-88.17,13.83-217.83,16.43-256.52-3.77,54.25-19.99,289.39-25.52,387.79.35-.71-.3,22.75-.63,30.62-3,72.95,4.95,473.89,4.95,473.89,0,0-3.86.32-10.76.89" style="fill: #000; opacity: .54; stroke-width: 0px;"/>
          </g>
        </g>
      </g>
    </g>
    <g id="Layer_4" data-name="Layer 4">
      <g style="clip-path: url(#clippath-1);">
        <g>
          <g>
            <path d="M224.31,96.75c-37.09,47.72-63.59,124.77-71.59,221.22-.05.34-.09.68-.14,1.01-9.5,85.2-4.13,173.14,10.34,257.52,7.62,44.38,17.58,88.35,31.99,131.09,5.65,16.85,12.28,33.17,19.55,49.18-13.18,65.27-22.53,99.47,5.96,126.59,51.01,48.56,122.39-21.54,326.8,1.75,87.05,9.91,138.28,29.95,161.65,1.73,21.3-25.72-1.68-66.01-27.82-158.18-2.93-10.34-37.16-132.92-45.19-255.52-8.54-130.39,19.54-154.36-5.56-255.61-13.8-55.68-47.02-116.84-94.29-154.51M216.01,749.11c-5.14-14.33-9.71-28.9-13.54-43.78-3.54-13.8,2.65-23.25,10.38-32.93,3.77,9.35,7.72,18.77,11.87,28.24-2.79,17.81-5.8,33.89-8.7,48.47Z" style="fill: #50393a; stroke-width: 0px;"/>
            <g>
              <path d="M810.83,875.23l-.03.03c-.73.46-11.18,7.07-29.39,14.39h-.03c-29.39,11.84-78.99,25.49-140.36,18.08,0,0-42.07-119.13-46.51-201.03-2.94-53.95,16.23-94.87,54.08-104.56.7-.18,1.44-.37,2.14-.52.73-.15,1.47-.31,2.2-.46.73-.12,1.47-.25,2.24-.37,1.12-.18,2.24-.34,3.42-.46,1.09-.12,2.17-.22,3.29-.28.35,0,.7-.03,1.05-.03,1.25-.09,2.49-.12,3.77-.12,10.03,0,20.99,1.78,32.9,5.63,1.21.4,2.4.8,3.61,1.2,6.04,2.12,12.3,4.77,18.78,7.93,16.58,8.09,40.09,43.93,51.36,114.73,11.28,70.83,37.47,145.84,37.47,145.84Z" style="fill: #9595ef; stroke-width: 0px;"/>
              <g style="mix-blend-mode: soft-light; opacity: .62;">
                <path d="M773.36,730.06c11.27,71.09,37.46,146.36,37.46,146.36,0,0-30.29-63.28-41.57-134.37-11.27-71.05-35.28-111.01-82.21-130.81-6.66-2.81,9.34,4.02,3.62,1.21-15.85-7.79-2.41-.81-3.62-1.21-11.92-3.86-22.88-5.65-32.91-5.65-1.28,0-2.51.03-3.77.12-.35,0-.71.04-1.05.04-1.13.05-2.22.14-3.29.28-1.18.12-2.31.28-3.43.46-.76.12-1.5.25-2.23.37-.73.16-1.48.32-2.22.46-.69.16-1.43.34-2.13.53-1.05.26-2.08.56-3.09.88,4.8-2.78,10.02-4.92,15.64-6.37.71-.18,1.44-.37,2.15-.53.73-.16,1.47-.32,2.2-.46.73-.13,1.47-.25,2.23-.38,1.11-.18,2.24-.34,3.43-.46,1.09-.12,2.16-.21,3.29-.28.35,0,.69-.03,1.05-.03,1.25-.09,2.5-.13,3.78-.13,10.03,0,20.99,1.8,32.89,5.65,1.22.41,2.39.8,3.62,1.21,6.03,2.13,12.3,4.78,18.78,7.96,16.57,8.11,40.08,44.1,51.36,115.15Z" style="fill: #000; stroke-width: 0px;"/>
                <path d="M773.36,730.06c11.27,71.09,37.46,146.36,37.46,146.36,0,0-30.29-63.28-41.57-134.37-11.27-71.05-35.28-111.01-82.21-130.81-6.66-2.81,9.34,4.02,3.62,1.21-15.85-7.79-2.41-.81-3.62-1.21-11.92-3.86-22.88-5.65-32.91-5.65-1.28,0-2.51.03-3.77.12-.35,0-.71.04-1.05.04-1.13.05-2.22.14-3.29.28-1.18.12-2.31.28-3.43.46-.76.12-1.5.25-2.23.37-.73.16-1.48.32-2.22.46-.69.16-1.43.34-2.13.53-1.05.26-2.08.56-3.09.88,4.8-2.78,10.02-4.92,15.64-6.37.71-.18,1.44-.37,2.15-.53.73-.16,1.47-.32,2.2-.46.73-.13,1.47-.25,2.23-.38,1.11-.18,2.24-.34,3.43-.46,1.09-.12,2.16-.21,3.29-.28.35,0,.69-.03,1.05-.03,1.25-.09,2.5-.13,3.78-.13,10.03,0,20.99,1.8,32.89,5.65,1.22.41,2.39.8,3.62,1.21,6.03,2.13,12.3,4.78,18.78,7.96,16.57,8.11,40.08,44.1,51.36,115.15Z" style="fill: #000; stroke-width: 0px;"/>
              </g>
              <g style="opacity: .36;">
                <path d="M810.82,875.23l-.03.04c-.73.46-11.19,7.06-29.39,14.39h-.03c-23.89,9.61-61.14,20.44-107.21,20.16,10.93-5.15,21.99-10.19,32.28-16.17,46.16-26.85,68.79-67.86,77.03-113.68,12.21,51.91,27.35,95.26,27.35,95.26Z" style="fill: url(#Ed_line_thin-2); mix-blend-mode: soft-light; opacity: .4; stroke-width: 0px;"/>
                <path d="M810.82,875.23l-.03.04c-.73.46-11.19,7.06-29.39,14.39h-.03c-23.89,9.61-61.14,20.44-107.21,20.16,10.93-5.15,21.99-10.19,32.28-16.17,46.16-26.85,68.79-67.86,77.03-113.68,12.21,51.91,27.35,95.26,27.35,95.26Z" style="fill: url(#Ed_line_thin-3); mix-blend-mode: soft-light; opacity: .4; stroke-width: 0px;"/>
              </g>
            </g>
            <g>
              <path d="M12.32,871.81l.03.03c.73.46,11.18,7.07,29.39,14.39h.03c29.39,11.84,78.99,25.49,140.36,18.08,0,0,42.07-119.13,46.51-201.03,2.94-53.95-16.23-94.87-54.08-104.56-.7-.18-1.44-.37-2.14-.52-.73-.15-1.47-.31-2.2-.46-.73-.12-1.47-.25-2.24-.37-1.12-.18-2.24-.34-3.42-.46-1.09-.12-2.17-.22-3.29-.28-.35,0-.7-.03-1.05-.03-1.25-.09-2.49-.12-3.77-.12-10.03,0-20.99,1.78-32.9,5.63-1.21.4-2.4.8-3.61,1.2-6.04,2.12-12.3,4.77-18.78,7.93-16.58,8.09-40.09,43.93-51.36,114.73-11.28,70.83-37.47,145.84-37.47,145.84Z" style="fill: #9595ef; stroke-width: 0px;"/>
              <g style="mix-blend-mode: soft-light; opacity: .62;">
                <path d="M190.19,605.3c-.99-.31-2.03-.62-3.08-.87-.71-.19-1.44-.38-2.14-.52-.73-.15-1.48-.31-2.22-.47-.73-.11-1.47-.24-2.22-.36-1.12-.19-2.24-.34-3.43-.46-1.08-.13-2.16-.23-3.29-.28-.34,0-.7-.03-1.05-.03-1.25-.09-2.49-.12-3.76-.12-1.04,0-2.07.01-3.12.07-.83.01-1.67.07-2.51.12-.32.01-.65.04-.97.07-8.19.6-16.95,2.37-26.31,5.39-.01,0-.03.01-.04.01h-.03c.26-.27,3.98-2.24,4.23-2.51-.13,0-2.04.89-7.78,3.71-3.32,1.63.67.01,3.29-1.08-46.71,19.85-70.64,59.78-81.89,130.67-11.28,71.08-41.56,134.36-41.56,134.36,0,0,26.19-75.28,37.46-146.36,11.28-71.04,34.79-107.03,51.36-115.15,6.48-3.17,12.74-5.82,18.78-7.96,1.22-.4,2.39-.79,3.62-1.21,11.91-3.84,22.87-5.63,32.89-5.63,1.28,0,2.53.03,3.78.12.35,0,.69.03,1.05.03.65.04,1.26.08,1.88.15.4.03.82.07,1.22.12.05,0,.12.01.17.01.44.04.87.09,1.3.15.73.09,1.42.19,2.12.31.77.13,1.49.26,2.23.38.74.15,1.47.31,2.2.46.7.16,1.44.35,2.15.54,5.62,1.44,10.85,3.58,15.63,6.36Z" style="fill: #000; stroke-width: 0px;"/>
                <path d="M190.19,605.3c-.99-.31-2.03-.62-3.08-.87-.71-.19-1.44-.38-2.14-.52-.73-.15-1.48-.31-2.22-.47-.73-.11-1.47-.24-2.22-.36-1.12-.19-2.24-.34-3.43-.46-1.08-.13-2.16-.23-3.29-.28-.34,0-.7-.03-1.05-.03-1.25-.09-2.49-.12-3.76-.12-1.04,0-2.07.01-3.12.07-.83.01-1.67.07-2.51.12-.32.01-.65.04-.97.07-8.19.6-16.95,2.37-26.31,5.39-.01,0-.03.01-.04.01h-.03c.26-.27,3.98-2.24,4.23-2.51-.13,0-2.04.89-7.78,3.71-3.32,1.63.67.01,3.29-1.08-46.71,19.85-70.64,59.78-81.89,130.67-11.28,71.08-41.56,134.36-41.56,134.36,0,0,26.19-75.28,37.46-146.36,11.28-71.04,34.79-107.03,51.36-115.15,6.48-3.17,12.74-5.82,18.78-7.96,1.22-.4,2.39-.79,3.62-1.21,11.91-3.84,22.87-5.63,32.89-5.63,1.28,0,2.53.03,3.78.12.35,0,.69.03,1.05.03.65.04,1.26.08,1.88.15.4.03.82.07,1.22.12.05,0,.12.01.17.01.44.04.87.09,1.3.15.73.09,1.42.19,2.12.31.77.13,1.49.26,2.23.38.74.15,1.47.31,2.2.46.7.16,1.44.35,2.15.54,5.62,1.44,10.85,3.58,15.63,6.36Z" style="fill: #000; stroke-width: 0px;"/>
              </g>
              <g style="opacity: .36;">
                <path d="M12.32,871.8l.03.04c.73.46,11.19,7.06,29.39,14.39h.03c23.89,9.61,61.14,20.44,107.21,20.16-10.93-5.15-21.99-10.19-32.28-16.17-46.16-26.85-68.79-67.86-77.03-113.68-12.21,51.91-27.35,95.26-27.35,95.26Z" style="fill: url(#Ed_line_thin-4); mix-blend-mode: soft-light; opacity: .4; stroke-width: 0px;"/>
                <path d="M12.32,871.8l.03.04c.73.46,11.19,7.06,29.39,14.39h.03c23.89,9.61,61.14,20.44,107.21,20.16-10.93-5.15-21.99-10.19-32.28-16.17-46.16-26.85-68.79-67.86-77.03-113.68-12.21,51.91-27.35,95.26-27.35,95.26Z" style="fill: url(#Ed_line_thin-5); mix-blend-mode: soft-light; opacity: .4; stroke-width: 0px;"/>
              </g>
            </g>
            <g>
              <path d="M641.02,903.13c-59.68,1.12-169.04,2.23-228.72,3.35-63.33-.31-161.3-1.8-226.06-2.16-1.38,0-2.76-.01-4.11-.01,8.07-43.18,7.08-81.1-3.36-133.35-12.89-64.46-16.09-121.95-15.39-168.58.03-1.68.05-3.33.09-4.99l.9-.28,1.48-.48,77.67-24.9c48.46-15.54,99.06-23.46,149.95-23.46h18.83c62.88-1.56,125.49,8.98,184.39,31.03,20.5,7.68,41.01,15.35,61.51,23.03,2.03,43.39.07,103.55-17.45,172.35-13.4,52.63-14.69,86.33.27,128.47Z" style="fill: #7671d8; stroke-width: 0px;"/>
              <path d="M302.38,691.98c38.67,37.31,101.22,40.84,150.94,20.46,51.43-21.08,92.73-65.54,109.98-118.38-27.5,16.75-59.67,25.73-91.86,25.64-26.76-.07-53.13-6.24-79.82-8.14-21.52-1.53-43.1-.47-64.65-1.2-10.85-.37-21.72-.98-32.45-2.76-5.4-.9-42.78-18.71-47.18-16.67-23.26,10.77,44.27,90.66,55.03,101.04Z" style="fill: url(#Ed_line_thin-6); mix-blend-mode: soft-light; opacity: .4; stroke-width: 0px;"/>
            </g>
            <path d="M562.18,590.94c-20.43,11.92-45.26,21.51-73.06,28-25.91,6.04-54.42,9.38-84.35,9.38-62.05,0-117.98-14.37-157.43-37.38,22.26-13,49.81-23.24,80.75-29.69.14-.03.27-.07.43-.09,23.71-4.91,49.42-7.6,76.25-7.6s52.74,2.71,76.52,7.67c.14.03.29.05.43.09.63.14,1.27.27,1.88.41,15.31,3.27,29.74,7.5,43.11,12.53,12.89,4.85,24.78,10.44,35.46,16.68Z" style="fill: #f4bc95; stroke-width: 0px;"/>
            <g>
              <path d="M483.21,607.14c-11.4,1.91-26.64,4.14-44.71,5.89-12.94,1.25-24.12,2.33-38.23,2.55,0,0-18.03.28-73.95-5.54h0s.27-7.65.72-19.91c.27-7.41.62-16.52.98-26.66,1.06-29.13,2.4-66.68,3.39-96.64.24-6.54.43-12.71.62-18.36.62-18.9.96-31.92.82-32.84l142.05-6.9,2.41,57.46.24,5.77,5.67,135.18Z" style="fill: #f4bc95; stroke-width: 0px;"/>
              <path d="M478.09,484.87c-13.39,16.3-26.76,42.42-43.73,51.97-13.92,7.83-50.7-17.29-65.51-21.83-8.68-2.65-18.99-6.22-25.65,1.2-2.67,2.96-4.16,7.21-5.48,11.32-3.8,11.73-7.04,23.73-9.71,35.92,1.06-29.13,2.4-66.68,3.39-96.64,5.21-1.93,14.67,7.81,20.55,10.89,11.88,6.23,24.35,10.74,37.04,13.53,25.72,5.67,61.98-4.54,88.7-16.8l.41,10.44Z" style="fill: #000; mix-blend-mode: soft-light; opacity: .45; stroke-width: 0px;"/>
              <g>
                <path d="M544.23,270.33c13.93-9.17,39.24-11.24,47.71-.76,8.7,10.76,2.26,47.91-4.75,60.85-15.86,29.28-26.5,41.37-56.12,37.51l13.16-97.59Z" style="fill: #e5a173; stroke-width: 0px;"/>
                <path d="M252.23,270.33c-13.93-9.17-39.24-11.24-47.71-.76-8.7,10.76-2.26,47.91,4.75,60.85,15.86,29.28,26.5,41.37,56.12,37.51l-13.16-97.59Z" style="fill: #e5a173; stroke-width: 0px;"/>
              </g>
              <path d="M572.6,202.25c-.29,12.41-4,61.72-3.75,61.74,0,0,.01-.02.02-.07.03-.14-.97,55.88-12.04,94.9-15.41,54.32-66.45,133.58-141.23,139.49-102.55,8.1-168.42-128.16-171-155.88-.23-2.46-2.15-27.76-6.82-62.1-.11-.78-.17-1.21-.17-1.21-.3-2.44-.64-4.83-.94-7.27-8.79-68.67-7.41-96.63.86-134.2,1.24-5.58,21.94-97.9,98.6-109.69,32.99-5.07,58.96-6.21,71.38-4.05,91.41,15.88,166.7,109.75,165.08,178.34Z" style="fill: #f4bc95; stroke-width: 0px;"/>
              <path d="M583.04,276.26c-.03-.29-.07-.57-.1-.86-.28-3.3-.07-6.66.48-9.95.22-5.49.46-10.99.7-16.48,4.86-26.51,7.55-60.67,8.12-73.2.22-2.74.38-5.46.38-8.22,0-73.05-92.57-157.63-190.32-157.63s-199.27,73.18-199.27,146.24c0,2.77,5.8,42.93,6.03,45.63.57,12.53,4.6,46.99,9.39,66.22t.02.07c1.22,6.32,2.43,12.62,3.65,18.94.24,1.32.5,2.64.75,3.96,1.49,7.79,3,15.58,5.09,23.25,3.87,14.26,9.76,27.96,16.92,41.08,4.49,8.22,9.49,16.23,14.81,24.01-4.45-15.6-8.73-31.64-7.24-47.74.56-6.06,1.93-12,3.63-17.89,3.15-11.03,7.36-21.9,9.33-33.18,29.28-18.78,63.64-80.6,69.24-152.77,2.62,17.43,10.33,34.49,19.3,49.88,12.09,21.35,29.14,41.18,49.66,56.86,21.42,16.23,43.44,23.59,74.04,32.91,17.79,5.41,43.01,18.15,66.28,17.21,0,.02.02.02.02.03,5.24,10.74,10.67,21.4,13.48,32.86,4.01,16.28,2.52,33.2.39,49.83-.17,1.3-.34,2.59-.51,3.87,11.9-24.23,21.13-49.84,24.26-76.37.53-4.4.87-8.8,1.13-13.22.21-.02.42-.05.63-.07-.12-1.76-.22-3.51-.25-5.26Z" style="fill: #50393a; stroke-width: 0px;"/>
            </g>
            <path d="M562.18,590.94c-20.43,11.92-45.26,21.51-73.06,28,3.91-2.29,12.6-8.13,17.24-19.19,1.17-2.8,3.25-7.75,2.68-13.39-1.09-10.72-11.4-20.12-25.43-24.62,15.31,3.27,29.74,7.5,43.11,12.53,12.89,4.85,24.78,10.44,35.46,16.68Z" style="fill: #000; mix-blend-mode: soft-light; opacity: .45; stroke-width: 0px;"/>
            <path d="M247.35,591.55c20.43,11.92,45.26,21.51,73.06,28-3.91-2.29-12.6-8.13-17.24-19.19-1.17-2.8-3.25-7.75-2.68-13.39,1.09-10.72,11.4-20.12,25.43-24.62-15.31,3.27-29.74,7.5-43.11,12.53-12.89,4.85-24.78,10.44-35.46,16.68Z" style="fill: #000; mix-blend-mode: soft-light; opacity: .45; stroke-width: 0px;"/>
            <g>
              <path d="M278.7,897.69c-1.01,2.69-2.67,5.1-4.38,7.43-33.46-.36-65.82-.7-92.19-.82,8.06-43.18,7.09-81.09-3.36-133.35-8.03-40.19-12.31-77.67-14.21-111.52,7.14,31.49,10.92,63.61,21.97,94.5,14.31,40.07,36.64,78.25,69.69,105.08,6.22,5.05,12.86,9.76,17.69,16.16,4.81,6.39,7.57,15,4.79,22.52Z" style="fill: url(#Ed_line_thin-7); mix-blend-mode: soft-light; opacity: .4; stroke-width: 0px;"/>
              <path d="M452.66,878.74c-.72,2.69-4.08,3.49-6.83,3.78-20.36,2.23-40.79,3.68-61.25,4.35-7.81.26-40.65,1.37-37.33-11.51,2.81-10.92,34.52-13.25,42.96-14.16,11.4-1.25,23.01-2.48,34.31-.39,11.3,2.07,22.43,7.96,28.13,17.93Z" style="fill: url(#Ed_line_thin-8); mix-blend-mode: soft-light; opacity: .4; stroke-width: 0px;"/>
            </g>
            <path d="M658.55,648.02c3.89,44.41-.3,89.31-10.58,132.56-10.63,42.16-13.74,86.16-6.96,129.25-9.21-20.46-12.74-43.14-13.8-65.47-2.13-44.91,14.05-87.38,21.42-131.14,4.24-21.63,6.41-43.36,9.91-65.19h0Z" style="fill: #5454b5; stroke-width: 0px;"/>
            <path d="M186.24,904.31c-1.92,6.95-4.22,13.9-6.92,20.85-3.09,7.25-6.71,14.25-11,20.76,2.93-7.23,5.4-14.56,7.38-21.98,27.61-107.45-26.88-213.88-13.29-321.5.22-1.81.47-3.64.74-5.46.4.03.82.07,1.22.12l1.48-.48v.65c0,1.65.01,3.32.04,4.99,1.37,101.3,48.2,202.05,20.35,302.06Z" style="fill: #5454b5; stroke-width: 0px;"/>
            <rect x="573.19" y="268.01" width="6.76" height="5.23" style="fill: #50393a; stroke-width: 0px;"/>
          </g>
          <path d="M730.03,745.75c-9.46,13.03-22.44,26.96-18.89,42.67,4.04,1.19,8.02-1.79,11.19-4.58,12.38-10.88,24.75-21.76,37.13-32.64,3.67-3.23,7.45-6.59,9.48-11.04,6.66-14.57-6.9-34.87-14.46-46.55-11.71,12.28-13.47,36.93-24.46,52.13Z" style="fill: url(#Ed_line_thin-9); mix-blend-mode: soft-light; opacity: .4; stroke-width: 0px;"/>
          <path d="M86.44,630.83c-5.73,3.59-8.03,10.72-9.33,17.35-6,30.76,1.13,63.86,19.26,89.43-17.44,5.51-38.32-4.74-44.63-21.91" style="fill: url(#Ed_line_thin-10); mix-blend-mode: soft-light; opacity: .4; stroke-width: 0px;"/>
        </g>
      </g>
    </g>
  </g>
</svg>