<?xml version="1.0" encoding="UTF-8"?>
<svg id="Layer_1" data-name="Layer 1" xmlns="http://www.w3.org/2000/svg" viewBox="0 0 712.59 987.49">
  <g style="isolation: isolate;">
    <g id="Layer_2" data-name="Layer 2">
      <g>
        <path d="M488.28,504.06c-53.31-3.04-259.35-9.51-300.36-10.79-4.6-.14-7.12-.22-7.12-.22-104.64,0-110.03-68.19-103.33-110.44,2.46-15.53,8.06-30.36,16-43.93,22.95-39.21,41.58-115.84,41.58-115.84C191.81-42.29,392.46,4.72,392.46,4.72c1.69.23,3.36.48,5.02.75,163.92,26.2,156.03,213.14,156.03,213.14-1.7,109.27,12.7,166.87,12.7,166.87,22.87,57.6-18.63,121.97-77.93,118.58h0Z" style="fill: #d86231;"/>
        <path d="M492.77,505.69c-1.52,0-3.04-.04-4.58-.13h0c-50.8-2.9-242.71-8.99-300.32-10.79l-7.12-.22c-40.86,0-70.5-10.43-88.07-31-20.61-24.13-20.45-57.46-16.69-81.17,2.42-15.28,7.87-30.23,16.19-44.45,22.58-38.57,41.23-114.67,41.42-115.44,19.53-91.23,58.11-155.68,114.66-191.52C284.9,7.74,322.22,1.44,347.09.25c26.08-1.26,44.33,2.7,45.64,3,1.68.23,3.34.48,4.99.75,37.69,6.02,69.43,21.08,94.33,44.75,19.91,18.92,35.49,43.35,46.33,72.6,18.41,49.72,16.66,96.86,16.64,97.33-1.34,86.06,7.66,146.37,12.63,166.35,11.53,29.14,7.55,61.6-10.67,86.85-15.63,21.66-38.83,33.82-64.2,33.82ZM357.63,3.09c-27.69,0-68.32,5.39-107.81,30.44-55.82,35.4-93.94,99.2-113.3,189.63-.2.81-18.95,77.33-41.75,116.28-8.13,13.9-13.45,28.5-15.81,43.41-3.66,23.09-3.85,55.49,16.01,78.76,16.97,19.87,45.85,29.95,85.84,29.95l7.17.22c57.62,1.8,249.57,7.89,300.4,10.79h0c26.08,1.48,50.22-10.34,66.18-32.45,17.63-24.44,21.47-55.87,10.27-84.08l-.06-.19c-5-19.99-14.09-80.67-12.75-167.26.02-.5,1.74-47.13-16.48-96.29-10.68-28.8-26.01-52.83-45.58-71.42-24.45-23.22-55.63-38-92.7-43.92-1.65-.27-3.31-.52-4.99-.75l-.14-.03c-.31-.07-13.78-3.09-34.49-3.09Z" style="fill: #223656;"/>
      </g>
      <g style="isolation: isolate; mix-blend-mode: overlay; opacity: .19;">
        <path d="M192.25,490.91s-1.57.88-4.33,2.36c-4.6-.14-7.12-.22-7.12-.22-104.64,0-110.03-68.19-103.33-110.44,2.46-15.53,8.06-30.36,16-43.93,22.95-39.21,41.58-115.84,41.58-115.84C191.81-42.29,392.46,4.72,392.46,4.72c1.69.23,3.36.48,5.02.75,0,0-105.36,1.66-184.95,86.47-16.18,17.24-28.25,37.9-35.82,60.29-15.15,44.78-44.72,134.62-57.87,191.31-27.24,96.83,6.69,137.24,73.42,147.37h0Z" style="fill: #fff;"/>
      </g>
      <g>
        <path d="M520.66,832.21c6.81,51.46,21.74,135.69-37.78,153.78H170.55c-22.28,0-68-3.67-43.5-67.72-37.68,6.83-54.52,1.15-77.1-13.97-81.93-54.89-39.52-203.03-19.62-285.97,23.16-81.11,88.75-123.43,150.43-144.86,20.86-6.75,40.41-11.5,57.83-14.84,46.82-8.99,78.22-7.79,78.22-7.79,26.48-2,53.66,1.15,78.73,6.54,0,.01.01.01.01.01,3.71.8,7.37,1.64,10.97,2.53,5.05,1.24,9.98,2.56,14.79,3.93,12.22,3.49,23.59,7.31,33.69,11.04,15.31,5.66,35.64,15.62,48.97,24.94l10.5,9.2,28.59,110.18c3.07,31.05,2.25,78.44-17.57,159.09-2.23,6.39-4.28,12.28-6.15,17.74-2.22,6.5-.87,19.64,1.32,36.17h0Z" style="fill: #ff92ba;"/>
        <path d="M482.88,987.49H170.55c-14.95,0-36.01-1.72-46.26-16.62-7.81-11.34-7.66-28.38.44-50.67-36.36,6.18-53.54.13-75.61-14.65-18.29-12.25-31.62-30.01-39.63-52.79-6.88-19.55-10.04-43.48-9.4-71.12,1.17-50.67,14.36-104.57,24.96-147.88,1.34-5.47,2.63-10.74,3.83-15.77,24.45-85.64,95.82-126.62,151.4-145.93,18.97-6.14,38.49-11.15,58.04-14.9,45.24-8.69,76.58-7.88,78.47-7.82,23.85-1.79,50.45.42,79.08,6.58.05.01.1.02.15.04,3.8.82,7.46,1.67,10.88,2.51,4.79,1.18,9.78,2.5,14.84,3.94,11.15,3.19,22.52,6.91,33.8,11.08,14.14,5.23,34.87,15.02,49.31,25.12.04.03.09.07.13.1l10.5,9.2c.23.2.39.46.46.75l28.59,110.18c.02.08.03.15.04.23,1.53,15.51,6.2,62.72-17.61,159.6-.01.05-.03.09-.04.14-2.23,6.39-4.28,12.27-6.15,17.73-2.21,6.46-.6,20.47,1.39,35.49h0c.36,2.72.74,5.54,1.14,8.43,7.02,51.56,17.62,129.47-39.97,146.98-.14.04-.29.06-.44.06ZM127.05,916.77c.44,0,.87.2,1.15.54.35.42.44.99.25,1.49-8.62,22.53-9.18,39.47-1.69,50.37,9.45,13.73,29.51,15.32,43.79,15.32h312.11c24.15-7.43,37.88-26.52,41.98-58.38,3.54-27.53-.82-59.54-4.32-85.26-.39-2.9-.78-5.72-1.14-8.44h0c-2.45-18.49-3.44-30.45-1.25-36.85,1.87-5.45,3.91-11.32,6.13-17.68,23.6-96.08,19.06-142.9,17.53-158.4l-28.45-109.62-10.09-8.84c-12.13-8.47-32.08-18.62-48.56-24.72-11.2-4.14-22.5-7.84-33.58-11-5.02-1.43-9.98-2.75-14.74-3.92-3.43-.85-7.11-1.7-10.93-2.52h0s-.09-.02-.14-.04c-28.33-6.08-54.63-8.26-78.17-6.48-.06,0-.11,0-.17,0-.31-.01-31.79-1.08-77.88,7.76-19.43,3.73-38.83,8.7-57.65,14.79-35.12,12.2-65.12,28.95-89.14,49.76-29.49,25.55-49.78,57.21-60.31,94.09-1.19,4.97-2.48,10.24-3.82,15.72-10.56,43.17-23.71,96.9-24.87,147.24-1.36,59.24,14.24,98.94,47.71,121.36,22.36,14.97,38.64,20.51,76,13.74.09-.02.18-.02.27-.02Z" style="fill: #223656;"/>
      </g>
      <g style="isolation: isolate; mix-blend-mode: multiply; opacity: .2;">
        <path d="M482.88,985.99h-196.54l99.92-11.62c85.52-9.94,106.03-19,120.23-81.06,4.2-18.34,9.55-41.4,14.17-61.1,6.81,51.46,21.74,135.69-37.78,153.78h0Z" style="fill: #f36792;"/>
      </g>
      <path d="M265.63,201.01c-12.62,0-26-1.23-40.13-3.7-2.99-.52-6.17-1.12-9.43-1.8-.81-.17-1.33-.96-1.16-1.77.17-.81.96-1.34,1.77-1.16,3.23.67,6.37,1.27,9.33,1.78,49.78,8.69,90.05,1.86,119.69-20.31,40.9-30.59,47.01-80.47,47.07-80.97.08-.72.67-1.28,1.39-1.33.72-.04,1.38.43,1.55,1.14.06.25,6.36,25.05,24.03,50.26,16.24,23.16,45.72,51.44,93.94,54.58,2.6.18,19.35-1.22,25.81-5.53.69-.46,1.62-.27,2.08.42.46.69.27,1.62-.42,2.08-7.15,4.77-24.82,6.22-27.67,6.03-49.44-3.22-79.63-32.19-96.26-55.93-12.68-18.1-19.6-36.01-22.59-45.08-3.1,14.69-13.93,51.88-47.11,76.72-21.87,16.37-49.31,24.59-81.9,24.59Z" style="fill: #223656;"/>
      <g>
        <path d="M500.03,497.19s46.71,30.15,71.14,103.03c-7.86-2.87-16.91-3.88-22.67,2.79,0,0-11.66,9.21,5.06,21.64-.61-.15-15.1-3.79-17.86,12.24,0,0-3.6,9.72,9.6,20h.01c.3.24.61.48.93.71,0,0-8.66-.38-9.41,13.18,0,0-4.43,10.54,32.42,32.75l17.73,11.49c-.24,10.78-.91,22.04-2.06,33.78,0,0,.48,1.19,1.48,3.13,6.5,12.65,100.45,5.2,103.15,3.09,0,0,5.11,12.16,1.87,30-2.61,14.33-8.16,34.52-19.7,60.7-7.78,17.65-18.54,33.88-32.17,47.53-22.17,22.2-56.97,43.17-93.91,11.89-10.89-9.22-19.29-21.01-24.9-34.13h0c-3.24-7.58-5.89-15.39-7.93-23.37,0,0-5.84-36.33-1.91-68.84,0-.03.01-.04.01-.05,2.86-23.61,7.7-50.07,15.88-71.11" style="fill: #ff92ba;"/>
        <path d="M584.62,922.49c-13.83,0-27.22-5.42-39.95-16.21-10.75-9.1-19.5-21.09-25.31-34.68-3.26-7.62-5.95-15.56-8-23.59l-.03-.13c-.06-.37-5.82-36.84-1.93-69.17l.04-.29c3.55-29.23,8.92-53.22,15.95-71.33l2.8,1.09c-6.95,17.88-12.26,41.65-15.78,70.66l-.04.28c-3.75,31.24,1.63,66.47,1.91,68.22,2.01,7.86,4.65,15.62,7.84,23.08,5.63,13.17,14.1,24.78,24.49,33.58,35.87,30.37,69.76,10.34,91.88-11.8,13.2-13.22,23.92-29.05,31.86-47.08,9.73-22.07,16.32-42.38,19.6-60.36,2.54-14-.22-24.5-1.35-27.94-11.48,2.5-69.77,6.42-92.95,1.32-5.88-1.29-9.34-3.1-10.58-5.52-1.02-1.98-1.52-3.2-1.54-3.25l-.14-.34.04-.37c1.09-11.13,1.78-22.17,2.03-32.83l-17.03-11.03c-34.81-20.98-33.74-32.12-33.09-34.3.52-8.44,4.17-12.27,7.47-13.69-11.41-9.8-9-18.96-8.58-20.28.94-5.3,3.2-9.16,6.72-11.46,2.64-1.73,5.55-2.28,7.95-2.35-3.84-3.71-5.82-7.51-5.87-11.34-.08-5.36,3.66-8.8,4.4-9.43,4.72-5.38,12.05-6.77,21.33-4.08-24.21-69.45-69.1-99.11-69.56-99.41l1.63-2.52c.47.3,47.43,31.27,71.75,103.81l.99,2.95-2.93-1.07c-9.58-3.5-16.65-2.7-21.02,2.36l-.21.2s-3.46,2.83-3.38,7.17c.07,3.93,2.9,8,8.41,12.09l5.96,4.43-7.21-1.77c-.63-.16-6.21-1.41-10.6,1.46-2.83,1.85-4.65,5.07-5.43,9.58l-.07.27c-.12.34-2.9,8.7,8.71,17.98h0l.42.33c.28.22.57.45.87.66l4.08,2.94-5.02-.22c-.32-.03-7.19-.03-7.85,11.76v.26s-.12.24-.12.24c0,.04-2.76,10.04,31.81,30.88l18.47,11.97-.02.84c-.24,10.87-.93,22.14-2.03,33.51.2.47.63,1.41,1.28,2.68.87,1.7,7.09,7.15,50.65,6.29,25.05-.5,47.99-2.88,50.35-3.77l1.45-1.13.76,1.81c.22.51,5.25,12.78,1.96,30.85-3.32,18.22-9.98,38.76-19.8,61.04-8.09,18.36-19.02,34.51-32.48,47.98-13.91,13.93-28.08,22.81-42.11,26.39-4.67,1.19-9.3,1.79-13.88,1.79Z" style="fill: #223656;"/>
      </g>
      <path d="M588.42,717.74l-19.98-12.95c-34.81-20.98-33.74-32.12-33.09-34.3.46-7.46,3.3-10.97,5.6-12.61.65-.46,1.29-.8,1.9-1.06-11.44-9.8-9.03-18.98-8.6-20.3.94-5.3,3.2-9.16,6.72-11.46,2.65-1.73,5.55-2.28,7.95-2.35-3.84-3.71-5.82-7.51-5.87-11.34-.08-5.36,3.66-8.8,4.4-9.43,5.2-5.93,13.58-7.01,24.24-3.12l.68.25.23.68c4.2,12.51,7.62,25.8,10.17,39.51,2.42,12.94,4.1,26.56,5.01,40.5.75,11.41.98,23.28.7,35.3l-.06,2.68ZM546.14,659.1c-.6,0-7.18.27-7.81,11.76v.26s-.12.24-.12.24c0,.04-2.76,10.04,31.81,30.88l15.51,10.05c.19-11.01-.07-21.88-.75-32.35-.9-13.82-2.57-27.32-4.97-40.14-2.48-13.33-5.79-26.25-9.84-38.42-9.23-3.22-16.08-2.34-20.34,2.6l-.21.2s-3.46,2.83-3.38,7.17c.07,3.93,2.9,8,8.41,12.09l5.96,4.43-7.21-1.77c-.63-.16-6.21-1.41-10.6,1.46-2.83,1.85-4.65,5.07-5.43,9.58l-.07.27c-.12.34-2.9,8.7,8.71,17.98h0l.42.33c.28.22.57.45.87.66l4.1,2.94-5.04-.22s-.02,0-.04,0Z" style="fill: #223656;"/>
      <g>
        <path d="M362.65,792.54s-.06.01-.17.02c-12.7,1.28-34.12-26.68-43.08-52.09-6.06-17.18-5.47-32.63-5.47-32.82,32.04,12.66,48.72,84.89,48.72,84.89h0Z" style="fill: #f36792;"/>
        <path d="M361.64,794.1c-13.88,0-34.98-28.53-43.66-53.13-5.82-16.5-5.6-31.64-5.56-33.31.01-.49.26-.97.67-1.24.41-.27.92-.35,1.38-.17,13.68,5.41,26.2,21.56,37.21,48.01,8.13,19.53,12.38,37.75,12.42,37.94.09.4,0,.83-.22,1.17-.23.34-.6.58-1,.65,0,0-.1.02-.28.03-.32.03-.64.05-.97.05ZM315.43,709.95c.09,5.02.82,17.08,5.39,30.02,8.9,25.24,28.4,49.88,39.93,51.09-2.79-10.96-18.43-68-45.31-81.11Z" style="fill: #223656;"/>
      </g>
      <path d="M553.58,795.19c-.18,0-.37-.03-.55-.11-.77-.3-1.15-1.18-.84-1.95,9.61-24.31,31.48-45.22,31.7-45.43.6-.57,1.55-.55,2.12.06.57.6.54,1.55-.06,2.12-.21.2-21.62,20.67-30.98,44.35-.23.59-.8.95-1.39.95Z" style="fill: #223656;"/>
      <g>
        <path d="M313.93,707.65s9.04,4.09,40.66-50.76,58.73-70.09,104.47-81.54c0,0,55.91-15.85,59.86,4.39,1.98,14.96-55.62,30.21-55.62,30.21,0,0-17.51,7.07-17.22,14.41,0,0,30.89,9.17,33.34,33.11.36,3.48-.02,6.98-.9,10.37-1.23,4.78-3.92,12.92-9.01,18.91,0,0,0,17.79-17.51,25.98,0,0-4.52,34.45-44.05,31.06,0,0-24,35.29-60.71,41.22,0,0-34.45-33.32-33.32-77.36h.01Z" style="fill: #ffc3b3;"/>
        <path d="M347.24,786.51c-.39,0-.76-.15-1.04-.42-.35-.34-34.91-34.29-33.78-78.48.02-.96,1.02-1.68,1.95-1.39.25.04,2.73-.03,8.63-6.07,7.96-8.14,18.15-22.95,30.29-44,32-55.51,59.49-70.75,105.4-82.25,1.63-.46,41.09-11.49,56.05-2.3,3.1,1.9,5,4.55,5.64,7.86.95,7.16-8.21,14.45-27.98,22.39-13.48,5.41-27.36,9.19-28.63,9.53-5.94,2.42-14.97,7.56-16.09,11.93,2.51.86,8.61,3.19,14.96,7.38,10.89,7.17,17.21,16.38,18.26,26.63.36,3.45.04,7.12-.94,10.9-1.15,4.47-3.84,12.83-8.99,19.11-.19,3.17-1.94,18.65-17.64,26.43-.99,5.07-7.77,31.77-40.08,31.78-1.48,0-3-.05-4.58-.17-3.71,5.1-27.21,35.65-61.2,41.14-.08.01-.16.02-.24.02ZM315.4,709.19c-.27,39.17,28.12,69.85,32.36,74.21,35.21-6.12,58.72-40.11,58.95-40.46.3-.45.82-.7,1.37-.65,37.59,3.21,42.25-28.42,42.43-29.76.07-.51.39-.95.85-1.16,16.46-7.7,16.65-24.45,16.65-24.62,0-.36.13-.7.36-.97,4.98-5.86,7.59-13.99,8.7-18.31.89-3.43,1.18-6.75.86-9.84-2.32-22.65-31.98-31.74-32.28-31.83-.62-.18-1.05-.74-1.07-1.38-.32-8.16,16.26-15.1,18.16-15.86.06-.02.12-.04.18-.06,21.78-5.77,55.83-18.62,54.52-28.56-.47-2.4-1.87-4.32-4.25-5.79-13.85-8.51-53.31,2.53-53.71,2.64-45.13,11.3-72.12,26.27-103.58,80.85-21.05,36.52-34.28,50.38-40.49,51.55ZM314.48,706.26s.04.02.06.03c-.02-.01-.04-.02-.06-.03Z" style="fill: #223656;"/>
      </g>
      <path d="M452,714.23c-.06,0-.12,0-.19-.01-.82-.1-1.41-.85-1.3-1.67.02-.17,2.03-17.28-6.45-23.45-12.02-9.41-31.34-12.41-31.53-12.44-.82-.12-1.38-.89-1.26-1.71.12-.82.89-1.39,1.71-1.26.82.12,20.29,3.14,32.89,13.01,9.88,7.18,7.72,25.44,7.62,26.22-.09.76-.74,1.31-1.49,1.31Z" style="fill: #223656;"/>
      <path d="M469.43,688.26c-.77,0-1.43-.59-1.49-1.37-.01-.17-1.57-17.38-10.21-23.66-12.1-9.47-38.78-16.82-39.04-16.9-.8-.22-1.27-1.04-1.05-1.84.22-.8,1.05-1.27,1.84-1.05,1.12.3,27.53,7.58,40.06,17.4,9.71,7.06,11.33,25.04,11.39,25.8.07.83-.54,1.55-1.37,1.62-.04,0-.08,0-.13,0Z" style="fill: #223656;"/>
      <path d="M446.07,625.86c-.19,0-.38-.04-.57-.11-.11-.04-10.83-4.39-21.39-4.98-.83-.05-1.46-.75-1.42-1.58.05-.83.72-1.45,1.58-1.42,11.08.62,21.91,5.01,22.37,5.2.77.31,1.13,1.19.82,1.96-.24.58-.8.93-1.39.93Z" style="fill: #223656;"/>
      <path d="M147.32,776.99c-.2,0-.41-.04-.6-.13-.76-.33-1.1-1.22-.77-1.98,25.59-58.33,32.9-142.79,32.97-143.63.07-.83.78-1.43,1.62-1.37.83.07,1.44.79,1.37,1.62-.07.85-7.42,85.8-33.21,144.59-.25.56-.8.9-1.37.9Z" style="fill: #223656;"/>
      <path d="M127.05,919.78c-.68,0-1.3-.47-1.46-1.16-.19-.81.32-1.61,1.13-1.8,87.4-20.08,146.57-53.04,180.82-77.16,33.86-23.85,50.69-43.97,53.5-47.47.16-.59.67-1.05,1.32-1.11.6-.1,1.24.18,1.56.71.32.53.31,1.19-.06,1.68-.17.22-17.02,22.17-54.45,48.56-34.48,24.31-94.05,57.52-182.01,77.73-.11.03-.23.04-.34.04Z" style="fill: #223656;"/>
      <path d="M121.84,792.53c-.49,0-.97-.24-1.26-.68-.45-.69-.26-1.62.43-2.08,1.05-.69,106.48-69.42,192.67-83.61.82-.12,1.59.42,1.72,1.24.13.82-.42,1.59-1.24,1.72-85.55,14.08-190.46,82.46-191.51,83.15-.25.17-.54.25-.82.25Z" style="fill: #223656;"/>
      <path d="M407.95,745.29c-.26,0-.51-.07-.75-.2-.72-.42-.96-1.33-.54-2.05.1-.17,9.6-16.68,8.29-25.84-.07-.52.13-1.05.54-1.38.41-.33.97-.42,1.46-.24,2.26.84,6.21,1.68,7.51.82.69-.46,1.62-.27,2.08.42.46.69.27,1.62-.42,2.08-2.12,1.41-5.7.81-8.06.18-.04,10.24-8.43,24.8-8.82,25.46-.28.48-.78.75-1.3.75Z" style="fill: #223656;"/>
      <g>
        <path d="M708.61,504.19s0,.01-.01.04l-13.86,42.2-44.89,145.11c-5.24,15.93-19.93,26.85-36.69,27.27l-83.11,2.09-12.63.32s-24.68-3.24-20.73-28.51c3.96-25.28,62.97-203.44,62.97-203.44,0,0,4.92-18.21,27.45-18.21h95.18c7.3,0,14.46,2.57,19.82,7.53,1.16,1.07,2.27,2.28,3.26,3.63h0c3.73,5.07,5.87,12.17,3.24,21.97h0Z" style="fill: #777df5;"/>
        <path d="M517.42,722.72c-.07,0-.13,0-.2-.01-.46-.06-11.47-1.6-17.95-10.25-3.95-5.27-5.32-12-4.07-19.98,3.93-25.11,60.62-196.4,63.03-203.68.03-.11,5.47-19.24,28.87-19.24h95.18c7.91,0,15.31,2.82,20.84,7.93,1.3,1.2,2.46,2.49,3.45,3.84,4.72,6.42,5.89,14.24,3.48,23.25h0c-.01.05-.03.11-.04.15l-13.85,42.17-44.88,145.09c-5.43,16.52-20.73,27.89-38.08,28.33l-95.74,2.41h-.04ZM587.11,472.56c-21.14,0-25.96,16.93-26,17.1-.61,1.86-59.04,178.41-62.94,203.28-1.12,7.14.06,13.1,3.49,17.7,5.39,7.22,14.75,8.9,15.85,9.08l95.61-2.41c16.09-.4,30.27-10.95,35.3-26.24l44.88-145.08,13.85-42.19h0c2.17-8.08,1.16-15.04-3-20.69-.88-1.2-1.91-2.35-3.07-3.42-4.97-4.6-11.65-7.13-18.8-7.13h-95.18ZM708.6,504.23h0,0Z" style="fill: #223656;"/>
      </g>
      <path d="M579.32,500.9l-7.97,24.73c-2.72,7.81,2.26,16.18,10.42,17.51h0c6.61,1.08,13-2.93,14.9-9.35l7.9-26.95c2.36-7.96-2.48-15.11-10.75-15.87h0c-6.6-.61-12.69,3.56-14.51,9.93h0Z" style="fill: #223656;"/>
      <ellipse cx="592.01" cy="506.17" rx="7.62" ry="6.02" transform="translate(-50.21 946.89) rotate(-74.99)" style="fill: #c7eeff;"/>
      <ellipse cx="585.22" cy="527.34" rx="7.62" ry="6.02" transform="translate(-75.69 956.02) rotate(-74.99)" style="fill: #c7eeff;"/>
      <g>
        <path d="M705.36,482.22h0s-7.88-4.81-20.87-4.67l-98.94,1.18s-11.25.31-17.46,12.89l-60.8,199.15c-4.61,18.26,6.58,28.34,10.11,30.44,0,0-24.68-3.24-20.73-28.51,3.96-25.28,62.97-203.44,62.97-203.44,0,0,4.92-18.21,27.45-18.21h95.18c7.3,0,14.46,2.57,19.82,7.53,1.16,1.07,2.27,2.28,3.26,3.63h.01Z" style="fill: #192e58;"/>
        <path d="M517.4,722.71c-.07,0-.13,0-.2-.01-.46-.06-11.47-1.6-17.95-10.25-3.95-5.27-5.32-12-4.07-19.98,3.93-25.11,60.62-196.4,63.03-203.68.03-.11,5.47-19.24,28.87-19.24h95.18c7.91,0,15.31,2.82,20.84,7.93,1.29,1.19,2.45,2.48,3.44,3.82.41.53.42,1.28,0,1.83-.47.61-1.31.77-1.97.37-.17-.1-7.76-4.56-20.07-4.45l-98.94,1.18c-.39.01-10.36.49-16.08,11.95l-60.76,199.03c-4.15,16.46,5.41,26.31,9.44,28.71.61.36.88,1.11.65,1.78-.21.61-.79,1.01-1.42,1.01ZM587.09,472.55c-21.14,0-25.96,16.93-26,17.1-.61,1.86-59.04,178.41-62.94,203.28-1.12,7.14.06,13.1,3.49,17.7,2.8,3.75,6.67,6,9.9,7.33-4.27-4.91-9.15-13.92-5.7-27.56l60.82-199.22c.02-.08.05-.15.09-.23,6.53-13.24,18.27-13.71,18.76-13.73l98.96-1.18c6.03-.06,10.99.9,14.63,1.99-4.7-3.55-10.59-5.49-16.83-5.49h-95.18Z" style="fill: #223656;"/>
      </g>
      <g style="isolation: isolate; mix-blend-mode: multiply; opacity: .2;">
        <path d="M694.74,546.43l-44.89,145.11c-5.24,15.93-19.93,26.85-36.69,27.27l-83.11,2.09c91.18-6.96,141.55-113.41,164.69-174.47h0Z" style="fill: #4551c9;"/>
      </g>
      <path d="M592.4,499.7c-1.88.17-3.63,1.4-4.42,3.12-.24.51-.39,1.13-.14,1.63.27.56.98.81,1.59.68s1.11-.56,1.47-1.07.59-1.09.86-1.65.57-1.12,1.03-1.53c.25-.22.54-.39.86-.49.15-.04.77-.01.68-.3-.06-.2-.71-.31-.88-.35-.35-.07-.7-.07-1.05-.04Z" style="fill: #fff;"/>
      <path d="M585.77,521.86c-1.88.17-3.63,1.4-4.42,3.12-.24.51-.39,1.13-.14,1.63.27.56.98.81,1.59.68s1.11-.56,1.47-1.07.59-1.09.86-1.65.57-1.12,1.03-1.53c.25-.22.54-.39.86-.49.15-.04.77-.01.68-.3-.06-.2-.71-.31-.88-.35-.35-.07-.7-.07-1.05-.04Z" style="fill: #fff;"/>
      <path d="M583.13,497.2c-.35.43-.68.9-.8,1.44s.02,1.17.47,1.5c.44.32,1.06.28,1.55.04s.87-.65,1.24-1.05c1.19-1.29,2.38-2.59,3.57-3.88.45-.49,2.87-2.72.9-2.32-2.49.5-5.49,2.12-6.93,4.28h0Z" style="fill: #fff;"/>
      <g>
        <path d="M710.75,683.2c-5.42,25.32-11.11,44.73-16.43,59.5-5.9,16.4-18.56,29.54-34.77,35.93-45.9,18.1-67.6-15.91-73.15-26.71,2.94-21.92,8.4-31.84,8.4-31.84l-7.82-5.07-17.73-11.49c-36.85-22.21-32.42-32.75-32.42-32.75.75-13.56,9.41-13.18,9.41-13.18-.32-.23-.63-.47-.93-.71h-.01c-13.2-10.28-9.6-20-9.6-20,2.76-16.03,17.25-12.39,17.86-12.24-16.72-12.43-5.06-21.64-5.06-21.64,5.76-6.67,14.81-5.66,22.67-2.79,3.42,1.24,6.62,2.84,9.22,4.31-9.69-8.27-7.79-19.59-7.79-19.59,2.67-11.68,17.31-9.41,17.31-9.41,44.42,5.65,83.57,45.93,83.57,45.93l11.68-44.06c30.87,42.92,25.59,105.8,25.59,105.8h0Z" style="fill: #ffc3b3;"/>
        <path d="M634.38,785.36c-29.7,0-44.77-23.9-49.32-32.76-.14-.27-.19-.58-.15-.88,2.39-17.84,6.41-27.79,7.95-31.11l-24.43-15.83c-34.81-20.98-33.74-32.12-33.09-34.3.55-9.01,4.53-12.38,7.53-13.64-11.48-9.82-9.06-19-8.64-20.33.94-5.3,3.2-9.16,6.73-11.47,2.65-1.73,5.54-2.28,7.94-2.35-3.84-3.71-5.81-7.51-5.87-11.34-.08-5.36,3.66-8.8,4.4-9.43,5.2-5.93,13.58-7.01,24.24-3.12.91.33,1.83.69,2.76,1.09-4.55-7.4-3.39-14.82-3.32-15.21,2.38-10.4,13.49-11.5,19.02-10.64,38.92,4.95,74.19,36.56,82.55,44.54l11.02-41.57c.15-.56.61-.99,1.18-1.09.57-.1,1.15.13,1.49.6,30.6,42.54,26,105.18,25.87,106.78,0,.08-.01.15-.03.22-4.88,22.77-10.42,42.86-16.49,59.69-6.07,16.86-19.05,30.28-35.63,36.82-9.57,3.77-18.12,5.34-25.71,5.34ZM587.95,751.65c5.75,10.98,26.94,42.98,71.05,25.58,15.77-6.22,28.13-18.99,33.91-35.04,6.01-16.69,11.51-36.6,16.35-59.2.19-2.46,4.21-60.88-23.48-102.08l-10.85,40.93c-.14.52-.55.93-1.07,1.07-.52.14-1.08-.02-1.46-.41-.39-.4-39.31-39.97-82.68-45.49-.58-.09-13.33-1.91-15.66,8.26-.05.34-1.59,10.53,7.3,18.12.59.5.7,1.37.26,2s-1.29.83-1.97.45c-3.09-1.75-6.12-3.16-8.99-4.21-9.58-3.5-16.65-2.7-21.02,2.36-.06.07-.13.14-.21.2-.03.02-3.46,2.83-3.38,7.17.07,3.93,2.9,8,8.41,12.09.57.43.77,1.2.46,1.84s-1.02.99-1.72.82c-.63-.16-6.19-1.42-10.59,1.46-2.83,1.85-4.66,5.07-5.43,9.58-.02.09-.04.18-.07.27-.12.35-2.95,8.84,9.02,18.22.04.03.08.05.12.08.28.22.57.45.87.67.54.39.76,1.08.54,1.71-.22.63-.83,1.03-1.48,1.01-.32-.04-7.19-.03-7.85,11.76,0,.17-.05.34-.12.5,0,.04-2.76,10.04,31.81,30.88l25.59,16.59c.66.43.88,1.29.5,1.98-.05.09-5.29,9.86-8.16,30.85ZM710.75,683.2h0,0Z" style="fill: #223656;"/>
      </g>
      <path d="M656.73,657.08c-.41,0-.82-.17-1.12-.5-18.99-21.19-74.2-50.44-74.75-50.73-.73-.39-1.01-1.29-.63-2.03.39-.73,1.29-1.01,2.03-.63.14.07,14.18,7.49,30.4,17.46,21.85,13.43,37.05,24.84,45.19,33.92.55.62.5,1.57-.12,2.12-.29.26-.64.38-1,.38Z" style="fill: #223656;"/>
      <path d="M636.83,678.54c-.35,0-.7-.12-.99-.37-26.11-22.91-82.01-52.18-82.57-52.48-.74-.38-1.02-1.29-.64-2.02.38-.74,1.29-1.02,2.02-.64.57.29,56.79,29.73,83.17,52.88.62.55.68,1.49.14,2.12-.3.34-.71.51-1.13.51Z" style="fill: #223656;"/>
      <path d="M610,699.15c-.35,0-.7-.12-.99-.37-6.54-5.75-14.47-11.7-23.55-17.67-19.05-12.52-37.23-21.2-40.69-22.81l-.1-.05c-.75-.35-1.07-1.25-.72-2,.35-.75,1.25-1.07,2-.72l.09.04c3.49,1.63,21.84,10.38,41.06,23.02,9.2,6.05,17.24,12.08,23.89,17.93.62.55.68,1.5.14,2.12-.3.34-.71.51-1.13.51Z" style="fill: #223656;"/>
      <path d="M545.29,658.39c-.22,0-.45-.05-.66-.16h-.02c-.74-.38-1.04-1.28-.67-2.02.37-.74,1.27-1.04,2.01-.67.74.37,1.05,1.28.68,2.02-.26.53-.79.83-1.34.83Z" style="fill: #223656;"/>
      <path d="M693.9,644.33c-.4,0-.79-.16-1.08-.46l-20.42-21.37c-.57-.6-.55-1.55.05-2.12.6-.57,1.55-.55,2.12.05l20.42,21.37c.57.6.55,1.55-.05,2.12-.29.28-.66.42-1.04.42Z" style="fill: #223656;"/>
      <g>
        <path d="M421.31,463.85c-4.62,17.41-23.4,64.61-91.73,67.36-83.88,3.39-105.43-69.58-105.43-69.58,5.39-1.3,12.09-2.53,16.08-4.96,21.1-12.81,23.17-38,22.56-51.65-.24-5.65-.95-9.33-.95-9.33l129.23,35.1,1.18,7.03.32,1.94.68,4.05.44,2.59c.08.44.17.88.27,1.32,1.52,6,6.26,10.72,12.36,12.16.06.01.13.03.2.04,5.05,1.24,9.98,2.56,14.79,3.93h0Z" style="fill: #ffc3b3;"/>
        <path d="M324.05,532.82c-40.61,0-65.7-18.35-79.76-34.13-15.91-17.86-21.35-35.88-21.58-36.63-.12-.39-.07-.82.14-1.17.21-.36.55-.61.95-.71.92-.22,1.87-.44,2.84-.66,4.55-1.04,9.7-2.23,12.81-4.12,20.41-12.39,22.44-36.83,21.84-50.3-.23-5.46-.92-9.08-.92-9.11-.1-.51.07-1.03.45-1.38s.91-.48,1.41-.35l129.23,35.1c.56.15.99.62,1.09,1.2l2.62,15.61c.07.4.16.82.25,1.24,1.39,5.48,5.69,9.71,11.22,11.03.04,0,.07.02.09.02.05,0,.1.02.14.03,4.79,1.18,9.79,2.5,14.84,3.94.79.22,1.25,1.04,1.04,1.83-2.28,8.59-8.21,25.18-22.34,39.83-17.18,17.81-40.99,27.44-70.78,28.64-1.9.08-3.76.11-5.59.11ZM226.09,462.71c1.66,4.7,7.61,19.62,20.52,34.07,14.26,15.97,40.22,34.66,82.91,32.92,28.99-1.17,52.12-10.49,68.74-27.72,12.92-13.39,18.75-28.47,21.21-37.1-4.51-1.27-8.97-2.44-13.26-3.5-.04,0-.09-.02-.13-.03,0,0-.1-.02-.1-.02-6.63-1.57-11.79-6.64-13.47-13.25-.11-.5-.21-.96-.29-1.42l-2.46-14.68-126.08-34.24c.22,1.67.48,4.15.61,7.21.63,14.13-1.55,39.81-23.28,53-3.52,2.14-8.93,3.39-13.69,4.48-.41.09-.82.19-1.22.28Z" style="fill: #223656;"/>
      </g>
      <g>
        <path d="M517.09,263.5c0,74.76-41.65,148.63-107.33,171.57-13.43,4.69-27.87,7.25-43.17,7.25-39.44,0-75.6-14-103.8-37.3-8.62-7.13-16.5-15.12-23.49-23.86-15.93-19.86-27.3-43.54-32.53-69.44-5.21,1.93-10.86,2.98-16.74,2.98-26.67,0-48.28-21.62-48.28-48.28s21.61-48.29,48.28-48.29c8.37,0,16.24,2.13,23.11,5.88,3.26-9.04,7.51-18.54,12.62-28.18,153.85,26.87,168.51-102.59,168.51-102.59,0,0,24.76,99.81,119.33,105.97.97,5.72,1.75,11.64,2.35,17.75h0c1.42,14.43,1.82,29.94,1.14,46.54h0Z" style="fill: #ffc3b3;"/>
        <path d="M366.59,443.82c-38.17,0-75.38-13.37-104.76-37.64-8.72-7.21-16.69-15.31-23.71-24.08-15.97-19.91-27.18-43.52-32.48-68.4-5.01,1.66-10.26,2.5-15.62,2.5-27.45,0-49.78-22.33-49.78-49.78s22.33-49.79,49.78-49.79c7.74,0,15.41,1.81,22.29,5.26,3.21-8.65,7.28-17.64,12.12-26.76.3-.57.94-.89,1.58-.77,49.77,8.69,90.05,1.86,119.69-20.31,40.9-30.59,47.01-80.47,47.07-80.97.08-.72.67-1.28,1.39-1.33.72-.04,1.38.43,1.55,1.14.06.25,6.36,25.05,24.03,50.26,16.24,23.16,45.72,51.44,93.94,54.58.69.05,1.26.56,1.38,1.25.96,5.66,1.76,11.67,2.37,17.85,1.43,14.56,1.82,30.28,1.15,46.72,0,37.27-10.39,74.9-29.25,105.97-19.84,32.69-47.19,55.85-79.08,66.99-13.93,4.87-28.62,7.33-43.66,7.33ZM206.77,310.22c.25,0,.5.06.73.19.38.21.65.58.74,1.01,5.05,25.02,16.2,48.81,32.23,68.8,6.89,8.61,14.72,16.56,23.28,23.64,28.84,23.83,65.37,36.96,102.84,36.96,14.7,0,29.06-2.41,42.68-7.17,31.23-10.91,58.03-33.63,77.51-65.71,18.58-30.62,28.82-67.71,28.82-104.44,0-.02,0-.04,0-.06.67-16.31.29-31.9-1.13-46.33-.56-5.69-1.28-11.23-2.14-16.48-48.74-3.6-78.58-32.3-95.07-55.85-12.68-18.1-19.6-36.01-22.59-45.08-3.1,14.69-13.93,51.88-47.11,76.72-30.12,22.55-70.81,29.64-120.96,21.08-4.84,9.23-8.89,18.32-12.03,27.03-.15.41-.47.74-.88.89-.41.15-.87.12-1.25-.09-6.83-3.73-14.57-5.7-22.39-5.7-25.79,0-46.78,20.99-46.78,46.79s20.99,46.78,46.78,46.78c5.59,0,11.05-.97,16.22-2.89.17-.06.35-.09.52-.09Z" style="fill: #223656;"/>
      </g>
      <path d="M184.18,485.99c-38.84,21.39-60.46,42.29-87.47,76.58-3.75,4.9-7.45,9.84-11.61,14.61-1.7,1.95-4.96.08-4.08-2.38,7.91-22.71,21.78-43.16,39.43-59.37,17.64-16.22,39.19-28.31,62.49-34.29,3.2-.61,4.32,3.61,1.24,4.84h0Z" style="fill: #fff;"/>
      <g style="isolation: isolate; mix-blend-mode: multiply; opacity: .2;">
        <path d="M691.42,785.03c-2.61,14.33-8.16,34.52-19.7,60.7-7.78,17.65-18.54,33.88-32.17,47.53-22.17,22.2-56.97,43.17-93.91,11.89-10.89-9.22-19.29-21.01-24.9-34.13l-4.87-11.38c84.58,91.13,175.54-74.63,175.54-74.63,0,0,0,.01.01.02Z" style="fill: #f36792;"/>
      </g>
      <path d="M166.99,713.76s-21.06,56.23-44.33,75.96l20.77-11.89c2.82-1.61,4.87-4.3,5.64-7.45,3.78-15.39,16.2-35.4,17.93-56.62h0Z" style="fill: #223656;"/>
      <g style="isolation: isolate; mix-blend-mode: multiply; opacity: .2;">
        <path d="M393.25,443.81c-7.86,2.79-19.36,5.26-35.76,6.37-63.25,2.64-94.7-45.16-94.7-45.16,28.2,23.3,64.36,37.3,103.8,37.3,5.33,0,16.08-2.29,25.66-4.5l.32,1.94.68,4.05h0Z" style="fill: #ea6d54;"/>
      </g>
      <g style="isolation: isolate; mix-blend-mode: multiply; opacity: .2;">
        <path d="M517.09,263.5c0,74.76-41.65,148.63-107.33,171.57-13.43,4.69-27.87,7.25-43.17,7.25-39.44,0-75.6-14-103.8-37.3-8.62-7.13-16.5-15.12-23.49-23.86,218.35,123.67,276.24-162.18,276.65-164.19,1.42,14.42,1.82,29.93,1.14,46.53h0Z" style="fill: #ea6d54;"/>
      </g>
    </g>
  </g>
</svg>