<?xml version="1.0" encoding="UTF-8"?><svg xmlns="http://www.w3.org/2000/svg" width="2926.65" height="2318.25" viewBox="0 0 2926.65 2318.25"><g style="isolation:isolate;"><g id="Layer_1"><path d="M2009.34,1959.41c-225.75,300.15-422.71,370.73-1098.55,252.08h0c-103.84-56.02-197.27-779.97-179.1-831.82,40.16-114.58,82.98-461.61,538.19-492.86l423.72,73.56c104.25,26.62,200.44,88.26,271.6,174.11,71.16,85.8,116.96,195.36,129.32,309.37,0,0,35.89,354.59-85.17,515.56Z" style="fill:#ff6a07; stroke:#223656; stroke-miterlimit:10; stroke-width:3px;"/><path d="M1365.26,1115.18c-33.57-20.8-59.71-49.6-79.94-102.74-8.59-22.58-16.28-101.49-15.45-125.63l10.17-239.09h264.26v382.01c0,92.43-93.26,138.6-179.04,85.44Z" style="fill:#ffbfaf; stroke:#223656; stroke-linecap:round; stroke-linejoin:round; stroke-width:3px;"/><path d="M1257.04,591.94c.82-235.98,163.55-426.72,363.43-426.05,199.87.72,410.08,163.52,409.25,399.5-.83,236.03-127.14,471.13-412.26,455.13-67.49-3.82-130.68-27.07-184.69-65.34-.05,0-.04-.05-.04-.05-6.36-4.46-12.55-9.15-18.62-14.06" style="fill:#ffbfaf; stroke:#223656; stroke-linecap:round; stroke-linejoin:round; stroke-width:3px;"/><path d="M1997.43,520.56c-179.8,55.01-358.06-33.68-490.45-155.87-9.74-8.99-25.38-4.37-28.71,8.46-33.46,128.78-134.45,238.83-260.86,281.25-6.48-68.4-15.11-147.45-16.02-226.08v-.1c-1.14-101.91,10.75-203.02,57.2-279.03,81.83-116.37,202.09-165.47,362.44-144.46,147.6,17.47,474.19,66.81,502.27,326.31,11.67,107.89-27.36,159.34-125.86,189.51Z" style="fill:#223656;"/><path d="M1546.84,1967.23c-8.32,90.71,52.76,206.39-203.4,158.51-62.75,14.34-395.55,83.17-548.32-40.3-61.66-49.83-92.75-100.94-95.48-246.54-4.6-245.62,55.42-301.37,59.07-315.18l294.67,52.03c-.23,13.74-55.86,277.4-7.27,323.73,58.5,55.83,420.05,72.95,500.74,67.75Z" style="fill:#ffbfaf; stroke:#223656; stroke-linecap:round; stroke-linejoin:round; stroke-width:3px;"/><rect x="1" y="2237.76" width="2924.65" height="79.49" rx="39.74" ry="39.74" style="fill:#777df5; stroke:#223656; stroke-linecap:round; stroke-linejoin:round; stroke-width:3px;"/><path d="M1387.36,540.95c-13.96-34.32-70.98-78.92-108.02-78.16-37.04.76-72.14,22.78-92.05,54.02-19.92,31.25-25.3,70.6-18.18,106.96,6.94,35.46,26.2,69.34,56.32,89.3,30.12,19.96,71.46,24.01,102.75,5.94" style="fill:#ffbfaf; stroke:#223656; stroke-linecap:round; stroke-linejoin:round; stroke-width:3px;"/><path d="M1442.74,2237.8h-643.7v-41.98c0-10.67,8.66-19.34,19.34-19.34h624.36v61.32h0Z" style="fill:#27b292; stroke:#223656; stroke-miterlimit:10; stroke-width:3px;"/><path d="M2635.12,1497.89s0,.07-.07.14c-32.51,243.49-104.54,490.15-213.24,739.77h-996.33l4.65-67.24c31.56-213.83,109.01-430.06,201.08-659.01,14.62-33.71,36.6-52.16,73.02-55.16,296.96-22.33,597.09-20.25,899.61,0,25.61,2.25,32.86,23.46,31.28,41.53v-.04Z" style="fill:#9ecfd4; stroke:#223656; stroke-linecap:round; stroke-linejoin:round; stroke-width:3px;"/><circle cx="2048.18" cy="1861.03" r="65.13" style="fill:#223656;"/><path d="M2635.05,1498c-32.51,243.49-104.54,490.15-213.24,739.77h-810.92c799.12-24.94,1020.71-728.57,1024.19-739.77h-.04Z" style="fill:#9ecfd4; isolation:isolate; mix-blend-mode:multiply; opacity:.4;"/><path d="M1674.05,1495.67c-16.27,14.02-23.28,35.64-29.83,56.11-12.19,37.9,20.53,41.39,28.6,33.57,8.07-7.78,16.94-24.48,20.85-34.98,14.93-39.94,62.55-36.95,70.87-37.44,20.75-1.2,33-16.13,13.7-27.05-38.11-21.56-91.79-.92-104.19,9.76v.04Z" style="fill:#fff;"/><path d="M1632.42,1603.59c-6.76,3.13-11.2,10.04-12.86,17.29-1.06,4.68-1.06,9.83,1.3,13.98,3.38,5.99,11.24,8.63,17.89,6.97,6.66-1.66,12.05-6.97,14.93-13.21,2.64-5.74,5.14-16.41.07-21.63-5.07-5.21-15.29-6.23-21.38-3.42h.04Z" style="fill:#fff;"/><path d="M778.59,1233s-148.85,408.11-85.81,507.04c63.03,98.92,362.54,52.46,395.57,13.64,27.51-32.34,68.07-177.23,56.87-284.43" style="fill:#ff6a07; stroke:#223656; stroke-linecap:round; stroke-linejoin:round; stroke-width:3px;"/><path d="M1838.6,1440.42c6.12-65.18-12.47-133.16-26.37-152.07" style="fill:none; stroke:#223656; stroke-linecap:round; stroke-linejoin:round; stroke-width:3px;"/><path d="M1617.47,1020.52c-67.49-3.82-130.68-27.07-184.69-65.34-.05,0-.04-.05-.04-.05,440.05,171.17,596.99-389.74,596.99-389.74-.83,236.03-127.14,471.13-412.26,455.13Z" style="fill:#f28670; mix-blend-mode:multiply; opacity:.25;"/><path d="M2123.29,331.04c-53.95-215.05-406.9-301.73-652.97-271.09-236.58,29.45-268.46,361.42-268.94,368.27-1.15-101.91,10.74-203.02,57.19-279.03,81.83-116.37,202.09-165.47,362.44-144.46,147.6,17.47,474.19,66.81,502.27,326.31Z" style="fill:#fff; opacity:.2;"/><path d="M1141.61,1474.68c-21.57,98.37-104.89,199.16-229.43,235.46-63.14,18.4-148.1,18.98-213.66,24.15,0,0,10.95,63.15,167.13,67.92,156.18,4.77,222.7-48.53,222.7-48.53,0,0,76.19-157.76,53.26-279Z" style="fill:#ed5500; isolation:isolate; mix-blend-mode:multiply; opacity:.4;"/><path d="M1459.05,599.36c15.72,17.33,40.31,9.31,46.53,4.06,13.37-11.29,14.57-33.58,11.79-49.99-2.33-13.76-20.46-36.19-9.58-85.74,1.15-5.22-5.79-6.7-8.98-2.41-29.54,39.74-61.96,109.62-39.77,134.08Z" style="fill:#51b5f2; stroke:#223656; stroke-miterlimit:10; stroke-width:3px;"/><path d="M1465.2,580.68c.96,7.43,6.1,14.69,13.36,16.82,5.63,1.93,12.81-.57,13.07-7.03.95-13.97-27.84-34.58-26.53-10.64l.1.85Z" style="fill:#fff;"/><path d="M958.4,177.75c-32.19,8.48-38.21,44.78-35.66,56.06,5.48,24.28,32.82,40.43,55.36,47.69,18.9,6.09,59.1-2.08,114.51,44.17,5.83,4.87,12.25-2.91,8.93-9.75-30.78-63.36-97.71-150.13-143.14-138.17Z" style="fill:#51b5f2; stroke:#223656; stroke-miterlimit:10; stroke-width:3px;"/><path d="M941.23,232.86c-.96,7.81,2.38,16.52,9.21,20.58,5.22,3.43,13.17,2.75,15.12-3.74,4.6-13.96-19.31-42.4-24.21-17.72l-.12.89Z" style="fill:#fff;"/><path d="M2328.78,314.83c27.45,11.18,28.59,43.93,25.04,53.6-7.63,20.81-33.63,31.92-54.36,35.74-17.39,3.2-51.94-8.63-106.18,25.84-5.71,3.63-10.48-3.98-6.76-9.63,34.46-52.41,103.53-121.33,142.27-105.54Z" style="fill:#51b5f2; stroke:#223656; stroke-miterlimit:10; stroke-width:3px;"/><path d="M2337.59,365.46c-.05,7-4,14.31-10.5,17.11-5,2.43-11.95.92-12.92-5.04-2.46-12.85,21.93-35.21,23.41-12.86v.8Z" style="fill:#fff;"/><path d="M1560.71,919.52c65.9-23.53,142.54-14.6,201.26,23.46" style="fill:none; stroke:#223656; stroke-linecap:round; stroke-linejoin:round; stroke-width:3px;"/></g></g></svg>