<svg id="Layer_1" data-name="Layer 1" xmlns="http://www.w3.org/2000/svg" viewBox="0 0 1136.62 253.74"><defs><style>.cls-1{fill:red;}.cls-2{fill:#fff;}.cls-3{fill:#282828;}</style></defs><path class="cls-1" d="M387,512.55a45.46,45.46,0,0,0-32.06-32.06c-28.26-7.55-141.63-7.55-141.63-7.55s-113.32,0-141.63,7.55A45.46,45.46,0,0,0,39.6,512.55C32,540.81,32,599.8,32,599.8s0,59,7.56,87.25a45.47,45.47,0,0,0,32.06,32.07c28.31,7.55,141.63,7.55,141.63,7.55s113.37,0,141.63-7.55A45.49,45.49,0,0,0,387,687.05c7.56-28.25,7.56-87.25,7.56-87.25S394.54,540.81,387,512.55Z" transform="translate(-32.04 -472.94)"/><polygon class="cls-2" points="145.03 181.25 239.2 126.87 145.03 72.49 145.03 181.25"/><g id="youtube-paths"><path class="cls-3" d="M558.2,703.78c-7.15-4.85-12.29-12.34-15.28-22.55s-4.56-23.76-4.56-40.71V617.45q0-25.69,5.19-41.23t16.2-22.67c7.33-4.72,17-7.15,28.9-7.15q17.64,0,28.25,7.27t15.57,22.66c3.29,10.27,4.9,24,4.9,41.06v23.07q0,25.42-4.78,40.83c-3.17,10.26-8.36,17.82-15.57,22.54S600.12,711,587.84,711C575.27,711,565.35,708.62,558.2,703.78Zm40.19-24.92c2-5.19,3-13.66,3-25.37V604c0-11.41-1-19.72-3-25s-5.48-7.9-10.49-7.9c-4.85,0-8.25,2.65-10.27,7.9s-3,13.61-3,25v49.54q0,17.65,2.83,25.37t10.38,7.79C592.91,686.65,596.37,684.05,598.39,678.86Z" transform="translate(-32.04 -472.94)"/><path class="cls-3" d="M1108.75,640.92v8a203.34,203.34,0,0,0,.92,22.95c.58,5.07,1.84,8.82,3.75,11.13s4.84,3.51,8.82,3.51c5.36,0,9-2.07,11-6.22s3.06-11.08,3.23-20.76l30.86,1.78a50.63,50.63,0,0,1,.23,5.71c0,14.71-4,25.66-12.06,32.93s-19.37,10.9-34.08,10.9q-26.46,0-37.08-16.61c-7.09-11.07-10.61-28.14-10.61-51.32V615.2c0-23.87,3.69-41.23,11-52.25s19.89-16.43,37.71-16.43c12.28,0,21.68,2.25,28.26,6.75s11.18,11.47,13.9,21,4,22.66,4,39.38v27.22h-59.91ZM1113.3,574c-1.79,2.24-3,5.94-3.63,11a205.75,205.75,0,0,0-.92,23.18v11.42h26.18V608.22a192.17,192.17,0,0,0-1-23.18c-.69-5.25-2-9-3.75-11.13s-4.61-3.23-8.42-3.23S1115.09,571.78,1113.3,574Z" transform="translate(-32.04 -472.94)"/><path class="cls-3" d="M471.12,637.92l-40.71-147h35.52l14.24,66.6c3.64,16.44,6.29,30.39,8,42h1q1.81-12.45,8-41.75L512,490.87h35.52l-41.18,147v70.53H471.12Z" transform="translate(-32.04 -472.94)"/><path class="cls-3" d="M752.88,549.52V708.39h-28L721.8,689h-.75q-11.41,22-34.2,22Q671,711,663.5,700.61c-5-6.93-7.5-17.71-7.5-32.41V549.52h35.75V666.18c0,7.09.75,12.17,2.31,15.16a8.14,8.14,0,0,0,7.79,4.56,15.68,15.68,0,0,0,8.93-2.83,17.86,17.86,0,0,0,6.35-7.26V549.52Z" transform="translate(-32.04 -472.94)"/><path class="cls-3" d="M936.38,549.52V708.39h-28L905.3,689h-.75q-11.43,22-34.2,22-15.83,0-23.36-10.38c-5-6.93-7.49-17.71-7.49-32.41V549.52h35.75V666.18c0,7.09.75,12.17,2.31,15.16a8.14,8.14,0,0,0,7.78,4.56,15.68,15.68,0,0,0,8.94-2.83,17.86,17.86,0,0,0,6.35-7.26V549.52Z" transform="translate(-32.04 -472.94)"/><path class="cls-3" d="M850.11,519.7H814.59V708.39h-35V519.7H744.06V490.93h106V519.7Z" transform="translate(-32.04 -472.94)"/><path class="cls-3" d="M1054.77,575c-2.19-10-5.65-17.3-10.5-21.8s-11.47-6.75-20-6.75a32.79,32.79,0,0,0-18.39,5.6,37.57,37.57,0,0,0-13.21,14.64h-.29V482.91H958V708.45h29.52l3.63-15.05h.75a30.31,30.31,0,0,0,12.46,12.68,36.78,36.78,0,0,0,18.4,4.67q18.16,0,26.7-16.72t8.53-52.25V616.64C1058,598.88,1056.9,585,1054.77,575ZM1022,639.77c0,11.59-.46,20.64-1.44,27.22s-2.54,11.24-4.79,14a11,11,0,0,1-9.06,4.15,16.67,16.67,0,0,1-8.18-2.08,15.92,15.92,0,0,1-6.12-6.22V586.6A22.48,22.48,0,0,1,998.6,576a13.7,13.7,0,0,1,9.57-4.16,9.68,9.68,0,0,1,8.42,4.27c2,2.83,3.35,7.67,4.16,14.36a277,277,0,0,1,1.15,28.78v20.53Z" transform="translate(-32.04 -472.94)"/></g></svg>